<svg xmlns="http://www.w3.org/2000/svg" version="1.1" xmlns:xlink="http://www.w3.org/1999/xlink" width="512" height="512" x="0" y="0" viewBox="0 0 75 75" style="enable-background:new 0 0 512 512" xml:space="preserve"><g><path d="M67.183 19.426c-2.397 0-3.887 2.611-2.586 4.632-.264.132.13-.159-4.439 4.286-7.915.023-7.285-.043-7.567.043V16.11c0-.199-.079-.39-.22-.53l-3.418-3.419a.75.75 0 0 0-.53-.22h-2.198V6.662a.75.75 0 0 0-1.5 0v5.28h-7.288V9.05a.75.75 0 0 0-1.5 0v2.891h-6.891V6.662a.75.75 0 0 0-1.5 0v5.28h-2.104a.75.75 0 0 0-.53.22l-3.419 3.418a.75.75 0 0 0-.22.53v6.17H17.39a.75.75 0 0 0 0 1.5h3.884v4.564H13.96a.749.749 0 0 0-.525.215L9.525 32.39c-2.06-.95-4.358.552-4.358 2.731 0 1.666 1.376 3.022 3.067 3.022S11.3 36.787 11.3 35.12c0-.668-.229-1.28-.603-1.781l3.567-3.496h7.008v8.658c0 .2.08.39.22.53l3.42 3.42c.14.14.33.219.53.219h1.46a.75.75 0 0 0 0-1.5h-1.15l-2.98-2.98v-21.77l2.98-2.98h22.359l2.98 2.98v21.77l-2.98 2.98h-1.08a.75.75 0 0 0 0 1.5h1.39a.75.75 0 0 0 .53-.22l3.42-3.419a.75.75 0 0 0 .22-.53v-2.668c.295.077-.4.013 4.38.037a.75.75 0 0 0 0-1.5c-4.667.023-4.085-.04-4.38.037V29.8c.28.086-.386.02 7.872.044a.749.749 0 0 0 .525-.215c4.655-4.593 4.5-4.341 4.619-4.603 2.064 1.228 4.642-.251 4.642-2.579 0-1.666-1.376-3.021-3.067-3.021zM8.233 36.643c-.863 0-1.566-.683-1.566-1.522S7.37 33.6 8.234 33.6 9.8 34.282 9.8 35.12s-.703 1.522-1.567 1.522zm58.95-12.674c-.864 0-1.567-.683-1.567-1.522s.703-1.521 1.567-1.521 1.567.682 1.567 1.521-.703 1.522-1.567 1.522z" fill="#154194" opacity="1" data-original="#000000"></path><path d="M44.052 46.139c.809-.113 1.205-.567 1.211-1.391v-1.28c-.004-.88-.442-1.362-1.3-1.433-.395-.033-.63-.21-.787-.59-.158-.387-.104-.7.186-1.052.133-.163.226-.356.324-.532a.749.749 0 0 0-.015-.778c-.27-.463-.222-.432-1.278-1.492-.596-.606-1.254-.631-1.903-.072-.318.271-.61.322-.977.165-.238-.103-.517-.296-.568-.888-.087-1.022-.77-1.253-1.327-1.268a25.74 25.74 0 0 0-1.346 0c-.809.02-1.301.5-1.352 1.315-.027.435-.203.697-.57.848-.36.147-.643.099-.947-.165-.451-.397-1.154-.705-1.935.085-1.056 1.068-1.836 1.645-.91 2.827.213.271.272.54.192.873-.102.428-.377.671-.816.72-.89.097-1.324.58-1.33 1.477-.003.453-.008.886.002 1.294.033 1.385 1.33 1.292 1.663 1.452.564.275.664 1.013.268 1.521-.541.695-.51 1.313.098 1.945l.9.927c.347.36.705.436.945.436h.003c.232 0 .574-.07.895-.396.582-.59 1.558-.108 1.55.66-.011.734.504 1.307 1.3 1.307l1.427-.002c.739-.002 1.244-.48 1.29-1.22.036-.617.316-.817.583-.932.257-.11.576-.169.996.202.351.309 1.057.712 1.85-.076.3-.3.594-.605.887-.912.61-.64.634-1.24.075-1.946-.263-.332-.261-.58-.23-.76.093-.543.358-.787.946-.87zm-2.425.615c-.118.684.066 1.355.531 1.942-.238.25-.477.498-.762.78-.741-.59-1.608-.717-2.457-.355-.84.36-1.358 1.072-1.475 2.031l-1.044.001c-.147-1.906-2.44-2.939-3.936-1.68l-.758-.783c.995-1.285.593-3.111-.801-3.785-.284-.138-.578-.193-.821-.235-.007-.375-.003-.75 0-1.149 2.041-.23 2.78-2.546 1.636-4.008l-.012-.015c.256-.266.475-.496.758-.783.72.587 1.581.718 2.437.362.851-.35 1.373-1.05 1.49-2.052.334-.005.672-.007 1.048.003.238 2.04 2.449 2.885 3.935 1.687.256.259.513.516.76.785-.602.765-.73 1.632-.368 2.514.36.873 1.059 1.407 1.975 1.508v1.143c-1.18.193-1.937.933-2.136 2.089z" fill="#154194" opacity="1" data-original="#000000"></path><path d="M34.277 41.291c-2.427 2.44-.771 6.723 2.656 6.723h.013c2.094-.004 3.818-1.756 3.809-3.927-.013-3.415-4.068-5.215-6.478-2.796zm2.665 5.223h-.008c-2.047 0-3.11-2.642-1.594-4.164 1.466-1.473 3.906-.353 3.915 1.743.005 1.369-1.077 2.419-2.313 2.42zM59.022 48.247h-12.53a.75.75 0 0 0 0 1.5h12.53c.11 0 .2.09.2.201v4.94a4.25 4.25 0 0 0-3.5 4.174c0 2.343 1.907 4.25 4.25 4.25s4.25-1.907 4.25-4.25a4.25 4.25 0 0 0-3.5-4.175v-4.939c0-.938-.762-1.7-1.7-1.7zm3.7 10.815c0 1.516-1.233 2.75-2.75 2.75s-2.75-1.234-2.75-2.75 1.234-2.75 2.75-2.75 2.75 1.233 2.75 2.75zM13.142 49.948v4.864h-2.591a.75.75 0 0 0-.75.75v7c0 .414.336.75.75.75h7a.75.75 0 0 0 .75-.75v-7a.75.75 0 0 0-.75-.75h-2.909v-4.864a.2.2 0 0 1 .2-.2h13.12a.75.75 0 0 0 0-1.5h-13.12c-.937 0-1.7.762-1.7 1.7zm3.659 6.364v5.5h-5.5v-5.5zM32.568 28.985h4.611l.67 1.553c.255.592.534.737.952.737.665 0 .893-.523.618-1.098l-3.555-7.832c-.195-.436-.497-.724-.979-.724-.491 0-.79.275-.992.724-3.586 8.051-3.709 7.932-3.635 8.387.05.307.294.543.751.543.83 0 .837-.742 1.559-2.29zm2.29-5.395h.027l1.71 4.03H33.16zM42.61 30.39v-7.885c0-.577-.31-.884-.858-.884s-.858.307-.858.884v7.886c0 .543.292.884.858.884.576 0 .859-.336.859-.884zM7.817 11.594a3.058 3.058 0 0 0 2.977-2.326h3.699v6.073c0 .414.336.75.75.75h3.452a.75.75 0 0 0 0-1.5h-2.702V8.518a.75.75 0 0 0-.75-.75H10.76A3.056 3.056 0 0 0 7.817 5.55c-1.691 0-3.067 1.355-3.067 3.021s1.376 3.022 3.067 3.022zm0-4.543c.864 0 1.567.682 1.567 1.521s-.703 1.522-1.567 1.522S6.25 9.41 6.25 8.572s.703-1.521 1.567-1.521zM65.268 11.594c1.691 0 3.067-1.356 3.067-3.022s-1.376-3.021-3.067-3.021a3.055 3.055 0 0 0-2.942 2.217h-4.484a.75.75 0 0 0-.75.75v6.073h-2.701a.75.75 0 0 0 0 1.5h3.451a.75.75 0 0 0 .75-.75V9.268h3.7a3.058 3.058 0 0 0 2.976 2.326zm0-4.543c.864 0 1.567.682 1.567 1.521s-.703 1.522-1.567 1.522-1.567-.683-1.567-1.522.703-1.521 1.567-1.521zM55.082 22.28a.75.75 0 0 0 0 1.5h3.044a.75.75 0 0 0 0-1.5zM19.28 35.871a.75.75 0 0 0 0-1.5h-3.045a.75.75 0 0 0 0 1.5zM41.656 64.414l-2.257-3.91a.749.749 0 0 0-.65-.375h-1.507v-5.227a.75.75 0 0 0-1.5 0v5.227h-1.508a.749.749 0 0 0-.649.375l-2.257 3.91a.749.749 0 0 0 0 .75l2.257 3.91a.749.749 0 0 0 .65.375h4.515a.749.749 0 0 0 .649-.375l2.257-3.91a.749.749 0 0 0 0-.75zm-3.34 3.535h-3.649l-1.824-3.16 1.824-3.16h3.65l1.824 3.16z" fill="#154194" opacity="1" data-original="#000000"></path><path d="M47.841 36.292a.75.75 0 0 0 .75-.75V17.768c0-.2-.079-.39-.22-.53l-1.075-1.077a.75.75 0 0 0-.53-.22H27.099a.75.75 0 0 0-.53.22l-1.076 1.076a.75.75 0 0 0-.22.53v17.775a.75.75 0 0 0 1.5 0V18.078l.637-.637h19.045l.636.637v17.464c0 .414.336.75.75.75z" fill="#154194" opacity="1" data-original="#000000"></path></g></svg>