<svg xmlns="http://www.w3.org/2000/svg" version="1.1" xmlns:xlink="http://www.w3.org/1999/xlink" width="512" height="512" x="0" y="0" viewBox="0 0 512 512" style="enable-background:new 0 0 512 512" xml:space="preserve"><g><path d="M251.742 266.517c-25.492 0-49.555 3.023-67.757 8.511-26.619 8.026-32.207 18.847-32.207 26.511v175.436c0 7.664 5.588 18.483 32.207 26.511 18.2 5.488 42.265 8.511 67.757 8.511s49.569-3.023 67.767-8.511c26.611-8.027 32.2-18.847 32.2-26.511V301.539c-.004-24.063-51.822-35.022-99.967-35.022zm85.989 151.3c0 1.785-4 7.624-22.257 13.131-16.925 5.1-39.559 7.916-63.732 7.916s-46.793-2.812-63.722-7.916c-18.267-5.508-22.267-11.346-22.267-13.131v-40.2a85.163 85.163 0 0 0 18.232 7.551c18.2 5.489 42.265 8.511 67.757 8.511 32.816 0 67.332-5.093 85.989-15.955zm0-59.159c0 1.785-4 7.625-22.257 13.132-16.925 5.1-39.559 7.915-63.732 7.915s-46.794-2.812-63.722-7.916c-18.267-5.508-22.267-11.346-22.267-13.131V320.5a85.163 85.163 0 0 0 18.232 7.551c18.2 5.489 42.265 8.511 67.757 8.511s49.57-3.022 67.767-8.511a85.153 85.153 0 0 0 18.222-7.548zm-149.711-70.25c16.928-5.105 39.559-7.916 63.722-7.916s46.807 2.811 63.732 7.915c18.258 5.507 22.257 11.346 22.257 13.132s-4 7.625-22.257 13.131c-16.925 5.1-39.559 7.916-63.732 7.916s-46.793-2.811-63.722-7.916c-18.267-5.507-22.267-11.346-22.267-13.131s4-7.623 22.267-13.131zm127.454 201.7c-16.925 5.1-39.559 7.916-63.732 7.916s-46.793-2.812-63.722-7.916c-18.267-5.508-22.267-11.346-22.267-13.131v-40.2a85.108 85.108 0 0 0 18.232 7.552c18.2 5.488 42.265 8.51 67.757 8.51s49.569-3.022 67.767-8.51a85.1 85.1 0 0 0 18.222-7.549v40.2c0 1.78-3.999 7.62-22.257 13.126zm-50.006-133.235a6.987 6.987 0 0 1-6.669 7.291c-4.744.211-9.388.318-13.8.318a6.988 6.988 0 0 1 0-13.975c4.21 0 8.645-.1 13.182-.3a6.993 6.993 0 0 1 7.287 6.666zM245 409.553c4.846 0 9.143-.1 13.136-.3a6.988 6.988 0 0 1 .714 13.957c-4.233.215-8.763.321-13.85.321a6.988 6.988 0 0 1 0-13.975zm20.473 65.439a6.987 6.987 0 0 1-6.669 7.291c-4.744.211-9.388.318-13.8.318a6.988 6.988 0 0 1 0-13.975c4.21 0 8.645-.1 13.182-.3a7 7 0 0 1 7.282 6.666zM258.729 182.6v48.3l3.215-3.358a6.988 6.988 0 1 1 10.095 9.664l-15.25 15.93a6.986 6.986 0 0 1-10.095 0l-15.25-15.93a6.988 6.988 0 1 1 10.095-9.664l3.216 3.359V182.6a6.987 6.987 0 0 1 13.974 0zm163.729 45.808v81.581a6.988 6.988 0 0 1-3.494 6.052l-25.984 15 4.033.9a6.987 6.987 0 1 1-3.053 13.637l-21.516-4.819a6.987 6.987 0 0 1-5.218-8.641l5.755-21.288a6.987 6.987 0 0 1 13.49 3.646l-1.34 4.956 23.353-13.479v-77.548a6.987 6.987 0 1 1 13.974 0zm-286.175 103.7a6.986 6.986 0 0 1-5.218 8.651l-21.543 4.819a7.072 7.072 0 0 1-1.532.17 6.989 6.989 0 0 1-1.518-13.809l4.054-.907-25.978-14.994a6.987 6.987 0 0 1-3.5-6.052v-81.581a6.988 6.988 0 1 1 13.975 0v77.546l23.326 13.463-1.34-4.931a6.988 6.988 0 0 1 13.487-3.664zm177.835-175.647V6.991A6.988 6.988 0 0 0 307.131 0h-71.8a6.991 6.991 0 0 0-4.941 2.047l-38.978 38.98a6.981 6.981 0 0 0-2.047 4.94v110.494a6.988 6.988 0 0 0 6.988 6.988h110.778a6.988 6.988 0 0 0 6.987-6.988zM228.342 23.86v15.12h-15.12zm71.8 125.614h-96.8V52.955h31.989a6.988 6.988 0 0 0 6.988-6.988V13.978h57.826zM288.8 102.66a6.987 6.987 0 0 1-6.987 6.987h-60.147a6.988 6.988 0 0 1 0-13.975h60.151a6.987 6.987 0 0 1 6.983 6.988zm0 24.6a6.986 6.986 0 0 1-6.987 6.987h-60.147a6.987 6.987 0 1 1 0-13.974h60.151a6.987 6.987 0 0 1 6.983 6.991zm-6.987-56.2a6.987 6.987 0 0 1 0 13.974h-60.147a6.987 6.987 0 1 1 0-13.974zM488.25 87.629a80.6 80.6 0 0 0-139.613 80.588l.007.015v.007a80.564 80.564 0 0 0 150.3-37.038 6.97 6.97 0 0 0 .068-1.406v-.016a80.167 80.167 0 0 0-10.762-42.15zm-12.1 6.987a66.262 66.262 0 0 1 8.767 28.91l-64.617 3.339 35.21-54.323a66.354 66.354 0 0 1 20.637 22.074zm-122.061 16.078a66.788 66.788 0 0 1 64.271-49.418 66.73 66.73 0 0 1 24.719 4.755l-41.033 63.307-44.474 25.672a66.114 66.114 0 0 1-3.483-44.316zm97.689 74.949a66.751 66.751 0 0 1-87.218-18.53l44.473-25.672 75.3-3.891a66.5 66.5 0 0 1-32.555 48.093zM51.559 129.348H19.953a6.988 6.988 0 0 0-6.988 6.987v65.226a6.988 6.988 0 0 0 6.988 6.987h31.606a6.987 6.987 0 0 0 6.987-6.987v-65.226a6.987 6.987 0 0 0-6.987-6.987zm-6.988 65.226H26.94v-51.251h17.631zm66.246 6.987V81.8a6.987 6.987 0 0 0-6.987-6.987H72.223a6.987 6.987 0 0 0-6.987 6.987v119.761a6.987 6.987 0 0 0 6.987 6.987h31.607a6.987 6.987 0 0 0 6.987-6.987zm-13.975-6.987H79.211V88.785h17.631zm27.652 13.974H156.1a6.987 6.987 0 0 0 6.987-6.987v-92.75a6.987 6.987 0 0 0-6.987-6.987h-31.606a6.987 6.987 0 0 0-6.987 6.987v92.75a6.987 6.987 0 0 0 6.987 6.987zm6.988-92.75h17.631v78.776h-17.631z" fill="#154194" opacity="1" data-original="#000000"></path></g></svg>