<svg xmlns="http://www.w3.org/2000/svg" version="1.1" xmlns:xlink="http://www.w3.org/1999/xlink" width="512" height="512" x="0" y="0" viewBox="0 0 510 510" style="enable-background:new 0 0 512 512" xml:space="preserve" fill-rule="evenodd"><g><path d="M16.019 75.811c0-7.138 4.562-14.521 14.216-20.449 16.308-10.013 49.099-17.213 86.98-17.213 37.882 0 70.673 7.2 86.98 17.213 9.655 5.928 14.216 13.311 14.216 20.449v91.653c12.492-1.908 26.412-2.99 41.098-2.99 14.685 0 28.606 1.082 41.097 2.99V75.811c0-7.138 4.562-14.521 14.217-20.449 16.307-10.013 49.098-17.213 86.98-17.213s70.673 7.2 86.98 17.213c9.654 5.928 14.216 13.311 14.216 20.449V256.66c0 7.138-4.562 14.52-14.216 20.448-16.307 10.013-49.098 17.213-86.98 17.213-14.704 0-28.636-1.057-41.098-2.938v68.397c0 4.416-3.584 8-8 8-4.415 0-8-3.584-8-8v-15.583c-16.839 9.465-48.648 16.167-85.196 16.167s-68.357-6.702-85.197-16.167v8.167c0 4.415-3.584 8-8 8-4.415 0-8-3.585-8-8v-60.981c-12.461 1.881-26.393 2.938-41.097 2.938-37.881 0-70.672-7.2-86.98-17.213-9.654-5.927-14.216-13.31-14.216-20.448zm186.393 0c0-1.326-1.032-2.4-2.28-3.593-2.525-2.414-6.258-4.576-10.888-6.587-16.235-7.049-42.464-11.482-72.029-11.482s-55.794 4.433-72.029 11.482c-4.63 2.011-8.363 4.173-10.888 6.587-1.248 1.193-2.28 2.267-2.28 3.593 0 1.327 1.032 2.4 2.28 3.593 2.525 2.414 6.258 4.577 10.888 6.588 16.235 7.049 42.464 11.482 72.029 11.482s55.794-4.433 72.029-11.482c4.63-2.011 8.363-4.174 10.888-6.587 1.248-1.194 2.28-2.267 2.28-3.594zm0 60.283V97.307c-16.84 9.465-48.649 16.167-85.197 16.167s-68.357-6.702-85.197-16.167v38.787c0 1.327 1.032 2.4 2.28 3.594 2.525 2.413 6.258 4.576 10.888 6.586 16.235 7.049 42.464 11.482 72.029 11.482s55.794-4.433 72.029-11.482c4.63-2.01 8.363-4.173 10.888-6.586 1.248-1.193 2.28-2.267 2.28-3.594zm0 34.441V157.59c-16.84 9.464-48.649 16.166-85.197 16.166s-68.357-6.702-85.197-16.166v38.786c0 1.327 1.032 2.401 2.28 3.594 2.525 2.414 6.258 4.577 10.888 6.587 16.235 7.049 42.464 11.482 72.029 11.482 14.801 0 28.771-1.125 41.097-3.133v-12.77c0-7.138 4.562-14.522 14.217-20.449 7.128-4.377 17.406-8.217 29.883-11.152zm114.194 0c12.477 2.935 22.755 6.775 29.883 11.152 9.654 5.927 14.216 13.31 14.216 20.448v12.771c12.327 2.008 26.297 3.133 41.098 3.133 29.565 0 55.794-4.433 72.029-11.482 4.63-2.01 8.363-4.173 10.888-6.587 1.248-1.193 2.279-2.267 2.279-3.594V157.59c-16.839 9.464-48.648 16.166-85.196 16.166s-68.357-6.702-85.197-16.166zm28.099 31.6c0-1.326-1.031-2.4-2.279-3.593-2.525-2.414-6.258-4.576-10.888-6.587-16.235-7.048-42.464-11.481-72.029-11.481s-55.794 4.433-72.029 11.481c-4.63 2.011-8.363 4.173-10.888 6.587-1.248 1.193-2.28 2.267-2.28 3.594 0 1.326 1.032 2.4 2.28 3.593 2.525 2.414 6.258 4.576 10.888 6.587 16.235 7.049 42.464 11.482 72.029 11.482s55.794-4.433 72.029-11.482c4.63-2.011 8.363-4.173 10.888-6.587 1.248-1.193 2.279-2.267 2.279-3.594zM316.606 97.307v38.787c0 1.327 1.032 2.4 2.28 3.594 2.525 2.413 6.258 4.576 10.888 6.586 16.235 7.049 42.464 11.482 72.029 11.482s55.794-4.433 72.029-11.482c4.63-2.01 8.363-4.173 10.888-6.586 1.248-1.193 2.279-2.267 2.279-3.594V97.307c-16.839 9.465-48.648 16.167-85.196 16.167s-68.357-6.702-85.197-16.167zm170.393-21.496c0-1.326-1.031-2.4-2.279-3.593-2.525-2.414-6.258-4.576-10.888-6.587-16.235-7.049-42.464-11.482-72.029-11.482s-55.794 4.433-72.029 11.482c-4.63 2.011-8.363 4.173-10.888 6.587-1.248 1.193-2.28 2.267-2.28 3.593 0 1.327 1.032 2.4 2.28 3.593 2.525 2.414 6.258 4.577 10.888 6.588 16.235 7.049 42.464 11.482 72.029 11.482s55.794-4.433 72.029-11.482c4.63-2.011 8.363-4.174 10.888-6.587 1.248-1.194 2.279-2.267 2.279-3.594zM360.705 275.188c12.327 2.008 26.297 3.133 41.098 3.133 29.565 0 55.794-4.433 72.029-11.481 4.63-2.011 8.363-4.173 10.888-6.587 1.248-1.193 2.279-2.267 2.279-3.593v-38.787c-16.839 9.464-48.648 16.166-85.196 16.166-14.704 0-28.636-1.057-41.098-2.938zm-16 47.513v-38.786c-16.839 9.463-48.648 16.165-85.196 16.165s-68.357-6.702-85.197-16.166v38.787c0 1.326 1.032 2.4 2.28 3.594 2.525 2.413 6.258 4.576 10.888 6.587 16.235 7.049 42.464 11.482 72.029 11.482s55.794-4.433 72.029-11.482c4.63-2.011 8.363-4.173 10.888-6.587 1.248-1.194 2.279-2.268 2.279-3.594zM32.018 217.873v38.787c0 1.326 1.032 2.4 2.28 3.593 2.525 2.414 6.258 4.576 10.888 6.587 16.235 7.048 42.464 11.481 72.029 11.481 14.801 0 28.771-1.125 41.097-3.133v-44.087c-12.461 1.881-26.393 2.938-41.097 2.938-36.548 0-68.357-6.702-85.197-16.166zm312.687 44.546v-38.787c-16.839 9.464-48.648 16.166-85.196 16.166s-68.357-6.702-85.197-16.166v38.787c0 1.326 1.032 2.4 2.28 3.593 2.525 2.414 6.258 4.576 10.888 6.587 16.235 7.048 42.464 11.481 72.029 11.481s55.794-4.433 72.029-11.481c4.63-2.011 8.363-4.173 10.888-6.587 1.248-1.193 2.279-2.267 2.279-3.593zM48.934 115.684c5.77 0 10.447 4.678 10.447 10.448s-4.677 10.447-10.447 10.447-10.448-4.677-10.448-10.447 4.678-10.448 10.448-10.448zm284.588 0c5.77 0 10.447 4.678 10.447 10.448s-4.677 10.447-10.447 10.447-10.448-4.677-10.448-10.447 4.678-10.448 10.448-10.448zM48.934 175.938c5.77 0 10.447 4.677 10.447 10.447s-4.677 10.447-10.447 10.447-10.448-4.677-10.448-10.447 4.678-10.447 10.448-10.447zm142.294 126.324c5.77 0 10.447 4.677 10.447 10.447s-4.677 10.447-10.447 10.447-10.448-4.677-10.448-10.447 4.678-10.447 10.448-10.447zM48.934 236.637c5.77 0 10.447 4.677 10.447 10.447s-4.677 10.448-10.447 10.448-10.448-4.678-10.448-10.448 4.678-10.447 10.448-10.447zm142.294 5.371c5.77 0 10.447 4.678 10.447 10.448 0 5.771-4.677 10.447-10.447 10.447s-10.448-4.676-10.448-10.447c0-5.77 4.678-10.448 10.448-10.448zm304.805 150.88a8.004 8.004 0 0 1-.016 11.314 8.005 8.005 0 0 1-11.314-.016c-4.791-4.805-12.885-12.219-21.603-17.369-4.912-2.901-9.971-5.189-14.655-5.2-2.338-.005-4.84 1.589-7.727 3.433-4.263 2.721-8.86 6.363-13.686 9.987-11.453 8.604-24.21 16.616-36.567 16.503-15.381-.141-29.365-7.888-42.311-16.037-10.369-6.527-19.782-13.595-29.2-13.89-9.207-.287-18.986 6.585-29.501 13.081-13.187 8.148-27.132 16.187-41.116 16.838-14.178.659-26.068-7.667-37.913-16.617-8.799-6.648-17.524-13.85-28.778-13.307-12.552.605-22.706 7.763-32.811 14.37-12.67 8.283-25.273 15.854-40.03 15.561-13.123-.261-23.983-7.629-33.433-15.848-3.944-3.431-7.633-6.955-11.208-9.819-2.605-2.086-5.021-3.874-7.549-4.464-4.029-.942-8.262-.189-13.203 2.506-6.435 3.51-13.656 9.919-22.395 19.894a8.002 8.002 0 0 1-11.289.746 8.003 8.003 0 0 1-.746-11.289c22.193-25.333 37.949-30.551 51.273-27.438 6.736 1.574 13.683 7.11 20.991 13.676 7.879 7.077 16.414 15.811 27.877 16.039 11.531.229 21.056-6.484 30.957-12.956 12.464-8.149 25.313-16.213 40.795-16.959 15.099-.729 27.39 7.603 39.195 16.523 8.759 6.619 17.039 13.887 27.524 13.399 14.06-.654 27.683-11.121 40.68-18.89 10.886-6.507 21.456-11.342 31.179-11.038 9.744.305 19.819 5.444 30.267 11.953 12.475 7.774 25.673 17.827 40.891 17.967 5.103.047 10.164-2.286 15.159-5.258 6.091-3.624 11.997-8.321 17.53-12.483 9.358-7.039 18.205-12.198 25.181-12.183 7.21.017 15.195 2.958 22.756 7.424 9.989 5.9 19.307 14.342 24.796 19.847zm0 60.282a8.004 8.004 0 0 1-.016 11.314 8.004 8.004 0 0 1-11.314-.016c-4.791-4.805-12.885-12.219-21.603-17.369-4.912-2.901-9.971-5.189-14.655-5.2-2.338-.005-4.84 1.589-7.727 3.433-4.263 2.721-8.86 6.363-13.686 9.987-11.453 8.604-24.21 16.616-36.567 16.503-15.381-.141-29.365-7.888-42.311-16.037-10.369-6.527-19.782-13.595-29.2-13.89-9.207-.287-18.986 6.585-29.501 13.081-13.187 8.148-27.132 16.187-41.116 16.838-14.178.659-26.068-7.667-37.913-16.617-8.799-6.648-17.524-13.85-28.778-13.307-12.552.606-22.706 7.763-32.811 14.37-12.67 8.283-25.273 15.854-40.03 15.561-13.123-.261-23.983-7.629-33.433-15.848-3.944-3.431-7.633-6.955-11.208-9.819-2.605-2.086-5.021-3.874-7.549-4.464-4.029-.942-8.262-.189-13.203 2.506-6.435 3.51-13.656 9.919-22.395 19.894a8.002 8.002 0 0 1-11.289.746 8.003 8.003 0 0 1-.746-11.289c22.193-25.333 37.949-30.551 51.273-27.438 6.736 1.574 13.683 7.11 20.991 13.676 7.879 7.077 16.414 15.811 27.877 16.039 11.531.229 21.056-6.484 30.957-12.956 12.464-8.149 25.313-16.213 40.795-16.959 15.099-.729 27.39 7.603 39.195 16.523 8.759 6.619 17.039 13.887 27.524 13.399 14.06-.654 27.683-11.121 40.68-18.89 10.886-6.507 21.456-11.342 31.179-11.038 9.744.305 19.819 5.444 30.267 11.953 12.475 7.774 25.673 17.827 40.891 17.967 5.103.047 10.164-2.286 15.159-5.258 6.091-3.624 11.997-8.321 17.53-12.483 9.358-7.039 18.205-12.198 25.181-12.183 7.21.017 15.195 2.958 22.756 7.424 9.989 5.9 19.307 14.342 24.796 19.847z" fill="#154194" opacity="1" data-original="#000000"></path></g></svg>