<svg xmlns="http://www.w3.org/2000/svg" version="1.1" xmlns:xlink="http://www.w3.org/1999/xlink" width="512" height="512" x="0" y="0" viewBox="0 0 60 60" style="enable-background:new 0 0 512 512" xml:space="preserve"><g><path d="M52 4H8a4 4 0 0 0-4 4v8a4 4 0 0 0 4 4h44a4 4 0 0 0 4-4V8a4 4 0 0 0-4-4Zm2 12a2 2 0 0 1-2 2H8a2 2 0 0 1-2-2V8a2 2 0 0 1 2-2h44a2 2 0 0 1 2 2Z" fill="#154194" opacity="1" data-original="#000000"></path><path d="M12 8a4 4 0 1 0 4 4 4 4 0 0 0-4-4Zm0 6a2 2 0 1 1 2-2 2 2 0 0 1-2 2ZM22 8a4 4 0 1 0 4 4 4 4 0 0 0-4-4Zm0 6a2 2 0 1 1 2-2 2 2 0 0 1-2 2ZM52 22H8a4 4 0 0 0-4 4v8a4 4 0 0 0 4 4h44a4 4 0 0 0 4-4v-8a4 4 0 0 0-4-4Zm2 12a2 2 0 0 1-2 2H8a2 2 0 0 1-2-2v-8a2 2 0 0 1 2-2h44a2 2 0 0 1 2 2Z" fill="#154194" opacity="1" data-original="#000000"></path><path d="M12 26a4 4 0 1 0 4 4 4 4 0 0 0-4-4Zm0 6a2 2 0 1 1 2-2 2 2 0 0 1-2 2ZM22 26a4 4 0 1 0 4 4 4 4 0 0 0-4-4Zm0 6a2 2 0 1 1 2-2 2 2 0 0 1-2 2ZM52 40H8a4 4 0 0 0-4 4v8a4 4 0 0 0 4 4h44a4 4 0 0 0 4-4v-8a4 4 0 0 0-4-4Zm2 12a2 2 0 0 1-2 2H8a2 2 0 0 1-2-2v-8a2 2 0 0 1 2-2h44a2 2 0 0 1 2 2Z" fill="#154194" opacity="1" data-original="#000000"></path><path d="M56 0H4a4 4 0 0 0-4 4v52a4 4 0 0 0 4 4h52a4 4 0 0 0 4-4V4a4 4 0 0 0-4-4Zm2 56a2 2 0 0 1-2 2H4a2 2 0 0 1-2-2V4a2 2 0 0 1 2-2h52a2 2 0 0 1 2 2Z" fill="#154194" opacity="1" data-original="#000000"></path><path d="M12 44a4 4 0 1 0 4 4 4 4 0 0 0-4-4Zm0 6a2 2 0 1 1 2-2 2 2 0 0 1-2 2ZM22 44a4 4 0 1 0 4 4 4 4 0 0 0-4-4Zm0 6a2 2 0 1 1 2-2 2 2 0 0 1-2 2ZM50 11H30a1 1 0 0 0 0 2h20a1 1 0 0 0 0-2ZM50 29H30a1 1 0 0 0 0 2h20a1 1 0 0 0 0-2ZM50 47H30a1 1 0 0 0 0 2h20a1 1 0 0 0 0-2Z" fill="#154194" opacity="1" data-original="#000000"></path></g></svg>