<svg xmlns="http://www.w3.org/2000/svg" version="1.1" xmlns:xlink="http://www.w3.org/1999/xlink" width="512" height="512" x="0" y="0" viewBox="0 0 60 60" style="enable-background:new 0 0 512 512" xml:space="preserve"><g><path d="M57 28h-.132L53.113 1.717A2.009 2.009 0 0 0 51.133 0h-6.266a2.009 2.009 0 0 0-1.98 1.717L39.132 28H36v-6.745a2.29 2.29 0 0 0-3.45-1.974L19 27.252v-6a2.291 2.291 0 0 0-3.451-1.974l-14.07 8.28A3.01 3.01 0 0 0 0 30.144V57a3 3 0 0 0 3 3h54a3 3 0 0 0 3-3V31a3 3 0 0 0-3-3ZM44.867 2h6.266l3.714 26H41.153ZM58 57a1 1 0 0 1-1 1H3a1 1 0 0 1-1-1V30.144a1 1 0 0 1 .493-.862l14.07-8.276a.273.273 0 0 1 .291 0 .279.279 0 0 1 .146.251V29a1 1 0 0 0 1.507.862l15.056-8.857a.284.284 0 0 1 .291 0 .279.279 0 0 1 .146.251V29a1 1 0 0 0 1 1h22a1 1 0 0 1 1 1Z" fill="#154194" opacity="1" data-original="#000000"></path><path d="M41 41a1 1 0 0 0 0-2h-2v-1a3 3 0 0 0-3-3h-1v-2a1 1 0 0 0-2 0v2h-2v-2a1 1 0 0 0-2 0v2h-2v-2a1 1 0 0 0-2 0v2h-1a3 3 0 0 0-3 3v1h-2a1 1 0 0 0 0 2h2v2h-2a1 1 0 0 0 0 2h2v2h-2a1 1 0 0 0 0 2h2v1a3 3 0 0 0 3 3h1v2a1 1 0 0 0 2 0v-2h2v2a1 1 0 0 0 2 0v-2h2v2a1 1 0 0 0 2 0v-2h1a3 3 0 0 0 3-3v-1h2a1 1 0 0 0 0-2h-2v-2h2a1 1 0 0 0 0-2h-2v-2Zm-4 9a1 1 0 0 1-1 1H24a1 1 0 0 1-1-1V38a1 1 0 0 1 1-1h12a1 1 0 0 1 1 1Z" fill="#154194" opacity="1" data-original="#000000"></path><path d="M28 39a3 3 0 0 0-3 3v6a1 1 0 0 0 2 0v-2h2v2a1 1 0 0 0 2 0v-6a3 3 0 0 0-3-3Zm-1 5v-2a1 1 0 0 1 2 0v2ZM34 39a1 1 0 0 0-1 1v8a1 1 0 0 0 2 0v-8a1 1 0 0 0-1-1Z" fill="#154194" opacity="1" data-original="#000000"></path></g></svg>