<svg xmlns="http://www.w3.org/2000/svg" version="1.1" xmlns:xlink="http://www.w3.org/1999/xlink" width="512" height="512" x="0" y="0" viewBox="0 0 66 66" style="enable-background:new 0 0 512 512" xml:space="preserve"><g><path d="M49.9 32.5h-6.4c-.6 0-1-.4-1-1s.4-1 1-1h6.4c4 0 7.3-3.3 7.3-7.3s-3.3-7.3-7.3-7.3c-.3 0-.6-.1-.8-.4s-.2-.6-.2-.9c.3-1.1.5-1.9.5-2.8 0-4.9-3.9-8.8-8.8-8.8s-8.8 3.9-8.8 8.8c0 .6-.4 1-1 1s-1-.4-1-1v-1c-1.3-1.7-3.3-2.7-5.4-2.7-3.7 0-6.8 3.1-6.8 6.8 0 .6-.4 1-1 1s-1-.4-1-1c0-4.9 3.9-8.8 8.8-8.8 2.2 0 4.3.9 5.9 2.4C31.7 4.1 35.8 1 40.6 1c6 0 10.8 4.8 10.8 10.8 0 .7-.1 1.4-.2 2.2 4.5.6 8 4.5 8 9.2 0 5.1-4.2 9.3-9.3 9.3z" fill="#154194" opacity="1" data-original="#000000"></path><path d="M22.1 32.6h-5.9c-5.1 0-9.3-4.2-9.3-9.3s4.2-9.3 9.3-9.3c1.2 0 2.5.2 3.6.7.5.2.8.8.6 1.3s-.8.8-1.3.6c-.9-.3-1.8-.5-2.8-.5-4 0-7.3 3.3-7.3 7.3s3.3 7.3 7.3 7.3h5.9c.6 0 1 .4 1 1s-.5.9-1.1.9zM33 65c-.2 0-.3 0-.5-.1l-7.4-4.2c-.3-.2-.5-.5-.5-.9v-8.2c0-.4.2-.7.5-.9s.7-.2 1 0l7.4 4.3c.3.2.5.5.5.9V64c0 .4-.2.7-.5.9-.2.1-.3.1-.5.1zm-6.4-5.8 5.4 3.1v-5.8l-5.4-3.1z" fill="#154194" opacity="1" data-original="#000000"></path><path d="M33 65c-.2 0-.3 0-.5-.1-.3-.2-.5-.5-.5-.9v-8.1c0-.4.2-.7.5-.9l7.4-4.3c.3-.2.7-.2 1 0s.5.5.5.9v8.2c0 .4-.2.7-.5.9l-7.4 4.2c-.2.1-.3.1-.5.1zm1-8.5v5.8l5.4-3.1v-5.9z" fill="#154194" opacity="1" data-original="#000000"></path><path d="M33 56.9c-.2 0-.3 0-.5-.1l-7.4-4.3c-.3-.2-.5-.5-.5-.9s.2-.7.5-.9l7.4-4.2c.3-.2.7-.2 1 0l7.4 4.2c.3.2.5.5.5.9s-.2.7-.5.9l-7.4 4.3c-.2.1-.3.1-.5.1zm-5.4-5.3 5.4 3.1 5.4-3.1-5.4-3.1zM33 24.9c-5.7 0-11.5-1.8-11.5-5.1s5.8-5.1 11.5-5.1c5.6 0 11.5 1.8 11.5 5.1s-5.8 5.1-11.5 5.1zm0-8.2c-5.8 0-9.5 1.8-9.5 3.1s3.7 3.1 9.5 3.1 9.5-1.8 9.5-3.1c0-1.2-3.8-3.1-9.5-3.1zM33 43.6c-5.7 0-11.5-1.8-11.5-5.1v-6.2c0-.6.4-1 1-1s1 .4 1 1c0 1.3 3.7 3.1 9.5 3.1 5.7 0 9.5-1.9 9.5-3.1 0-.6.4-1 1-1s1 .4 1 1v6.2c0 3.3-5.8 5.1-11.5 5.1zm-9.5-8.3v3.2c0 1.3 3.7 3.1 9.5 3.1s9.5-1.8 9.5-3.1v-3.2c-2.2 1.4-5.9 2.1-9.5 2.1s-7.3-.7-9.5-2.1z" fill="#154194" opacity="1" data-original="#000000"></path><path d="M33 31.1c-5.7 0-11.5-1.8-11.5-5.1v-6.2c0-.6.4-1 1-1s1 .4 1 1c0 1.3 3.7 3.1 9.5 3.1s9.5-1.8 9.5-3.1c0-.6.4-1 1-1s1 .4 1 1V26c0 3.3-5.8 5.1-11.5 5.1zm-9.5-8.3V26c0 1.3 3.7 3.1 9.5 3.1s9.5-1.8 9.5-3.1v-3.2c-4.4 2.8-14.6 2.8-19 0z" fill="#154194" opacity="1" data-original="#000000"></path><path d="M33 37.4c-5.7 0-11.5-1.8-11.5-5.1v-6.2c0-.6.4-1 1-1s1 .4 1 1c0 1.3 3.7 3.1 9.5 3.1 5.7 0 9.5-1.9 9.5-3.1 0-.6.4-1 1-1s1 .4 1 1v6.2c0 3.3-5.8 5.1-11.5 5.1zm-9.5-8.3v3.2c0 1.3 3.7 3.1 9.5 3.1s9.5-1.8 9.5-3.1v-3.2c-2.2 1.4-5.9 2.1-9.5 2.1s-7.3-.7-9.5-2.1zM56 58.9c-.2 0-.3 0-.5-.1l-7.4-4.2c-.3-.2-.5-.5-.5-.9v-8.1c0-.4.2-.7.5-.9s.7-.2 1 0l7.4 4.2c.3.2.5.5.5.9v8.1c0 .4-.2.7-.5.9-.2.1-.3.1-.5.1zm-6.4-5.8 5.4 3.1v-5.8l-5.4-3.1z" fill="#154194" opacity="1" data-original="#000000"></path><path d="M56 58.9c-.2 0-.3 0-.5-.1-.3-.2-.5-.5-.5-.9v-8.1c0-.4.2-.7.5-.9l7.3-4.2c.3-.2.7-.2 1 0s.5.5.5.9v8.1c0 .4-.2.7-.5.9l-7.3 4.2c-.2.1-.3.1-.5.1zm1-8.5v5.8l5.3-3v-5.8z" fill="#154194" opacity="1" data-original="#000000"></path><path d="M56 50.8c-.2 0-.3 0-.5-.1l-7.4-4.2c-.3-.2-.5-.5-.5-.9s.2-.7.5-.9l7.4-4.3c.3-.2.7-.2 1 0l7.3 4.3c.3.2.5.5.5.9s-.2.7-.5.9l-7.3 4.2c-.2.1-.3.1-.5.1zm-5.4-5.2 5.4 3.1 5.3-3.1-5.3-3.1zM10 58.9c-.2 0-.3 0-.5-.1l-7.3-4.2c-.3-.2-.5-.5-.5-.9v-8.1c0-.4.2-.7.5-.9s.7-.2 1 0l7.3 4.2c.3.2.5.5.5.9v8.1c0 .4-.2.7-.5.9-.2.1-.3.1-.5.1zm-6.3-5.8 5.3 3v-5.8l-5.3-3z" fill="#154194" opacity="1" data-original="#000000"></path><path d="M10 58.9c-.2 0-.3 0-.5-.1-.3-.2-.5-.5-.5-.9v-8.1c0-.4.2-.7.5-.9l7.4-4.2c.3-.2.7-.2 1 0s.5.5.5.9v8.1c0 .4-.2.7-.5.9l-7.4 4.2c-.2.1-.3.1-.5.1zm1-8.5v5.8l5.4-3.1v-5.8z" fill="#154194" opacity="1" data-original="#000000"></path><path d="M10 50.8c-.2 0-.3 0-.5-.1l-7.3-4.2c-.3-.2-.5-.5-.5-.9s.2-.7.5-.9l7.3-4.3c.3-.2.7-.2 1 0l7.4 4.3c.3.2.5.5.5.9s-.2.7-.5.9l-7.4 4.2c-.2.1-.3.1-.5.1zm-5.3-5.2 5.3 3.1 5.4-3.1-5.4-3.1zM33 48.4c-.6 0-1-.4-1-1v-4.2c0-.6.4-1 1-1s1 .4 1 1v4.2c0 .6-.4 1-1 1z" fill="#154194" opacity="1" data-original="#000000"></path><path d="M10 42.4c-.6 0-1-.4-1-1v-1.7c0-2.3 1.8-4.1 4.1-4.1h9.4c.6 0 1 .4 1 1s-.4 1-1 1h-9.4c-1.1 0-2.1 1-2.1 2.1v1.7c0 .6-.4 1-1 1zM56 42.3c-.6 0-1-.4-1-1v-1.7c0-1.1-1-2.1-2.1-2.1h-9.4c-.6 0-1-.4-1-1s.4-1 1-1h9.4c2.3 0 4.1 1.8 4.1 4.1v1.7c0 .6-.4 1-1 1zM26.6 27.3c-.6 0-1-.4-1-1v-.5c0-.6.4-1 1-1s1 .4 1 1v.5c0 .6-.4 1-1 1zM29.4 28c-.6 0-1-.4-1-1v-.5c0-.6.4-1 1-1s1 .4 1 1v.5c0 .6-.4 1-1 1zM32.2 28.3c-.6 0-1-.4-1-1v-.5c0-.6.4-1 1-1s1 .4 1 1v.5c0 .6-.4 1-1 1zM26.6 33.5c-.6 0-1-.4-1-1V32c0-.6.4-1 1-1s1 .4 1 1v.5c0 .6-.4 1-1 1zM29.4 34.2c-.6 0-1-.4-1-1v-.5c0-.6.4-1 1-1s1 .4 1 1v.5c0 .6-.4 1-1 1zM32.2 34.5c-.6 0-1-.4-1-1V33c0-.6.4-1 1-1s1 .4 1 1v.5c0 .6-.4 1-1 1zM26.6 39.8c-.6 0-1-.4-1-1v-.5c0-.6.4-1 1-1s1 .4 1 1v.5c0 .6-.4 1-1 1zM29.4 40.5c-.6 0-1-.4-1-1V39c0-.6.4-1 1-1s1 .4 1 1v.5c0 .6-.4 1-1 1zM32.2 40.7c-.6 0-1-.4-1-1v-.5c0-.6.4-1 1-1s1 .4 1 1v.5c0 .6-.4 1-1 1z" fill="#154194" opacity="1" data-original="#000000"></path></g></svg>