<svg xmlns="http://www.w3.org/2000/svg" version="1.1" xmlns:xlink="http://www.w3.org/1999/xlink" width="512" height="512" x="0" y="0" viewBox="0 0 512 512" style="enable-background:new 0 0 512 512" xml:space="preserve" class=""><g><path d="M479.07 434.849H320.137a32.986 32.986 0 0 0-24.449 10.87 7.057 7.057 0 0 0-.141.161l-18.005 21.137V260.304c6.011-.956 10.987-5.219 12.796-11.21l18.606-61.624c7.922-2.493 13.687-9.905 13.687-18.64 0-8.111-4.971-15.08-12.023-18.031v-29.562h32.71c8.483 0 15.384-6.901 15.384-15.383V93.46c13.501-5.509 23.045-18.773 23.045-34.232v-1.615a7.515 7.515 0 1 0-15.03 0v1.615c0 10.473-7.381 19.251-17.215 21.415-.364.079-.729.15-1.095.211l-.048.009a21.69 21.69 0 0 1-1.16.16l-.027.003c-.37.041-.74.07-1.11.092l-.092.007c-.395.022-.79.033-1.183.033H161.203c-.394 0-.787-.011-1.183-.033l-.092-.007c-.37-.022-.74-.051-1.11-.092l-.027-.003a21.69 21.69 0 0 1-1.16-.16l-.048-.009a22.964 22.964 0 0 1-1.095-.211c-9.833-2.164-17.215-10.941-17.215-21.415V15.029h227.444v12.524a7.515 7.515 0 1 0 15.03 0V7.515A7.515 7.515 0 0 0 374.232 0H131.757a7.515 7.515 0 0 0-7.515 7.515v51.713c0 15.458 9.544 28.723 23.045 34.232v12.394c0 8.483 6.901 15.383 15.384 15.383h38.722v29.562c-7.053 2.951-12.023 9.919-12.023 18.031 0 8.735 5.763 16.148 13.687 18.64l18.606 61.624c1.807 5.991 6.785 10.254 12.796 11.21v210.75l-24.669-26.313a10.83 10.83 0 0 0-.147-.153c-6.141-6.189-14.661-9.738-23.379-9.738H32.93C14.773 434.849 0 449.622 0 467.78v36.706A7.515 7.515 0 0 0 7.515 512h496.971a7.515 7.515 0 0 0 7.515-7.515V467.78c-.001-18.158-14.774-32.931-32.931-32.931zM162.672 106.207a.354.354 0 0 1-.355-.354v-9.666h181.354v9.666a.354.354 0 0 1-.355.354H162.672zm132.905 15.03v28.055h-79.155v-28.055h79.155zm-91.178 47.593a4.514 4.514 0 0 1 4.509-4.509h94.184a4.514 4.514 0 0 1 4.509 4.509 4.514 4.514 0 0 1-4.509 4.509h-94.184a4.514 4.514 0 0 1-4.509-4.509zm14.628 19.538h73.947l-17.023 56.383a1.019 1.019 0 0 1-.981.728h-37.937c-.455 0-.85-.293-.981-.729l-17.025-56.382zM15.029 496.971V467.78c0-9.87 8.031-17.901 17.901-17.901h153.333a18.02 18.02 0 0 1 12.639 5.225l39.251 41.867H15.029zm247.484-25.268a8.329 8.329 0 0 1-.873 3.698l-5.9 11.798-5.482-11.775a8.315 8.315 0 0 1-.773-3.488V457.14h.001l13.025 6.099v8.464zm0-25.06-13.025-6.099v-26.489l13.025 6.099v26.489zm0-43.084-13.025-6.099v-26.489l13.025 6.099v26.489zm0-43.085-13.025-6.099v-26.489l13.025 6.099v26.489zm0-43.084-13.025-6.099v-26.489l13.025 6.099v26.489zm0-43.084-13.025-6.099v-7.698h13.025v13.797zm9.258 222.665 35.14-41.254a17.934 17.934 0 0 1 13.226-5.838h158.932c9.871 0 17.901 8.031 17.901 17.901v29.191H271.771z" fill="#154194" opacity="1" data-original="#000000"></path><path d="M328.185 357.99a10.173 10.173 0 0 0-8.616-.543 10.145 10.145 0 0 0-5.928 6.247L300.01 404.59v.001a10.11 10.11 0 0 0 2.457 10.403 10.113 10.113 0 0 0 10.404 2.457l40.893-13.632a10.14 10.14 0 0 0 6.25-5.932 10.16 10.16 0 0 0-.546-8.612c-7.337-13.418-17.863-23.944-31.283-31.285zm-10.842 42.127 8.641-25.921c6.953 4.617 12.663 10.326 17.28 17.281l-25.921 8.64zM197.357 363.697a10.14 10.14 0 0 0-5.929-6.249 10.172 10.172 0 0 0-8.617.543c-13.42 7.339-23.945 17.866-31.282 31.281a10.16 10.16 0 0 0-.548 8.615 10.144 10.144 0 0 0 6.249 5.932l40.895 13.632a10.111 10.111 0 0 0 10.403-2.457 10.112 10.112 0 0 0 2.457-10.403v-.001l-13.628-40.893zm-29.622 27.781c4.616-6.954 10.327-12.664 17.28-17.281l8.641 25.921-25.921-8.64z" fill="#154194" opacity="1" data-original="#000000"></path></g></svg>