<svg xmlns="http://www.w3.org/2000/svg" version="1.1" xmlns:xlink="http://www.w3.org/1999/xlink" width="512" height="512" x="0" y="0" viewBox="0 0 512 512" style="enable-background:new 0 0 512 512" xml:space="preserve" class=""><g><path d="M453.293 399.215h-14.93v-133.57c0-7.711-6.273-13.985-13.988-13.985H283.262c-7.715 0-13.989 6.274-13.989 13.985v55.625c0 9.87 14.934 9.886 14.934 0v-54.68h40.883c1.68 34.7-4.164 44.984 6.129 50.644 9.082 5 15.441-3.593 22.703-7.129 8.734 5.075 14.45 11.672 22.707 7.13 10.316-5.676 4.488-16.774 6.125-50.645h40.676v132.625H284.207v-48.078c0-9.871-14.934-9.887-14.934 0v48.078H56.391C25.297 399.215 0 424.512 0 455.609 0 486.703 25.297 512 56.39 512h396.903c31.098 0 56.394-25.297 56.394-56.39s-25.3-56.395-56.394-56.395zm-85.473-97.98-7.562-4.794c-8.856-5.613-16.145 2.989-20.235 4.793v-34.64h27.797zm85.473 195.831H56.391c-22.86 0-41.457-18.597-41.457-41.457 0-22.863 18.597-41.46 41.457-41.46h396.902c22.863 0 41.46 18.597 41.46 41.46 0 22.86-18.597 41.457-41.46 41.457zm0 0" fill="#154194" opacity="1" data-original="#000000"></path><path d="M453.297 427.129H56.39c-15.703 0-28.48 12.773-28.48 28.48 0 15.704 12.776 28.48 28.48 28.48h396.906c15.703 0 28.48-12.777 28.48-28.48 0-15.707-12.777-28.48-28.48-28.48zm-285.426 28.48c0-7.472 6.078-13.55 13.55-13.55s13.552 6.078 13.552 13.55c0 7.47-6.078 13.547-13.551 13.547s-13.55-6.078-13.55-13.547zm-11.496 13.547H81.438c4.535-8.347 4.628-18.582 0-27.097h74.937c-4.535 8.351-4.625 18.582 0 27.097zm50.094-27.097h96.75c-4.535 8.351-4.63 18.582 0 27.097h-96.75c4.535-8.347 4.625-18.582 0-27.097zm108.246 13.55c0-7.472 6.078-13.55 13.55-13.55 7.47 0 13.548 6.078 13.548 13.55 0 7.47-6.079 13.547-13.547 13.547-7.473 0-13.551-6.078-13.551-13.547zm38.598-13.55h74.933c-4.535 8.351-4.625 18.582 0 27.097h-74.934c4.536-8.347 4.625-18.582 0-27.097zm-310.47 13.55c0-7.472 6.079-13.55 13.548-13.55 7.472 0 13.55 6.078 13.55 13.55 0 7.47-6.078 13.547-13.55 13.547-7.47 0-13.547-6.078-13.547-13.547zm410.45 13.547c-7.469 0-13.547-6.078-13.547-13.547 0-7.472 6.078-13.55 13.547-13.55 7.473 0 13.55 6.078 13.55 13.546 0 7.473-6.077 13.551-13.55 13.551zM40.64 62.941h68.645v10.094c0 9.977 8.117 18.098 18.098 18.098h11.523c.07 29.672-.164 28.574.196 29.746l-84.579 51.457c-31.836 4.934-37.425 47.976-8.832 61.351l99.801 46.692c.324 1.082.711 2.133 1.153 3.156l-13.11 28.988a12.915 12.915 0 0 0 4.535 16.051l12 8.121c8.172 5.535 16.559-6.82 8.371-12.363l-10.609-7.184 9.41-20.812a29.403 29.403 0 0 0 32.977-.008l9.418 20.82-10.614 7.184c-6.09 4.121-3.14 13.648 4.192 13.648 3.832 0 4.883-2.195 16.18-9.406a12.916 12.916 0 0 0 4.539-16.05l-13.118-29.004c8.266-19.23-5.761-40.77-26.664-41.07l-49.007-32.938 65.222-25.04c25.305-9.71 34.27-41.003 18.004-62.617 1.11-1.93.399-.875.617-30.726h11.528c9.976 0 18.097-8.117 18.097-18.098v-10.09h131.512c9.871 0 9.883-14.93 0-14.93H40.641c-24.84 0-33.086-33.077-17.953-33.077h464.308c15.152 0 6.817 33.078-17.95 33.078h-69.058c-9.87 0-9.886 14.93 0 14.93h69.059c22.305 0 40.445-18.145 40.445-40.446C509.492 10.094 499.402 0 486.996 0H22.687C10.285 0 .191 10.094.191 22.496c0 22.3 18.145 40.445 40.45 40.445zm14.997 124.371c12.789-2.835 11.824 3.567 100.465 61a29.569 29.569 0 0 0-10.723 15.532l-93.36-43.68c-14.96-7-12.664-29.242 3.618-32.851zm132.625 84.606c0 8.016-6.52 14.539-14.535 14.539-8.016 0-14.54-6.523-14.54-14.539s6.524-14.54 14.54-14.54c8.015 0 14.535 6.524 14.535 14.54zm11.574-116.098c-7.04 17.946-21.566 14.793-89.84 43.508 0 0-33.379-22.422-33.82-22.687l86.11-52.387c20.952-12.75 46.624 8.433 37.55 31.566zm-5.777-45.925c-21.723-10.93-40.106 1.984-40.22 2.02V91.132h40.22zm26.453-33.696c-90.32-1.332-96.297 2.926-96.297-3.164V62.941h99.465c-.614 5.715 1.867 13.258-3.168 13.258zm0 0" fill="#154194" opacity="1" data-original="#000000"></path></g></svg>