<svg xmlns="http://www.w3.org/2000/svg" version="1.1" xmlns:xlink="http://www.w3.org/1999/xlink" width="512" height="512" x="0" y="0" viewBox="0 0 66 66" style="enable-background:new 0 0 512 512" xml:space="preserve" class=""><g><path d="M66 48.9v-8.6c0-.8-.2-1.7-.7-2.4l-5.7-9.3c-.8-1.4-2.3-2.2-4-2.2h-9.2c-.4 0-.8.3-.9.6-.1.1-.1.3-.1.4v20.5H11.5c-.6 0-1 .4-1 1v9c0 .6.4 1 1 1h8v.5c0 3.6 3 6.6 6.6 6.6 3.7 0 6.6-3 6.6-6.6v-.5H47v.5c0 3.6 3 6.6 6.6 6.6 3.7 0 6.6-3 6.6-6.6v-.5H65c.6 0 1-.4 1-1zm-8.1-19.3 5.7 9.3c.1.1.1.2.2.4H47.5V28.4h8.2c.9 0 1.8.5 2.2 1.2zM47.5 41.3H64v6.6H47.5zM26.3 64c-2.6 0-4.6-2.1-4.6-4.6s2.1-4.6 4.6-4.6c2.6 0 4.6 2.1 4.6 4.6S28.8 64 26.3 64zm27.3 0C51 64 49 61.9 49 59.4s2.1-4.6 4.6-4.6c2.6 0 4.6 2.1 4.6 4.6S56.1 64 53.6 64zM64 56.9h-4.3c-1-2.4-3.4-4.2-6.2-4.2s-5.2 1.7-6.2 4.1h-15c-1-2.4-3.4-4.1-6.2-4.1s-5.2 1.7-6.2 4.2h-7.5v-7h51.4v7z" fill="#154194" opacity="1" data-original="#000000" class=""></path><path d="M20 45.6h22.6c.6 0 1-.4 1-1V23.5c0-.6-.4-1-1-1H20c-.6 0-1 .4-1 1v21.1c0 .5.5 1 1 1zm1-2V29.1h6.3v2.6c0 .4.3.8.6.9.4.2.8.1 1.1-.2l2.3-2.5 2.3 2.5c.3.3.7.4 1.1.2s.6-.5.6-.9v-2.6h6.3v14.5zm20.6-16.5h-6.3v-2.7h6.3zm-8.2-2.7v4.8L32 27.8c-.2-.2-.5-.3-.7-.3s-.5.1-.7.3l-1.3 1.4v-4.8zm-6.1 0v2.7H21v-2.7zM23.7 9.6c.1.1.1.2.2.3l5.5 5.5c.4.4 1 .4 1.4 0s.4-1 0-1.4L27 10.2h25v13.9c0 .6.4 1 1 1s1-.4 1-1V9.2c0-.6-.4-1-1-1H27l3.8-3.8c.4-.4.4-1 0-1.4s-1-.4-1.4 0l-5.5 5.5c-.1.1-.2.2-.2.3-.1.3-.1.5 0 .8zM16.5 10.1c0-3.6-2.9-6.6-6.4-6.6-3.6 0-6.4 3-6.4 6.6s2.9 6.6 6.4 6.6 6.4-3 6.4-6.6zm-10.9 0c0-2.5 2-4.6 4.4-4.6s4.4 2.1 4.4 4.6-2 4.6-4.4 4.6-4.4-2.1-4.4-4.6z" fill="#154194" opacity="1" data-original="#000000" class=""></path><path d="M17.2 31.9c0-1.6-1.4-3-3.6-3.7 2.7-5.2 6.5-13.2 6.5-17.8 0-5.8-4.5-10.4-10-10.4C4.5 0 0 4.6 0 10.3c0 4.8 3.8 12.8 6.5 17.9-2.2.7-3.5 2.1-3.5 3.7 0 2.4 3.1 4.3 7.1 4.3s7.1-1.9 7.1-4.3zM10.1 2c4.4 0 8.1 3.7 8.1 8.3 0 5.3-5.8 16.2-8.1 20.2C7.8 26.6 2 15.9 2 10.3 2 5.7 5.6 2 10.1 2zm0 32.2c-3 0-5.1-1.2-5.1-2.3 0-.6.9-1.5 2.5-1.9 1 1.8 1.7 2.9 1.8 3.1.2.3.5.5.9.5s.7-.2.9-.5c.1-.2.8-1.3 1.7-3.1 1.6.5 2.5 1.3 2.5 1.9-.1 1.1-2.3 2.3-5.2 2.3z" fill="#154194" opacity="1" data-original="#000000" class=""></path></g></svg>