<svg xmlns="http://www.w3.org/2000/svg" version="1.1" xmlns:xlink="http://www.w3.org/1999/xlink" width="512" height="512" x="0" y="0" viewBox="0 0 512 512" style="enable-background:new 0 0 512 512" xml:space="preserve"><g><path d="M135.95 389.52c-20.64 0-37.44 16.8-37.44 37.44s16.8 37.44 37.44 37.44 37.44-16.8 37.44-37.44c0-20.65-16.8-37.44-37.44-37.44zm0 62.88c-14.03 0-25.44-11.41-25.44-25.44s11.41-25.44 25.44-25.44 25.44 11.41 25.44 25.44c0 14.02-11.41 25.44-25.44 25.44zm294.49-82.86v-62.5c0-1.56-.6-2.98-1.58-4.05h.01l-29.89-32.67a6.011 6.011 0 0 0-4.43-1.95h-22.93v-24.08c0-5.65-4.6-10.25-10.25-10.25h-13.3l-28.03-48.55c-1.07-1.86-3.05-3-5.2-3h-55.75c-5.03 0-9.12 4.09-9.12 9.12v42.43H239.2c-5.65 0-10.25 4.6-10.25 10.25v24.08h-50.61V111.01c9.5-2.63 16.49-11.35 16.49-21.67 0-12.4-10.09-22.49-22.49-22.49s-22.49 10.09-22.49 22.49c0 10.32 6.99 19.04 16.49 21.67v157.35H131.8c-1.68 0-3.29.71-4.43 1.95l-29.89 32.67h.01a5.958 5.958 0 0 0-1.58 4.05v62.5c-18.12 12.67-30 33.68-30 57.42 0 38.62 31.42 70.04 70.04 70.04 24.87 0 46.74-13.04 59.17-32.63h136.11c12.43 19.59 34.3 32.63 59.17 32.63 38.62 0 70.04-31.42 70.04-70.04 0-23.73-11.88-44.74-30-57.41zm-268.6-280.2c0-5.78 4.71-10.49 10.49-10.49s10.49 4.71 10.49 10.49-4.71 10.49-10.49 10.49-10.49-4.71-10.49-10.49zM390.4 356.91c-18.92 0-36.1 7.55-48.72 19.79h-74.95l-23.36-42.68a6.002 6.002 0 0 0-5.26-3.12h-59.77v-17.87h240.1v49.76a69.668 69.668 0 0 0-28.04-5.88zM261.95 194.47h49.41l22.84 39.55h-72.25zm-21.01 51.56h118.67v22.33H240.94zm-106.49 34.33H391.9l18.91 20.67H115.53zm1.5 204.64c-32.01 0-58.04-26.04-58.04-58.04 0-32.01 26.04-58.04 58.04-58.04s58.04 26.04 58.04 58.04S167.95 485 135.95 485zm65.25-32.63a69.714 69.714 0 0 0 4.79-25.42c0-38.62-31.42-70.04-70.04-70.04-9.97 0-19.45 2.11-28.04 5.88v-49.76h58.42v23.87c0 3.31 2.69 6 6 6h62.21l23.36 42.68a6.002 6.002 0 0 0 5.26 3.12h68.59c-7.21 11.01-11.41 24.14-11.41 38.25 0 8.96 1.71 17.53 4.79 25.42zM390.4 485c-32.01 0-58.04-26.04-58.04-58.04 0-32.01 26.04-58.04 58.04-58.04s58.04 26.04 58.04 58.04S422.4 485 390.4 485zm0-95.48c-20.64 0-37.44 16.8-37.44 37.44s16.8 37.44 37.44 37.44 37.44-16.8 37.44-37.44c0-20.65-16.8-37.44-37.44-37.44zm0 62.88c-14.03 0-25.44-11.41-25.44-25.44s11.41-25.44 25.44-25.44 25.44 11.41 25.44 25.44c0 14.02-11.42 25.44-25.44 25.44zM254.56 25.24c-2.34-2.34-2.34-6.14 0-8.49 2.34-2.34 6.14-2.34 8.49 0 19.39 19.39 30.06 45.16 30.06 72.58s-10.68 53.19-30.06 72.58a5.991 5.991 0 0 1-8.48 0c-2.34-2.34-2.34-6.14 0-8.49 17.12-17.12 26.55-39.88 26.55-64.09s-9.44-46.97-26.56-64.09zm-20.5 20.5c-2.34-2.34-2.34-6.14 0-8.49 2.34-2.34 6.14-2.34 8.49 0 13.91 13.91 21.57 32.41 21.57 52.08s-7.66 38.17-21.57 52.08a5.991 5.991 0 0 1-8.48 0c-2.34-2.34-2.34-6.14 0-8.49 11.65-11.65 18.06-27.13 18.06-43.6s-6.42-31.94-18.07-43.58zm-20.5 66.7c6.17-6.17 9.57-14.38 9.57-23.1s-3.4-16.93-9.57-23.1c-2.34-2.34-2.34-6.14 0-8.49 2.34-2.34 6.14-2.34 8.49 0 8.44 8.44 13.08 19.66 13.08 31.59s-4.65 23.15-13.08 31.59a5.991 5.991 0 0 1-8.48 0c-2.35-2.35-2.35-6.15-.01-8.49zM81.62 161.92c-19.39-19.39-30.06-45.16-30.06-72.58s10.68-53.19 30.06-72.58c2.34-2.34 6.14-2.34 8.49 0 2.34 2.34 2.34 6.14 0 8.49-17.12 17.12-26.55 39.88-26.55 64.1s9.43 46.97 26.55 64.09c2.34 2.34 2.34 6.14 0 8.49-1.17 1.17-2.71 1.76-4.24 1.76s-3.07-.6-4.25-1.77zm-1.07-72.58c0-19.67 7.66-38.17 21.57-52.08 2.34-2.34 6.14-2.34 8.49 0 2.34 2.34 2.34 6.14 0 8.49-11.65 11.65-18.06 27.13-18.06 43.6s6.41 31.95 18.06 43.6c2.34 2.34 2.34 6.14 0 8.49a5.991 5.991 0 0 1-8.48 0c-13.92-13.93-21.58-32.43-21.58-52.1zm28.98 0c0-11.93 4.65-23.15 13.08-31.59 2.34-2.34 6.14-2.34 8.49 0 2.34 2.34 2.34 6.14 0 8.49-6.17 6.17-9.57 14.38-9.57 23.1s3.4 16.93 9.57 23.1c2.34 2.34 2.34 6.14 0 8.49a5.991 5.991 0 0 1-8.48 0c-8.44-8.44-13.09-19.66-13.09-31.59zm220.19 255.53c0 3.31-2.69 6-6 6h-40.34c-3.31 0-6-2.69-6-6s2.69-6 6-6h40.34c3.31 0 6 2.68 6 6zm-40.38 75.67c0 3.31-2.69 6-6 6H243c-3.31 0-6-2.69-6-6s2.69-6 6-6h40.34c3.32 0 6 2.68 6 6z" fill="#154194" opacity="1" data-original="#000000"></path></g></svg>