<svg xmlns="http://www.w3.org/2000/svg" version="1.1" xmlns:xlink="http://www.w3.org/1999/xlink" width="512" height="512" x="0" y="0" viewBox="0 0 64 64" style="enable-background:new 0 0 512 512" xml:space="preserve" class=""><g><path d="M19 41a4 4 0 1 0 4 4 4 4 0 0 0-4-4Zm0 6a2 2 0 1 1 2-2 2 2 0 0 1-2 2Z" fill="#154194" opacity="1" data-original="#000000" class=""></path><circle cx="7" cy="25" r="2" fill="#154194" opacity="1" data-original="#000000" class=""></circle><circle cx="20" cy="7" r="2" fill="#154194" opacity="1" data-original="#000000" class=""></circle><path d="M62.707 29.293 58 24.586V22a1 1 0 0 0-.293-.707l-2.49-2.49 1.683-3.356h-.01A.978.978 0 0 0 57 15V9a5.006 5.006 0 0 0-5-5H32.974A4.977 4.977 0 0 0 29 2h-5.69a5.991 5.991 0 0 0-9.26 4.262l-3.565 1.189a9.046 9.046 0 0 0-5.969 6.619L3.1 20.452a5.991 5.991 0 0 0 3.36 10.521l6.287 8.981a8.078 8.078 0 0 0-1.72 3.8L9.153 55H6a5.006 5.006 0 0 0-5 5v2a1 1 0 0 0 1 1h34a1 1 0 0 0 1-1v-2a5.006 5.006 0 0 0-5-5h-3.153l-1.874-11.246a8.071 8.071 0 0 0-2.312-4.446l-11.837-12.89a5.8 5.8 0 0 0-.024-2.927l6.759-10.513c.146.01.292.022.441.022a5.962 5.962 0 0 0 3.31-1H29a4.977 4.977 0 0 0 3.974-2H47v5a.978.978 0 0 0 .115.443h-.01l1.678 3.357-2.49 2.49A1 1 0 0 0 46 22v2.586l-4.707 4.707A1 1 0 0 0 41 30v7a1 1 0 0 0 .293.707l5 5A1 1 0 0 0 48 42v-6a1 1 0 0 0-.293-.707L47 34.586v-2.172L49.414 30h5.172L57 32.414v2.172l-.707.707A1 1 0 0 0 56 36v6a1 1 0 0 0 1.707.707l5-5A1 1 0 0 0 63 37v-7a1 1 0 0 0-.293-.707ZM50.618 18l-1-2h4.764l-1 2ZM55 9v5h-6V9a3 3 0 0 1 6 0ZM6.469 14.5a7.043 7.043 0 0 1 4.649-5.155l3.037-1.012a5.966 5.966 0 0 0 .306.966l-7.956 9.726a5.968 5.968 0 0 0-1.084.193ZM3 25a4 4 0 1 1 4 4 4 4 0 0 1-4-4Zm32 35v1H3v-1a3 3 0 0 1 3-3h26a3 3 0 0 1 3 3ZM25 44.083 26.82 55H11.18L13 44.083a6.083 6.083 0 0 1 12 0Zm-5.126-7.032A8.422 8.422 0 0 0 19 37a8.06 8.06 0 0 0-4.784 1.564l-5.477-7.823a6.021 6.021 0 0 0 3.195-2.335Zm-8.1-15.666A6.023 6.023 0 0 0 8.865 19.3l6.735-8.233a6.018 6.018 0 0 0 1.917 1.389ZM20 11a4 4 0 1 1 4-4 4 4 0 0 1-4 4Zm9-1h-3.812a5.948 5.948 0 0 0 0-6H29a3 3 0 0 1 0 6Zm4.9-4h14.126a4.954 4.954 0 0 0-.926 2H33.9a5 5 0 0 0 0-2ZM48 22.414 50.414 20h3.172L56 22.414v2.35L54.382 28h-4.764L48 24.764Zm-2.707 8.879A1 1 0 0 0 45 32v3a1 1 0 0 0 .293.707l.707.707v3.172l-3-3v-6.172l3.726-3.726 1.057 2.112ZM61 36.586l-3 3v-3.172l.707-.707A1 1 0 0 0 59 35v-3a1 1 0 0 0-.293-.707l-2.49-2.49 1.057-2.115L61 30.414Z" fill="#154194" opacity="1" data-original="#000000" class=""></path><circle cx="52" cy="24" r="2" fill="#154194" opacity="1" data-original="#000000" class=""></circle></g></svg>