<svg xmlns="http://www.w3.org/2000/svg" version="1.1" xmlns:xlink="http://www.w3.org/1999/xlink" width="512" height="512" x="0" y="0" viewBox="0 0 128 128" style="enable-background:new 0 0 512 512" xml:space="preserve" class=""><g><path d="M64 43a21 21 0 1 0 21 21 21.024 21.024 0 0 0-21-21zm0 38a17 17 0 1 1 17-17 17.019 17.019 0 0 1-17 17z" fill="#154194" opacity="1" data-original="#000000" class=""></path><path d="M64 55a9 9 0 1 0 9 9 9.01 9.01 0 0 0-9-9zm0 14a5 5 0 1 1 5-5 5.005 5.005 0 0 1-5 5zM64 16a8 8 0 1 0-8-8 8.01 8.01 0 0 0 8 8zm0-12a4 4 0 1 1-4 4 4.004 4.004 0 0 1 4-4zM64 20.004a2 2 0 0 0-2 2v8.26a2 2 0 0 0-2.6 2.932l3 4a2 2 0 0 0 3.2 0l3-4a2 2 0 0 0-2.6-2.931v-8.261a2 2 0 0 0-2-2zM64 112a8 8 0 1 0 8 8 8.009 8.009 0 0 0-8-8zm0 12a4 4 0 1 1 4-4 4.004 4.004 0 0 1-4 4zM64 107.992a2 2 0 0 0 2-2V97.72a1.993 1.993 0 0 0 2.6-2.92l-3-4a2.074 2.074 0 0 0-3.2 0l-3 4a2 2 0 0 0 2.6 2.932v8.261a2 2 0 0 0 2 2zM120 56a8 8 0 1 0 8 8 8.01 8.01 0 0 0-8-8zm0 12a4 4 0 1 1 4-4 4.004 4.004 0 0 1-4 4zM97.602 59.798a2 2 0 0 0-2.8-.4l-4 3a2 2 0 0 0 0 3.2l4 3a2 2 0 0 0 2.932-2.6h8.26a2 2 0 0 0 0-4h-8.26a2.001 2.001 0 0 0-.132-2.2zM8 56a8 8 0 1 0 8 8 8.01 8.01 0 0 0-8-8zm0 12a4 4 0 1 1 4-4 4.004 4.004 0 0 1-4 4zM30.398 68.198a2.02 2.02 0 0 0 2.8.4l4-3a2 2 0 0 0 0-3.2l-4-3a2 2 0 0 0-2.932 2.6h-8.26a2 2 0 0 0 0 4h8.26a2.001 2.001 0 0 0 .132 2.2zM83.8 46.196c.689.001 5.04-.699 5.233-.726a1.999 1.999 0 0 0 .234-3.91l5.841-5.842a2 2 0 1 0-2.828-2.828L86.44 38.73a2 2 0 0 0-3.912.234l-.707 4.95a2 2 0 0 0 1.98 2.281zM43.917 81.82l-4.95.706a2 2 0 0 0-.235 3.911l-5.84 5.841a2 2 0 1 0 2.828 2.828l5.841-5.841a2 2 0 0 0 3.912-.234l.707-4.949a2 2 0 0 0-2.263-2.263zM95.108 92.278l-5.842-5.842a1.999 1.999 0 0 0-.233-3.91l-4.95-.707a2 2 0 0 0-2.262 2.263s.706 4.943.707 4.95a2.031 2.031 0 0 0 2.262 1.695 2 2 0 0 0 1.65-1.461l5.84 5.84a2.038 2.038 0 0 0 2.828 0 2 2 0 0 0 0-2.828zM32.892 35.718l5.84 5.84a2 2 0 0 0 .235 3.912l4.95.707a2 2 0 0 0 2.262-2.263l-.707-4.95a2 2 0 0 0-3.912-.234l-5.84-5.84a2 2 0 1 0-2.828 2.828zM24.403 32.401a8 8 0 1 0-8-8 8.01 8.01 0 0 0 8 8zm0-12a4 4 0 1 1-4 4 4.004 4.004 0 0 1 4-4zM103.596 16.401a8 8 0 1 0 8 8 8.009 8.009 0 0 0-8-8zm0 12a4 4 0 1 1 4-4 4.004 4.004 0 0 1-4 4zM24.403 95.595a8 8 0 1 0 8 8 8.009 8.009 0 0 0-8-8zm0 12a4 4 0 1 1 4-4 4.004 4.004 0 0 1-4 4zM103.596 95.595a8 8 0 1 0 8 8 8.009 8.009 0 0 0-8-8zm0 12a4 4 0 1 1 4-4 4.004 4.004 0 0 1-4 4z" fill="#154194" opacity="1" data-original="#000000" class=""></path></g></svg>