<?xml version="1.0" encoding="UTF-8"?>
<svg xmlns="http://www.w3.org/2000/svg" xmlns:xlink="http://www.w3.org/1999/xlink" version="1.1" width="512" height="512" x="0" y="0" viewBox="0 0 74 74" style="enable-background:new 0 0 512 512" xml:space="preserve" class="">
  <g>
    <path d="M37.291 48.487a11.472 11.472 0 1 1 11.472-11.472 11.485 11.485 0 0 1-11.472 11.472zm0-20.944a9.472 9.472 0 1 0 9.472 9.472 9.483 9.483 0 0 0-9.472-9.472z" fill="#154194" opacity="1" data-original="#000000"/>
    <path d="M47.712 37.075a1 1 0 0 1-.144-1.99L60.373 33.2a1 1 0 0 1 .291 1.978l-12.8 1.882a1.05 1.05 0 0 1-.152.015zM59.79 56.68a1 1 0 0 1-.595-.2l-15.16-11.219a1 1 0 1 1 1.191-1.607l15.16 11.222a1 1 0 0 1-.6 1.8zM27.137 63.7a1 1 0 0 1-.92-1.392l6.721-15.795a1 1 0 1 1 1.84.783l-6.72 15.8a1 1 0 0 1-.921.604zM14.182 43.437a1 1 0 0 1-.242-1.97l12.86-3.222a1 1 0 0 1 .487 1.941l-12.861 3.221a1.019 1.019 0 0 1-.244.03zM29.273 31.267a1 1 0 0 1-.585-.189l-9.052-6.536a1 1 0 1 1 1.171-1.621l9.052 6.536a1 1 0 0 1-.586 1.81zM38.823 27.653a1 1 0 0 1-.968-1.252l3.556-13.648a1 1 0 0 1 1.936.5l-3.556 13.652a1 1 0 0 1-.968.748z" fill="#154194" opacity="1" data-original="#000000"/>
    <path d="M14.781 27.543a7.679 7.679 0 1 1 7.679-7.678 7.687 7.687 0 0 1-7.679 7.678zm0-13.357a5.679 5.679 0 1 0 5.679 5.679 5.685 5.685 0 0 0-5.679-5.679zM43.738 14.186a6.093 6.093 0 1 1 6.093-6.093 6.1 6.1 0 0 1-6.093 6.093zm0-10.186a4.093 4.093 0 1 0 4.093 4.093A4.1 4.1 0 0 0 43.738 4zM64.372 38.444a4.917 4.917 0 1 1 4.917-4.917 4.922 4.922 0 0 1-4.917 4.917zm0-7.833a2.917 2.917 0 1 0 2.917 2.916 2.92 2.92 0 0 0-2.917-2.916zM64.218 65.414a6.5 6.5 0 0 1-6.446-5.809 6.481 6.481 0 1 1 6.446 5.809zm.008-10.972a4.431 4.431 0 0 0-.472.025 4.49 4.49 0 0 0-3.992 4.933 4.486 4.486 0 1 0 4.464-4.954zM26.078 72a5.219 5.219 0 1 1 5.222-5.219A5.225 5.225 0 0 1 26.078 72zm0-8.438a3.219 3.219 0 1 0 3.222 3.219 3.223 3.223 0 0 0-3.222-3.219zM9.384 50.191a6.093 6.093 0 1 1 6.093-6.091 6.1 6.1 0 0 1-6.093 6.091zm0-10.185a4.093 4.093 0 1 0 4.093 4.094 4.1 4.1 0 0 0-4.093-4.094z" fill="#154194" opacity="1" data-original="#000000"/>
  </g>
</svg>
