<?xml version="1.0" encoding="UTF-8"?>
<svg xmlns="http://www.w3.org/2000/svg" xmlns:xlink="http://www.w3.org/1999/xlink" version="1.1" width="512" height="512" x="0" y="0" viewBox="0 0 512 512" style="enable-background:new 0 0 512 512" xml:space="preserve">
  <g>
    <path d="M280.5 204c0 4.14 3.36 7.5 7.5 7.5h12.5v89h-89v-89H256c4.14 0 7.5-3.36 7.5-7.5 0-4.14-3.36-7.5-7.5-7.5h-48c-6.34 0-11.5 5.16-11.5 11.5v96c0 6.34 5.16 11.5 11.5 11.5h96c6.34 0 11.5-5.16 11.5-11.5v-96c0-6.34-5.16-11.5-11.5-11.5h-16c-4.14 0-7.5 3.36-7.5 7.5ZM41.5 30C35.16 30 30 35.16 30 41.5v52c0 6.34 5.16 11.5 11.5 11.5h52c6.34 0 11.5-5.16 11.5-11.5v-52c0-6.34-5.16-11.5-11.5-11.5ZM90 90H45V45h45ZM93.5 407h-52c-6.34 0-11.5 5.16-11.5 11.5v52c0 6.34 5.16 11.5 11.5 11.5h52c6.34 0 11.5-5.16 11.5-11.5v-52c0-6.34-5.16-11.5-11.5-11.5ZM90 467H45v-45h45Zm0 0" style="stroke:none;fill-rule:nonzero;fill-opacity:1;" fill="#154194" data-original="#000000" opacity="1"/>
    <path d="M396.5 135h96c10.754 0 19.5-8.746 19.5-19.5v-96C512 8.746 503.254 0 492.5 0h-96C385.746 0 377 8.746 377 19.5V60h-90c-4.14 0-7.5 3.36-7.5 7.5v99h-41v-29.29c8.73-3.097 15-11.433 15-21.21 0-12.406-10.094-22.5-22.5-22.5s-22.5 10.094-22.5 22.5c0 9.777 6.27 18.113 15 21.21v29.29h-33.508c-12.953 0-23.492 10.54-23.492 23.492V233.5H75V135h40.5c10.754 0 19.5-8.746 19.5-19.5V96c0-4.14-3.36-7.5-7.5-7.5-4.14 0-7.5 3.36-7.5 7.5v19.5c0 2.48-2.02 4.5-4.5 4.5h-96c-2.48 0-4.5-2.02-4.5-4.5v-96c0-2.48 2.02-4.5 4.5-4.5h96c2.48 0 4.5 2.02 4.5 4.5V64c0 4.14 3.36 7.5 7.5 7.5 4.14 0 7.5-3.36 7.5-7.5V19.5C135 8.746 126.254 0 115.5 0h-96C8.746 0 0 8.746 0 19.5v96C0 126.254 8.746 135 19.5 135H60v106c0 4.14 3.36 7.5 7.5 7.5h99v32h-10.29c-3.097-8.73-11.433-15-21.21-15-12.406 0-22.5 10.094-22.5 22.5s10.094 22.5 22.5 22.5c9.777 0 18.113-6.27 21.21-15h10.29v26.508c0 12.953 10.54 23.492 23.492 23.492H223.5v89.086H135V396.5c0-10.754-8.746-19.5-19.5-19.5h-96C8.746 377 0 385.746 0 396.5v96C0 503.254 8.746 512 19.5 512h96c10.754 0 19.5-8.746 19.5-19.5v-42.914h96c4.14 0 7.5-3.36 7.5-7.5V345.5h41v33.29c-8.73 3.097-15 11.433-15 21.21 0 12.406 10.094 22.5 22.5 22.5s22.5-10.094 22.5-22.5c0-9.777-6.27-18.113-15-21.21V345.5h27.508c12.953 0 23.492-10.54 23.492-23.492v-51.059h91.512V377H396.5c-10.754 0-19.5 8.746-19.5 19.5V416c0 4.14 3.36 7.5 7.5 7.5 4.14 0 7.5-3.36 7.5-7.5v-19.5c0-2.48 2.02-4.5 4.5-4.5h96c2.48 0 4.5 2.02 4.5 4.5v96c0 2.48-2.02 4.5-4.5 4.5h-96c-2.48 0-4.5-2.02-4.5-4.5v-44.625c0-4.14-3.36-7.5-7.5-7.5-4.14 0-7.5 3.36-7.5 7.5V492.5c0 10.754 8.746 19.5 19.5 19.5h96c10.754 0 19.5-8.746 19.5-19.5v-96c0-10.754-8.746-19.5-19.5-19.5h-40.488V263.45c0-4.141-3.36-7.5-7.5-7.5H345.5V230.5h35.738c3.098 8.73 11.434 15 21.211 15 12.406 0 22.5-10.094 22.5-22.5s-10.094-22.5-22.5-22.5c-9.777 0-18.113 6.27-21.21 15H345.5v-25.508c0-12.953-10.54-23.492-23.492-23.492H294.5V75H377v40.5c0 10.754 8.746 19.5 19.5 19.5ZM231 108.5c4.137 0 7.5 3.363 7.5 7.5 0 4.137-3.363 7.5-7.5 7.5-4.137 0-7.5-3.363-7.5-7.5 0-4.137 3.363-7.5 7.5-7.5Zm-96 187c-4.137 0-7.5-3.363-7.5-7.5 0-4.137 3.363-7.5 7.5-7.5 4.137 0 7.5 3.363 7.5 7.5 0 4.137-3.363 7.5-7.5 7.5Zm-15 197c0 2.48-2.02 4.5-4.5 4.5h-96c-2.48 0-4.5-2.02-4.5-4.5v-96c0-2.48 2.02-4.5 4.5-4.5h96c2.48 0 4.5 2.02 4.5 4.5Zm167-85c-4.137 0-7.5-3.363-7.5-7.5 0-4.137 3.363-7.5 7.5-7.5 4.137 0 7.5 3.363 7.5 7.5 0 4.137-3.363 7.5-7.5 7.5Zm115.45-192c4.136 0 7.5 3.363 7.5 7.5 0 4.137-3.364 7.5-7.5 7.5-4.137 0-7.5-3.363-7.5-7.5 0-4.137 3.363-7.5 7.5-7.5Zm-71.95-25.508v132.016c0 4.683-3.809 8.492-8.492 8.492H189.992c-4.683 0-8.492-3.809-8.492-8.492V189.992c0-4.683 3.809-8.492 8.492-8.492h132.016c4.683 0 8.492 3.809 8.492 8.492ZM396.5 15h96c2.48 0 4.5 2.02 4.5 4.5v96c0 2.48-2.02 4.5-4.5 4.5h-96c-2.48 0-4.5-2.02-4.5-4.5V67.695c.004-.066.012-.129.012-.195s-.008-.129-.012-.195V19.5c0-2.48 2.02-4.5 4.5-4.5Zm0 0" style="stroke:none;fill-rule:nonzero;fill-opacity:1;" fill="#154194" data-original="#000000" opacity="1"/>
    <path d="M418.5 105h52c6.34 0 11.5-5.16 11.5-11.5v-52c0-6.34-5.16-11.5-11.5-11.5h-52c-6.34 0-11.5 5.16-11.5 11.5v52c0 6.34 5.16 11.5 11.5 11.5Zm3.5-60h45v45h-45ZM470.5 482c6.34 0 11.5-5.16 11.5-11.5v-52c0-6.34-5.16-11.5-11.5-11.5h-52c-6.34 0-11.5 5.16-11.5 11.5v52c0 6.34 5.16 11.5 11.5 11.5ZM422 422h45v45h-45Zm0 0" style="stroke:none;fill-rule:nonzero;fill-opacity:1;" fill="#154194" data-original="#000000" opacity="1"/>
  </g>
</svg>
