<svg xmlns="http://www.w3.org/2000/svg" version="1.1" xmlns:xlink="http://www.w3.org/1999/xlink" width="512" height="512" x="0" y="0" viewBox="0 0 68 68" style="enable-background:new 0 0 512 512" xml:space="preserve"><g><path d="M40.9 2.1c-.6 0-1 .4-1 1v2.1c0 .6.4 1 1 1s1-.4 1-1V3.1c0-.5-.4-1-1-1zM48 3.2 46.5 5c-.3.4-.3 1.1.1 1.4s1.1.3 1.4-.1l1.5-1.8c.3-.4.3-1.1-.1-1.4-.4-.4-1-.3-1.4.1zM32.4 3.1c-.4.4-.5 1-.1 1.4l1.5 1.8c.3.4 1 .5 1.4.1s.5-1 .1-1.4l-1.5-1.8c-.3-.4-1-.5-1.4-.1z" fill="#154194" opacity="1" data-original="#000000"></path><path d="M2 16.9v25.9c0 .6.4 1 1 1s1-.4 1-1V16.9c0-1.1.9-2 2-2h13c.9 0 1.6.6 1.9 1.4l.9 2.7c.5 1.7 2.1 2.8 3.8 2.8h7.9c2.3 1.2 4.8 1.9 7.4 1.9h.1c4.2 0 8.1-1.7 11-4.6l2.8-2.8c.4-.4.4-1 0-1.4L52 12.1c-6.1-6-16-6-22 .1L27.2 15c-.4.4-.4 1 0 1.4l2.8 2.8c.2.2.5.4.7.6h-5c-.9 0-1.6-.6-1.9-1.4l-.9-2.7c-.5-1.7-2.1-2.8-3.8-2.8H6c-2.2 0-4 1.8-4 4zm27.2-1.3 2.1-2.1c5.3-5.3 13.9-5.3 19.2-.1l2.1 2.1-2.1 2.1c-2.5 2.6-6 4-9.6 4h-.1c-7.1 0-10.4-5.1-11.6-6z" fill="#154194" opacity="1" data-original="#000000"></path><path d="M66 31.6c0-2.3-1.9-4.2-4.2-4.2h-3.1c-.6 0-1 .4-1 1s.4 1 1 1h3.1c1.2 0 2.2 1 2.2 2.2v30.1c0 1.2-1 2.2-2.2 2.2h-6.7V41.6h3.6v17.5c0 .6.4 1 1 1s1-.4 1-1V40.6c0-.6-.4-1-1-1h-5.6c-.6 0-1 .4-1 1v23.2h-3.5V50.2c0-.6-.4-1-1-1H43c-.6 0-1 .4-1 1v13.7h-9.2V47.2h3.6v12.9c0 .6.4 1 1 1s1-.4 1-1V46.2c0-.6-.4-1-1-1h-5.6c-.6 0-1 .4-1 1v17.7h-3.5v-8.4c0-.6-.4-1-1-1h-5.6c-.6 0-1 .4-1 1v8.4h-5.3c1.4-1.3 2.3-3.2 2.3-5.3v-27c0-1.2 1-2.2 2.2-2.2h29.7c.6 0 1-.4 1-1s-.4-1-1-1H18.9c-2.3 0-4.2 1.9-4.2 4.2v27c0 2.9-2.4 5.3-5.3 5.3S4 61.5 4 58.6V48.5c0-.6-.4-1-1-1s-1 .4-1 1v10.1c0 4 3.3 7.3 7.3 7.3h52.5c2.3 0 4.2-1.9 4.2-4.2zM21.7 56.5h3.6v7.4h-3.6zM44 51.2h3.6v12.7H44z" fill="#154194" opacity="1" data-original="#000000"></path><path d="M58.1 25.9c2.1 0 3.8-1.7 3.8-3.8s-1.7-3.8-3.8-3.8-3.8 1.7-3.8 3.8c0 1 .4 1.9 1 2.5l-6.9 11.1c-.4-.1-.8-.2-1.3-.2-1.5 0-2.7.8-3.3 2.1l-6-1.8c-.1-2-1.7-3.6-3.7-3.6-2.1 0-3.8 1.7-3.8 3.8 0 .5.1.9.3 1.3l-5.3 6.8c-.5-.3-1.1-.4-1.7-.4-2.1 0-3.8 1.7-3.8 3.8s1.7 3.8 3.8 3.8 3.8-1.7 3.8-3.8c0-.7-.2-1.4-.6-2l5-6.5c.6.5 1.4.8 2.3.8 1.4 0 2.7-.8 3.3-2l6 1.8c.1 2 1.8 3.5 3.7 3.5 2.1 0 3.8-1.7 3.8-3.8 0-.9-.3-1.7-.9-2.4l7-11.2c.3.1.7.2 1.1.2zm0-5.6c1 0 1.8.8 1.8 1.8s-.8 1.8-1.8 1.8-1.8-.8-1.8-1.8.8-1.8 1.8-1.8zM23.5 49.2c-1 0-1.8-.8-1.8-1.8s.8-1.8 1.8-1.8 1.8.8 1.8 1.8-.8 1.8-1.8 1.8zM34 37.7c-1 0-1.8-.8-1.8-1.8s.8-1.8 1.8-1.8 1.8.8 1.8 1.8-.8 1.8-1.8 1.8zM47.1 41c-1 0-1.8-.8-1.8-1.8s.8-1.8 1.8-1.8 1.8.8 1.8 1.8-.8 1.8-1.8 1.8zM40.8 19.8c2.3 0 4.2-1.9 4.2-4.2s-1.9-4.2-4.2-4.2c-1.1 0-2.2.4-3 1.2s-1.2 1.8-1.2 3c.1 2.3 1.9 4.2 4.2 4.2zm-1.5-5.7c.4-.4 1-.6 1.5-.6 1.2 0 2.2 1 2.2 2.2s-1 2.2-2.2 2.2c-1.2 0-2.2-1-2.2-2.2 0-.7.3-1.2.7-1.6z" fill="#154194" opacity="1" data-original="#000000"></path></g></svg>