<svg xmlns="http://www.w3.org/2000/svg" version="1.1" xmlns:xlink="http://www.w3.org/1999/xlink" width="512" height="512" x="0" y="0" viewBox="0 0 512 512" style="enable-background:new 0 0 512 512" xml:space="preserve" class=""><g><path d="M274.696 397.138a7 7 0 0 1-7 7h-23.394a7 7 0 1 1 0-14h23.394a7 7 0 0 1 7 7zM75.283 110.768c-19.566 0-35.484-15.918-35.484-35.485 0-19.566 15.918-35.484 35.484-35.484 19.565 0 35.483 15.918 35.483 35.484.001 19.567-15.917 35.485-35.483 35.485zm0-14c11.846 0 21.483-9.638 21.483-21.485 0-11.846-9.638-21.484-21.483-21.484-11.847 0-21.484 9.638-21.484 21.484 0 11.847 9.638 21.485 21.484 21.485zm180.717 14c-19.566 0-35.484-15.918-35.484-35.485 0-19.566 15.918-35.484 35.484-35.484s35.484 15.918 35.484 35.484c0 19.567-15.918 35.485-35.484 35.485zm0-14c11.847 0 21.484-9.638 21.484-21.485 0-11.846-9.638-21.484-21.484-21.484s-21.484 9.638-21.484 21.484c0 11.847 9.637 21.485 21.484 21.485zm247-27.412v11.856c0 6.007-4.888 10.895-10.895 10.895-3.784 0-5.277 2.895-5.646 3.782-.367.887-1.358 3.99 1.317 6.666 2.058 2.058 3.191 4.793 3.191 7.703s-1.134 5.646-3.19 7.704l-8.384 8.384c-2.058 2.058-4.793 3.191-7.704 3.191s-5.646-1.133-7.704-3.192c-2.677-2.675-5.78-1.684-6.666-1.316-.888.368-3.782 1.861-3.782 5.645 0 5.645-4.316 10.3-9.822 10.84v27.45a7 7 0 0 1-7 7h-83.65v22.66h35.488c12.478 0 22.629 10.153 22.629 22.632v175.767c0 15.591-12.685 28.276-28.276 28.276H300.83c.653 14.242 4.222 28.515 8.246 37.8h16.197c11.001 0 19.951 8.95 19.951 19.951S336.274 503 325.273 503H186.729c-11.001 0-19.95-8.95-19.95-19.951s8.949-19.951 19.95-19.951h16.133c3.833-9.149 7.173-23.378 7.68-37.8h-81.449c-15.591 0-28.275-12.685-28.275-28.276V226.899c0-15.591 12.685-28.276 28.275-28.276h29.841v-22.66h-83.65a7 7 0 0 1-7-7v-27.45c-5.506-.54-9.822-5.195-9.822-10.84 0-3.794-2.892-5.287-3.778-5.654-.885-.367-3.986-1.358-6.671 1.327-2.057 2.057-4.792 3.19-7.703 3.19s-5.646-1.133-7.704-3.192l-8.383-8.383c-2.057-2.056-3.19-4.792-3.19-7.703s1.134-5.647 3.192-7.705c2.674-2.674 1.683-5.777 1.315-6.665-.368-.887-1.861-3.782-5.646-3.782C13.887 92.106 9 87.219 9 81.212V69.356c0-6.007 4.887-10.894 10.894-10.894 3.784 0 5.277-2.895 5.646-3.782.367-.887 1.358-3.991-1.317-6.667a10.816 10.816 0 0 1-3.19-7.703c0-2.911 1.134-5.647 3.192-7.705l8.381-8.382c2.058-2.058 4.794-3.191 7.704-3.191s5.646 1.133 7.704 3.19c2.674 2.675 5.778 1.685 6.666 1.317.888-.367 3.782-1.86 3.782-5.645C58.461 13.887 63.348 9 69.354 9H81.21c6.007 0 10.895 4.887 10.895 10.895 0 3.784 2.895 5.277 3.782 5.645.888.368 3.992 1.357 6.667-1.317a10.815 10.815 0 0 1 7.702-3.19c2.91 0 5.646 1.133 7.704 3.19l8.384 8.384c2.057 2.058 3.19 4.793 3.19 7.704s-1.134 5.646-3.191 7.704c-2.675 2.675-1.684 5.778-1.316 6.666.368.887 1.861 3.782 5.645 3.782 6.007 0 10.895 4.887 10.895 10.894v11.856c0 6.007-4.888 10.895-10.895 10.895-3.783 0-5.276 2.895-5.645 3.782-.367.888-1.358 3.991 1.317 6.667 2.057 2.058 3.19 4.793 3.19 7.703s-1.134 5.646-3.19 7.704l-8.384 8.384c-2.058 2.058-4.793 3.191-7.704 3.191s-5.647-1.134-7.705-3.193c-2.675-2.674-5.778-1.682-6.664-1.314-.888.368-3.782 1.861-3.782 5.645 0 5.645-4.317 10.299-9.822 10.84v20.45h83.65a7 7 0 0 1 7 7v29.66H249v-57.11c-5.506-.54-9.822-5.195-9.822-10.84 0-3.794-2.892-5.287-3.778-5.654-.885-.367-3.986-1.358-6.671 1.327a10.82 10.82 0 0 1-7.702 3.19 10.819 10.819 0 0 1-7.704-3.192l-8.384-8.383a10.82 10.82 0 0 1-3.19-7.704c0-2.911 1.134-5.647 3.192-7.705 2.674-2.674 1.683-5.777 1.315-6.665-.368-.887-1.861-3.782-5.646-3.782-6.007 0-10.894-4.887-10.894-10.895V69.356c0-6.007 4.887-10.894 10.894-10.894 3.784 0 5.277-2.895 5.646-3.782.367-.887 1.358-3.991-1.317-6.667a10.816 10.816 0 0 1-3.19-7.703c0-2.911 1.134-5.647 3.192-7.705l8.382-8.382a10.823 10.823 0 0 1 7.704-3.19c2.909 0 5.646 1.133 7.703 3.19 2.675 2.675 5.779 1.685 6.666 1.317.888-.367 3.782-1.86 3.782-5.645 0-6.007 4.887-10.895 10.894-10.895h11.856c6.007 0 10.895 4.887 10.895 10.895 0 3.784 2.895 5.277 3.782 5.645.888.368 3.992 1.357 6.667-1.317a10.815 10.815 0 0 1 7.702-3.19c2.91 0 5.646 1.133 7.704 3.19l8.384 8.384c2.057 2.058 3.19 4.793 3.19 7.704s-1.134 5.646-3.191 7.704c-2.675 2.675-1.684 5.778-1.316 6.666.368.887 1.861 3.782 5.645 3.782 6.007 0 10.895 4.887 10.895 10.894v11.856c0 6.007-4.888 10.895-10.895 10.895-3.783 0-5.276 2.895-5.645 3.782-.367.888-1.358 3.991 1.317 6.667 2.057 2.058 3.19 4.793 3.19 7.703s-1.134 5.646-3.19 7.704l-8.384 8.384c-2.058 2.058-4.793 3.191-7.704 3.191s-5.647-1.134-7.705-3.193c-2.675-2.674-5.778-1.682-6.664-1.314-.888.368-3.782 1.861-3.782 5.645 0 5.645-4.317 10.299-9.822 10.84v57.11h76.065v-29.66a7 7 0 0 1 7-7h83.65v-20.45c-5.505-.541-9.822-5.195-9.822-10.84 0-3.794-2.892-5.287-3.778-5.654-.887-.367-3.988-1.355-6.669 1.326-2.058 2.058-4.793 3.191-7.704 3.191s-5.646-1.133-7.704-3.192l-8.384-8.383a10.825 10.825 0 0 1-3.19-7.704c0-2.91 1.134-5.646 3.19-7.703 2.677-2.676 1.686-5.779 1.318-6.666s-1.861-3.782-5.646-3.782c-6.007 0-10.895-4.887-10.895-10.895V69.356c0-6.007 4.888-10.894 10.895-10.894 3.784 0 5.277-2.895 5.645-3.782s1.359-3.99-1.317-6.667a10.821 10.821 0 0 1-3.19-7.703 10.83 10.83 0 0 1 3.19-7.704l8.384-8.384c2.058-2.058 4.794-3.19 7.704-3.19s5.646 1.133 7.704 3.19c2.675 2.676 5.778 1.684 6.666 1.317.887-.368 3.781-1.861 3.781-5.645 0-6.007 4.888-10.895 10.895-10.895h11.856c6.007 0 10.894 4.887 10.894 10.895 0 3.784 2.895 5.277 3.782 5.645.888.368 3.992 1.357 6.667-1.317 4.246-4.247 11.157-4.248 15.407 0l8.384 8.384c2.057 2.058 3.19 4.793 3.19 7.704s-1.134 5.646-3.191 7.704c-2.676 2.675-1.685 5.778-1.316 6.666.367.887 1.86 3.782 5.645 3.782 6.005 0 10.893 4.887 10.893 10.894zm-250.05 58.211h6.101c1.032-6.93 5.51-12.704 12.196-15.473 6.684-2.77 13.934-1.854 19.565 2.316l4.314-4.314c-4.171-5.631-5.087-12.879-2.316-19.566 2.77-6.687 8.542-11.164 15.473-12.196v-6.101c-6.931-1.033-12.703-5.509-15.473-12.196-2.771-6.688-1.854-13.936 2.316-19.567l-4.314-4.314c-5.633 4.171-12.881 5.086-19.566 2.317-6.687-2.77-11.163-8.543-12.195-15.474h-6.102c-1.032 6.931-5.509 12.704-12.195 15.474-6.688 2.77-13.935 1.854-19.566-2.317l-4.314 4.314c4.171 5.632 5.086 12.88 2.316 19.566-2.77 6.687-8.542 11.163-15.473 12.196v6.102c6.931 1.033 12.703 5.509 15.473 12.196 2.771 6.687 1.854 13.935-2.316 19.566l4.314 4.314c5.634-4.175 12.883-5.095 19.57-2.326 6.684 2.77 11.16 8.547 12.192 15.483zm-180.717 0h6.101c1.032-6.93 5.51-12.704 12.196-15.473 6.683-2.77 13.934-1.854 19.565 2.316l4.314-4.314c-4.171-5.631-5.087-12.879-2.316-19.566 2.77-6.687 8.542-11.164 15.473-12.196v-6.101c-6.931-1.033-12.703-5.509-15.473-12.196-2.771-6.688-1.854-13.936 2.316-19.567l-4.314-4.314c-5.633 4.171-12.881 5.086-19.566 2.317C83.843 35.704 79.366 29.931 78.334 23h-6.102c-1.032 6.931-5.509 12.704-12.195 15.474-6.688 2.77-13.935 1.854-19.567-2.317l-4.313 4.314c4.171 5.633 5.086 12.88 2.316 19.566C35.703 66.724 29.931 71.2 23 72.233v6.102c6.931 1.033 12.703 5.509 15.473 12.196 2.771 6.687 1.854 13.935-2.316 19.566l4.313 4.314c5.636-4.176 12.883-5.095 19.571-2.326 6.685 2.769 11.16 8.546 12.192 15.482zm253.04 349.531H186.729c-3.281 0-5.95 2.669-5.95 5.951s2.669 5.951 5.95 5.951h138.545c3.281 0 5.951-2.669 5.951-5.951s-2.67-5.951-5.952-5.951zm-38.448-51.8h-62.283c-.424 12.898-2.911 26.69-6.722 37.8h76.224c-4.01-11.229-6.68-25.029-7.219-37.8zm110.358-28.276v-14.045H114.817v14.045c0 7.872 6.404 14.276 14.275 14.276h253.813c7.873 0 14.278-6.404 14.278-14.276zm-44.118-184.399v69.191l12.185-12.184a7 7 0 1 1 9.898 9.899l-24.134 24.133a6.997 6.997 0 0 1-9.899 0l-24.133-24.133a7 7 0 0 1 9.9-9.899l12.183 12.183v-69.19H263v69.19l12.183-12.183a7 7 0 0 1 9.9 9.899l-24.133 24.133a7 7 0 0 1-9.9 0l-24.133-24.133a7 7 0 0 1 9.9-9.899L249 281.813v-69.19h-76.066v69.19l12.183-12.183a7 7 0 0 1 9.9 9.899l-24.133 24.133a7 7 0 0 1-9.899 0L136.85 279.53a7 7 0 0 1 9.899-9.899l12.185 12.184v-69.191h-29.841c-7.871 0-14.275 6.404-14.275 14.276v142.078h282.365V221.256c0-4.76-3.871-8.632-8.629-8.632h-35.489zM489 72.234c-6.931-1.033-12.704-5.509-15.474-12.196-2.771-6.688-1.854-13.935 2.317-19.566l-4.314-4.314c-5.631 4.17-12.879 5.087-19.567 2.317-6.687-2.77-11.163-8.543-12.195-15.474h-6.102c-1.032 6.931-5.509 12.704-12.195 15.474-6.688 2.77-13.936 1.853-19.566-2.317l-4.314 4.314c4.171 5.632 5.087 12.879 2.317 19.566s-8.543 11.164-15.474 12.196v6.101c6.931 1.033 12.704 5.51 15.474 12.197 2.771 6.687 1.854 13.935-2.317 19.565l4.314 4.314c5.635-4.176 12.883-5.095 19.569-2.327 6.686 2.77 11.161 8.546 12.193 15.483h6.101c1.032-6.93 5.51-12.704 12.196-15.473s13.936-1.853 19.566 2.317l4.314-4.314c-4.171-5.631-5.088-12.878-2.317-19.565 2.77-6.687 8.543-11.164 15.474-12.197zm-16.8 3.049c0 19.566-15.918 35.485-35.484 35.485s-35.484-15.918-35.484-35.485c0-19.566 15.918-35.484 35.484-35.484S472.2 55.718 472.2 75.283zm-14 0c0-11.846-9.638-21.484-21.484-21.484s-21.484 9.638-21.484 21.484c0 11.847 9.638 21.485 21.484 21.485S458.2 87.13 458.2 75.283z" fill="#154194" opacity="1" data-original="#000000" class=""></path></g></svg>