<svg xmlns="http://www.w3.org/2000/svg" version="1.1" xmlns:xlink="http://www.w3.org/1999/xlink" width="512" height="512" x="0" y="0" viewBox="0 0 32 32" style="enable-background:new 0 0 512 512" xml:space="preserve" class=""><g><path d="M27 20.5H16.5V10.41a1.5 1.5 0 1 0-1 0V20.5H5A2.5 2.5 0 0 0 2.5 23v4A2.5 2.5 0 0 0 5 29.5h22a2.5 2.5 0 0 0 2.5-2.5v-4a2.5 2.5 0 0 0-2.5-2.5zm-11-12a.5.5 0 1 1-.5.5.5.5 0 0 1 .5-.5zM28.5 27a1.5 1.5 0 0 1-1.5 1.5H5A1.5 1.5 0 0 1 3.5 27v-4A1.5 1.5 0 0 1 5 21.5h22a1.5 1.5 0 0 1 1.5 1.5zm-6-2a.5.5 0 0 1-.5.5H10a.5.5 0 0 1 0-1h12a.5.5 0 0 1 .5.5zm4 0a.5.5 0 0 1-.5.5h-1a.5.5 0 0 1 0-1h1a.5.5 0 0 1 .5.5zm-19 0a.5.5 0 0 1-.5.5H6a.5.5 0 0 1 0-1h1a.5.5 0 0 1 .5.5zm4.1-12.71a5.47 5.47 0 0 1 0-6.58.5.5 0 0 1 .8.6 4.47 4.47 0 0 0 0 5.38.5.5 0 0 1-.1.7.47.47 0 0 1-.3.1.51.51 0 0 1-.4-.2zm-3.66 2a8.78 8.78 0 0 1 0-10.6.5.5 0 1 1 .79.6 7.82 7.82 0 0 0 0 9.4.49.49 0 0 1-.39.8.51.51 0 0 1-.4-.19zm11.66-2.6a4.47 4.47 0 0 0 0-5.38.5.5 0 1 1 .8-.6 5.47 5.47 0 0 1 0 6.58.51.51 0 0 1-.4.2.47.47 0 0 1-.3-.1.5.5 0 0 1-.1-.7zm3.67 2a7.82 7.82 0 0 0 0-9.4.5.5 0 1 1 .79-.6 8.78 8.78 0 0 1 0 10.6.51.51 0 0 1-.4.2.49.49 0 0 1-.39-.8z" data-name="Layer 47" fill="#154194" opacity="1" data-original="#000000"></path></g></svg>