<svg xmlns="http://www.w3.org/2000/svg" version="1.1" xmlns:xlink="http://www.w3.org/1999/xlink" width="512" height="512" x="0" y="0" viewBox="0 0 60 60" style="enable-background:new 0 0 512 512" xml:space="preserve" class=""><g><path d="M29.998 16.197c-7.612 0-13.806 6.193-13.806 13.806s6.194 13.805 13.806 13.805 13.806-6.193 13.806-13.805-6.194-13.806-13.806-13.806zm0 25.611c-2.64 0-5.072-.881-7.04-2.35A8.904 8.904 0 0 1 30 36.018a8.904 8.904 0 0 1 7.04 3.436 11.728 11.728 0 0 1-7.042 2.353zm8.544-3.682A10.892 10.892 0 0 0 30 34.02c-3.366 0-6.475 1.52-8.544 4.11a11.753 11.753 0 0 1-3.264-8.126c0-6.51 5.296-11.806 11.806-11.806s11.806 5.296 11.806 11.806c0 3.148-1.246 6.005-3.262 8.123z" fill="#154194" opacity="1" data-original="#000000" class=""></path><path d="M29.998 21.88c-2.817 0-5.11 2.293-5.11 5.11s2.293 5.11 5.11 5.11 5.11-2.293 5.11-5.11-2.293-5.11-5.11-5.11zm0 8.22c-1.714 0-3.11-1.395-3.11-3.11s1.396-3.11 3.11-3.11 3.11 1.395 3.11 3.11-1.396 3.11-3.11 3.11z" fill="#154194" opacity="1" data-original="#000000" class=""></path><path d="M50.732 42.39a3.964 3.964 0 0 0 2.226-2.101 26.56 26.56 0 0 0 .823-2.056c.718-2.14-.427-4.49-2.61-5.352-1.86-.722-3.017-1.983-3.017-3.289 0-1.268 1.117-2.514 2.91-3.25 2.14-.864 3.185-3.337 2.33-5.511a23.047 23.047 0 0 0-.792-1.79c-.967-2.006-3.354-2.907-5.433-2.043-1.806.757-3.426.667-4.334-.242-.879-.88-.995-2.442-.31-4.181.832-2.11-.104-4.495-2.147-5.438a26.879 26.879 0 0 0-1.766-.709c-2.146-.79-4.533.205-5.429 2.267-.75 1.717-1.942 2.741-3.185 2.741s-2.434-1.024-3.184-2.738c-.897-2.065-3.284-3.062-5.421-2.273-.587.211-1.167.444-1.79.72-2.028.935-2.964 3.32-2.132 5.429.685 1.74.569 3.303-.31 4.182-.909.908-2.53.999-4.339.24-2.077-.86-4.46.04-5.425 2.039a22.83 22.83 0 0 0-.794 1.793c-.856 2.177.189 4.65 2.324 5.512 1.798.738 2.915 1.984 2.915 3.252 0 1.306-1.156 2.567-3.023 3.291-2.177.86-3.321 3.21-2.596 5.372.202.56.477 1.296.81 2.023a3.971 3.971 0 0 0 2.231 2.112c1.065.408 2.29.365 3.361-.117 1.857-.845 3.594-.785 4.536.156.954.954 1.003 2.724.128 4.614a4.388 4.388 0 0 0-.165 3.383 4.197 4.197 0 0 0 2.19 2.384c.626.294 1.225.55 1.782.76.488.183.994.273 1.497.273.603 0 1.203-.13 1.765-.39a4.35 4.35 0 0 0 2.272-2.501c.718-1.977 2.008-3.204 3.368-3.204s2.65 1.227 3.367 3.2a4.351 4.351 0 0 0 2.273 2.505c1.032.477 2.19.52 3.264.116.556-.21 1.154-.465 1.776-.757a4.2 4.2 0 0 0 2.194-2.386c.4-1.1.342-2.3-.163-3.38-.876-1.893-.828-3.663.126-4.617.942-.94 2.68-1.002 4.54-.154a4.411 4.411 0 0 0 3.357.115zm-9.311-1.375c-1.564 1.564-1.765 4.197-.525 6.875.28.598.314 1.256.097 1.853A2.214 2.214 0 0 1 39.832 51a23.03 23.03 0 0 1-1.634.697 2.208 2.208 0 0 1-1.72-.059 2.37 2.37 0 0 1-1.232-1.37c-1.013-2.788-3.024-4.52-5.248-4.52s-4.235 1.732-5.249 4.523a2.369 2.369 0 0 1-1.23 1.367 2.215 2.215 0 0 1-1.718.06 23.053 23.053 0 0 1-1.64-.7 2.21 2.21 0 0 1-1.158-1.255 2.406 2.406 0 0 1 .1-1.857c1.237-2.674 1.036-5.307-.528-6.87-.882-.883-2.107-1.333-3.486-1.333-1.036 0-2.159.254-3.288.768a2.383 2.383 0 0 1-1.822.071 1.975 1.975 0 0 1-1.123-1.065 24.59 24.59 0 0 1-.744-1.86c-.386-1.15.234-2.377 1.437-2.851 2.648-1.029 4.293-3.003 4.293-5.154 0-2.127-1.553-4.035-4.16-5.105-1.109-.447-1.666-1.787-1.216-2.932.197-.507.435-1.045.73-1.645.507-1.053 1.763-1.52 2.857-1.069 2.58 1.084 5.019.833 6.522-.671 1.46-1.458 1.742-3.825.757-6.33-.444-1.123.044-2.388 1.095-2.873.543-.24 1.087-.46 1.65-.662 1.134-.417 2.436.117 2.904 1.193 1.08 2.466 2.955 3.938 5.017 3.938s3.938-1.472 5.018-3.941c.467-1.075 1.771-1.609 2.912-1.187.554.199 1.098.418 1.627.653 1.066.49 1.553 1.756 1.11 2.88-.986 2.504-.703 4.87.756 6.329 1.503 1.503 3.94 1.754 6.517.673 1.099-.452 2.355.015 2.865 1.073.29.59.528 1.127.73 1.644.447 1.14-.11 2.48-1.223 2.93-2.602 1.067-4.156 2.975-4.156 5.102 0 2.15 1.645 4.125 4.288 5.15 1.204.477 1.825 1.698 1.446 2.845a24.912 24.912 0 0 1-.753 1.88c-.277.624-.76.918-1.118 1.055a2.386 2.386 0 0 1-1.818-.07c-2.636-1.198-5.233-.984-6.778.563z" fill="#154194" opacity="1" data-original="#000000" class=""></path></g></svg>