<svg xmlns="http://www.w3.org/2000/svg" version="1.1" xmlns:xlink="http://www.w3.org/1999/xlink" width="512" height="512" x="0" y="0" viewBox="0 0 512 512" style="enable-background:new 0 0 512 512" xml:space="preserve" class=""><g><path d="M461.276 32.262H50.724c-18.222 0-33.046 15.686-33.046 34.967V444.77c0 19.282 14.824 34.968 33.046 34.968h410.552c18.222 0 33.046-15.686 33.046-34.968V67.229c0-19.281-14.822-34.967-33.046-34.967zM50.724 44.949h410.552c11.226 0 20.36 10 20.36 22.28v47.14H30.364v-47.14c0-12.285 9.136-22.28 20.36-22.28zm410.552 422.1H50.724c-11.226 0-20.36-10-20.36-22.281V127.055h451.272V444.77c0 12.286-9.136 22.281-20.36 22.281zM180.59 82.456a6.343 6.343 0 0 1 6.343-6.343h248.211a6.343 6.343 0 1 1 0 12.686H186.933a6.343 6.343 0 0 1-6.343-6.343zm-40.485 0a6.35 6.35 0 1 1 6.368 6.343h-.025a6.343 6.343 0 0 1-6.348-6.343zm-34.8 0a6.35 6.35 0 1 1 6.368 6.343h-.025a6.343 6.343 0 0 1-6.34-6.343zm-34.8 0A6.35 6.35 0 1 1 76.88 88.8h-.026a6.343 6.343 0 0 1-6.343-6.344zm29.374 234.483a6.345 6.345 0 0 1 1.575-8.832l54.086-37.713a6.34 6.34 0 0 1 6.106-.636l50.041 21.235 53.537-50.253-5.054-.759a6.343 6.343 0 0 1 1.883-12.546l17.994 2.7c.068.01.132.028.2.04.117.021.235.043.352.071.088.021.175.048.261.072.11.032.22.063.329.1.09.031.177.067.265.1s.2.08.3.126.176.087.263.132.188.1.28.15.175.11.261.166.17.108.253.168.18.139.269.211c.071.057.143.111.212.172.108.1.211.2.312.3.041.041.085.077.125.12l.01.012c.139.149.271.3.394.465.073.094.137.193.2.291.047.07.1.137.143.209.069.109.129.222.19.335.036.065.075.129.108.2.055.11.1.223.151.336.032.075.067.149.1.226.04.1.073.211.108.317.029.09.059.179.085.27s.047.2.069.3.047.2.065.306.027.191.039.287.027.212.035.32.009.205.012.307.007.2 0 .3c0 .118-.013.236-.022.354 0 .071 0 .141-.013.212l-2.319 20.95a6.344 6.344 0 0 1-6.3 5.645 6.493 6.493 0 0 1-.706-.039 6.344 6.344 0 0 1-5.607-7l.427-3.856-53.553 50.268a6.347 6.347 0 0 1-6.819 1.214l-50.617-21.479-51.208 35.706a6.342 6.342 0 0 1-8.832-1.574zM304.4 412.246h-18.55V294.933a6.343 6.343 0 0 0-6.344-6.343H247.66a6.343 6.343 0 0 0-6.344 6.343v117.313h-5.093v-83.267a6.343 6.343 0 0 0-6.343-6.343h-31.847a6.343 6.343 0 0 0-6.343 6.343v83.267h-5.09V315.13a6.343 6.343 0 0 0-6.344-6.343h-31.849a6.343 6.343 0 0 0-6.344 6.343v97.116h-5.093v-69.7a6.343 6.343 0 0 0-6.343-6.343H98.78a6.343 6.343 0 0 0-6.343 6.343v69.7H80.225V227.96a6.343 6.343 0 1 0-12.686 0v190.629a6.343 6.343 0 0 0 6.343 6.343H304.4a6.343 6.343 0 1 0 0-12.686zM254 301.276h19.16v110.97H254zm-49.627 34.046h19.161v76.924h-19.158zm-49.623-13.849h19.16v90.773h-19.16zm-49.627 27.414h19.161v63.359h-19.161zm312.677-171.8a6.524 6.524 0 0 0-.552-.358 6.437 6.437 0 0 0-.6-.3 58.436 58.436 0 1 0 1.149.661zm15.593 44.013h-34.436l17.206-29.8a45.874 45.874 0 0 1 17.23 29.8zm-45.423 52.219a45.872 45.872 0 1 1 17.216-88.378l-22.71 39.335a6.343 6.343 0 0 0 5.494 9.514h45.422a45.932 45.932 0 0 1-45.422 39.529zM436 313.415a6.343 6.343 0 0 1-6.343 6.343h-83.37a6.343 6.343 0 0 1 0-12.686h83.366a6.343 6.343 0 0 1 6.347 6.343zm0 35.058a6.343 6.343 0 0 1-6.343 6.343h-83.37a6.344 6.344 0 0 1 0-12.687h83.366a6.343 6.343 0 0 1 6.347 6.344zm0 35.057a6.343 6.343 0 0 1-6.343 6.343h-83.37a6.343 6.343 0 1 1 0-12.686h83.366A6.343 6.343 0 0 1 436 383.53zm0 35.057a6.343 6.343 0 0 1-6.343 6.344h-83.37a6.344 6.344 0 0 1 0-12.687h83.366a6.343 6.343 0 0 1 6.347 6.343z" fill="#154194" opacity="1" data-original="#000000" class=""></path></g></svg>