<svg xmlns="http://www.w3.org/2000/svg" version="1.1" xmlns:xlink="http://www.w3.org/1999/xlink" width="512" height="512" x="0" y="0" viewBox="0 0 512 512" style="enable-background:new 0 0 512 512" xml:space="preserve" class=""><g><path d="M105.614 244.522h77.963c4.142 0 7.5-3.357 7.5-7.5s-3.358-7.5-7.5-7.5h-77.963c-4.142 0-7.5 3.357-7.5 7.5s3.358 7.5 7.5 7.5zM294.197 181.531c0-4.143-3.357-7.5-7.5-7.5h-20.944v-28.51c0-4.143-3.357-7.5-7.5-7.5a7.5 7.5 0 0 0-7.5 7.5v36.01a7.5 7.5 0 0 0 7.5 7.5h28.444c4.143 0 7.5-3.357 7.5-7.5z" fill="#154194" opacity="1" data-original="#000000"></path><path d="M471.509 440.138a35.727 35.727 0 0 0-21.152 6.911l-70.702-65.533 17.094-33.199a7.501 7.501 0 0 0-13.336-6.868l-32.773 63.649-59.755-116.048c-10.816-21.006-9.93-45.591 2.373-65.763 12.303-20.173 33.754-32.216 57.382-32.216s45.078 12.043 57.381 32.216c12.303 20.172 13.189 44.757 2.373 65.763l-10.955 21.276a7.501 7.501 0 0 0 13.336 6.868l10.955-21.276c13.23-25.694 12.146-55.766-2.902-80.44-13.067-21.425-34.573-35.346-58.931-38.643V110c0-4.143-3.357-7.5-7.5-7.5s-7.5 3.357-7.5 7.5v66.164a82.451 82.451 0 0 0-23.979 4.658c-.383-35.34-29.236-63.975-64.666-63.975a64.5 64.5 0 0 0-17.206 2.341v-27.74c0-7.125-5.796-12.921-12.921-12.921h-117.09c-7.125 0-12.921 5.796-12.921 12.921v94.968c0 7.125 5.796 12.921 12.921 12.921H143c4.142 0 7.5-3.357 7.5-7.5s-3.358-7.5-7.5-7.5h-29.886v-90.81h30.97v30.236c0 5.929 4.824 10.753 10.752 10.753h29.489c5.929 0 10.752-4.824 10.752-10.753V93.528h30.969v31.943c-19.388 11.182-32.477 32.114-32.477 56.06 0 .941.031 1.875.071 2.807H178c-4.142 0-7.5 3.357-7.5 7.5s3.358 7.5 7.5 7.5h18.083c7.755 27.031 32.68 46.876 62.17 46.876 3.8 0 7.521-.341 11.143-.973a81.065 81.065 0 0 0-.953 16.807H105.614c-4.142 0-7.5 3.357-7.5 7.5s3.358 7.5 7.5 7.5h164.948a83.086 83.086 0 0 0 6.322 17.525h-171.27c-4.142 0-7.5 3.357-7.5 7.5s3.358 7.5 7.5 7.5h178.967l25.459 49.444H195.005c-3.517-16.148-17.916-28.28-35.103-28.28s-31.586 12.132-35.103 28.28H73.901a2.675 2.675 0 0 1-2.672-2.672V61.371h275.668V75c0 4.143 3.357 7.5 7.5 7.5s7.5-3.357 7.5-7.5V17.672C361.897 7.928 353.969 0 344.225 0H73.901c-9.744 0-17.672 7.928-17.672 17.672v338.674c0 9.744 7.928 17.672 17.672 17.672h50.828a35.683 35.683 0 0 0 4.136 10.722l-67.223 62.308a35.732 35.732 0 0 0-21.151-6.91c-19.812 0-35.931 16.118-35.931 35.931S20.678 512 40.491 512s35.931-16.119 35.931-35.932c0-6.494-1.74-12.585-4.766-17.848l67.304-62.383a35.725 35.725 0 0 0 20.943 6.762c8.654 0 16.603-3.076 22.813-8.191l40.39 37.437a35.71 35.71 0 0 0-3.036 14.431c0 19.812 16.119 35.931 35.931 35.931s35.932-16.118 35.932-35.931a35.714 35.714 0 0 0-3.036-14.432l39.698-36.796 10.559 20.507a12.876 12.876 0 0 0 11.487 7.005c4.86 0 9.263-2.685 11.488-7.006l10.398-20.194 67.818 62.86a35.696 35.696 0 0 0-4.766 17.848c0 19.812 16.119 35.932 35.932 35.932s35.932-16.119 35.932-35.932-16.122-35.93-35.934-35.93zm-291.431-320.62h-20.994v-25.99h20.994zm93.848 109.154a49.395 49.395 0 0 1-15.674 2.542c-27.395 0-49.683-22.287-49.683-49.683s22.288-49.684 49.683-49.684c27.396 0 49.684 22.288 49.684 49.684 0 2.27-.16 4.502-.458 6.691-10.82 6.675-20.108 15.91-27.027 27.254a83.753 83.753 0 0 0-6.525 13.196zm-202.697-211A2.675 2.675 0 0 1 73.901 15h270.324a2.674 2.674 0 0 1 2.672 2.672v28.699H71.229zM40.491 497c-11.542 0-20.931-9.39-20.931-20.932 0-11.541 9.39-20.931 20.931-20.931s20.931 9.39 20.931 20.931c0 11.542-9.39 20.932-20.931 20.932zm119.411-109.4c-11.542 0-20.931-9.39-20.931-20.931 0-11.542 9.39-20.932 20.931-20.932s20.931 9.39 20.931 20.932c0 11.541-9.389 20.931-20.931 20.931zM256 467.207c-11.542 0-20.931-9.39-20.931-20.931 0-11.542 9.39-20.932 20.931-20.932 11.542 0 20.932 9.39 20.932 20.932-.001 11.541-9.39 20.931-20.932 20.931zm24.041-47.609c-6.372-5.748-14.804-9.254-24.041-9.254s-17.669 3.506-24.041 9.254l-39.88-36.964a35.615 35.615 0 0 0 2.996-8.617h122.689l3.7 7.186zM471.509 497c-11.542 0-20.932-9.39-20.932-20.932 0-11.541 9.39-20.931 20.932-20.931s20.932 9.39 20.932 20.931C492.44 487.61 483.051 497 471.509 497z" fill="#154194" opacity="1" data-original="#000000"></path><path d="M350.639 209.325c-28.794 0-52.219 23.425-52.219 52.219s23.425 52.22 52.219 52.22 52.22-23.426 52.22-52.22-23.426-52.219-52.22-52.219zm0 89.439c-20.522 0-37.219-16.696-37.219-37.22 0-20.522 16.696-37.219 37.219-37.219s37.22 16.696 37.22 37.219-16.696 37.22-37.22 37.22z" fill="#154194" opacity="1" data-original="#000000"></path><path d="M350.639 232.42c-16.059 0-29.124 13.065-29.124 29.124 0 16.06 13.065 29.125 29.124 29.125 16.06 0 29.125-13.065 29.125-29.125 0-16.059-13.065-29.124-29.125-29.124zm0 43.249c-7.788 0-14.124-6.337-14.124-14.125s6.336-14.124 14.124-14.124 14.125 6.336 14.125 14.124-6.337 14.125-14.125 14.125z" fill="#154194" opacity="1" data-original="#000000"></path></g></svg>