<svg xmlns="http://www.w3.org/2000/svg" version="1.1" xmlns:xlink="http://www.w3.org/1999/xlink" width="512" height="512" x="0" y="0" viewBox="0 0 512 512" style="enable-background:new 0 0 512 512" xml:space="preserve"><g><path d="M500.6 153.882c0-54.619-50.715-99.41-114.444-102.534a38.94 38.94 0 0 0-38.237-31.878H94.7a7 7 0 0 0-4.956 2.057l-76.3 76.5a7 7 0 0 0-2.044 4.943v350.676a38.929 38.929 0 0 0 38.882 38.884h297.637a38.929 38.929 0 0 0 38.881-38.884V256.38c63.428-3.393 113.8-48.064 113.8-102.498zM87.7 43.4v41.36a11.026 11.026 0 0 1-11.012 11.014H35.462zm260.219 435.13H50.282A24.914 24.914 0 0 1 25.4 453.646V109.774h51.29A25.042 25.042 0 0 0 101.7 84.76V33.47h246.219a24.924 24.924 0 0 1 23.875 17.886c-63.665 3.18-114.309 47.944-114.309 102.526 0 24.914 10.671 48.935 30.046 67.638a.787.787 0 0 1 .171.93l-20.565 39.657a12.525 12.525 0 0 0 11.041 18.275 12.628 12.628 0 0 0 4.951-1.021l59.049-25.145a11.957 11.957 0 0 1 7.2-.7 142.654 142.654 0 0 0 23.429 2.937v197.2a24.913 24.913 0 0 1-24.888 24.877zm31.125-235.93a129.367 129.367 0 0 1-26.768-2.777 25.9 25.9 0 0 0-15.582 1.516l-55.206 23.509 18.641-35.948a14.691 14.691 0 0 0-2.875-17.449c-16.617-16.041-25.769-36.485-25.769-57.566 0-48.917 48.251-88.714 107.559-88.714S486.6 104.965 486.6 153.882 438.352 242.6 379.044 242.6zm-3.061-122.317A20.988 20.988 0 1 0 355 99.29a21.012 21.012 0 0 0 20.983 20.988zm0-27.976A6.988 6.988 0 1 1 369 99.29a7 7 0 0 1 6.983-6.99zm24.133 114.98v-64.121a18.333 18.333 0 0 0-18.316-18.313h-24.508a7 7 0 0 0-5.769 10.965l6.617 9.626v64.481a18.334 18.334 0 0 0 18.313 18.313h23.084a7 7 0 0 0 6.2-10.254zm-23.663 6.956a4.317 4.317 0 0 1-4.313-4.313v-66.66a7 7 0 0 0-1.232-3.965l-.31-.452H381.8a4.317 4.317 0 0 1 4.312 4.313v65.842a7.007 7.007 0 0 0 .8 3.253l1.038 1.977zm-294.829-73.8a7 7 0 0 1 7-7H232.3a7 7 0 0 1 0 14H88.624a7 7 0 0 1-7-7zm0 53.429a7 7 0 0 1 7-7H232.3a7 7 0 0 1 0 14H88.624a7 7 0 0 1-7-7zm0 53.428a7 7 0 0 1 7-7H232.3a7 7 0 0 1 0 14H88.624a7 7 0 0 1-7-7zm234.786 53.429a7 7 0 0 1-7 7H88.624a7 7 0 1 1 0-14H309.41a7 7 0 0 1 7 7zm0 53.428a7 7 0 0 1-7 7H88.624a7 7 0 1 1 0-14H309.41a7 7 0 0 1 7 7zm0 53.429a7 7 0 0 1-7 7H88.624a7 7 0 0 1 0-14H309.41a7 7 0 0 1 7 7z" fill="#154194" opacity="1" data-original="#000000"></path></g></svg>