<svg xmlns="http://www.w3.org/2000/svg" version="1.1" xmlns:xlink="http://www.w3.org/1999/xlink" width="512" height="512" x="0" y="0" viewBox="0 0 32 32" style="enable-background:new 0 0 512 512" xml:space="preserve" fill-rule="evenodd"><g><path d="M6.759 25h-.242A2.518 2.518 0 0 0 4 27.517V30a1 1 0 0 0 1 1h22a1 1 0 0 0 1-1v-2.483A2.518 2.518 0 0 0 25.483 25h-.242V14.24A9.24 9.24 0 0 0 16.001 5h-.002a9.24 9.24 0 0 0-9.24 9.24zm-.242 2h18.966a.518.518 0 0 1 .517.517V29H6v-1.483A.518.518 0 0 1 6.517 27zm16.724-12.76V25H8.759V14.24A7.236 7.236 0 0 1 15.999 7h.002a7.24 7.24 0 0 1 7.24 7.24z" fill="#154194" opacity="1" data-original="#000000"></path><path d="M15 11v7a1 1 0 0 0 2 0v-7a1 1 0 0 0-2 0zM15.949 22.999 16 23l.043-.006c.191-.03.957-.202.957-1.005v-.458c0-.903.065-1.31-1-1.338-.889-.022-1 .773-1 1.325v.014-.001V22c0 .024.001.048.003.071l.002.031.005.039a1.002 1.002 0 0 0 .939.858zM5.541 15H2a1 1 0 0 0 0 2h3.541a1.001 1.001 0 0 0 0-2zM30 15h-3.541a1.001 1.001 0 0 0 0 2H30a1 1 0 0 0 0-2zM28.5 5.134l-3.066 1.77a1 1 0 0 0 1 1.732l3.066-1.77a1 1 0 0 0-1-1.732zM1.5 6.866l3.066 1.77a1 1 0 0 0 1-1.732L2.5 5.134a1 1 0 0 0-1 1.732z" fill="#154194" opacity="1" data-original="#000000"></path></g></svg>