<svg xmlns="http://www.w3.org/2000/svg" version="1.1" xmlns:xlink="http://www.w3.org/1999/xlink" width="512" height="512" x="0" y="0" viewBox="0 0 512 512" style="enable-background:new 0 0 512 512" xml:space="preserve"><g><path d="M331.972 269.431a8.525 8.525 0 0 0-7.714-4.89h-40.09l31.275-117.265a8.536 8.536 0 0 0-4.344-9.788 8.521 8.521 0 0 0-10.487 2.159L181.146 284.715a8.526 8.526 0 0 0-1.126 9.062 8.525 8.525 0 0 0 7.714 4.89h40.09l-31.275 117.265a8.536 8.536 0 0 0 4.344 9.788 8.48 8.48 0 0 0 3.9.947 8.512 8.512 0 0 0 6.588-3.106l119.467-145.067a8.531 8.531 0 0 0 1.124-9.063zm-108.817 112.99 24.021-90.086a8.545 8.545 0 0 0-1.476-7.398 8.537 8.537 0 0 0-6.767-3.336h-33.118l83.029-100.821-24.021 90.086a8.545 8.545 0 0 0 1.476 7.398 8.538 8.538 0 0 0 6.767 3.337h33.118l-83.029 100.82zM307.2 0H204.8a8.536 8.536 0 0 0-8.533 8.533v34.133a8.536 8.536 0 0 0 8.533 8.533h102.4a8.536 8.536 0 0 0 8.533-8.533V8.533A8.536 8.536 0 0 0 307.2 0zm-8.533 34.133h-85.333V17.067h85.333v17.066z" fill="#154194" opacity="1" data-original="#000000"></path><path d="M351.309 34.133H160.691C142.66 34.133 128 48.802 128 66.825v412.484C128 497.331 142.677 512 160.691 512h190.618C369.331 512 384 497.331 384 479.309V66.825c0-18.023-14.669-32.692-32.691-32.692zm15.616 445.176c0 8.619-7.006 15.625-15.625 15.625H160.683c-8.619 0-15.625-7.006-15.625-15.625V66.825c0-8.619 7.014-15.625 15.625-15.625H351.3c8.619 0 15.625 7.006 15.625 15.625v412.484z" fill="#154194" opacity="1" data-original="#000000"></path></g></svg>