<svg xmlns="http://www.w3.org/2000/svg" version="1.1" xmlns:xlink="http://www.w3.org/1999/xlink" width="512" height="512" x="0" y="0" viewBox="0 0 128 128" style="enable-background:new 0 0 512 512" xml:space="preserve" class=""><g><path fill="#154194" fill-rule="evenodd" d="M64 23a8 8 0 0 0-6.5 12.665c-2.332.516-4.387 1.334-6.19 2.398-3.242 1.913-5.571 4.563-7.223 7.468-3.265 5.744-3.899 12.51-3.899 16.866 0 2.618-.978 5.3-2.385 7.73-1.024 1.77-2.59 3.562-3.826 4.979-.45.516-.858.982-1.178 1.378a4 4 0 0 0-.643 1.84c-.139 1.544-.271 4.184.009 6.31a4 4 0 0 0 .977 2.135c1.3 1.463 3.38 2.521 5.61 3.333 2.401.873 5.27 1.562 8.218 2.101C52.821 93.273 59.79 93.84 64 94c4.21-.16 11.178-.726 17.03-1.797 2.949-.54 5.817-1.228 8.218-2.101 2.23-.812 4.31-1.87 5.61-3.333a4 4 0 0 0 .977-2.135c.28-2.126.148-4.766.009-6.31a4 4 0 0 0-.643-1.84c-.32-.396-.728-.863-1.179-1.38-1.236-1.415-2.801-3.208-3.826-4.977-1.406-2.43-2.385-5.112-2.385-7.73 0-4.356-.633-11.122-3.899-16.866-1.65-2.905-3.98-5.555-7.222-7.468-1.803-1.064-3.858-1.882-6.19-2.398A8 8 0 0 0 64 23Zm-4 8a4 4 0 1 1 8 0 4 4 0 0 1-8 0ZM44.188 62.397c0-4.093.617-10.035 3.377-14.89 1.364-2.4 3.231-4.496 5.777-5.999C55.882 40.01 59.596 39 64 39s8.119 1.01 10.657 2.508c2.547 1.503 4.413 3.6 5.778 6 2.76 4.854 3.376 10.796 3.376 14.89 0 3.572 1.316 6.957 2.924 9.733 1.613 2.785 3.59 5.08 5.09 6.513a.365.365 0 0 1 .012.01l.007.008a.198.198 0 0 1 .016.021c.132 1.464.23 3.75.01 5.428-.62.695-1.916 1.477-3.99 2.232-2.108.767-4.734 1.406-7.57 1.925C74.643 89.305 68.073 89.85 64 90c-4.074-.15-10.643-.695-16.31-1.732-2.837-.519-5.463-1.158-7.57-1.925-2.074-.755-3.371-1.537-3.99-2.232-.22-1.678-.122-3.964.01-5.428a.237.237 0 0 1 .034-.04c1.5-1.432 3.478-3.727 5.09-6.512 1.609-2.776 2.924-6.16 2.924-9.734Z" clip-rule="evenodd" opacity="1" data-original="#000000" class=""></path><path fill="#154194" d="M73 96c-1.099 0-1.741.719-2 2-.1.496-.391 1.836-.771 2.463-.683 1.126-2.141 2.537-5.718 2.537-4.114 0-5.473-1.476-6.004-2.454-.312-.575-.507-1.546-.498-2.313a2 2 0 0 0-3.97-.486 9.898 9.898 0 0 0 0 1.537c.08.842.315 1.995.952 3.17 1.368 2.522 4.253 4.546 9.52 4.546 4.912 0 7.699-2.089 9.138-4.463a9.554 9.554 0 0 0 1.179-3.047c.083-.412.172-.99.172-1.49a2 2 0 0 0-2-2ZM20.67 52.506a2 2 0 1 1 2.66 2.988c-3.714 3.306-8.287 9.532-9.809 17.311-1.5 7.668-.079 17.028 8.453 26.886a2 2 0 0 1-3.025 2.618C9.636 91.548 7.853 80.946 9.596 72.037c1.721-8.797 6.84-15.762 11.074-19.53ZM104.506 52.67a2 2 0 0 1 2.824-.164c4.234 3.77 9.353 10.734 11.074 19.531 1.743 8.909-.04 19.51-9.353 30.272a2 2 0 0 1-3.025-2.618c8.531-9.858 9.953-19.218 8.453-26.886-1.522-7.78-6.095-14.005-9.809-17.311a2 2 0 0 1-.164-2.824Z" opacity="1" data-original="#000000" class=""></path><path fill="#154194" d="M31.484 60.66a2 2 0 0 0-2.825-.144c-2.843 2.568-6.26 7.286-7.41 13.255-1.172 6.077.043 13.274 6.23 20.527a2 2 0 0 0 3.043-2.596c-5.414-6.347-6.282-12.317-5.346-17.173.958-4.965 3.841-8.946 6.165-11.045a2 2 0 0 0 .143-2.825ZM96.516 60.66a2 2 0 0 1 2.825-.144c2.843 2.568 6.259 7.286 7.41 13.255 1.172 6.077-.043 13.274-6.229 20.527a2 2 0 0 1-3.044-2.596c5.414-6.347 6.282-12.317 5.346-17.173-.958-4.965-3.841-8.946-6.165-11.045a2 2 0 0 1-.143-2.825Z" opacity="1" data-original="#000000" class=""></path></g></svg>