<svg xmlns="http://www.w3.org/2000/svg" version="1.1" xmlns:xlink="http://www.w3.org/1999/xlink" width="512" height="512" x="0" y="0" viewBox="0 0 24 24" style="enable-background:new 0 0 512 512" xml:space="preserve" class=""><g><path d="M24 5.5v13c0 3.03-2.47 5.5-5.5 5.5h-2c-.83 0-1.5-.67-1.5-1.5s.67-1.5 1.5-1.5h2a2.5 2.5 0 0 0 2.5-2.5v-13A2.5 2.5 0 0 0 18.5 3h-2c-.83 0-1.5-.67-1.5-1.5S15.67 0 16.5 0h2C21.53 0 24 2.47 24 5.5ZM18 12c0-.94-.36-1.81-1-2.45l-4.41-4.59c-.58-.6-1.52-.62-2.12-.04-.6.57-.62 1.52-.04 2.12l3.33 3.46H1.5c-.83 0-1.5.67-1.5 1.5s.67 1.5 1.5 1.5h12.25l-3.33 3.46a1.5 1.5 0 0 0 2.16 2.08l4.39-4.56C17.63 13.82 18 12.94 18 12Z" fill="#154194" opacity="1" data-original="#000000" class=""></path></g></svg>