<svg xmlns="http://www.w3.org/2000/svg" version="1.1" xmlns:xlink="http://www.w3.org/1999/xlink" width="512" height="512" x="0" y="0" viewBox="0 0 511.966 511.966" style="enable-background:new 0 0 512 512" xml:space="preserve"><g><path d="M338.75 166.836 249.123 12.992c-4.266-7.323-14.846-7.323-19.112 0L97.284 240.815c-17.652 26.822-27.923 58.934-27.923 93.444 0 41.088 14.575 78.788 38.837 108.206M132.489 466.551c29.215 23.68 66.422 37.882 106.936 37.915 94.067.077 170.347-76.156 170.347-170.206 0-6.695-.387-13.299-1.139-19.793M446.217 110.521l-31.433-53.954c-2.238-3.841-7.787-3.841-10.024 0L335.145 176.06c-9.258 14.068-14.645 30.911-14.646 49.011 0 49.258 39.94 89.233 89.198 89.273 49.338.04 89.347-39.944 89.347-89.272 0-18.101-5.387-34.943-14.646-49.012l-20.492-35.174M101.565 91.374l-37.65-64.626c-1.21-2.077-4.211-2.077-5.422 0l-37.65 64.626a48.06 48.06 0 0 0-7.921 26.507c0 26.641 21.601 48.261 48.242 48.282 26.684.022 48.322-21.603 48.322-48.282-.001-9.789-2.914-18.898-7.921-26.507zM275.004 228.729l-70.352 167.632" style="stroke-width:15;stroke-linecap:round;stroke-linejoin:round;stroke-miterlimit:10;" fill="none" stroke="#154194" stroke-width="15" stroke-linecap="round" stroke-linejoin="round" stroke-miterlimit="10" data-original="#000000" opacity="1"></path><ellipse cx="192.428" cy="257.038" rx="31.085" ry="36.122" style="stroke-width:15;stroke-linecap:round;stroke-linejoin:round;stroke-miterlimit:10;" fill="none" stroke="#154194" stroke-width="15" stroke-linecap="round" stroke-linejoin="round" stroke-miterlimit="10" data-original="#000000" opacity="1"></ellipse><ellipse cx="286.704" cy="371.651" rx="31.085" ry="36.122" style="stroke-width:15;stroke-linecap:round;stroke-linejoin:round;stroke-miterlimit:10;" fill="none" stroke="#154194" stroke-width="15" stroke-linecap="round" stroke-linejoin="round" stroke-miterlimit="10" data-original="#000000" opacity="1"></ellipse></g></svg>