<svg xmlns="http://www.w3.org/2000/svg" version="1.1" xmlns:xlink="http://www.w3.org/1999/xlink" width="512" height="512" x="0" y="0" viewBox="0 0 510.907 510.907" style="enable-background:new 0 0 512 512" xml:space="preserve" class=""><g><path d="M234.941 120.84v224.6c-22.222 11.047-37.5 33.967-37.5 60.467 0 37.279 30.221 67.5 67.5 67.5s67.5-30.221 67.5-67.5c0-26.5-15.278-49.42-37.5-60.467V68.436c0-16.568-13.431-30-30-30s-30 13.431-30 30v38.106" style="stroke-width:15;stroke-miterlimit:10;" fill="none" stroke="#154194" stroke-width="15" stroke-miterlimit="10" data-original="#000000" opacity="1" class=""></path><path d="M324.941 270.904V67.5c0-33.137-26.863-60-60-60s-60 26.863-60 60v261.552c-22.826 17.845-37.5 45.635-37.5 76.854 0 53.848 43.652 97.5 97.5 97.5s97.5-43.652 97.5-97.5c0-31.219-14.674-59.009-37.5-76.854v-43.148M234.941 173.436h60M429.941 37.444v106.921M383.643 64.174l92.597 53.461M476.24 64.174l-92.597 53.461M442.441 42.383l-12.5-12.5-12.585 12.585M393.979 56.125l-17.075 4.576 4.606 17.191M381.649 104.966l-4.575 17.075 17.192 4.607M417.782 140.064l12.5 12.5 12.585-12.585M466.243 126.322l17.076-4.576-4.607-17.191M478.573 77.481l4.576-17.075-17.192-4.607" style="stroke-width:15;stroke-miterlimit:10;" fill="none" stroke="#154194" stroke-width="15" stroke-miterlimit="10" data-original="#000000" opacity="1" class=""></path><circle cx="99.941" cy="90.904" r="22.532" style="stroke-width:15;stroke-miterlimit:10;" fill="none" stroke="#154194" stroke-width="15" stroke-miterlimit="10" data-original="#000000" opacity="1" class=""></circle><path d="m162.176 70.686.002-.002c-16.415-1.058-27.832-16.768-23.771-32.708-13.904 8.8-32.39 2.793-38.466-12.498-6.076 15.292-24.563 21.299-38.467 12.498 4.061 15.94-7.356 31.649-23.771 32.708 12.661 10.506 12.661 29.933 0 40.439 16.415 1.058 27.832 16.768 23.771 32.708 13.904-8.8 32.39-2.793 38.466 12.498 6.076-15.292 24.563-21.299 38.467-12.498-4.061-15.94 7.356-31.649 23.771-32.708-12.659-10.505-12.661-29.929-.002-40.437zM234.941 375.904v15M399.668 405.904h45M390.895 378.8l34.472-28.926M425.367 461.934l-34.472-28.925M129.941 405.904h-45M138.714 378.8l-34.472-28.926M104.242 461.934l34.472-28.925" style="stroke-width:15;stroke-miterlimit:10;" fill="none" stroke="#154194" stroke-width="15" stroke-miterlimit="10" data-original="#000000" opacity="1" class=""></path></g></svg>