<svg xmlns="http://www.w3.org/2000/svg" version="1.1" xmlns:xlink="http://www.w3.org/1999/xlink" width="512" height="512" x="0" y="0" viewBox="0 0 64 64" style="enable-background:new 0 0 512 512" xml:space="preserve" class=""><g><path d="M44 17h-9v-3c1.1 0 2-.9 2-2V4c0-1.1-.9-2-2-2h-6c-1.1 0-2 .9-2 2v8c0 1.1.9 2 2 2v3h-9c-1.65 0-3 1.35-3 3v32c0 1.65 1.35 3 3 3h6v5c0 .55.45 1 1 1s1-.45 1-1v-5h3v5c0 .55.45 1 1 1s1-.45 1-1v-5h3v5c0 .55.45 1 1 1s1-.45 1-1v-5h6c1.65 0 3-1.35 3-3V20c0-1.65-1.35-3-3-3zM29 4h6v8h-6zm2 10h2v3h-2zm-3 39v-3h3v3zm-2-5v-2h12v2H26zm7 5v-3h3v3zm12-1c0 .55-.45 1-1 1h-6v-3c1.1 0 2-.9 2-2v-2c0-1.1-.9-2-2-2H26c-1.1 0-2 .9-2 2v2c0 1.1.9 2 2 2v3h-6c-.55 0-1-.45-1-1V20c0-.55.45-1 1-1h24c.55 0 1 .45 1 1zm-3.5-23h-8c-1.1 0-2 .9-2 2v8c0 1.1.9 2 2 2h8c1.1 0 2-.9 2-2v-8c0-1.1-.9-2-2-2zm-8 10v-8h8v8h-8zm4-7c-1.65 0-3 1.35-3 3s1.35 3 3 3 3-1.35 3-3-1.35-3-3-3zm0 4c-.55 0-1-.45-1-1s.45-1 1-1 1 .45 1 1-.45 1-1 1zM29 32.15V30.7c0-.55-.45-1-1-1s-1 .45-1 1V32h-1v-1.3c0-.55-.45-1-1-1s-1 .45-1 1V32h-1v-1.3c0-.55-.45-1-1-1s-1 .45-1 1v1.45c-.29.17-.5.48-.5.85v4c0 .37.21.67.5.85V39c0 .55.45 1 1 1s1-.45 1-1v-1h1v1c0 .55.45 1 1 1s1-.45 1-1v-1h1v1c0 .55.45 1 1 1s1-.45 1-1v-1.15c.29-.17.5-.48.5-.85v-4c0-.37-.21-.67-.5-.85zM22.5 36v-2h5v2zM32 26c-.55 0-1-.45-1-1v-2.11c0-.55.45-1 1-1s1 .45 1 1V25c0 .55-.45 1-1 1zm3-1v-2.11c0-.55.45-1 1-1s1 .45 1 1V25c0 .55-.45 1-1 1s-1-.45-1-1zm-8 0v-2.11c0-.55.45-1 1-1s1 .45 1 1V25c0 .55-.45 1-1 1s-1-.45-1-1zM7.87 32.5c-.79 1.37-1.21 2.92-1.21 4.5s.42 3.13 1.21 4.5A1.002 1.002 0 0 1 7 43c-.35 0-.68-.18-.87-.5-.96-1.67-1.47-3.57-1.47-5.5s.51-3.83 1.47-5.5c.28-.48.89-.64 1.37-.37.48.28.64.89.37 1.37zm4.33 2.51c-.35.59-.53 1.28-.53 1.99s.18 1.4.53 1.99c.28.48.12 1.09-.36 1.37a1.002 1.002 0 0 1-1.37-.35c-.53-.9-.81-1.94-.81-3.01s.28-2.11.81-3.01c.28-.48.89-.64 1.37-.36s.63.89.36 1.37zM59.33 37c0 1.93-.51 3.83-1.47 5.5-.19.32-.52.5-.87.5-.17 0-.34-.04-.5-.13a1.01 1.01 0 0 1-.37-1.37c.79-1.37 1.21-2.92 1.21-4.5s-.42-3.13-1.21-4.5c-.28-.48-.11-1.09.37-1.37s1.09-.11 1.37.37c.96 1.67 1.47 3.57 1.47 5.5zm-5.8-3.01c.53.9.81 1.94.81 3.01s-.28 2.11-.81 3.01c-.19.32-.52.49-.86.49a1.007 1.007 0 0 1-.87-1.51c.35-.59.53-1.28.53-1.99s-.18-1.4-.53-1.99c-.28-.48-.12-1.09.36-1.37s1.09-.12 1.37.36z" fill="#154194" opacity="1" data-original="#000000" class=""></path></g></svg>