<svg xmlns="http://www.w3.org/2000/svg" version="1.1" xmlns:xlink="http://www.w3.org/1999/xlink" width="512" height="512" x="0" y="0" viewBox="0 0 512 512" style="enable-background:new 0 0 512 512" xml:space="preserve" class=""><g><path d="m448.298 141.262-86.635 86.635c-6.249 6.249-14.438 9.373-22.627 9.373s-16.379-3.124-22.627-9.373c-12.497-12.497-12.497-32.758 0-45.255l32.007-32.007H211.129c-51.17 0-92.8 41.63-92.8 92.8V480c0 17.673-14.327 32-32 32s-32-14.327-32-32V243.435c0-86.46 70.34-156.8 156.8-156.8h137.287l-32.007-32.007c-12.497-12.497-12.497-32.758 0-45.255s32.758-12.497 45.255 0l86.635 86.635c12.496 12.496 12.496 32.758-.001 45.254z" fill="#154194" opacity="1" data-original="#000000"></path></g></svg>