<svg xmlns="http://www.w3.org/2000/svg" version="1.1" xmlns:xlink="http://www.w3.org/1999/xlink" width="512" height="512" x="0" y="0" viewBox="0 0 100 100" style="enable-background:new 0 0 512 512" xml:space="preserve" fill-rule="evenodd" class=""><g><path fill-rule="nonzero" d="M4.97 44.27c-3.09 0-3.09-4.69 0-4.69h14.86c1.14 0 2.09.82 2.3 1.9l5.77 20.87 6.93-34.7c.48-2.44 4.05-2.6 4.61.05l5.54 22.4 3.7-5.81c1.02-1.6 3.41-1.37 4.13.37l6.6 15.94L72.2 26.72c.77-2.04 3.74-2.04 4.43.17l4.86 14.52h13.54c3.09 0 3.09 4.69 0 4.69H79.81c-.98 0-1.89-.62-2.22-1.6l-3.34-9.98-12.56 33.26c-.72 1.93-3.52 2.06-4.34.06L50.2 50.59l-4.15 6.51c-1.15 1.93-3.83 1.38-4.31-.58l-4.36-17.67-6.81 34.07c-.48 2.4-3.89 2.54-4.55.17l-7.97-28.82z" fill="#154194" opacity="1" data-original="#000000"></path></g></svg>