<svg xmlns="http://www.w3.org/2000/svg" version="1.1" xmlns:xlink="http://www.w3.org/1999/xlink" width="512" height="512" x="0" y="0" viewBox="0 0 510 510" style="enable-background:new 0 0 512 512" xml:space="preserve" fill-rule="evenodd"><g><path d="M23 79.573V237.28c0 2.235 1.839 4.064 4.08 4.064h81.942c4.415 0 8 3.585 8 8s-3.585 8-8 8H27.08C16.036 257.344 7 248.298 7 237.28V40.549C7 29.508 16.038 20.47 27.08 20.47h253.245c11.044 0 20.064 9.035 20.064 20.079v66.659c0 4.415-3.585 8-8 8s-8-3.585-8-8V79.573zm261.389-16V40.549c0-2.24-1.824-4.079-4.064-4.079H27.08A4.092 4.092 0 0 0 23 40.549v23.024zM47.831 57.068c-3.884 0-7.055-3.155-7.055-7.039s3.171-7.054 7.055-7.054 7.054 3.17 7.054 7.054-3.17 7.039-7.054 7.039zm27.076 0c-3.884 0-7.054-3.155-7.054-7.039s3.17-7.054 7.054-7.054 7.039 3.17 7.039 7.054-3.155 7.039-7.039 7.039zm27.06 0c-3.884 0-7.054-3.155-7.054-7.039s3.17-7.054 7.054-7.054 7.055 3.17 7.055 7.054-3.171 7.039-7.055 7.039zm145.961 273.184h-56.889c-4.416 0-8-3.585-8-8 0-4.416 3.584-8 8-8h129.779c4.415 0 8 3.584 8 8 0 4.415-3.585 8-8 8h-56.89v63.058c0 4.416-3.584 8-8 8-4.415 0-8-3.584-8-8zm30.176-211.68a77.013 77.013 0 0 1 14.75 6.113l9.461-4.207a8 8 0 0 1 8.907 1.654l15.528 15.528a8 8 0 0 1 1.658 8.897l-4.193 9.464a76.867 76.867 0 0 1 6.12 14.782l9.647 3.713a8.001 8.001 0 0 1 5.126 7.466v21.965a8 8 0 0 1-5.126 7.466l-9.651 3.714a77.689 77.689 0 0 1-6.119 14.751l4.196 9.473a8 8 0 0 1-1.658 8.896l-15.528 15.529a8 8 0 0 1-8.897 1.657s-9.46-4.19-9.459-4.191a76.792 76.792 0 0 1-14.765 6.116l-3.713 9.649a8 8 0 0 1-7.466 5.126h-21.965a7.998 7.998 0 0 1-7.466-5.126l-3.713-9.648a77.48 77.48 0 0 1-14.774-6.122l-9.473 4.196a8 8 0 0 1-8.897-1.657l-15.528-15.529a8 8 0 0 1-1.653-8.907l4.205-9.455a77.515 77.515 0 0 1-6.123-14.754l-9.66-3.718a7.999 7.999 0 0 1-5.127-7.466v-21.965a8 8 0 0 1 5.127-7.466l9.657-3.716a77.458 77.458 0 0 1 6.128-14.772l-4.207-9.461a8 8 0 0 1 1.653-8.907l15.528-15.528a8.001 8.001 0 0 1 8.908-1.654l9.46 4.207a77.018 77.018 0 0 1 14.757-6.115l3.734-9.676a8 8 0 0 1 7.464-5.12h21.965a8 8 0 0 1 7.468 5.13zm-13.474 9.542-3.205-8.34h-10.98l-3.223 8.351a8.002 8.002 0 0 1-5.614 4.903 61.096 61.096 0 0 0-17.937 7.433 8 8 0 0 1-7.447.499l-8.162-3.629-7.756 7.757 3.629 8.162a8 8 0 0 1-.499 7.447 61.627 61.627 0 0 0-7.46 17.976 7.996 7.996 0 0 1-4.905 5.599l-8.323 3.203v10.979l8.323 3.203a8 8 0 0 1 4.904 5.594c1.527 6.341 4.029 12.41 7.454 17.949a8 8 0 0 1 .506 7.457l-3.629 8.162 7.762 7.763 8.167-3.618a8 8 0 0 1 7.419.494c5.56 3.406 11.608 5.935 17.971 7.442a8.002 8.002 0 0 1 5.622 4.911l3.203 8.322h10.979l3.203-8.322a8 8 0 0 1 5.616-4.91 60.81 60.81 0 0 0 17.926-7.426 8.002 8.002 0 0 1 7.448-.511l8.166 3.618 7.769-7.768-3.618-8.167a8 8 0 0 1 .493-7.419c3.407-5.561 5.936-11.61 7.444-17.955a8 8 0 0 1 4.91-5.616l8.322-3.203v-10.979l-8.322-3.203a7.998 7.998 0 0 1-4.911-5.622 60.979 60.979 0 0 0-7.432-17.953 8 8 0 0 1-.504-7.437l3.618-8.166-7.763-7.763-8.162 3.629a8 8 0 0 1-7.447-.499 61.073 61.073 0 0 0-17.937-7.433 8 8 0 0 1-5.618-4.914zm-8.702 18.528c25.588 0 46.334 20.724 46.334 46.312 0 25.586-20.747 46.333-46.334 46.333-25.588 0-46.311-20.746-46.311-46.333 0-25.589 20.722-46.312 46.311-46.312zm0 16c-16.748 0-30.311 13.563-30.311 30.312s13.562 30.333 30.311 30.333c16.751 0 30.334-13.583 30.334-30.333s-13.584-30.312-30.334-30.312zM416.206 290.99v62.524a8 8 0 0 1-8 8h-62.524a8 8 0 0 1-8-8V290.99a8 8 0 0 1 8-8h62.524a8 8 0 0 1 8 8zm-16 8h-46.524v46.524h46.524zm-226.032-8v62.524a8 8 0 0 1-8 8h-62.523a8 8 0 0 1-8-8V290.99a8 8 0 0 1 8-8h62.523a8 8 0 0 1 8 8zm-16 8h-46.523v46.524h46.523zM295.19 419.007v62.523a8 8 0 0 1-8 8h-62.524a8 8 0 0 1-8-8v-62.523a8 8 0 0 1 8-8h62.524a8 8 0 0 1 8 8zm-16 8h-46.524v46.523h46.524zm-191.81-8v62.523a8 8 0 0 1-8 8H16.856a8 8 0 0 1-8-8v-62.523a8 8 0 0 1 8-8H79.38a8 8 0 0 1 8 8zm-16 8H24.856v46.523H71.38zm431.62-8v62.523a8 8 0 0 1-8 8h-62.524a8 8 0 0 1-8-8v-62.523a8 8 0 0 1 8-8H495a8 8 0 0 1 8 8zm-16 8h-46.524v46.523H487zM142.913 265.416c0 4.415-3.585 8-8 8-4.416 0-8-3.585-8-8V192.96a8 8 0 0 1 8-8h16.567c4.415 0 8 3.584 8 8 0 4.415-3.585 8-8 8h-8.567zm242.031 0c0 4.415-3.585 8-8 8s-8-3.585-8-8V200.96h-8.568c-4.415 0-8-3.585-8-8 0-4.416 3.585-8 8-8h16.568a8 8 0 0 1 8 8zM56.118 393.31c0 4.416-3.584 8-8 8-4.415 0-8-3.584-8-8v-71.058a8 8 0 0 1 8-8h30.668c4.416 0 8 3.584 8 8 0 4.415-3.584 8-8 8H56.118zm415.62 0c0 4.416-3.584 8-8 8-4.415 0-8-3.584-8-8v-63.058H433.07c-4.415 0-8-3.585-8-8 0-4.416 3.585-8 8-8h30.668a8 8 0 0 1 8 8zm-366.731 64.959c-4.415 0-8-3.585-8-8 0-4.416 3.585-8 8-8h94.033c4.415 0 8 3.584 8 8 0 4.415-3.585 8-8 8zm207.81 0c-4.415 0-8-3.585-8-8 0-4.416 3.585-8 8-8h94.032c4.416 0 8 3.584 8 8 0 4.415-3.584 8-8 8z" fill="#154194" opacity="1" data-original="#000000"></path></g></svg>