<?xml version="1.0" encoding="UTF-8"?><svg id="Ebene_1" xmlns="http://www.w3.org/2000/svg" width="24" height="24" viewBox="0 0 24 24"><rect width="24" height="24" fill="none" stroke-width="0"/><path d="m10.5,9c-.5523,0-1,.4477-1,1v4h1v-2h1v2h1v-4c0-.5523-.4477-1-1-1h-1m0,1h1v1h-1v-1Z" fill="#0069b4" stroke-width="0"/><path d="m14.5,9v5h-1v-5h1Z" fill="#0069b4" stroke-width="0"/><rect width="24" height="24" fill="none" stroke-width="0"/><path d="m22.5,11.5l-3-3v2.5h-3v-1h1v-1h-1v-2h-2v-1h-1v1h-1v-1h-1v1h-1v-1h-1v1h-2v2h-1v1h1v1h-2.0707c-.223-.8611-.9984-1.5-1.9293-1.5-1.1046,0-2,.8954-2,2s.8954,2,2,2c.9309,0,1.7062-.6389,1.9293-1.5h2.0707v1h-1v1h1v2h2v1h1v-1h1v3.05h-2.5l3,3,3-3h-2.5v-3.05h1v1h1v-1h2v-2h1v-1h-1v-1h3v2.5l3-3Zm-19,1c-.5514,0-1-.4486-1-1s.4486-1,1-1,1,.4486,1,1-.4486,1-1,1Zm12,2.5h-7v-7h7v7Z" fill="#0069b4" stroke-width="0"/></svg>