<svg id="Ebene_1" data-name="Ebene 1" xmlns="http://www.w3.org/2000/svg" viewBox="0 0 24 24" fill="#0069b4"><title>Zeichenfläche 1</title><rect x="5" y="2" width="4" height="4" rx="1" ry="1"/><rect x="10" y="2" width="4" height="4" rx="1" ry="1"/><rect x="15" y="2" width="4" height="4" rx="1" ry="1"/><rect x="3" y="7" width="18" height="1"/><rect x="5" y="9" width="4" height="4" rx="1" ry="1"/><rect x="10" y="9" width="4" height="4" rx="1" ry="1"/><rect x="15" y="9" width="4" height="4" rx="1" ry="1"/><rect x="3" y="14" width="18" height="1"/><rect x="5" y="16" width="4" height="4" rx="1" ry="1"/><rect x="10" y="16" width="4" height="4" rx="1" ry="1"/><rect x="15" y="16" width="4" height="4" rx="1" ry="1"/><rect x="3" y="21" width="18" height="1"/></svg>