<svg xmlns="http://www.w3.org/2000/svg" viewBox="0 0 24 24" fill="#0069b4"><title>ic_ft_van_in_out</title><g id="Ebene_2" data-name="Ebene 2"><path d="M7,10A2,2,0,0,1,9,8h7V6.36A1.36,1.36,0,0,0,14.64,5H4.41l-2,2.73A1.36,1.36,0,0,0,1,9.09v2.73H2.36a2,2,0,1,0,4.09,0H7ZM4.41,12.84a1,1,0,1,1,1-1A1,1,0,0,1,4.41,12.84Zm-1-5.11L4.75,6h1.7v1.7Z"/><path d="M9.36,9A1.36,1.36,0,0,0,8,10.36v5.45H9.36a2,2,0,0,0,4.09,0h4.09a2,2,0,0,0,4.09,0H23V13.09a1.36,1.36,0,0,0-1.36-1.36L19.59,9H9.36m8.18,1h1.7l1.34,1.7h-3V10M11.41,14.8a1,1,0,1,1-1,1,1,1,0,0,1,1-1m8.18,0a1,1,0,1,1-1,1A1,1,0,0,1,19.59,14.8Z"/></g></svg>