<svg xmlns="http://www.w3.org/2000/svg" width="260mm" height="120mm" viewBox="0 0 260 120" version="1.1"><defs><style type="text/css">/* CI: Replace font-family if required. */</style></defs><g id="orbisLogo" transform="translate(0 20) scale(0.17704262933596368)"><g id="Vordergrund"><rect x="239.32" y="210.19" width="48.04" height="48.07" transform="translate(-113.9 122.54) rotate(-45)" fill="#b2b2b2" /><path d="M263.34,234.23" transform="translate(-25.41 -132.27)" fill="#b2b2b2" /><rect x="171.34" y="142.21" width="48.04" height="48.07" transform="translate(-85.74 54.57) rotate(-45)" fill="#b2b2b2" /><path d="M195.36,166.24" transform="translate(-25.41 -132.27)" fill="#b2b2b2" /><rect x="239.32" y="346.15" width="48.04" height="48.07" transform="translate(-210.04 162.35) rotate(-45)" fill="#b2b2b2" /><path d="M263.34,370.19" transform="translate(-25.41 -132.27)" fill="#b2b2b2" /><rect x="171.34" y="278.17" width="48.04" height="48.07" transform="translate(-181.88 94.37) rotate(-45)" fill="#b2b2b2" /><path d="M195.36,302.21" transform="translate(-25.41 -132.27)" fill="#b2b2b2" /><rect x="103.36" y="210.19" width="48.04" height="48.07" transform="translate(-153.73 26.41) rotate(-45)" fill="#b2b2b2" /><path d="M127.38,234.23" transform="translate(-25.41 -132.27)" fill="#b2b2b2" /><rect x="171.34" y="414.13" width="48.04" height="48.07" transform="translate(-278.02 134.21) rotate(-45)" fill="#b2b2b2" /><path d="M195.36,438.17" transform="translate(-25.41 -132.27)" fill="#b2b2b2" /><rect x="103.36" y="346.15" width="48.04" height="48.07" transform="translate(-249.86 66.22) rotate(-45)" fill="#b2b2b2" /><path d="M127.38,370.19" transform="translate(-25.41 -132.27)" fill="#b2b2b2" /><rect x="35.38" y="278.17" width="48.04" height="48.07" transform="translate(-221.7 -1.76) rotate(-45)" fill="#b2b2b2" /><path d="M59.4,302.21" transform="translate(-25.41 -132.27)" fill="#b2b2b2" /><path d="M573.8,275.53v51.71h28.06V275.53ZM544,246.77H589c22.81.12,43.62.5,44.19,28.63C633.62,295.06,620,298.9,620,298.9s16.59,3.67,16.23,26.93c-.47,31.15-31.16,29.31-42.17,29.34l-50.13,0Z" transform="translate(-25.41 -132.27)" fill="#164194" fill-rule="evenodd" /><rect x="643.33" y="114.48" width="31.72" height="108.45" fill="#164194" /><path d="M414.58,246.76h43.83c25.94.07,43.62,2,45.49,28.7a50.45,50.45,0,0,1-7.25,29.14l23.13,43.87L493,362.67l-22-42.14V275.79H445.8V355.2H414.58Z" transform="translate(-25.41 -132.27)" fill="#164194" fill-rule="evenodd" /><path d="M296.33,301.52,329,334.17l32.65-32.65L329,268.87Zm-25.2-.09c0-31.37,26.6-56.8,58-56.8s58,25.43,58,56.8-26.6,56.8-58,56.8S271.12,332.79,271.12,301.42Z" transform="translate(-25.41 -132.27)" fill="#164194" fill-rule="evenodd" /><path d="M785.79,285.1c19.56-.81,30.42,12.1,30.39,31.74,0,24.91-13.77,38-31.81,38.36H733V326.1h52.8Z" transform="translate(-25.41 -132.27)" fill="#164194" fill-rule="evenodd" /><path d="M735.27,299.32c-3.05-5-5-15.16,2.62-30.77L751.62,239l28,13-15.59,33.84v25.83S744,313.53,735.27,299.32Z" transform="translate(-25.41 -132.27)" fill="#164194" fill-rule="evenodd" /></g></g><text id="dspText" x="69.000" y="85.000" font-size="20" font-family="Arial, Helvetica, sans-serif" font-weight="700" fill="#a7a8aa">DSP</text><g id="connections"><line x1="230" y1="60" x2="165" y2="30" stroke="#bbbcbc" stroke-width="1.2" fill="none" /><line x1="230" y1="60" x2="180" y2="60" stroke="#bbbcbc" stroke-width="1.2" fill="none" /><line x1="230" y1="60" x2="150" y2="90" stroke="#bbbcbc" stroke-width="1.2" fill="none" /><line x1="165" y1="30" x2="180" y2="60" stroke="#bbbcbc" stroke-width="1.2" stroke-dasharray="4 3" fill="none" /><line x1="165" y1="30" x2="150" y2="90" stroke="#bbbcbc" stroke-width="1.2" stroke-dasharray="4 3" fill="none" /><line x1="180" y1="60" x2="150" y2="90" stroke="#bbbcbc" stroke-width="1.2" stroke-dasharray="4 3" fill="none" /></g><g id="edgeBox1" transform="translate(150.000,15.000) scale(0.405405)"><g>
    <path d="M37.291 48.487a11.472 11.472 0 1 1 11.472-11.472 11.485 11.485 0 0 1-11.472 11.472zm0-20.944a9.472 9.472 0 1 0 9.472 9.472 9.483 9.483 0 0 0-9.472-9.472z" fill="#154194" opacity="1" data-original="#000000" />
    <path d="M47.712 37.075a1 1 0 0 1-.144-1.99L60.373 33.2a1 1 0 0 1 .291 1.978l-12.8 1.882a1.05 1.05 0 0 1-.152.015zM59.79 56.68a1 1 0 0 1-.595-.2l-15.16-11.219a1 1 0 1 1 1.191-1.607l15.16 11.222a1 1 0 0 1-.6 1.8zM27.137 63.7a1 1 0 0 1-.92-1.392l6.721-15.795a1 1 0 1 1 1.84.783l-6.72 15.8a1 1 0 0 1-.921.604zM14.182 43.437a1 1 0 0 1-.242-1.97l12.86-3.222a1 1 0 0 1 .487 1.941l-12.861 3.221a1.019 1.019 0 0 1-.244.03zM29.273 31.267a1 1 0 0 1-.585-.189l-9.052-6.536a1 1 0 1 1 1.171-1.621l9.052 6.536a1 1 0 0 1-.586 1.81zM38.823 27.653a1 1 0 0 1-.968-1.252l3.556-13.648a1 1 0 0 1 1.936.5l-3.556 13.652a1 1 0 0 1-.968.748z" fill="#154194" opacity="1" data-original="#000000" />
    <path d="M14.781 27.543a7.679 7.679 0 1 1 7.679-7.678 7.687 7.687 0 0 1-7.679 7.678zm0-13.357a5.679 5.679 0 1 0 5.679 5.679 5.685 5.685 0 0 0-5.679-5.679zM43.738 14.186a6.093 6.093 0 1 1 6.093-6.093 6.1 6.1 0 0 1-6.093 6.093zm0-10.186a4.093 4.093 0 1 0 4.093 4.093A4.1 4.1 0 0 0 43.738 4zM64.372 38.444a4.917 4.917 0 1 1 4.917-4.917 4.922 4.922 0 0 1-4.917 4.917zm0-7.833a2.917 2.917 0 1 0 2.917 2.916 2.92 2.92 0 0 0-2.917-2.916zM64.218 65.414a6.5 6.5 0 0 1-6.446-5.809 6.481 6.481 0 1 1 6.446 5.809zm.008-10.972a4.431 4.431 0 0 0-.472.025 4.49 4.49 0 0 0-3.992 4.933 4.486 4.486 0 1 0 4.464-4.954zM26.078 72a5.219 5.219 0 1 1 5.222-5.219A5.225 5.225 0 0 1 26.078 72zm0-8.438a3.219 3.219 0 1 0 3.222 3.219 3.223 3.223 0 0 0-3.222-3.219zM9.384 50.191a6.093 6.093 0 1 1 6.093-6.091 6.1 6.1 0 0 1-6.093 6.091zm0-10.185a4.093 4.093 0 1 0 4.093 4.094 4.1 4.1 0 0 0-4.093-4.094z" fill="#154194" opacity="1" data-original="#000000" />
  </g>
</g><g id="edgeBox2" transform="translate(165.000,45.000) scale(0.405405)"><g>
    <path d="M37.291 48.487a11.472 11.472 0 1 1 11.472-11.472 11.485 11.485 0 0 1-11.472 11.472zm0-20.944a9.472 9.472 0 1 0 9.472 9.472 9.483 9.483 0 0 0-9.472-9.472z" fill="#154194" opacity="1" data-original="#000000" />
    <path d="M47.712 37.075a1 1 0 0 1-.144-1.99L60.373 33.2a1 1 0 0 1 .291 1.978l-12.8 1.882a1.05 1.05 0 0 1-.152.015zM59.79 56.68a1 1 0 0 1-.595-.2l-15.16-11.219a1 1 0 1 1 1.191-1.607l15.16 11.222a1 1 0 0 1-.6 1.8zM27.137 63.7a1 1 0 0 1-.92-1.392l6.721-15.795a1 1 0 1 1 1.84.783l-6.72 15.8a1 1 0 0 1-.921.604zM14.182 43.437a1 1 0 0 1-.242-1.97l12.86-3.222a1 1 0 0 1 .487 1.941l-12.861 3.221a1.019 1.019 0 0 1-.244.03zM29.273 31.267a1 1 0 0 1-.585-.189l-9.052-6.536a1 1 0 1 1 1.171-1.621l9.052 6.536a1 1 0 0 1-.586 1.81zM38.823 27.653a1 1 0 0 1-.968-1.252l3.556-13.648a1 1 0 0 1 1.936.5l-3.556 13.652a1 1 0 0 1-.968.748z" fill="#154194" opacity="1" data-original="#000000" />
    <path d="M14.781 27.543a7.679 7.679 0 1 1 7.679-7.678 7.687 7.687 0 0 1-7.679 7.678zm0-13.357a5.679 5.679 0 1 0 5.679 5.679 5.685 5.685 0 0 0-5.679-5.679zM43.738 14.186a6.093 6.093 0 1 1 6.093-6.093 6.1 6.1 0 0 1-6.093 6.093zm0-10.186a4.093 4.093 0 1 0 4.093 4.093A4.1 4.1 0 0 0 43.738 4zM64.372 38.444a4.917 4.917 0 1 1 4.917-4.917 4.922 4.922 0 0 1-4.917 4.917zm0-7.833a2.917 2.917 0 1 0 2.917 2.916 2.92 2.92 0 0 0-2.917-2.916zM64.218 65.414a6.5 6.5 0 0 1-6.446-5.809 6.481 6.481 0 1 1 6.446 5.809zm.008-10.972a4.431 4.431 0 0 0-.472.025 4.49 4.49 0 0 0-3.992 4.933 4.486 4.486 0 1 0 4.464-4.954zM26.078 72a5.219 5.219 0 1 1 5.222-5.219A5.225 5.225 0 0 1 26.078 72zm0-8.438a3.219 3.219 0 1 0 3.222 3.219 3.223 3.223 0 0 0-3.222-3.219zM9.384 50.191a6.093 6.093 0 1 1 6.093-6.091 6.1 6.1 0 0 1-6.093 6.091zm0-10.185a4.093 4.093 0 1 0 4.093 4.094 4.1 4.1 0 0 0-4.093-4.094z" fill="#154194" opacity="1" data-original="#000000" />
  </g>
</g><g id="edgeBox3" transform="translate(135.000,75.000) scale(0.405405)"><g>
    <path d="M37.291 48.487a11.472 11.472 0 1 1 11.472-11.472 11.485 11.485 0 0 1-11.472 11.472zm0-20.944a9.472 9.472 0 1 0 9.472 9.472 9.483 9.483 0 0 0-9.472-9.472z" fill="#154194" opacity="1" data-original="#000000" />
    <path d="M47.712 37.075a1 1 0 0 1-.144-1.99L60.373 33.2a1 1 0 0 1 .291 1.978l-12.8 1.882a1.05 1.05 0 0 1-.152.015zM59.79 56.68a1 1 0 0 1-.595-.2l-15.16-11.219a1 1 0 1 1 1.191-1.607l15.16 11.222a1 1 0 0 1-.6 1.8zM27.137 63.7a1 1 0 0 1-.92-1.392l6.721-15.795a1 1 0 1 1 1.84.783l-6.72 15.8a1 1 0 0 1-.921.604zM14.182 43.437a1 1 0 0 1-.242-1.97l12.86-3.222a1 1 0 0 1 .487 1.941l-12.861 3.221a1.019 1.019 0 0 1-.244.03zM29.273 31.267a1 1 0 0 1-.585-.189l-9.052-6.536a1 1 0 1 1 1.171-1.621l9.052 6.536a1 1 0 0 1-.586 1.81zM38.823 27.653a1 1 0 0 1-.968-1.252l3.556-13.648a1 1 0 0 1 1.936.5l-3.556 13.652a1 1 0 0 1-.968.748z" fill="#154194" opacity="1" data-original="#000000" />
    <path d="M14.781 27.543a7.679 7.679 0 1 1 7.679-7.678 7.687 7.687 0 0 1-7.679 7.678zm0-13.357a5.679 5.679 0 1 0 5.679 5.679 5.685 5.685 0 0 0-5.679-5.679zM43.738 14.186a6.093 6.093 0 1 1 6.093-6.093 6.1 6.1 0 0 1-6.093 6.093zm0-10.186a4.093 4.093 0 1 0 4.093 4.093A4.1 4.1 0 0 0 43.738 4zM64.372 38.444a4.917 4.917 0 1 1 4.917-4.917 4.922 4.922 0 0 1-4.917 4.917zm0-7.833a2.917 2.917 0 1 0 2.917 2.916 2.92 2.92 0 0 0-2.917-2.916zM64.218 65.414a6.5 6.5 0 0 1-6.446-5.809 6.481 6.481 0 1 1 6.446 5.809zm.008-10.972a4.431 4.431 0 0 0-.472.025 4.49 4.49 0 0 0-3.992 4.933 4.486 4.486 0 1 0 4.464-4.954zM26.078 72a5.219 5.219 0 1 1 5.222-5.219A5.225 5.225 0 0 1 26.078 72zm0-8.438a3.219 3.219 0 1 0 3.222 3.219 3.223 3.223 0 0 0-3.222-3.219zM9.384 50.191a6.093 6.093 0 1 1 6.093-6.091 6.1 6.1 0 0 1-6.093 6.091zm0-10.185a4.093 4.093 0 1 0 4.093 4.094 4.1 4.1 0 0 0-4.093-4.094z" fill="#154194" opacity="1" data-original="#000000" />
  </g>
</g><g id="mcBox" transform="translate(210.000,40.000) scale(0.078125)"><g>
    <path d="M280.5 204c0 4.14 3.36 7.5 7.5 7.5h12.5v89h-89v-89H256c4.14 0 7.5-3.36 7.5-7.5 0-4.14-3.36-7.5-7.5-7.5h-48c-6.34 0-11.5 5.16-11.5 11.5v96c0 6.34 5.16 11.5 11.5 11.5h96c6.34 0 11.5-5.16 11.5-11.5v-96c0-6.34-5.16-11.5-11.5-11.5h-16c-4.14 0-7.5 3.36-7.5 7.5ZM41.5 30C35.16 30 30 35.16 30 41.5v52c0 6.34 5.16 11.5 11.5 11.5h52c6.34 0 11.5-5.16 11.5-11.5v-52c0-6.34-5.16-11.5-11.5-11.5ZM90 90H45V45h45ZM93.5 407h-52c-6.34 0-11.5 5.16-11.5 11.5v52c0 6.34 5.16 11.5 11.5 11.5h52c6.34 0 11.5-5.16 11.5-11.5v-52c0-6.34-5.16-11.5-11.5-11.5ZM90 467H45v-45h45Zm0 0" style="stroke:none;fill-rule:nonzero;fill-opacity:1;" fill="#154194" data-original="#000000" opacity="1" />
    <path d="M396.5 135h96c10.754 0 19.5-8.746 19.5-19.5v-96C512 8.746 503.254 0 492.5 0h-96C385.746 0 377 8.746 377 19.5V60h-90c-4.14 0-7.5 3.36-7.5 7.5v99h-41v-29.29c8.73-3.097 15-11.433 15-21.21 0-12.406-10.094-22.5-22.5-22.5s-22.5 10.094-22.5 22.5c0 9.777 6.27 18.113 15 21.21v29.29h-33.508c-12.953 0-23.492 10.54-23.492 23.492V233.5H75V135h40.5c10.754 0 19.5-8.746 19.5-19.5V96c0-4.14-3.36-7.5-7.5-7.5-4.14 0-7.5 3.36-7.5 7.5v19.5c0 2.48-2.02 4.5-4.5 4.5h-96c-2.48 0-4.5-2.02-4.5-4.5v-96c0-2.48 2.02-4.5 4.5-4.5h96c2.48 0 4.5 2.02 4.5 4.5V64c0 4.14 3.36 7.5 7.5 7.5 4.14 0 7.5-3.36 7.5-7.5V19.5C135 8.746 126.254 0 115.5 0h-96C8.746 0 0 8.746 0 19.5v96C0 126.254 8.746 135 19.5 135H60v106c0 4.14 3.36 7.5 7.5 7.5h99v32h-10.29c-3.097-8.73-11.433-15-21.21-15-12.406 0-22.5 10.094-22.5 22.5s10.094 22.5 22.5 22.5c9.777 0 18.113-6.27 21.21-15h10.29v26.508c0 12.953 10.54 23.492 23.492 23.492H223.5v89.086H135V396.5c0-10.754-8.746-19.5-19.5-19.5h-96C8.746 377 0 385.746 0 396.5v96C0 503.254 8.746 512 19.5 512h96c10.754 0 19.5-8.746 19.5-19.5v-42.914h96c4.14 0 7.5-3.36 7.5-7.5V345.5h41v33.29c-8.73 3.097-15 11.433-15 21.21 0 12.406 10.094 22.5 22.5 22.5s22.5-10.094 22.5-22.5c0-9.777-6.27-18.113-15-21.21V345.5h27.508c12.953 0 23.492-10.54 23.492-23.492v-51.059h91.512V377H396.5c-10.754 0-19.5 8.746-19.5 19.5V416c0 4.14 3.36 7.5 7.5 7.5 4.14 0 7.5-3.36 7.5-7.5v-19.5c0-2.48 2.02-4.5 4.5-4.5h96c2.48 0 4.5 2.02 4.5 4.5v96c0 2.48-2.02 4.5-4.5 4.5h-96c-2.48 0-4.5-2.02-4.5-4.5v-44.625c0-4.14-3.36-7.5-7.5-7.5-4.14 0-7.5 3.36-7.5 7.5V492.5c0 10.754 8.746 19.5 19.5 19.5h96c10.754 0 19.5-8.746 19.5-19.5v-96c0-10.754-8.746-19.5-19.5-19.5h-40.488V263.45c0-4.141-3.36-7.5-7.5-7.5H345.5V230.5h35.738c3.098 8.73 11.434 15 21.211 15 12.406 0 22.5-10.094 22.5-22.5s-10.094-22.5-22.5-22.5c-9.777 0-18.113 6.27-21.21 15H345.5v-25.508c0-12.953-10.54-23.492-23.492-23.492H294.5V75H377v40.5c0 10.754 8.746 19.5 19.5 19.5ZM231 108.5c4.137 0 7.5 3.363 7.5 7.5 0 4.137-3.363 7.5-7.5 7.5-4.137 0-7.5-3.363-7.5-7.5 0-4.137 3.363-7.5 7.5-7.5Zm-96 187c-4.137 0-7.5-3.363-7.5-7.5 0-4.137 3.363-7.5 7.5-7.5 4.137 0 7.5 3.363 7.5 7.5 0 4.137-3.363 7.5-7.5 7.5Zm-15 197c0 2.48-2.02 4.5-4.5 4.5h-96c-2.48 0-4.5-2.02-4.5-4.5v-96c0-2.48 2.02-4.5 4.5-4.5h96c2.48 0 4.5 2.02 4.5 4.5Zm167-85c-4.137 0-7.5-3.363-7.5-7.5 0-4.137 3.363-7.5 7.5-7.5 4.137 0 7.5 3.363 7.5 7.5 0 4.137-3.363 7.5-7.5 7.5Zm115.45-192c4.136 0 7.5 3.363 7.5 7.5 0 4.137-3.364 7.5-7.5 7.5-4.137 0-7.5-3.363-7.5-7.5 0-4.137 3.363-7.5 7.5-7.5Zm-71.95-25.508v132.016c0 4.683-3.809 8.492-8.492 8.492H189.992c-4.683 0-8.492-3.809-8.492-8.492V189.992c0-4.683 3.809-8.492 8.492-8.492h132.016c4.683 0 8.492 3.809 8.492 8.492ZM396.5 15h96c2.48 0 4.5 2.02 4.5 4.5v96c0 2.48-2.02 4.5-4.5 4.5h-96c-2.48 0-4.5-2.02-4.5-4.5V67.695c.004-.066.012-.129.012-.195s-.008-.129-.012-.195V19.5c0-2.48 2.02-4.5 4.5-4.5Zm0 0" style="stroke:none;fill-rule:nonzero;fill-opacity:1;" fill="#154194" data-original="#000000" opacity="1" />
    <path d="M418.5 105h52c6.34 0 11.5-5.16 11.5-11.5v-52c0-6.34-5.16-11.5-11.5-11.5h-52c-6.34 0-11.5 5.16-11.5 11.5v52c0 6.34 5.16 11.5 11.5 11.5Zm3.5-60h45v45h-45ZM470.5 482c6.34 0 11.5-5.16 11.5-11.5v-52c0-6.34-5.16-11.5-11.5-11.5h-52c-6.34 0-11.5 5.16-11.5 11.5v52c0 6.34 5.16 11.5 11.5 11.5ZM422 422h45v45h-45Zm0 0" style="stroke:none;fill-rule:nonzero;fill-opacity:1;" fill="#154194" data-original="#000000" opacity="1" />
  </g>
</g></svg>