<svg xmlns="http://www.w3.org/2000/svg" version="1.1" xmlns:xlink="http://www.w3.org/1999/xlink" width="512" height="512" x="0" y="0" viewBox="0 0 512 512" style="enable-background:new 0 0 512 512" xml:space="preserve"><g><path d="M261.66 354.26a8 8 0 0 0-11.32 0L184.64 420H104a22 22 0 0 1-22-22V276a22 22 0 0 1 22-22h86.28a66.22 66.22 0 0 0 131.48 0h86.39a38 38 0 0 0 38-38V94.11a38 38 0 0 0-38-38h-96V16a8 8 0 0 0-8-8h-96.26a8 8 0 0 0-8 8v96.23a8 8 0 0 0 8 8h96.22a8 8 0 0 0 8-8V72.11h96a22 22 0 0 1 22 22V216a22 22 0 0 1-22 22h-86.37a66.22 66.22 0 0 0-131.48 0H104a38 38 0 0 0-38 38v122a38 38 0 0 0 38 38h80.66l65.7 65.7a8 8 0 0 0 11.32 0l68-68.05a8 8 0 0 0 0-11.31Zm34.45-250h-80.22V24h80.22ZM256 195.76A50.24 50.24 0 1 1 205.76 246 50.3 50.3 0 0 1 256 195.76Zm0 288.93L199.27 428 256 371.23 312.73 428ZM504 428a8 8 0 0 1-2.5 5.8l-21.7 20.58a8 8 0 1 1-11-11.61l7.14-6.77h-89.07a8 8 0 0 1 0-16h89.07l-7.14-6.77a8 8 0 1 1 11-11.61l21.7 20.57A8 8 0 0 1 504 428ZM105.06 72.11H16a8 8 0 0 1 0-16h89.06l-7.14-6.76a8 8 0 0 1 11-11.62l21.7 20.58a8 8 0 0 1 0 11.61l-21.7 20.57a8 8 0 1 1-11-11.61Z" fill="#154194" opacity="1" data-original="#000000"></path></g></svg>