<svg xmlns="http://www.w3.org/2000/svg" version="1.1" xmlns:xlink="http://www.w3.org/1999/xlink" width="512" height="512" x="0" y="0" viewBox="0 0 510 510" style="enable-background:new 0 0 512 512" xml:space="preserve" fill-rule="evenodd" class=""><g><path d="M114.596 479.227C104.926 493.564 88.534 503 69.956 503c-29.697 0-53.806-24.11-53.806-53.806 0-15.171 6.291-28.883 16.405-38.668v-80.279a26.888 26.888 0 0 1 17.676-25.258V151.281H45.65a8 8 0 0 1-8-8v-21.758a8 8 0 0 1 8-8h243.518a8 8 0 0 1 8 8v21.758a8 8 0 0 1-8 8h-28.965l48.807 182.15v-180.46a8 8 0 0 1 8-8h21.758a8 8 0 0 1 8 8v74.753h13.758a8 8 0 0 1 8 8v120.485h94.385a8 8 0 0 1 8 8v27.086a8 8 0 0 1-8 8H346.768v7.303c12.736 9.844 20.943 25.269 20.943 42.596 0 29.696-24.11 53.806-53.806 53.806-18.578 0-34.97-9.436-44.64-23.773zm4.872-175.202a24.572 24.572 0 0 1 11.749 6.577l55.935 56.212v-71.122h-26.091a21.438 21.438 0 0 1-21.437-21.437v-35.703a9.735 9.735 0 0 0-9.733-9.732h-10.423zm-70.913 95.793a53.578 53.578 0 0 1 21.401-4.431c26.978 0 49.346 19.898 53.215 45.807H260.69a53.444 53.444 0 0 1 2.557-10.166l-9.315.239a57.103 57.103 0 0 1-41.939-16.806l-92.118-92.573a8.567 8.567 0 0 0-6.075-2.525H59.44a10.882 10.882 0 0 0-10.885 10.884zm16.011-57.406c-4.415 0-8-3.584-8-8 0-4.415 3.585-8 8-8h42.314c2.122 0 4.156.843 5.657 2.343l59.205 59.206c3.122 3.122 3.122 8.191 0 11.313s-8.192 3.122-11.314 0l-56.862-56.862zm58.605 114.782a53.687 53.687 0 0 1-1.26 6.033H261.95a53.687 53.687 0 0 1-1.26-6.033zm-56.94-153.831h5.758V151.281h-5.758zm21.758 0h15.479V220.82a8 8 0 0 1 8-8h18.423a25.73 25.73 0 0 1 25.733 25.732v35.703c0 1.442.573 2.825 1.593 3.844a5.434 5.434 0 0 0 3.844 1.593h34.091a8 8 0 0 1 8 8v95.201l20.182 20.282a41.107 41.107 0 0 0 30.189 12.097l6.576-.169v-52.014a8 8 0 0 1 8-8h7.624l-16.195-60.439c-.073-.051-.146-.102-.219-.156l-42.543-31.288a8.001 8.001 0 0 1-1.705-11.185l2.837-3.856-7.224-5.313-4.331 5.888c-2.616 3.557-7.628 4.321-11.184 1.705a8.004 8.004 0 0 1-1.705-11.185l18.141-24.666c2.616-3.557 7.627-4.321 11.184-1.705s4.321 7.628 1.705 11.185l-4.331 5.888 7.224 5.313 2.837-3.857a8.001 8.001 0 0 1 11.185-1.705l.909.669-21.195-79.101H87.989zm-29.758-173.84H53.65v5.758h14.44v-5.758zm192.497 0h-14.439v5.758h14.439zm-152.199 0H84.09v5.758h14.439zm232.239 268.564v-5.259l-15.04-6.083a7.992 7.992 0 0 1-3.967-3.486l-6.867-12.17h-28.795v39.834c9.72-9.604 23.076-15.536 37.806-15.536 5.889 0 11.558.948 16.863 2.7zm-64.04-262.806h14.44v-5.758h-14.44zm-13.826 134.64-3.966-14.803-10.572-7.775-2.837 3.856-2.836 3.857zm61.003 141.466c-20.866 0-37.806 16.941-37.806 37.807S293.039 487 313.905 487s37.806-16.94 37.806-37.806-16.94-37.807-37.806-37.807zm0 6.267c17.407 0 31.539 14.133 31.539 31.54s-14.132 31.539-31.539 31.539-31.54-14.132-31.54-31.539 14.133-31.54 31.54-31.54zm0 16c-8.577 0-15.54 6.963-15.54 15.54 0 8.576 6.963 15.539 15.54 15.539 8.576 0 15.539-6.963 15.539-15.539 0-8.577-6.963-15.54-15.539-15.54zm-15.657-78.565-54.61-203.808h-5.961l54.61 203.808zM128.969 129.523h-14.44v5.758h14.44zm201.799 246.046V160.971h-5.758V373.24zm16 7.726h108.143v-11.086H346.768zM220.289 129.523h-14.44v5.758h14.44zM69.956 411.387c-20.866 0-37.806 16.941-37.806 37.807S49.09 487 69.956 487s37.806-16.94 37.806-37.806-16.94-37.807-37.806-37.807zm0 6.267c17.407 0 31.539 14.133 31.539 31.54s-14.132 31.539-31.539 31.539-31.539-14.132-31.539-31.539 14.132-31.54 31.539-31.54zm0 16c-8.576 0-15.539 6.963-15.539 15.54 0 8.576 6.963 15.539 15.539 15.539s15.539-6.963 15.539-15.539c0-8.577-6.963-15.54-15.539-15.54zm282.57-77.445V243.724h-5.758v112.485zM159.409 129.523h-14.44v5.758h14.44zm30.44 0h-14.44v5.758h14.44zM420.575 23h-49.276c-4.415 0-8-3.585-8-8s3.585-8 8-8H485.85c4.416 0 8 3.585 8 8s-3.584 8-8 8h-49.275v49.458c7.818 3.168 13.338 10.837 13.338 19.786 0 3.987-1.096 7.721-3.003 10.915 8.807 5.916 14.607 15.969 14.607 27.365 0 4.416-3.585 8-8 8s-8-3.584-8-8c0-9.35-7.592-16.942-16.942-16.942-9.351 0-16.943 7.592-16.943 16.942 0 4.416-3.584 8-8 8-4.415 0-8-3.584-8-8 0-11.396 5.8-21.449 14.607-27.365a21.226 21.226 0 0 1-3.003-10.915c0-8.949 5.521-16.618 13.339-19.786zm8 74.582a5.34 5.34 0 0 0 5.338-5.338 5.34 5.34 0 0 0-5.338-5.339 5.341 5.341 0 0 0-5.339 5.339 5.34 5.34 0 0 0 5.339 5.338zm-47.534 158.07h81.87a8 8 0 0 1 8 8v76.413c0 7.413-6.046 13.457-13.458 13.457h-70.955c-7.412 0-13.457-6.044-13.457-13.457v-76.413a8 8 0 0 1 8-8zm19.229 16h-11.229v65.87h65.87v-65.87h-11.229v25.403a8 8 0 0 1-8 8H408.27a8 8 0 0 1-8-8zm27.412 0H416.27v17.403h11.412zM381.041 150.55h81.87a8 8 0 0 1 8 8v76.413c0 7.412-6.046 13.457-13.458 13.457h-70.955c-7.412 0-13.457-6.045-13.457-13.457V158.55a8 8 0 0 1 8-8zm19.229 16h-11.229v65.87h65.87v-65.87h-11.229v25.402a8 8 0 0 1-8 8H408.27a8 8 0 0 1-8-8zm27.412 0H416.27v17.402h11.412z" fill="#154194" opacity="1" data-original="#000000"></path></g></svg>