<svg xmlns="http://www.w3.org/2000/svg" version="1.1" xmlns:xlink="http://www.w3.org/1999/xlink" width="512" height="512" x="0" y="0" viewBox="0 0 128 128" style="enable-background:new 0 0 512 512" xml:space="preserve" class=""><g><path d="M64 77.369A13.372 13.372 0 1 0 50.628 64 13.387 13.387 0 0 0 64 77.369Zm0-23.244A9.872 9.872 0 1 1 54.128 64 9.884 9.884 0 0 1 64 54.125ZM64 20.875a10.439 10.439 0 1 0-10.439-10.439A10.451 10.451 0 0 0 64 20.875ZM64 3.5a6.939 6.939 0 1 1-6.939 6.939A6.947 6.947 0 0 1 64 3.5ZM64 107.119a10.439 10.439 0 1 0 10.439 10.439A10.451 10.451 0 0 0 64 107.119Zm0 17.381a6.939 6.939 0 1 1 6.939-6.939A6.947 6.947 0 0 1 64 124.5ZM101.874 36.558a10.43 10.43 0 1 0-7.382-3.053 10.406 10.406 0 0 0 7.382 3.053Zm-4.907-15.341a6.94 6.94 0 1 1-2.032 4.906 6.916 6.916 0 0 1 2.032-4.906ZM26.126 91.432a10.437 10.437 0 1 0 7.382 3.057 10.369 10.369 0 0 0-7.382-3.057Zm4.907 15.345a6.94 6.94 0 1 1 2.032-4.906 6.947 6.947 0 0 1-2.032 4.906ZM117.561 53.558A10.439 10.439 0 1 0 128 64a10.452 10.452 0 0 0-10.439-10.442Zm0 17.378A6.939 6.939 0 1 1 124.5 64a6.947 6.947 0 0 1-6.939 6.936ZM20.878 64a10.439 10.439 0 1 0-10.439 10.436A10.451 10.451 0 0 0 20.878 64Zm-10.439 6.936A6.939 6.939 0 1 1 17.378 64a6.947 6.947 0 0 1-6.939 6.936ZM94.492 94.489a10.439 10.439 0 1 0 14.763 0 10.368 10.368 0 0 0-14.763 0Zm12.288 12.288a6.94 6.94 0 1 1 2.032-4.906 6.947 6.947 0 0 1-2.032 4.906ZM26.126 36.563a10.44 10.44 0 1 0-7.381-3.058 10.369 10.369 0 0 0 7.381 3.058ZM21.22 21.217a6.94 6.94 0 1 1 0 9.813 6.917 6.917 0 0 1 0-9.813Z" fill="#154194" opacity="1" data-original="#000000" class=""></path><path d="M91.932 71.656a1.748 1.748 0 0 0 2.474 0l6.422-6.422a1.748 1.748 0 0 0 0-2.474l-6.422-6.422a1.75 1.75 0 0 0-2.474 2.475l3.45 3.45h-10.1a21.271 21.271 0 0 0-5-12.072l7.125-7.125V47.9a1.75 1.75 0 1 0 3.5 0v-9.081a1.75 1.75 0 0 0-1.75-1.75H80.08a1.75 1.75 0 0 0 0 3.5h4.88l-7.148 7.148a21.245 21.245 0 0 0-12.062-5V32.631l3.419 3.419a1.75 1.75 0 0 0 2.475-2.475l-6.422-6.422a1.751 1.751 0 0 0-2.475 0l-6.422 6.422A1.75 1.75 0 0 0 58.8 36.05l3.45-3.45v10.114a21.256 21.256 0 0 0-12.079 5.017l-7.162-7.162h4.88a1.75 1.75 0 0 0 0-3.5h-9.082a1.751 1.751 0 0 0-1.75 1.75V47.9a1.75 1.75 0 0 0 3.5 0v-4.834l7.143 7.142a21.263 21.263 0 0 0-4.982 12.055H32.587l3.45-3.45a1.75 1.75 0 0 0-2.475-2.475l-6.421 6.422a1.748 1.748 0 0 0 0 2.474l6.421 6.422a1.75 1.75 0 1 0 2.475-2.474l-3.419-3.419h10.1a21.259 21.259 0 0 0 5 12.046l-7.162 7.163v-4.879a1.75 1.75 0 0 0-3.5 0v9.082a1.751 1.751 0 0 0 1.75 1.75h9.082a1.75 1.75 0 0 0 0-3.5h-4.835l7.141-7.141a21.262 21.262 0 0 0 12.056 5v10.11l-3.45-3.45a1.75 1.75 0 0 0-2.475 2.475l6.422 6.422a1.749 1.749 0 0 0 2.475 0l6.422-6.422a1.75 1.75 0 0 0-2.475-2.475l-3.419 3.419V85.28a21.248 21.248 0 0 0 12.039-4.98l7.127 7.127H80.08a1.75 1.75 0 0 0 0 3.5h9.082a1.75 1.75 0 0 0 1.75-1.75v-9.084a1.75 1.75 0 1 0-3.5 0v4.879l-7.146-7.147a21.262 21.262 0 0 0 5.017-12.062h10.068l-3.419 3.419a1.748 1.748 0 0 0 0 2.474ZM64 46.125a17.818 17.818 0 0 1 12.621 5.231l.012.015.012.01A17.811 17.811 0 0 1 81.867 63.9c0 .037-.011.072-.011.109s.008.065.01.1a17.817 17.817 0 0 1-5.24 12.523l-.015.011v.006A17.868 17.868 0 1 1 64 46.125Z" fill="#154194" opacity="1" data-original="#000000" class=""></path></g></svg>