<svg xmlns="http://www.w3.org/2000/svg" version="1.1" xmlns:xlink="http://www.w3.org/1999/xlink" width="512" height="512" x="0" y="0" viewBox="0 0 512 512" style="enable-background:new 0 0 512 512" xml:space="preserve" class=""><g><path d="M172.16 121.09v-10.08c0-3.87-3.13-7-7-7H76.89c-3.87 0-7 3.13-7 7v88.27c0 3.87 3.13 7 7 7h88.27c3.87 0 7-3.13 7-7V155.9l4.24-4.24c7.54-7.54 7.54-19.82 0-27.37a19.214 19.214 0 0 0-4.24-3.2zm-5.66 20.66-30.19 30.19c-1 1-2.34 1.55-3.78 1.55s-2.78-.55-3.78-1.55l-16.36-16.36c-1-1-1.55-2.34-1.55-3.78s.55-2.78 1.55-3.78 2.34-1.55 3.78-1.55 2.78.55 3.78 1.55l7.62 7.62a7.001 7.001 0 0 0 9.9 0l21.46-21.46c1-1 2.35-1.55 3.78-1.55s2.78.55 3.78 1.55c2.1 2.09 2.1 5.49.01 7.57zm-8.34 50.53H83.89v-74.27h74.27v1.18c-3.43.82-6.58 2.55-9.12 5.1l-16.51 16.51-2.67-2.67c-3.65-3.65-8.5-5.65-13.68-5.65s-10.04 2.01-13.68 5.65c-7.54 7.54-7.54 19.82 0 27.37l16.36 16.36c3.65 3.65 8.5 5.65 13.68 5.65s10.04-2.01 13.68-5.65l11.95-11.95v22.37zm38.13-33.32c0-3.87 3.13-7 7-7h60.49c3.87 0 7 3.13 7 7s-3.13 7-7 7h-60.49c-3.86 0-7-3.13-7-7zm0 40.32c0-3.87 3.13-7 7-7h73.62c3.87 0 7 3.13 7 7s-3.13 7-7 7h-73.62c-3.86 0-7-3.14-7-7zm-24.13 50.66v-10.08c0-3.87-3.13-7-7-7H76.89c-3.87 0-7 3.13-7 7v88.27c0 3.87 3.13 7 7 7h88.27c3.87 0 7-3.13 7-7v-43.38l4.24-4.24c7.54-7.54 7.54-19.82 0-27.37a18.91 18.91 0 0 0-4.24-3.2zm-5.66 20.66-30.19 30.19a5.372 5.372 0 0 1-7.57 0l-16.36-16.36a5.354 5.354 0 0 1 0-7.57c1-1 2.34-1.55 3.78-1.55s2.78.55 3.78 1.55l7.62 7.62a7.007 7.007 0 0 0 9.9 0l21.46-21.46c1-1 2.35-1.55 3.78-1.55s2.78.55 3.78 1.55c2.11 2.1 2.11 5.49.02 7.58zm-8.34 50.53H83.89v-74.27h74.27v1.18c-3.43.82-6.58 2.55-9.12 5.1l-16.51 16.51-2.67-2.67c-3.65-3.65-8.5-5.65-13.68-5.65s-10.04 2.01-13.68 5.65c-7.54 7.54-7.54 19.82 0 27.37l16.36 16.36a19.3 19.3 0 0 0 13.68 5.66c4.96 0 9.91-1.89 13.68-5.66l11.95-11.95v22.37zm38.13-33.32c0-3.87 3.13-7 7-7h68.48c3.87 0 7 3.13 7 7s-3.13 7-7 7h-68.48c-3.86 0-7-3.13-7-7zm138.18 40.31c0 3.87-3.13 7-7 7H203.29c-3.87 0-7-3.13-7-7s3.13-7 7-7h124.18c3.87 0 7 3.14 7 7zm-162.31 50.66V368.7c0-3.87-3.13-7-7-7H76.89c-3.87 0-7 3.13-7 7v88.27c0 3.87 3.13 7 7 7h88.27c3.87 0 7-3.13 7-7v-43.38l4.24-4.24c7.54-7.54 7.54-19.82 0-27.37a19.528 19.528 0 0 0-4.24-3.2zm-5.66 20.67-30.19 30.19a5.372 5.372 0 0 1-7.57 0l-16.36-16.36a5.354 5.354 0 0 1 0-7.57c1-1 2.34-1.55 3.78-1.55s2.78.55 3.78 1.55l7.62 7.62a7.007 7.007 0 0 0 9.9 0l21.46-21.46c1-1 2.35-1.55 3.78-1.55s2.78.55 3.78 1.55c2.11 2.1 2.11 5.49.02 7.58zm-8.34 50.52H83.89V375.7h74.27v1.18c-3.43.82-6.58 2.55-9.12 5.1l-16.51 16.51-2.67-2.67c-3.65-3.65-8.5-5.65-13.68-5.65s-10.04 2.01-13.68 5.65c-7.54 7.54-7.54 19.82 0 27.37l16.36 16.36a19.3 19.3 0 0 0 13.68 5.66c4.96 0 9.91-1.89 13.68-5.66l11.95-11.95v22.37zm38.13-33.31c0-3.87 3.13-7 7-7h68.48c3.87 0 7 3.13 7 7s-3.13 7-7 7h-68.48c-3.86 0-7-3.14-7-7zm138.18 40.31c0 3.87-3.13 7-7 7H203.29c-3.87 0-7-3.13-7-7s3.13-7 7-7h124.18c3.87 0 7 3.14 7 7zm144.92-197.15h-11.15c-4.09-11.9-15.38-20.48-28.65-20.48s-24.56 8.58-28.65 20.48H394.9c-3.12-10.2-11.5-18.13-21.97-20.61v-16.57h80.38c3.11 0 5.85-2.05 6.72-5.03l22.11-75.56c.62-2.12.21-4.4-1.12-6.16s-3.4-2.8-5.6-2.8h-102.5V52.01c0-15.18-12.35-27.53-27.53-27.53h-86.3C252.99 15.17 242.46 9 230.51 9h-62.47c-11.95 0-22.48 6.17-28.59 15.48h-86.3c-15.18 0-27.53 12.35-27.53 27.53v423.46c0 15.18 12.35 27.53 27.53 27.53h292.26c15.18 0 27.53-12.35 27.53-27.53V298.13c11.7-2.78 20.78-12.36 22.84-24.31h13.82c2.05 14.72 14.71 26.1 29.99 26.1s27.94-11.37 29.99-26.1h9.81c3.87 0 7-3.13 7-7s-3.14-7-7-7zm-120.45-20.61c-10.4 2.47-18.74 10.31-21.91 20.42-3.75-.7-6.72-3.36-7.84-7.18l-8.73-29.82h38.48zm89.13-30.57H316.42l-6.79-23.78h145.4zm11.06-37.79h-153.5l-6.79-23.78h167.25zM168.04 23h62.47c11.13 0 20.18 9.05 20.18 20.18s-9.05 20.18-20.18 20.18h-62.47c-11.13 0-20.18-9.05-20.18-20.18S156.91 23 168.04 23zm177.37 466H53.14c-7.46 0-13.53-6.07-13.53-13.53V52.01c0-7.46 6.07-13.53 13.53-13.53h81.04c-.21 1.54-.33 3.11-.33 4.71 0 18.85 15.33 34.18 34.18 34.18h62.47c18.85 0 34.18-15.33 34.18-34.18 0-1.6-.12-3.17-.33-4.71h81.04c7.46 0 13.53 6.07 13.53 13.53v81.07h-64.09l-5.66-19.83c-3-10.52-12.37-17.59-23.31-17.59h-11.83c-3.87 0-7 3.13-7 7s3.13 7 7 7h11.83c4.69 0 8.56 2.92 9.85 7.43l29.54 103.44 10.49 35.85c2.77 9.47 10.74 16.09 20.31 17.24 1.99 12.05 11.11 21.71 22.88 24.51v177.34c.01 7.46-6.06 13.53-13.52 13.53zm20.53-204.04c-8.98 0-16.29-7.31-16.29-16.29s7.31-16.29 16.29-16.29 16.29 7.31 16.29 16.29-7.31 16.29-16.29 16.29zm73.64.96c-8.98 0-16.29-7.31-16.29-16.29s7.31-16.29 16.29-16.29 16.29 7.31 16.29 16.29-7.3 16.29-16.29 16.29z" fill="#154194" opacity="1" data-original="#000000"></path></g></svg>