<svg xmlns="http://www.w3.org/2000/svg" version="1.1" xmlns:xlink="http://www.w3.org/1999/xlink" width="512" height="512" x="0" y="0" viewBox="0 0 48 48" style="enable-background:new 0 0 512 512" xml:space="preserve"><g><path d="M1 19h8a1 1 0 1 0 0-2H1a1 1 0 1 0 0 2zM2 23.908a1 1 0 0 0 1 1h8a1 1 0 1 0 0-2H3a1 1 0 0 0-1 1zM9 30a1 1 0 0 0-1-1H1a1 1 0 1 0 0 2h7a1 1 0 0 0 1-1z" fill="#154194" opacity="1" data-original="#000000"></path><path d="M43 8H10c-2.757 0-5 2.243-5 5v1a1 1 0 1 0 2 0v-1c0-.412.084-.804.235-1.161l13.381 12.159L7.235 36.162A2.981 2.981 0 0 1 7 35v-1a1 1 0 1 0-2 0v1c0 2.757 2.243 5 5 5h33c2.757 0 5-2.243 5-5V13c0-2.757-2.243-5-5-5zM32.385 23.998l13.38-12.16c.151.357.234.75.234 1.162v22c0 .412-.084.804-.235 1.162l-13.38-12.163zM43 10c.512 0 .987.141 1.409.368L28.516 24.812a3.01 3.01 0 0 1-4.033-.002L8.591 10.368A2.961 2.961 0 0 1 10 10zM10 38c-.512 0-.987-.141-1.409-.368l13.512-12.283 1.033.938c.944.863 2.155 1.294 3.366 1.294s2.42-.431 3.362-1.292l1.035-.941L44.41 37.63a2.962 2.962 0 0 1-1.41.368H10z" fill="#154194" opacity="1" data-original="#000000"></path></g></svg>