<svg xmlns="http://www.w3.org/2000/svg" version="1.1" xmlns:xlink="http://www.w3.org/1999/xlink" width="512" height="512" x="0" y="0" viewBox="0 0 682.667 682" style="enable-background:new 0 0 512 512" xml:space="preserve"><g><path d="M598.316-2H41.684C18.704-2 0 16.703 0 39.684v487.648c0 22.984 18.703 41.684 41.684 41.684h556.632c22.98 0 41.684-18.7 41.684-41.684V391.516c0-6.903-5.594-12.5-12.5-12.5s-12.5 5.597-12.5 12.5v135.816c0 9.2-7.484 16.684-16.684 16.684H41.684c-9.2 0-16.684-7.485-16.684-16.684V132.707h590v116.309c0 6.906 5.594 12.5 12.5 12.5s12.5-5.594 12.5-12.5V39.684C640 16.704 621.297-2 598.316-2zM25 107.707V39.684C25 30.484 32.484 23 41.684 23h556.632c9.2 0 16.684 7.484 16.684 16.684v68.023zm0 0" fill="#154194" opacity="1" data-original="#000000"></path><path d="M102.91 77.855H92.078c-6.902 0-12.5-5.597-12.5-12.5 0-6.906 5.598-12.5 12.5-12.5h10.832c6.903 0 12.5 5.594 12.5 12.5 0 6.903-5.597 12.5-12.5 12.5zM164.578 77.855h-10.832c-6.902 0-12.5-5.597-12.5-12.5 0-6.906 5.598-12.5 12.5-12.5h10.832c6.906 0 12.5 5.594 12.5 12.5 0 6.903-5.594 12.5-12.5 12.5zM226.246 77.855H215.41c-6.898 0-12.5-5.597-12.5-12.5 0-6.906 5.602-12.5 12.5-12.5h10.836c6.902 0 12.5 5.594 12.5 12.5 0 6.903-5.598 12.5-12.5 12.5zM497.094 77.855h-205.84c-6.902 0-12.5-5.597-12.5-12.5 0-6.906 5.598-12.5 12.5-12.5h205.84c6.906 0 12.5 5.594 12.5 12.5 0 6.903-5.594 12.5-12.5 12.5zM547.926 77.86c-.824 0-1.637-.09-2.453-.255-.801-.16-1.586-.394-2.332-.707a13.063 13.063 0 0 1-2.164-1.152 12.86 12.86 0 0 1-1.899-1.55 13.055 13.055 0 0 1-1.555-1.903c-.449-.684-.835-1.41-1.148-2.16a12.373 12.373 0 0 1-.95-4.774 12.346 12.346 0 0 1 .95-4.789c.313-.75.7-1.476 1.148-2.148.465-.692.977-1.324 1.555-1.914a13.935 13.935 0 0 1 1.899-1.551c.683-.45 1.41-.832 2.164-1.145a12.296 12.296 0 0 1 2.332-.714 12.253 12.253 0 0 1 4.886 0c.805.16 1.59.402 2.34.715.754.312 1.489.695 2.164 1.144.688.465 1.324.977 1.899 1.55a12.59 12.59 0 0 1 1.55 1.915c.454.672.836 1.398 1.149 2.148.312.762.555 1.535.715 2.336.16.813.25 1.63.25 2.453a12.622 12.622 0 0 1-.965 4.774c-.313.75-.695 1.476-1.148 2.16a12.31 12.31 0 0 1-1.551 1.902 12.467 12.467 0 0 1-1.899 1.551c-.687.45-1.41.84-2.164 1.152a12.35 12.35 0 0 1-2.34.707 12.26 12.26 0 0 1-2.433.254zM627.5 334.605a12.493 12.493 0 0 1-4.773-.96c-.766-.313-1.493-.7-2.165-1.149a11.92 11.92 0 0 1-1.898-1.55 11.546 11.546 0 0 1-1.55-1.9 12.21 12.21 0 0 1-1.153-2.163 11.604 11.604 0 0 1-.711-2.336c-.164-.8-.25-1.625-.25-2.442 0-.808.086-1.632.25-2.433.148-.8.398-1.59.71-2.336.313-.762.7-1.488 1.153-2.164.45-.688.973-1.328 1.551-1.899a12.667 12.667 0 0 1 1.898-1.562 13.296 13.296 0 0 1 2.153-1.137 12.228 12.228 0 0 1 2.347-.715 12.338 12.338 0 0 1 4.875 0c.801.153 1.586.403 2.336.715.766.313 1.493.7 2.165 1.137A12.573 12.573 0 0 1 640 322.106c-.001.816-.075 1.64-.24 2.44-.16.802-.41 1.59-.722 2.337a12.21 12.21 0 0 1-1.152 2.164c-.45.687-.973 1.32-1.551 1.898a11.92 11.92 0 0 1-1.899 1.551c-.671.45-1.398.836-2.164 1.149a12.493 12.493 0 0 1-4.773.96zM196.79 488.031c-10.77 0-20.892-4.195-28.5-11.808l-93.274-93.27c-7.614-7.613-11.809-17.734-11.809-28.504 0-10.762 4.195-20.883 11.809-28.496l93.273-93.273c7.613-7.614 17.73-11.805 28.5-11.805 10.766 0 20.887 4.191 28.5 11.809 7.61 7.605 11.8 17.73 11.8 28.496 0 10.765-4.19 20.882-11.8 28.5l-64.777 64.77 64.777 64.777c7.61 7.613 11.805 17.734 11.805 28.5 0 10.765-4.196 20.882-11.805 28.496-7.613 7.613-17.734 11.808-28.5 11.808zm0-242.156a15.2 15.2 0 0 0-10.821 4.484L92.69 343.63a15.206 15.206 0 0 0-4.484 10.82 15.18 15.18 0 0 0 4.484 10.82l93.278 93.278a15.192 15.192 0 0 0 10.82 4.484c4.086 0 7.93-1.594 10.82-4.484s4.48-6.735 4.48-10.82c0-4.086-1.589-7.93-4.48-10.82l-73.62-73.614a12.513 12.513 0 0 1 0-17.68L207.608 272a15.202 15.202 0 0 0 4.48-10.82c0-4.086-1.589-7.93-4.48-10.82s-6.734-4.485-10.82-4.485zM443.21 488.031c-10.765 0-20.886-4.195-28.491-11.808-7.614-7.614-11.809-17.73-11.809-28.496 0-10.766 4.195-20.887 11.809-28.5l64.773-64.778-64.773-64.77c-7.614-7.613-11.809-17.738-11.809-28.5 0-10.765 4.195-20.89 11.809-28.5 7.61-7.613 17.734-11.804 28.492-11.804 10.77 0 20.89 4.191 28.504 11.805l93.27 93.273c7.613 7.613 11.808 17.735 11.808 28.496 0 10.77-4.195 20.89-11.809 28.504l-93.27 93.27c-7.612 7.613-17.734 11.808-28.503 11.808zm0-242.156c-4.085 0-7.929 1.594-10.82 4.484s-4.48 6.735-4.48 10.82c0 4.087 1.59 7.93 4.48 10.821l73.622 73.613a12.513 12.513 0 0 1 0 17.68l-73.621 73.613a15.202 15.202 0 0 0-4.48 10.82c0 4.087 1.589 7.93 4.48 10.82s6.734 4.485 10.82 4.485c4.094 0 7.93-1.594 10.82-4.484l93.278-93.277a15.18 15.18 0 0 0 4.484-10.82c0-4.087-1.594-7.93-4.484-10.821l-93.27-93.27a15.23 15.23 0 0 0-10.828-4.484zM302.555 482.777c-3.008 0-6.028-.343-8.977-1.015-21.668-4.938-35.281-26.582-30.344-48.25l40.106-176.024c4.933-21.672 26.578-35.285 48.246-30.347 10.492 2.394 19.434 8.73 25.168 17.843 5.726 9.11 7.566 19.91 5.176 30.403l-40.102 176.031c-4.21 18.46-20.36 31.36-39.273 31.36zm40.078-231.64c-6.985 0-13.305 4.816-14.918 11.902l-40.106 176.027c-1.87 8.227 3.293 16.446 11.524 18.32a15.43 15.43 0 0 0 3.422.391c7.058 0 13.324-5.011 14.898-11.914l40.102-176.027c.906-3.984.21-8.086-1.965-11.543a15.209 15.209 0 0 0-9.555-6.773 15.224 15.224 0 0 0-3.402-.383zm0 0" fill="#154194" opacity="1" data-original="#000000"></path></g></svg>