<svg xmlns="http://www.w3.org/2000/svg" version="1.1" xmlns:xlink="http://www.w3.org/1999/xlink" width="512" height="512" x="0" y="0" viewBox="0 0 512 512" style="enable-background:new 0 0 512 512" xml:space="preserve" class=""><g><path d="m94.855 496.811-9.268-70.398 70.398-9.268M417.145 15.189l9.268 70.398-70.398 9.268" style="stroke-width:30;stroke-linecap:round;stroke-linejoin:round;stroke-miterlimit:10;" fill="none" stroke="#154194" stroke-width="30" stroke-linecap="round" stroke-linejoin="round" stroke-miterlimit="10" data-original="#000000" opacity="1" class=""></path><path d="M426.413 85.587C382.801 41.975 322.551 15 256 15 122.9 15 15 122.899 15 256c0 37.205 8.443 72.432 23.498 103.893M85.587 426.413C129.199 470.025 189.45 497 256 497c133.1 0 241-107.9 241-241 0-37.205-8.443-72.433-23.498-103.893" style="stroke-width:30;stroke-linecap:round;stroke-linejoin:round;stroke-miterlimit:10;" fill="none" stroke="#154194" stroke-width="30" stroke-linecap="round" stroke-linejoin="round" stroke-miterlimit="10" data-original="#000000" opacity="1" class=""></path><path d="m394.744 216.311-35-60.622-7.494 4.327c-27.222 15.717-61.25-3.929-61.25-35.363V116h-70v8.653c0 31.433-34.028 51.079-61.25 35.363l-7.494-4.327-35 60.622 7.493 4.326c27.222 15.717 27.222 55.009 0 70.726l-7.493 4.326 35 60.622 7.494-4.327c27.222-15.717 61.25 3.929 61.25 35.363V396h70v-8.653c0-31.433 34.028-51.079 61.25-35.363l7.494 4.327 35-60.622-7.493-4.326c-27.222-15.717-27.222-55.009 0-70.726l7.493-4.326z" style="stroke-width:30;stroke-linecap:round;stroke-linejoin:round;stroke-miterlimit:10;" fill="none" stroke="#154194" stroke-width="30" stroke-linecap="round" stroke-linejoin="round" stroke-miterlimit="10" data-original="#000000" opacity="1" class=""></path><circle cx="256" cy="256" r="50" style="stroke-width:30;stroke-linecap:round;stroke-linejoin:round;stroke-miterlimit:10;" fill="none" stroke="#154194" stroke-width="30" stroke-linecap="round" stroke-linejoin="round" stroke-miterlimit="10" data-original="#000000" opacity="1" class=""></circle></g></svg>