<svg xmlns="http://www.w3.org/2000/svg" version="1.1" xmlns:xlink="http://www.w3.org/1999/xlink" width="512" height="512" x="0" y="0" viewBox="0 0 24 24" style="enable-background:new 0 0 512 512" xml:space="preserve" class=""><g><path d="M22.5 21H22V11a2.993 2.993 0 0 0-1.444-2.553l-4.895-7.181A2.491 2.491 0 0 0 13.5 0 2.503 2.503 0 0 0 11 2.5c0 .075.016.146.022.22l-.006.004L7.739 6H4.926a4.47 4.47 0 0 0-3.182 1.318L.429 8.633a1.465 1.465 0 0 0 2.07 2.07l1.557-1.557A.504.504 0 0 1 4.41 9l2.591-.064v2.655c0 .131-.053.26-.146.354l-1.557 1.557a1.465 1.465 0 0 0 2.07 2.07l1.315-1.315a4.469 4.469 0 0 0 1.318-3.182V8.262l2.631-2.632 3.406 4.998c-.016.124-.038.245-.038.373v10h-.5c-.827 0-1.5.673-1.5 1.5s.673 1.5 1.5 1.5h7c.827 0 1.5-.673 1.5-1.5s-.673-1.5-1.5-1.5ZM21 11c0 1.103-.897 2-2 2s-2-.897-2-2 .897-2 2-2 2 .897 2 2Zm0 2.22V21h-4v-7.78c.532.48 1.229.78 2 .78s1.468-.301 2-.78ZM9 11.074c0 .935-.364 1.813-1.025 2.475L6.66 14.864a.465.465 0 0 1-.792-.328.46.46 0 0 1 .136-.328l1.557-1.557A1.49 1.49 0 0 0 8 11.59V8.935a.937.937 0 0 0-.936-.936H4.409c-.4 0-.777.156-1.061.439L1.791 9.995a.477.477 0 0 1-.656 0 .464.464 0 0 1 0-.656L2.45 8.024a3.477 3.477 0 0 1 2.475-1.025h2.813L8.999 8.26v2.813Zm.5-3.728-.847-.847 2.714-2.714c.058.095.691 1.002.691 1.002L9.5 7.346ZM12 2.499a1.5 1.5 0 1 1 3.001.001A1.5 1.5 0 0 1 12 2.5Zm1.406 2.491c.032.001.062.009.094.009 1.09 0 2.009-.705 2.351-1.68l3.193 4.684c-.015 0-.029-.004-.043-.004a2.99 2.99 0 0 0-2.555 1.449L13.407 4.99ZM22.5 22.999h-7a.5.5 0 0 1 0-1h7a.5.5 0 0 1 0 1Z" fill="#154194" opacity="1" data-original="#000000"></path></g></svg>