<svg xmlns="http://www.w3.org/2000/svg" version="1.1" xmlns:xlink="http://www.w3.org/1999/xlink" width="512" height="512" x="0" y="0" viewBox="0 0 100 100" style="enable-background:new 0 0 512 512" xml:space="preserve" class=""><g><path d="M35.5 52c-1.4 0-2.5 1.1-2.5 2.5v24.1h-8.1c-1-3.1-4-5.4-7.4-5.4-4.3 0-7.9 3.5-7.9 7.9 0 4.3 3.5 7.9 7.9 7.9 3.5 0 6.4-2.2 7.4-5.4h10.6c1.4 0 2.5-1.1 2.5-2.5V54.5c0-1.4-1.1-2.5-2.5-2.5zm-18 32c-1.6 0-2.9-1.3-2.9-2.9s1.3-2.9 2.9-2.9 2.9 1.3 2.9 2.9-1.3 2.9-2.9 2.9zM52.5 73.7V54.5c0-1.4-1.1-2.5-2.5-2.5s-2.5 1.1-2.5 2.5v19.2c-3.1 1-5.4 4-5.4 7.4 0 4.3 3.5 7.9 7.9 7.9s7.9-3.5 7.9-7.9c0-3.4-2.3-6.4-5.4-7.4zM50 84c-1.6 0-2.9-1.3-2.9-2.9s1.3-2.9 2.9-2.9 2.9 1.3 2.9 2.9S51.6 84 50 84zM82.5 73.3c-3.5 0-6.4 2.2-7.4 5.4H67V54.5c0-1.4-1.1-2.5-2.5-2.5S62 53.1 62 54.5v26.6c0 1.4 1.1 2.5 2.5 2.5h10.6c1 3.1 4 5.4 7.4 5.4 4.3 0 7.9-3.5 7.9-7.9 0-4.3-3.5-7.8-7.9-7.8zm0 10.7c-1.6 0-2.9-1.3-2.9-2.9s1.3-2.9 2.9-2.9 2.9 1.3 2.9 2.9-1.3 2.9-2.9 2.9z" fill="#154194" opacity="1" data-original="#000000" class=""></path><path d="M78.1 33.1c0 .9-.1 1.8-.2 2.6-.1.7.1 1.4.5 1.9s1 .9 1.7 1c5.6.6 9.9 5.3 9.9 11 0 6.1-5 11.1-11.1 11.1h-2.8c-1.4 0-2.5 1.1-2.5 2.5s1.1 2.5 2.5 2.5h2.8c8.9 0 16.1-7.2 16.1-16.1 0-7.4-5-13.7-11.9-15.5v-1C83.1 20.9 73.2 11 61 11c-7.9 0-15.2 4.3-19.1 11.1-1.1-.2-2.2-.3-3.3-.3-7.7 0-14.5 4.7-17.3 11.7H21c-8.8 0-16 7.2-16 16.1s7.2 16.1 16.1 16.1h2.8c1.4 0 2.5-1.1 2.5-2.5s-1.1-2.5-2.5-2.5h-2.8c-6.1 0-11.1-5-11.1-11.1s5-11.1 11.1-11.1c.6 0 1.1 0 1.6.1 1.3.2 2.5-.6 2.8-1.8 1.6-5.9 7-10 13.1-10 1.4 0 2.7.2 3.9.6s2.5-.2 3-1.4c2.8-6.1 8.9-10 15.5-10 9.5 0 17.1 7.7 17.1 17.1z" fill="#154194" opacity="1" data-original="#000000" class=""></path></g></svg>