<svg xmlns="http://www.w3.org/2000/svg" version="1.1" xmlns:xlink="http://www.w3.org/1999/xlink" width="512" height="512" x="0" y="0" viewBox="0 0 25.4 25.4" style="enable-background:new 0 0 512 512" xml:space="preserve"><g><path d="M12.719 1.59c-2.682 0-5.11.358-6.913.959-.901.3-1.648.658-2.205 1.097-.556.438-.95 1-.95 1.654L2.65 20.14c0 .654.395 1.216.952 1.654.556.439 1.303.797 2.205 1.097 1.803.601 4.23.959 6.913.959 2.682 0 5.11-.358 6.913-.959.902-.3 1.649-.658 2.205-1.097.557-.438.952-1 .952-1.654V5.3c0-.653-.395-1.216-.95-1.654-.557-.439-1.306-.797-2.208-1.097-1.803-.601-4.23-.959-6.913-.959zm0 1.06c2.587 0 4.93.354 6.579.904.825.275 1.475.603 1.884.925.409.322.547.598.547.822 0 .224-.138.497-.547.82-.41.322-1.06.65-1.884.925-1.65.55-3.992.903-6.579.903-2.587 0-4.927-.353-6.576-.903-.825-.275-1.475-.603-1.884-.926-.41-.322-.548-.595-.548-.819 0-.224.139-.5.548-.822.409-.322 1.059-.65 1.884-.925 1.65-.55 3.99-.903 6.576-.903zM3.71 7.035c.544.402 1.251.736 2.096 1.017 1.803.601 4.23.959 6.913.959 2.682 0 5.11-.358 6.913-.959.845-.281 1.554-.615 2.098-1.017v3.036c0 .224-.14.5-.548.822-.41.322-1.06.648-1.884.923-1.65.55-3.992.906-6.579.906-2.587 0-4.927-.356-6.576-.906-.825-.275-1.475-.6-1.884-.923-.41-.322-.548-.598-.548-.822zm0 4.77c.544.402 1.251.735 2.096 1.016 1.803.601 4.23.959 6.913.959 2.682 0 5.11-.358 6.913-.959.845-.281 1.554-.614 2.098-1.016v3.565c0 .225-.14.5-.548.822-.41.322-1.06.65-1.884.925-1.65.55-3.992.904-6.579.904-2.587 0-4.927-.354-6.576-.904-.825-.275-1.475-.603-1.884-.925-.41-.322-.548-.597-.548-.822zm0 5.3c.544.403 1.251.736 2.096 1.018 1.803.601 4.23.959 6.913.959 2.682 0 5.11-.358 6.913-.959.845-.282 1.554-.615 2.098-1.017v3.035c0 .224-.139.499-.548.821-.409.323-1.059.65-1.884.925-1.65.55-3.991.904-6.578.904s-4.929-.354-6.578-.904c-.825-.275-1.475-.602-1.884-.925-.41-.322-.548-.597-.548-.821z" paint-order="stroke fill markers" fill="#154194" opacity="1" data-original="#000000"></path><path d="M19.57 18.777a.53.53 0 0 0-.52.537v1.059a.53.53 0 1 0 1.057 0v-1.059a.53.53 0 0 0-.537-.537zM17.719 19.306a.53.53 0 0 0-.522.537v1.059a.53.53 0 1 0 1.059 0v-1.059a.53.53 0 0 0-.537-.537zM19.57 13.752a.53.53 0 0 0-.52.535v1.058a.53.53 0 1 0 1.057 0v-1.058a.53.53 0 0 0-.537-.535zM17.719 14.28a.53.53 0 0 0-.522.536v1.059a.53.53 0 1 0 1.059 0v-1.059a.53.53 0 0 0-.537-.535zM19.57 8.724a.53.53 0 0 0-.52.537v1.057a.53.53 0 1 0 1.057 0V9.261a.53.53 0 0 0-.537-.537zM17.719 9.254a.53.53 0 0 0-.522.535v1.058a.53.53 0 1 0 1.059 0V9.79a.53.53 0 0 0-.537-.535z" fill="#154194" opacity="1" data-original="#000000"></path></g></svg>