<svg xmlns="http://www.w3.org/2000/svg" version="1.1" xmlns:xlink="http://www.w3.org/1999/xlink" width="512" height="512" x="0" y="0" viewBox="0 0 511.995 511.995" style="enable-background:new 0 0 512 512" xml:space="preserve" class=""><g><path d="M116.725 291.642v117.203M380.246 311.474v72.5M288.064 148.558l33.421-23.001c5.632-3.876 5.632-12.194 0-16.07l-33.421-23.001c-6.472-4.454-15.285.179-15.285 8.035v46.003c.001 7.855 8.814 12.488 15.285 8.034zM269.228 117.521h-98.83" style="stroke-width:15;stroke-linecap:round;stroke-linejoin:round;stroke-miterlimit:10;" fill="none" stroke="#154194" stroke-width="15" stroke-linecap="round" stroke-linejoin="round" stroke-miterlimit="10" data-original="#000000" opacity="1"></path><circle cx="484.165" cy="229.563" r="20.33" style="stroke-width:15;stroke-linecap:round;stroke-linejoin:round;stroke-miterlimit:10;" fill="none" stroke="#154194" stroke-width="15" stroke-linecap="round" stroke-linejoin="round" stroke-miterlimit="10" data-original="#000000" opacity="1"></circle><circle cx="380.277" cy="171.978" r="20.33" style="stroke-width:15;stroke-linecap:round;stroke-linejoin:round;stroke-miterlimit:10;" fill="none" stroke="#154194" stroke-width="15" stroke-linecap="round" stroke-linejoin="round" stroke-miterlimit="10" data-original="#000000" opacity="1"></circle><circle cx="380.277" cy="289.448" r="20.33" style="stroke-width:15;stroke-linecap:round;stroke-linejoin:round;stroke-miterlimit:10;" fill="none" stroke="#154194" stroke-width="15" stroke-linecap="round" stroke-linejoin="round" stroke-miterlimit="10" data-original="#000000" opacity="1"></circle><circle cx="380.277" cy="406.917" r="20.33" style="stroke-width:15;stroke-linecap:round;stroke-linejoin:round;stroke-miterlimit:10;" fill="none" stroke="#154194" stroke-width="15" stroke-linecap="round" stroke-linejoin="round" stroke-miterlimit="10" data-original="#000000" opacity="1"></circle><circle cx="276.327" cy="229.563" r="20.33" style="stroke-width:15;stroke-linecap:round;stroke-linejoin:round;stroke-miterlimit:10;" fill="none" stroke="#154194" stroke-width="15" stroke-linecap="round" stroke-linejoin="round" stroke-miterlimit="10" data-original="#000000" opacity="1"></circle><circle cx="484.165" cy="350.024" r="20.33" style="stroke-width:15;stroke-linecap:round;stroke-linejoin:round;stroke-miterlimit:10;" fill="none" stroke="#154194" stroke-width="15" stroke-linecap="round" stroke-linejoin="round" stroke-miterlimit="10" data-original="#000000" opacity="1"></circle><circle cx="276.327" cy="350.024" r="20.33" style="stroke-width:15;stroke-linecap:round;stroke-linejoin:round;stroke-miterlimit:10;" fill="none" stroke="#154194" stroke-width="15" stroke-linecap="round" stroke-linejoin="round" stroke-miterlimit="10" data-original="#000000" opacity="1"></circle><path d="M463.836 229.563a20.2 20.2 0 0 1 2.863-10.364l-67.74-39.202c-3.112 7.239-10.302 12.311-18.681 12.311-8.39 0-15.59-5.085-18.695-12.339l-67.788 39.23a20.21 20.21 0 0 1 2.863 10.364 20.21 20.21 0 0 1-2.81 10.277l68.664 39.737c3.472-6.236 10.123-10.459 17.767-10.459 7.633 0 14.274 4.212 17.75 10.433l68.618-39.71a20.198 20.198 0 0 1-2.811-10.278z" style="stroke-width:15;stroke-linecap:round;stroke-linejoin:round;stroke-miterlimit:10;" fill="none" stroke="#154194" stroke-width="15" stroke-linecap="round" stroke-linejoin="round" stroke-miterlimit="10" data-original="#000000" opacity="1"></path><path d="M463.836 229.563a20.2 20.2 0 0 1 2.863-10.364l-67.74-39.202c-3.112 7.239-10.302 12.311-18.681 12.311-8.39 0-15.59-5.085-18.695-12.339l-67.788 39.23a20.21 20.21 0 0 1 2.863 10.364c0 11.228-9.102 20.33-20.33 20.33v79.801c11.228 0 20.33 9.102 20.33 20.33 0 3.576-.93 6.933-2.552 9.852l67.478 39.051c3.105-7.254 10.305-12.339 18.695-12.339 8.379 0 15.57 5.072 18.681 12.311l67.429-39.022a20.22 20.22 0 0 1-2.552-9.852c0-11.228 9.102-20.33 20.33-20.33v-79.801c-11.229-.002-20.331-9.104-20.331-20.331zm-83.559 80.214c-11.228 0-20.33-9.102-20.33-20.33s9.102-20.33 20.33-20.33 20.33 9.102 20.33 20.33-9.102 20.33-20.33 20.33zM82.163 269.859l25.04 14.491a19.011 19.011 0 0 0 19.045 0l97.322-56.322a18.97 18.97 0 0 0-7.107-7.283l-90.214-52.209a19.011 19.011 0 0 0-19.045 0L16.99 220.745a18.97 18.97 0 0 0-7.107 7.283l41.988 24.299" style="stroke-width:15;stroke-linecap:round;stroke-linejoin:round;stroke-miterlimit:10;" fill="none" stroke="#154194" stroke-width="15" stroke-linecap="round" stroke-linejoin="round" stroke-miterlimit="10" data-original="#000000" opacity="1"></path><path d="M225.951 281.213V237.2a19.01 19.01 0 0 0-9.489-16.454l-90.214-52.209a19.011 19.011 0 0 0-19.045 0l-90.214 52.209A19.01 19.01 0 0 0 7.5 237.2v104.496a19.01 19.01 0 0 0 9.489 16.454l90.214 52.209a19.016 19.016 0 0 0 19.045 0l90.214-52.209a19.013 19.013 0 0 0 9.489-16.454v-25.482" style="stroke-width:15;stroke-linecap:round;stroke-linejoin:round;stroke-miterlimit:10;" fill="none" stroke="#154194" stroke-width="15" stroke-linecap="round" stroke-linejoin="round" stroke-miterlimit="10" data-original="#000000" opacity="1"></path></g></svg>