<svg xmlns="http://www.w3.org/2000/svg" version="1.1" xmlns:xlink="http://www.w3.org/1999/xlink" width="512" height="512" x="0" y="0" viewBox="0 0 510 510" style="enable-background:new 0 0 512 512" xml:space="preserve" fill-rule="evenodd" class=""><g><path d="M149.923 46.215c0-7.117 4.659-14.4 14.284-20.31C181.227 15.454 215.463 8 255 8c39.538 0 73.773 7.454 90.793 17.905 9.626 5.91 14.284 13.193 14.284 20.31v190.319c0 7.117-4.658 14.401-14.284 20.311-17.02 10.451-51.255 17.905-90.793 17.905-39.537 0-73.773-7.454-90.793-17.905-9.625-5.91-14.284-13.194-14.284-20.311zm196.154 0c0-1.74-1.2-3.242-2.837-4.807-2.756-2.635-6.82-5.013-11.874-7.207C314.153 26.727 286.347 22 255 22s-59.153 4.727-76.366 12.201c-5.054 2.194-9.118 4.572-11.874 7.207-1.637 1.565-2.837 3.067-2.837 4.807s1.2 3.243 2.837 4.808c2.756 2.635 6.82 5.013 11.874 7.208 17.213 7.474 45.019 12.201 76.366 12.201s59.153-4.727 76.366-12.201c5.054-2.195 9.118-4.573 11.874-7.208 1.637-1.565 2.837-3.068 2.837-4.808zm0 63.44V66.351l-.284.175C328.773 76.977 294.538 84.432 255 84.432c-39.537 0-73.773-7.455-90.793-17.905l-.284-.176v43.304c0 1.74 1.2 3.242 2.837 4.807 2.756 2.635 6.82 5.014 11.874 7.208 17.213 7.474 45.019 12.202 76.366 12.202s59.153-4.728 76.366-12.202c5.054-2.194 9.118-4.573 11.874-7.208 1.637-1.565 2.837-3.067 2.837-4.807zm0 63.44V129.79l-.284.176c-17.02 10.451-51.255 17.906-90.793 17.906-39.537 0-73.773-7.455-90.793-17.906l-.284-.176v43.305c0 1.74 1.2 3.242 2.837 4.807 2.756 2.635 6.82 5.013 11.874 7.208 17.213 7.474 45.019 12.201 76.366 12.201s59.153-4.727 76.366-12.201c5.054-2.195 9.118-4.573 11.874-7.208 1.637-1.565 2.837-3.067 2.837-4.807zM163.923 193.23v43.304c0 1.74 1.2 3.242 2.837 4.807 2.756 2.635 6.82 5.014 11.874 7.208 17.213 7.474 45.019 12.201 76.366 12.201s59.153-4.726 76.366-12.201c5.054-2.194 9.118-4.573 11.874-7.208 1.637-1.565 2.837-3.067 2.837-4.807V193.23l-.284.176c-17.02 10.45-51.255 17.905-90.793 17.905-39.537 0-73.773-7.455-90.793-17.905l-.284-.176zM73.204 464.535a21.953 21.953 0 0 1 6.321 15.437c0 12.158-9.87 22.028-22.028 22.028-12.157 0-22.028-9.87-22.028-22.028 0-12.157 9.871-22.028 22.028-22.028 1.098 0 2.177.081 3.232.236l20.615-40.523c-5.585-5.001-9.102-12.266-9.102-20.347 0-15.071 12.235-27.307 27.307-27.307a27.198 27.198 0 0 1 18.073 6.844l133.495-89.005c1.144-.763 2.488-1.176 3.883-1.176s2.739.413 3.883 1.176l133.495 89.005a27.198 27.198 0 0 1 18.073-6.844c15.072 0 27.307 12.236 27.307 27.307 0 8.081-3.517 15.346-9.102 20.347l20.615 40.523a22.223 22.223 0 0 1 3.232-.236c12.157 0 22.028 9.871 22.028 22.028 0 12.158-9.871 22.028-22.028 22.028-12.158 0-22.028-9.87-22.028-22.028 0-6.01 2.412-11.461 6.321-15.437l-20.614-40.521a27.393 27.393 0 0 1-5.731.604c-1.965 0-3.882-.209-5.731-.604l-20.663 40.618a21.953 21.953 0 0 1 6.226 15.34c0 12.158-9.871 22.028-22.028 22.028s-22.028-9.87-22.028-22.028c0-12.157 9.871-22.028 22.028-22.028 1.145 0 2.269.088 3.367.257l20.625-40.544c-5.586-5.001-9.103-12.266-9.103-20.347 0-3.086.513-6.053 1.459-8.82L262 306.747v64.163c11.684 3.095 20.307 13.749 20.307 26.4 0 8.081-3.517 15.346-9.102 20.347l20.619 40.533a22.176 22.176 0 0 1 3.3-.246c12.157 0 22.028 9.871 22.028 22.028 0 12.158-9.871 22.028-22.028 22.028-12.158 0-22.028-9.87-22.028-22.028a21.957 21.957 0 0 1 6.273-15.389l-20.638-40.569c-1.848.395-3.766.604-5.731.604s-3.883-.209-5.731-.604l-20.638 40.569a21.957 21.957 0 0 1 6.273 15.389c0 12.158-9.87 22.028-22.028 22.028-12.157 0-22.028-9.87-22.028-22.028 0-12.157 9.871-22.028 22.028-22.028 1.121 0 2.223.084 3.3.246l20.619-40.533c-5.585-5.001-9.102-12.266-9.102-20.347 0-12.651 8.623-23.305 20.307-26.4v-64.163L125.397 388.49a27.216 27.216 0 0 1 1.459 8.82c0 8.081-3.517 15.346-9.103 20.347l20.625 40.544a22.118 22.118 0 0 1 3.367-.257c12.157 0 22.028 9.871 22.028 22.028 0 12.158-9.871 22.028-22.028 22.028s-22.028-9.87-22.028-22.028a21.953 21.953 0 0 1 6.226-15.34l-20.663-40.618a27.407 27.407 0 0 1-5.731.604c-1.966 0-3.883-.209-5.731-.604zm26.345-80.532c-7.345 0-13.307 5.963-13.307 13.307 0 7.345 5.962 13.308 13.307 13.308 7.344 0 13.307-5.963 13.307-13.308 0-7.344-5.963-13.307-13.307-13.307zm113.327 87.941a8.032 8.032 0 0 0-8.028 8.028c0 4.431 3.597 8.028 8.028 8.028s8.028-3.597 8.028-8.028a8.032 8.032 0 0 0-8.028-8.028zm239.627 0a8.032 8.032 0 0 0-8.028 8.028c0 4.431 3.597 8.028 8.028 8.028s8.028-3.597 8.028-8.028a8.032 8.032 0 0 0-8.028-8.028zm-42.052-87.941c-7.344 0-13.307 5.963-13.307 13.307 0 7.345 5.963 13.308 13.307 13.308 7.345 0 13.307-5.963 13.307-13.308 0-7.344-5.962-13.307-13.307-13.307zm-268.706 87.941a8.032 8.032 0 0 0-8.028 8.028c0 4.431 3.597 8.028 8.028 8.028s8.028-3.597 8.028-8.028a8.032 8.032 0 0 0-8.028-8.028zm226.51 0a8.032 8.032 0 0 0-8.028 8.028c0 4.431 3.597 8.028 8.028 8.028s8.028-3.597 8.028-8.028a8.032 8.032 0 0 0-8.028-8.028zM255 384.003c-7.344 0-13.307 5.963-13.307 13.307 0 7.345 5.963 13.308 13.307 13.308s13.307-5.963 13.307-13.308c0-7.344-5.963-13.307-13.307-13.307zm42.124 87.941a8.032 8.032 0 0 0-8.028 8.028c0 4.431 3.597 8.028 8.028 8.028s8.028-3.597 8.028-8.028a8.032 8.032 0 0 0-8.028-8.028zm-239.627 0a8.032 8.032 0 0 0-8.028 8.028c0 4.431 3.597 8.028 8.028 8.028s8.028-3.597 8.028-8.028a8.032 8.032 0 0 0-8.028-8.028z" fill="#154194" opacity="1" data-original="#000000"></path></g></svg>