<svg xmlns="http://www.w3.org/2000/svg" version="1.1" xmlns:xlink="http://www.w3.org/1999/xlink" width="512" height="512" x="0" y="0" viewBox="0 0 24 24" style="enable-background:new 0 0 512 512" xml:space="preserve" class=""><g><path d="M7.7 15.007a1.5 1.5 0 0 1-2.121 0L.858 10.282a2.932 2.932 0 0 1 0-4.145l4.725-4.725A1.5 1.5 0 0 1 7.7 3.533L4.467 6.7H18.68A5.325 5.325 0 0 1 24 12.019V18.7a5.323 5.323 0 0 1-5.318 5.318H5.318a1.5 1.5 0 1 1 0-3h13.363A2.321 2.321 0 0 0 21 18.7v-6.681A2.321 2.321 0 0 0 18.68 9.7H4.522L7.7 12.886a1.5 1.5 0 0 1 0 2.121Z" fill="#154194" opacity="1" data-original="#000000"></path></g></svg>