<?xml version="1.0" encoding="UTF-8"?><svg id="Ebene_1" xmlns="http://www.w3.org/2000/svg" width="24" height="24" viewBox="0 0 24 24"><path d="m11.8627,10.4935c.4454.7997,1.064,1.3139,1.56,1.7262.664.5519.8425.7003.8327,1.392-.0093.658-.6056,1.6369-2.2107,1.6369-.6266,0-1.0879-.15-1.4276-.3702.2462-.0466.4821-.1392.6958-.2742.6184-.3905,1.2359-1.1795.6663-2.72-.1476-.3991-.275-.7437-.1451-1.283.0087-.0363.0183-.0723.0285-.1078m1.2556-3.4935c-1.3117.4014-2.6035,1.6003-2.9868,3.1911-.4249,1.7635.6359,2.6865.2462,2.9326-.0415.0262-.087.0387-.1352.0387-.5622,0-1.4979-1.6924-.8509-3.0385-2.5256,1.3284-1.9367,6.8762,2.6531,6.8762,2.6412,0,3.9401-1.8254,3.9618-3.3636.0474-3.3664-3.5938-2.2971-2.8882-6.6364h0Z" fill="#0069b4" stroke-width="0"/><rect width="24" height="24" fill="none" stroke-width="0"/><path d="m18.8154,3.5c.9289,0,1.6846.7557,1.6846,1.6846v13.6307c0,.9289-.7557,1.6846-1.6846,1.6846H5.1846c-.9289,0-1.6846-.7557-1.6846-1.6846V5.1846c0-.9289.7557-1.6846,1.6846-1.6846h13.6307m0-1.5H5.1846c-1.7588,0-3.1846,1.4258-3.1846,3.1846v13.6307c0,1.7588,1.4258,3.1846,3.1846,3.1846h13.6307c1.7588,0,3.1846-1.4258,3.1846-3.1846V5.1846c0-1.7588-1.4258-3.1846-3.1846-3.1846h0Z" fill="#0069b4" stroke-width="0"/></svg>