<svg xmlns="http://www.w3.org/2000/svg" version="1.1" xmlns:xlink="http://www.w3.org/1999/xlink" width="512" height="512" x="0" y="0" viewBox="0 0 512 512" style="enable-background:new 0 0 512 512" xml:space="preserve" class=""><g><path d="M173.007 168.845c-6.893 0-12.5 5.607-12.5 12.5v32.321c0 6.893 5.607 12.5 12.5 12.5h32.321c6.893 0 12.5-5.607 12.5-12.5v-32.321c0-6.893-5.607-12.5-12.5-12.5zm29.821 42.321h-27.321v-27.321h27.321zM255.159 168.845c-6.893 0-12.5 5.607-12.5 12.5v32.321c0 6.893 5.607 12.5 12.5 12.5h32.321c6.893 0 12.5-5.607 12.5-12.5v-32.321c0-6.893-5.607-12.5-12.5-12.5zm29.821 42.321h-27.321v-27.321h27.321zM337.312 168.845c-6.893 0-12.5 5.607-12.5 12.5v32.321c0 6.893 5.607 12.5 12.5 12.5h32.321c6.893 0 12.5-5.607 12.5-12.5v-32.321c0-6.893-5.607-12.5-12.5-12.5zm29.821 42.321h-27.321v-27.321h27.321z" fill="#154194" opacity="1" data-original="#000000"></path><path d="M508.825 294.338a7.5 7.5 0 0 0-10.452 1.802l-24.689 34.976a7.495 7.495 0 0 0-1.373 4.325v96.4h-15.363v-77.842c0-4.143-3.357-7.5-7.5-7.5s-7.5 3.357-7.5 7.5v29.492h-40.551v-35.85c0-6.893-5.607-12.5-12.5-12.5h-6.764v-76.793c0-6.893-5.607-12.5-12.5-12.5H173.007c-6.893 0-12.5 5.607-12.5 12.5v189.12h-24.684v-17.47c0-4.143-3.357-7.5-7.5-7.5s-7.5 3.357-7.5 7.5v17.47H15v-67.112h32.553v18.07c0 5.79 4.71 10.5 10.5 10.5h19.718c5.79 0 10.5-4.71 10.5-10.5v-18.07h32.553v14.643c0 4.143 3.357 7.5 7.5 7.5s7.5-3.357 7.5-7.5v-17.143c0-6.893-5.607-12.5-12.5-12.5h-2.777v-54.533c0-6.893-5.607-12.5-12.5-12.5h-7.354V191.568L271.319 69.463l170.628 122.105v127.431c0 4.143 3.357 7.5 7.5 7.5s7.5-3.357 7.5-7.5V202.302l11.611 8.309c5.606 4.012 13.43 2.716 17.441-2.891l14.548-20.329c1.943-2.716 2.713-6.025 2.167-9.319s-2.342-6.178-5.058-8.122L285.867 18.39a25.009 25.009 0 0 0-29.097.001L44.981 169.952c-2.715 1.943-4.511 4.827-5.057 8.121s.224 6.604 2.167 9.318l14.549 20.331a12.418 12.418 0 0 0 8.121 5.057 12.408 12.408 0 0 0 9.318-2.166l11.612-8.31v96.021H27.777c-6.893 0-12.5 5.607-12.5 12.5v54.533H12.5c-6.893 0-12.5 5.607-12.5 12.5v72.112c0 6.893 5.607 12.5 12.5 12.5h253.424c1.127 5.742 6.194 10.09 12.262 10.09h11.048c.695 14.299 12.544 25.718 27.012 25.718s26.317-11.419 27.012-25.718h62.22c.695 14.299 12.544 25.718 27.012 25.718s26.317-11.419 27.012-25.718h15.308c6.893 0 12.5-5.607 12.5-12.5V337.822l23.316-33.031a7.5 7.5 0 0 0-1.801-10.453zM73.271 393.927H62.553v-13.57h10.718zm-5.887-196.968-11.64-16.265L265.498 30.591a10.003 10.003 0 0 1 11.642-.001l209.756 150.104-11.64 16.265L278.594 56.224a12.497 12.497 0 0 0-14.549.001zM30.277 313.324h75.269v52.033H30.277zm356.717 85.168h54.953v33.35h-54.953zm-.598-48.35v33.35h-54.952v-33.35zm-14.402 48.35v33.35h-54.952v-33.35zM175.507 290.175H290c4.143 0 7.5-3.357 7.5-7.5s-3.357-7.5-7.5-7.5H175.507v-14.326h191.626v14.326H325c-4.143 0-7.5 3.357-7.5 7.5s3.357 7.5 7.5 7.5h42.133v14.326H175.507zm54.952 157.294h-54.952v-36.436h54.952zm0-51.435h-54.952V358.5h54.952zm35.227 48.307v3.128h-20.227v-91.47c0-6.893-5.607-12.5-12.5-12.5h-57.452v-23.998h191.625v15.641h-38.188c-6.893 0-12.5 5.607-12.5 12.5v35.85h-1.902c-6.893 0-12.5 5.607-12.5 12.5v35.85h-23.856c-6.893-.001-12.5 5.607-12.5 12.499zm50.56 38.936c-6.193 0-11.305-4.698-11.969-10.718h23.937c-.663 6.019-5.775 10.718-11.968 10.718zm116.244 0c-6.193 0-11.305-4.698-11.969-10.718h23.937c-.663 6.019-5.774 10.718-11.968 10.718zm39.821-25.718H280.686v-10.718h191.625z" fill="#154194" opacity="1" data-original="#000000"></path></g></svg>