<svg xmlns="http://www.w3.org/2000/svg" version="1.1" xmlns:xlink="http://www.w3.org/1999/xlink" width="512" height="512" x="0" y="0" viewBox="0 0 64 64" style="enable-background:new 0 0 512 512" xml:space="preserve" fill-rule="evenodd" class=""><g><path d="M8 23h2v4H8zM54.001 3h2v24h-2z" fill="#154194" opacity="1" data-original="#000000" class=""></path><g stroke-width=".41"><path d="M28 9a1 1 0 0 0-1-1h-8a1 1 0 0 0-1 1v6a1 1 0 0 0 1 1h1v1a1 1 0 0 0 1 1h4a1 1 0 0 0 1-1v-1h1a1 1 0 0 0 1-1zm-2 1v4h-1a1 1 0 0 0-1 1v1h-2v-1a1 1 0 0 0-1-1h-1v-4zM40 9a1 1 0 0 0-1-1h-8a1 1 0 0 0-1 1v6a1 1 0 0 0 1 1h1v1a1 1 0 0 0 1 1h4a1 1 0 0 0 1-1v-1h1a1 1 0 0 0 1-1zm-2 1v4h-1a1 1 0 0 0-1 1v1h-2v-1a1 1 0 0 0-1-1h-1v-4zM52 9a1 1 0 0 0-1-1h-8a1 1 0 0 0-1 1v6a1 1 0 0 0 1 1h1v1a1 1 0 0 0 1 1h4a1 1 0 0 0 1-1v-1h1a1 1 0 0 0 1-1zm-2 1v4h-1a1 1 0 0 0-1 1v1h-2v-1a1 1 0 0 0-1-1h-1v-4zM16 9a1 1 0 0 0-1-1H7a1 1 0 0 0-1 1v6a1 1 0 0 0 1 1h1v1a1 1 0 0 0 1 1h4a1 1 0 0 0 1-1v-1h1a1 1 0 0 0 1-1zm-2 1v4h-1a1 1 0 0 0-1 1v1h-2v-1a1 1 0 0 0-1-1H8v-4z" fill="#154194" opacity="1" data-original="#000000" class=""></path></g><path d="M62.001 3c0-.552-.448-1-1-1H3c-.553 0-1.001.448-1.001 1v20c0 .552.448 1 1.001 1h58c.553 0 1.001-.448 1.001-1zM60 4v18H4V4z" fill="#154194" opacity="1" data-original="#000000" class=""></path><path d="M55 7.001h6v2h-6zM55 12h6v2h-6zM55 17.001h6v2h-6zM5 28h54c.552 0 1.001-.448 1.001-1s-.449-1-1-1H5c-.552 0-1.002.448-1.002 1S4.45 28 5 28zM46.001 31v10a1 1 0 0 0 1 1h10v-2h-9v-9a1 1 0 1 0-2 0z" fill="#154194" opacity="1" data-original="#000000" class=""></path><path d="M40 31.001v19a1 1 0 0 0 1 1h11v-2H42V31C42 30.45 41.553 30 41 30s-1 .449-1 1.001z" fill="#154194" opacity="1" data-original="#000000" class=""></path><path d="M34.002 31v28c0 .551.447 1.001.999 1.001h12V58H36V31.001a1.001 1.001 0 0 0-2 0zM27.999 31v27H17V60h12c.551 0 .999-.45.999-1V31a1 1 0 1 0-2 0z" fill="#154194" opacity="1" data-original="#000000" class=""></path><path d="M49 56c-1.656 0-3 1.345-3 3 0 1.656 1.344 3 3 3s3-1.344 3-3c0-1.655-1.344-3-3-3zm0 2a1 1 0 1 1 0 2.001 1 1 0 0 1 0-2zM15 56c-1.656 0-3 1.345-3 3 0 1.656 1.344 3 3 3s3-1.344 3-3c0-1.655-1.344-3-3-3zm0 2a1 1 0 1 1 0 2.001 1 1 0 0 1 0-2zM22 31.001v18H12v2h11a1 1 0 0 0 1-1V31C24 30.45 23.553 30 23 30s-1 .449-1 1.001z" fill="#154194" opacity="1" data-original="#000000" class=""></path><path d="M16 31v9H7v2h10a1 1 0 0 0 1-1V31a1 1 0 0 0-2 0zM59 38c-1.655 0-3 1.345-3 3 0 1.656 1.345 3 3 3s3-1.344 3-3c0-1.655-1.344-3-3-3zm0 2a1 1 0 1 1 0 2.001 1 1 0 0 1 0-2zM54 47c-1.655 0-3 1.345-3 3 0 1.656 1.345 3 3 3s3-1.344 3-3c0-1.655-1.344-3-3-3zm0 2a1 1 0 1 1 0 2.001 1 1 0 0 1 0-2zM10 47c-1.656 0-3 1.345-3 3 0 1.656 1.344 3 3 3s3-1.344 3-3c0-1.655-1.344-3-3-3zm0 2a1 1 0 1 1 0 2.001 1 1 0 0 1 0-2z" fill="#154194" opacity="1" data-original="#000000" class=""></path><path d="M5 38c-1.656 0-3 1.345-3 3 0 1.656 1.344 3 3 3s3-1.344 3-3c0-1.655-1.344-3-3-3zm0 2a1 1 0 1 1 0 2.001 1 1 0 0 1 0-2z" fill="#154194" opacity="1" data-original="#000000" class=""></path></g></svg>