<svg xmlns="http://www.w3.org/2000/svg" version="1.1" xmlns:xlink="http://www.w3.org/1999/xlink" width="512" height="512" x="0" y="0" viewBox="0 0 512 512" style="enable-background:new 0 0 512 512" xml:space="preserve"><g><path d="M127.925 65.789H68.056c-8.038 0-14.565 6.529-14.565 14.567v59.87c0 8.037 6.528 14.564 14.565 14.564h59.869c8.038 0 14.566-6.527 14.566-14.564v-59.87c0-8.038-6.528-14.567-14.566-14.567zm4.823 74.436a4.802 4.802 0 0 1-4.823 4.821H68.056a4.802 4.802 0 0 1-4.823-4.821v-59.87a4.802 4.802 0 0 1 4.823-4.824h59.869a4.802 4.802 0 0 1 4.823 4.824zM57.367 183.133a4.868 4.868 0 0 0 4.871 4.871h170.485c2.693 0 4.871-2.179 4.871-4.871s-2.179-4.871-4.871-4.871H62.238a4.867 4.867 0 0 0-4.871 4.871zM192.369 227.675H62.238a4.868 4.868 0 0 0-4.871 4.871 4.868 4.868 0 0 0 4.871 4.871h130.131a4.868 4.868 0 0 0 4.871-4.871 4.868 4.868 0 0 0-4.871-4.871zM168.548 326.496H62.238c-2.693 0-4.871 2.179-4.871 4.871s2.179 4.871 4.871 4.871h106.31c2.693 0 4.871-2.179 4.871-4.871s-2.179-4.871-4.871-4.871zM358.245 278.717c-26.939-26.938-70.83-26.84-97.866.147-26.841 26.89-26.939 70.635.146 97.623 26.987 27.085 70.976 26.598 97.623 0 13.591-13.641 20.265-31.324 20.265-48.861-.001-17.877-6.87-35.61-20.168-48.909zm-6.967 90.854c-23.139 23.089-60.795 23.187-83.886.048-23.334-23.334-23.042-60.892-.097-83.886 23.188-23.139 60.892-23.284 84.032-.145 21.678 21.677 24.601 59.283-.049 83.983z" fill="#154194" opacity="1" data-original="#000000"></path><path d="m405.692 414.436.292-.293c.098-.147.049-.097-.292.293zm-2.533 2.533c.341-.343.633-.635.877-.878a11.28 11.28 0 0 0-.877.878zm81.791 35.365-62.062-62.013a4.85 4.85 0 0 0-6.869 0l-4.774 4.774-16.368-16.367c23.675-39.701 16.709-89.926-15.004-121.64-17.683-17.635-40.822-27.718-65.618-28.886V115.966c0-1.023-.536-2.533-1.461-3.411L209.326 8.99c-.877-.878-2.387-1.413-3.459-1.413H58.264c-19.778 0-35.853 16.075-35.853 35.803v305c0 19.728 16.076 35.805 35.853 35.805h169.037c3.41 4.919 7.21 9.595 11.545 13.882 32.638 32.737 85.152 39.411 125.731 12.374l15.637 15.637-4.774 4.774c-.877.928-1.413 2.146-1.413 3.458 0 1.268.536 2.536 1.413 3.461l62.062 62.013c6.186 6.187 16.27 6.187 22.457 0l24.99-24.992c6.187-6.188 6.187-16.271.001-22.458zM210.739 24.187l86.857 86.907H236.85c-14.371 0-26.111-11.693-26.111-26.112zM58.264 374.442c-14.371 0-26.111-11.693-26.111-26.062v-305c0-14.369 11.74-26.06 26.111-26.06h142.732v67.662c0 19.778 16.076 35.855 35.854 35.855h67.663v107.366c-24.844 1.218-48.032 11.301-65.666 28.983-6.04 5.992-11.107 12.714-15.345 19.876H62.259a4.855 4.855 0 0 0-4.871 4.871c0 2.728 2.143 4.871 4.871 4.871h156.177c-12.812 28.596-11.35 61.038 2.874 87.638zm187.451 16.757c-35.123-35.075-35.123-92.071 0-127.144h.048c34.977-35.075 92.069-35.173 127.192-.098 34.489 34.49 35.512 91.679-.049 127.241-35.17 35.124-92.311 34.929-127.191.001zm126.851 13.444c1.072-.875 4.774-4.141 7.21-6.577 3.264-3.214 7.064-7.647 9.597-11.106l14.955 15.004c-.487.535-16.222 16.27-17.196 17.245zm105.466 63.281-24.99 24.99c-2.387 2.388-6.284 2.388-8.671 0l-58.603-58.604c9.207-9.205 14.517-14.467 17.391-17.34.341-.343.633-.635.877-.878a1.14 1.14 0 0 1 .341-.34c.439-.488.828-.828.78-.78.195-.243.39-.39.536-.535l.292-.293c.098-.147.195-.195.195-.195 2.582-2.631 6.82-6.819 13.299-13.299l58.554 58.554c2.386 2.435 2.386 6.332-.001 8.72z" fill="#154194" opacity="1" data-original="#000000"></path></g></svg>