<svg xmlns="http://www.w3.org/2000/svg" version="1.1" xmlns:xlink="http://www.w3.org/1999/xlink" width="512" height="512" x="0" y="0" viewBox="0 0 510 510" style="enable-background:new 0 0 512 512" xml:space="preserve" fill-rule="evenodd" class=""><g><path d="M100.711 396.93c-2.999 9.828-12.144 16.986-22.947 16.986-13.239 0-23.986-10.747-23.986-23.986 0-13.238 10.747-23.986 23.986-23.986 10.803 0 19.948 7.158 22.947 16.986h12.797v-42.513a7 7 0 0 1 7-7h31.312v-41.692c-14.091-10.628-23.23-27.508-23.23-46.415 0-25.54 16.689-47.368 39.705-55.3 2.681-35.272 31.971-62.852 67.7-62.852 20.553 0 38.978 9.132 51.428 23.564a41.893 41.893 0 0 1 19.587-4.83c23.241 0 42.11 18.869 42.11 42.109 0 1.737-.106 3.449-.311 5.13 19.268 9.487 32.601 29.355 32.601 52.179 0 18.306-8.572 34.713-21.91 45.384v42.723h31.311a7 7 0 0 1 7 7v42.513h12.798c2.998-9.828 12.143-16.986 22.947-16.986 13.238 0 23.986 10.748 23.986 23.986 0 13.239-10.748 23.986-23.986 23.986-10.804 0-19.949-7.158-22.947-16.986h-19.798a7 7 0 0 1-7-7v-42.513H352.5a7 7 0 0 1-7-7v-41.425a57.481 57.481 0 0 1-13.535 3.781v28.644a16.003 16.003 0 0 1-16 16h-12.181v19.973h31.311a7 7 0 0 1 7 7v80.677c9.828 2.998 16.986 12.143 16.986 22.947 0 13.238-10.748 23.986-23.986 23.986s-23.986-10.748-23.986-23.986c0-10.804 7.158-19.949 16.986-22.947V381.39h-31.311a7 7 0 0 1-7-7v-26.973h-27.232v92.123c9.829 2.998 16.987 12.143 16.987 22.947 0 13.238-10.748 23.986-23.987 23.986-13.238 0-23.986-10.748-23.986-23.986 0-10.804 7.158-19.949 16.986-22.947v-92.123h-27.231v26.973a7 7 0 0 1-7 7H183.01v73.677c9.828 2.998 16.986 12.143 16.986 22.947 0 13.238-10.748 23.986-23.986 23.986-13.239 0-23.986-10.748-23.986-23.986 0-10.804 7.158-19.949 16.986-22.947V374.39a7 7 0 0 1 7-7h31.311v-19.973h-13.286a16 16 0 0 1-16-16v-28.642a57.508 57.508 0 0 1-12.215-3.247v40.889a7 7 0 0 1-7 7h-31.312v42.513a7 7 0 0 1-7 7zm-12.961-7c0-5.511-4.475-9.986-9.986-9.986-5.512 0-9.986 4.475-9.986 9.986 0 5.512 4.474 9.986 9.986 9.986 5.511 0 9.986-4.474 9.986-9.986zm260.744-108.475c11.409-7.998 18.916-21.236 18.916-36.145 0-18.944-12.113-35.195-28.968-41.415a7 7 0 0 1-4.326-8.425 28.097 28.097 0 0 0 1.004-7.469c0-15.514-12.596-28.109-28.11-28.109a27.963 27.963 0 0 0-16.966 5.704 7 7 0 0 1-9.955-1.544c-9.756-13.848-25.87-22.894-44.094-22.894-29.779 0-53.901 24.149-53.901 54.14a7 7 0 0 1-5.334 6.799c-19.506 4.779-34.17 22.354-34.17 43.213 0 15.403 8.007 29.024 20.054 36.924l.012.008a43.827 43.827 0 0 0 15.379 6.322v-47.396a16.003 16.003 0 0 1 16-16h50.84a7 7 0 0 1 6.104 3.573l8.956 15.95h56.03a16 16 0 0 1 16 16v27.87a43.9 43.9 0 0 0 16.519-7.098l.01-.008zM423.57 389.93c0 5.512 4.474 9.986 9.986 9.986 5.511 0 9.986-4.474 9.986-9.986 0-5.511-4.475-9.986-9.986-9.986-5.512 0-9.986 4.475-9.986 9.986zm-229.535-56.513h121.93a2 2 0 0 0 2-2v-70.726a2.001 2.001 0 0 0-2-2h-60.127a7.002 7.002 0 0 1-6.104-3.573l-8.956-15.95h-46.743a1.999 1.999 0 0 0-2 2v90.249a2.001 2.001 0 0 0 2 2zm141.06 134.611c-5.511 0-9.986 4.474-9.986 9.986 0 5.511 4.475 9.986 9.986 9.986 5.512 0 9.986-4.475 9.986-9.986 0-5.512-4.474-9.986-9.986-9.986zm-79.543-15.527c-5.511 0-9.986 4.474-9.986 9.986 0 5.511 4.475 9.986 9.986 9.986 5.512 0 9.987-4.475 9.987-9.986 0-5.512-4.475-9.986-9.987-9.986zm-79.542 15.527c-5.512 0-9.986 4.474-9.986 9.986 0 5.511 4.474 9.986 9.986 9.986 5.511 0 9.986-4.475 9.986-9.986 0-5.512-4.475-9.986-9.986-9.986zm-67.414-207.713H16.685a7 7 0 0 1-7-7v-23.827c0-12.507 10.143-22.65 22.65-22.65 40.72 0 61.129-49.314 32.346-78.096-8.841-8.841-8.841-23.183 0-32.024l33.722-33.721c8.841-8.841 23.182-8.841 32.024 0 28.782 28.782 78.095 8.373 78.095-32.347 0-12.506 10.144-22.65 22.651-22.65h47.654c12.507 0 22.651 10.144 22.651 22.65 0 40.72 49.313 61.129 78.095 32.347 8.838-8.838 23.215-8.838 32.052 0l33.694 33.721c8.841 8.841 8.841 23.183 0 32.024-28.783 28.782-8.35 78.096 32.346 78.096 12.547 0 22.65 10.143 22.65 22.65v23.827a7 7 0 0 1-7 7h-91.911a7 7 0 0 1-7-6.999c-.009-76.788-62.648-139.387-139.404-139.387-76.79 0-139.395 62.599-139.404 139.387a7 7 0 0 1-7 6.999zm-6.841-14C105.442 165.044 172.844 99.929 255 99.929c82.12 0 149.556 65.115 153.245 146.386h78.07v-16.827a8.641 8.641 0 0 0-8.65-8.65c-53.15 0-79.837-64.405-42.246-101.996a8.645 8.645 0 0 0 0-12.224l-33.693-33.722c-3.379-3.378-8.875-3.378-12.253 0-37.591 37.591-101.995 10.936-101.995-42.246a8.652 8.652 0 0 0-8.651-8.65h-47.654a8.652 8.652 0 0 0-8.651 8.65c0 53.182-64.404 79.837-101.995 42.246a8.646 8.646 0 0 0-12.225 0l-33.721 33.722a8.645 8.645 0 0 0 0 12.224c37.591 37.591 10.936 101.996-42.246 101.996a8.652 8.652 0 0 0-8.65 8.65v16.827z" fill="#154194" opacity="1" data-original="#000000"></path></g></svg>