<svg xmlns="http://www.w3.org/2000/svg" version="1.1" xmlns:xlink="http://www.w3.org/1999/xlink" width="512" height="512" x="0" y="0" viewBox="0 0 64 64" style="enable-background:new 0 0 512 512" xml:space="preserve" class=""><g><path d="M2 51.9v1.77a5.957 5.957 0 0 0 5.95 5.95H61a1 1 0 0 0 1-1v-46.7a1 1 0 0 0-1-1H13.91v-.57c0-3.292-2.674-5.97-5.96-5.97-1.56 0-3.093.639-4.203 1.749A5.889 5.889 0 0 0 2 10.35zm58-38.98v44.7H7.95A3.955 3.955 0 0 1 4 53.67V51.9a3.955 3.955 0 0 1 3.95-3.95c1.071 0 2.064.412 2.803 1.167A3.912 3.912 0 0 1 11.91 51.9a1 1 0 1 0 2 0V12.92zM4 10.35a3.91 3.91 0 0 1 1.157-2.803A3.987 3.987 0 0 1 7.95 6.38a3.97 3.97 0 0 1 3.96 3.97v37.106a5.863 5.863 0 0 0-3.96-1.506c-.356 0-.702.037-1.041.097-.033.006-.066.009-.098.015-.32.062-.628.154-.927.265l-.135.049a5.842 5.842 0 0 0-.827.411l-.137.083a6.1 6.1 0 0 0-.733.544c-.017.014-.036.025-.053.039V10.35z" fill="#154194" opacity="1" data-original="#000000" class=""></path><path d="M18.988 43.822h36.044a1 1 0 0 0 1-1V17.379a1 1 0 0 0-1-1H18.988a1 1 0 0 0-1 1v25.443a1 1 0 0 0 1 1zm15.164-2v-3.853h7.075v3.853zm19.881-12.298h-8.262V24.57h8.262zM32.576 18.378v5.124h-6.82v-5.124zm-12.587 0h3.767v6.124a1 1 0 0 0 1 1h8.82a1 1 0 0 0 1-1v-6.124h3.258v14.181a1 1 0 1 0 2 0V18.378h14.199v4.191h-9.262a1 1 0 0 0-1 1v6.954a1 1 0 0 0 1 1h9.262v2.071h-9.262a1 1 0 1 0 0 2h9.262v6.227H43.227v-4.853a1 1 0 0 0-1-1h-9.075a1 1 0 0 0-1 1v4.853H19.988V18.379z" fill="#154194" opacity="1" data-original="#000000" class=""></path><path d="M33.134 31.797c0-2.188-1.78-3.969-3.969-3.969s-3.968 1.78-3.968 3.969 1.78 3.968 3.968 3.968 3.969-1.78 3.969-3.968zm-3.969 1.968c-1.085 0-1.968-.883-1.968-1.968s.883-1.969 1.968-1.969 1.969.883 1.969 1.969-.883 1.968-1.969 1.968zM17.981 50.288a.99.99 0 0 0 .216.323l3.137 3.138a.997.997 0 0 0 1.414 0 .999.999 0 0 0 0-1.414l-1.431-1.432h31.301l-1.431 1.432a.999.999 0 1 0 1.414 1.414l3.138-3.138a1.001 1.001 0 0 0 0-1.416l-3.138-3.137a.999.999 0 1 0-1.414 1.414l1.431 1.431h-31.3l1.431-1.431a.999.999 0 1 0-1.414-1.414l-3.137 3.137a1.001 1.001 0 0 0-.216 1.093z" fill="#154194" opacity="1" data-original="#000000" class=""></path></g></svg>
