<svg xmlns="http://www.w3.org/2000/svg" version="1.1" xmlns:xlink="http://www.w3.org/1999/xlink" width="512" height="512" x="0" y="0" viewBox="0 0 501.368 501.368" style="enable-background:new 0 0 512 512" xml:space="preserve"><g><path d="M120.995 255.996h248.853c54.933 0 99.52-43.093 99.52-96s-44.693-96-99.52-96H127.075c-6.08-35.84-40.853-59.627-76.693-51.84C18.275 19.089-3.485 49.809.462 82.343c4.48 36.48 38.4 61.44 74.24 55.467a64.15 64.15 0 0 0 52.48-52.48h242.773c43.093 0 78.187 33.493 78.187 74.667 0 41.173-35.093 74.667-78.187 74.667h-248.96c-54.933 0-99.627 43.093-99.627 96s44.693 96 99.52 96h173.333l-45.653 45.76c-4.267 4.053-4.373 10.88-.213 15.04 4.16 4.16 10.88 4.373 15.04.213l.213-.213 63.893-63.893a10.623 10.623 0 0 0 0-15.04l-63.893-64c-4.267-4.053-10.987-3.947-15.04.213a10.763 10.763 0 0 0 0 14.827l45.76 45.76H120.995c-43.2 0-78.293-33.493-78.293-74.667s35.093-74.668 78.293-74.668zm-56.96-138.773c-23.573 0-42.667-19.093-42.667-42.667 0-23.573 19.093-42.667 42.667-42.667 23.573 0 42.667 19.093 42.667 42.667 0 23.573-19.094 42.667-42.667 42.667zM437.368 351.889c-35.307 0-64 28.693-64 64s28.693 64 64 64 64-28.693 64-64-28.586-63.893-64-64zm0 106.667c-23.573 0-42.667-19.093-42.667-42.667s19.093-42.667 42.667-42.667 42.667 19.093 42.667 42.667-19.093 42.667-42.667 42.667z" fill="#154194" opacity="1" data-original="#000000"></path></g></svg>