<svg xmlns="http://www.w3.org/2000/svg" version="1.1" xmlns:xlink="http://www.w3.org/1999/xlink" width="512" height="512" x="0" y="0" viewBox="0 0 64 64" style="enable-background:new 0 0 512 512" xml:space="preserve" class=""><g><g data-name="Stroke copy 3"><path fill="#56b2a7" d="M25 53h14v8H25z" opacity="1" data-original="#a8dba8" class=""></path><path fill="#99cd57" d="M13 61H9l1-14h2l.3 4.25-.3-.53a1.932 1.932 0 0 1-1 .28v5a2.973 2.973 0 0 0 1.84 2.76z" opacity="1" data-original="#cff09e" class=""></path><path fill="#99cd57" d="M18.46 51.93A4.007 4.007 0 0 1 13 50.46L11 47a3.719 3.719 0 0 1 .93-.38L13 48.46a3.977 3.977 0 0 0 3.47 2 3.877 3.877 0 0 0 1.06-.15zM12.4 44.57 11 47a3.994 3.994 0 0 1-2-3.46 3.932 3.932 0 0 1 .54-2l2-3.47a3.817 3.817 0 0 1 .6.43l-.6 1.04a3.977 3.977 0 0 0 .86 5.03zM11 47a3.995 3.995 0 0 1-4 4H3a4.025 4.025 0 0 1 1.17-2.83 2.606 2.606 0 0 1 .31-.27 3.95 3.95 0 0 0 5.34 1.64A1.986 1.986 0 0 1 8.56 47z" opacity="1" data-original="#cff09e" class=""></path><circle cx="11" cy="47" r="2" fill="#56b2a7" opacity="1" data-original="#a8dba8" class=""></circle><path fill="#8aa0ca" d="M29 57h6v4h-6z" opacity="1" data-original="#79bd9a" class=""></path><path fill="#56b2a7" d="M52 55h4v6h-4z" opacity="1" data-original="#a8dba8" class=""></path><path fill="#99cd57" d="M59 51h-4l2-4zM55 51h-4l2-4zM57 55h-4l2-4zM53 55h-4l2-4z" opacity="1" data-original="#cff09e" class=""></path><path fill="#56b2a7" d="M3 15h12v10H3z" opacity="1" data-original="#a8dba8" class=""></path><path fill="#99cd57" d="M7 19h4v6H7zM15 11v4l-4-4zM11 7v4L7 7z" opacity="1" data-original="#cff09e" class=""></path><path fill="#8aa0ca" d="M15 19h4v6h-4z" opacity="1" data-original="#79bd9a" class=""></path><g fill="#cff09e"><path d="M15 11h-4V7zM11 7H7V3zM7 7H3V3zM19 15h-4v-4zM19 19h-4v-4zM9 11 5 7H3v8h6l-4-4z" fill="#99cd57" opacity="1" data-original="#cff09e" class=""></path></g><path fill="#56b2a7" d="M59.072 11a5.976 5.976 0 0 0-.105-1.094L61 8.732l-2-3.464-2.033 1.174a5.987 5.987 0 0 0-1.895-1.093V3h-4v2.349a5.965 5.965 0 0 0-1.9 1.093l-2.028-1.174-2 3.464 2.032 1.174a5.806 5.806 0 0 0 0 2.188l-2.032 1.174 2 3.464 2.033-1.174a5.965 5.965 0 0 0 1.9 1.093V19h4v-2.349a5.987 5.987 0 0 0 1.895-1.093L59 16.732l2-3.464-2.033-1.174A5.976 5.976 0 0 0 59.072 11zm-6 2a2 2 0 1 1 2-2 2 2 0 0 1-2 2z" opacity="1" data-original="#a8dba8" class=""></path><path fill="#8aa0ca" d="M29 31h16v8H29z" opacity="1" data-original="#79bd9a" class=""></path><path fill="#56b2a7" d="M25 39h-4V28l4-3zM29 39h-4V28l4-3z" opacity="1" data-original="#a8dba8" class=""></path><path fill="#99cd57" d="M29 35h4v4h-4zM45 28.82V31h-4l1-10h1v5a2.968 2.968 0 0 0 2 2.82zM37 28.82V31h-4l1-10h1v5a2.968 2.968 0 0 0 2 2.82z" opacity="1" data-original="#cff09e" class=""></path></g><g fill="#3b8686" data-name="Stroke Close copy"><path d="m57.9 55.447 4-8A1 1 0 0 0 61 46h-4V33a1 1 0 0 0-1-1h-2V20h1.072a1 1 0 0 0 1-1v-1.681a6.9 6.9 0 0 0 .973-.56l1.455.84a1.019 1.019 0 0 0 .759.1 1 1 0 0 0 .607-.466l2-3.464A1 1 0 0 0 61.5 12.4l-1.453-.838c.016-.19.025-.378.025-.563s-.009-.373-.025-.563L61.5 9.6a1 1 0 0 0 .366-1.367l-2-3.464a1 1 0 0 0-.607-.466 1.01 1.01 0 0 0-.759.1l-1.455.84a6.9 6.9 0 0 0-.973-.56V3a1 1 0 0 0-1-1h-4a1 1 0 0 0-1 1v1.681a6.906 6.906 0 0 0-.974.56L47.644 4.4a1.011 1.011 0 0 0-.759-.1 1 1 0 0 0-.608.466l-2 3.464a1 1 0 0 0 .367 1.37l1.452.838a6.714 6.714 0 0 0 0 1.126l-1.452.838a1 1 0 0 0-.367 1.367l2 3.464a1 1 0 0 0 .608.466 1.021 1.021 0 0 0 .759-.1l1.454-.84a6.906 6.906 0 0 0 .974.56V19a1 1 0 0 0 1 1H52v12h-6V21a1 1 0 0 0-1-1h-3a1 1 0 0 0-.995.9L40.1 30H38v-9a1 1 0 0 0-1-1h-3a1 1 0 0 0-.995.9L32.1 30H30v-5a1 1 0 0 0-1.6-.8L26 26v-1a1 1 0 0 0-1.6-.8l-4 3a1 1 0 0 0-.4.8v3h-8v-5h7a1 1 0 0 0 1-1V11a1 1 0 0 0-1-1h-3V7a1 1 0 0 0-1-1h-3V3a1 1 0 0 0-1-1H3a1 1 0 0 0-1 1v22a1 1 0 0 0 1 1h7v12.733l-1.33 2.3a4.988 4.988 0 0 0-.251 4.46 3.005 3.005 0 0 0-.235.5H7a5.006 5.006 0 0 0-5 5 1 1 0 0 0 1 1h4a4.9 4.9 0 0 0 1.662-.3L8 60.929A1 1 0 0 0 9 62h4a1 1 0 0 0 1-1.071L13.86 59H24v2a1 1 0 0 0 1 1h14a1 1 0 0 0 1-1v-5h11v4h-2a1 1 0 0 0 0 2h10a1 1 0 0 0 0-2h-2v-4a1 1 0 0 0 .9-.553zm-6.49-39.738a4.979 4.979 0 0 1-1.578-.91 1 1 0 0 0-1.15-.107l-1.167.674-1-1.732 1.166-.673a1 1 0 0 0 .484-1.049 4.77 4.77 0 0 1 0-1.824 1 1 0 0 0-.484-1.049l-1.171-.673 1-1.732 1.167.674a1 1 0 0 0 1.15-.107 4.979 4.979 0 0 1 1.578-.91 1 1 0 0 0 .667-.942V4h2v1.349a1 1 0 0 0 .666.942 4.984 4.984 0 0 1 1.579.91 1 1 0 0 0 1.15.107l1.167-.674 1 1.732-1.167.673a1 1 0 0 0-.483 1.049 4.77 4.77 0 0 1 0 1.824 1 1 0 0 0 .483 1.049l1.167.673-1 1.732-1.167-.674a1 1 0 0 0-1.151.107 4.957 4.957 0 0 1-1.578.91 1 1 0 0 0-.666.942V18h-2v-1.349a1 1 0 0 0-.667-.942zM56.382 54h-1.764l1-2h1.764zm-1-6-1 2h-1.764l1-2zm2.236 0h1.764l-1 2h-1.764zM44 22v3h-1.4l.3-3zm-1.595 5H44v3h-1.9zM36 22v3h-1.4l.3-3zm-1.595 5H36v3h-1.9zM44 32v2h-1a1 1 0 0 0 0 2h1v2H34v-3a1 1 0 0 0-1-1h-3v-2zm-14 4h2v2h-2zm-2-9v11h-2v-9.5zm-6 1.5 2-1.5v11h-2zm-6.4 20.464 1.415 2.451a3.022 3.022 0 0 1-1.326-.053 2.985 2.985 0 0 1-1.821-1.4l-.593-1.028a2.973 2.973 0 0 0 .654-1.294 2.957 2.957 0 0 1 1.671 1.324zM12 47a1 1 0 1 1-1-1 1 1 0 0 1 1 1zm.134-3.964-.588 1.019a2.726 2.726 0 0 0-1.448.1 2.954 2.954 0 0 1 .3-2.118l1.414-2.449a3 3 0 0 1 .322 3.448zM10 8v2H4V8zm-6 4h10v2H4zm14 6h-2v-2h2zm-2 6v-4h2v4zm2-10h-2v-2h2zm-4-4h-2V8h2zm-4-4H8V4h2zM4 4h2v2H4zm0 12h10v8h-2v-5a1 1 0 0 0-1-1H7a1 1 0 0 0-1 1v5H4zm4 8v-4h2v4zM4.171 50A3.006 3.006 0 0 1 7 48h1.184a3 3 0 0 0 .8 1.206A2.948 2.948 0 0 1 7 50zm5.9 10 .7-9.76c.069-.08.142-.157.207-.242L11 50c.072 0 .139-.016.21-.021L11.926 60zM30 60v-2h4v2zm8 0h-2v-3a1 1 0 0 0-1-1h-6a1 1 0 0 0-1 1v3h-2v-6h12zm1-8h-1v-1a1 1 0 0 0-2 0v1h-8v-1a1 1 0 0 0-2 0v1h-1a1 1 0 0 0-1 1v4H13.717l-.328-4.595a4.989 4.989 0 0 0 1.781.889 5.047 5.047 0 0 0 1.3.172 4.979 4.979 0 0 0 2.492-.672 1 1 0 0 0 .366-1.366l-2-3.464a4.979 4.979 0 0 0-3.736-2.443 2.978 2.978 0 0 0-.321-.457l.593-1.028a5 5 0 0 0-1.83-6.83c-.011-.007-.024-.006-.036-.012V33h8v6a1 1 0 0 0 1 1H45a1 1 0 0 0 1-1v-5h9v12h-2a1 1 0 0 0-.9.553L48.382 54H40v-1a1 1 0 0 0-1-1zm12.618 0h1.764l-1 2h-1.764zM55 60h-2v-4h2z" fill="#154194" opacity="1" data-original="#3b8686" class=""></path><path d="M37 36h2a1 1 0 0 0 0-2h-2a1 1 0 0 0 0 2zM38 12h.806A1.2 1.2 0 0 1 40 13.193v.226a3.187 3.187 0 0 0 2.184 3.029A1.193 1.193 0 0 1 43 17.581V18a1 1 0 0 0 2 0v-.419a3.187 3.187 0 0 0-2.184-3.029A1.193 1.193 0 0 1 42 13.419v-.226A3.2 3.2 0 0 0 38.806 10H38a1 1 0 0 0 0 2zM28 12h.806A1.2 1.2 0 0 1 30 13.193v.226a3.187 3.187 0 0 0 2.184 3.029A1.193 1.193 0 0 1 33 17.581V18a1 1 0 0 0 2 0v-.419a3.187 3.187 0 0 0-2.184-3.029A1.193 1.193 0 0 1 32 13.419v-.226A3.2 3.2 0 0 0 28.806 10H28a1 1 0 0 0 0 2zM40 19a1 1 0 0 0 0-2 2 2 0 0 1-2-2 1 1 0 0 0-2 0 4 4 0 0 0 4 4zM30 19a1 1 0 0 0 0-2 2 2 0 0 1-2-2 1 1 0 0 0-2 0 4 4 0 0 0 4 4zM29 44h-1v-1a1 1 0 0 0-2 0v1h-1a1 1 0 0 0 0 2h1v1a1 1 0 0 0 2 0v-1h1a1 1 0 0 0 0-2zM39 44h-4a1 1 0 0 0 0 2h4a1 1 0 0 0 0-2zM56.072 11a3 3 0 1 0-3 3 3 3 0 0 0 3-3zm-4 0a1 1 0 1 1 1 1 1 1 0 0 1-1-1z" fill="#154194" opacity="1" data-original="#3b8686" class=""></path></g></g></svg>