<svg xmlns="http://www.w3.org/2000/svg" viewBox="0 0 1920 1080" width="1920" height="1080"><defs>
  <linearGradient id="uc01_bgGrad" x1="0" y1="0" x2="0" y2="1">
    <stop offset="0%" stop-color="#fafbfc"></stop>
    <stop offset="100%" stop-color="#ffffff"></stop>
  </linearGradient>
  <filter id="uc01_shadow" x="-4%" y="-4%" width="108%" height="108%">
    <feGaussianBlur in="SourceAlpha" stdDeviation="2"></feGaussianBlur>
    <feOffset dx="1" dy="1"></feOffset>
    <feComponentTransfer><feFuncA type="linear" slope="0.12"></feFuncA></feComponentTransfer>
    <feMerge><feMergeNode></feMergeNode><feMergeNode in="SourceGraphic"></feMergeNode></feMerge>
  </filter>
  <style>
    .uc01-title { font: 700 28px "Segoe UI",Arial,sans-serif; fill: #16203b; }
    .uc01-subtitle { font: 400 18px "Segoe UI",Arial,sans-serif; fill: #bbbcbc; }
    .uc01-lane-title { font: 700 22px "Segoe UI",Arial,sans-serif; fill: #16203b; }
    .uc01-node-label { font: 700 24px "Segoe UI",Arial,sans-serif; fill: #16203b; }
    .uc01-box-text { font: 700 18px "Segoe UI",Arial,sans-serif; fill: #16203b; }
    .uc01-badge-text { font: 700 22px "Segoe UI",Arial,sans-serif; fill: #16203b; }
    .uc01-phase-text { font: 600 20px "Segoe UI",Arial,sans-serif; fill: #16203b; }
    .uc01-legend-text { font: 400 17px "Segoe UI",Arial,sans-serif; fill: #16203b; }
    .uc01-legend-title { font: 700 20px "Segoe UI",Arial,sans-serif; fill: #16203b; }
    .uc01-thread-label { font: 700 20px "Segoe UI",Arial,sans-serif; fill: #00bcd4; }
    .uc01-thread-label-sub { font: 600 17px "Segoe UI",Arial,sans-serif; fill: #00bcd4; }
    .uc01-join-id { font: 600 13px "Segoe UI",Arial,sans-serif; fill: #16203b; }
    .uc01-step-title { font: 700 44px "Segoe UI",Arial,sans-serif; fill: #ffffff; }
    .uc01-step-text { font: 400 28px "Segoe UI",Arial,sans-serif; fill: #ffffff; }
    .uc01-footer { font: 400 18px "Segoe UI",Arial,sans-serif; fill: #bbbcbc; }
    /* Animation classes */
    .hl { opacity: 1; filter: drop-shadow(0 3px 8px rgba(21,65,148,0.18)); transition: opacity 0.3s, filter 0.3s; }
    .dim { opacity: 0.5; transition: opacity 0.3s; }
    .hidden { display: none; }
  </style>
</defs><g id="uc01_root"><rect x="0" y="0" width="1920" height="1080" fill="url(#uc01_bgGrad)" rx="0"></rect><g id="uc01_title"><text x="960" y="52" text-anchor="middle" class="uc01-title">Track &amp; Trace — SinglePart (NFC)</text></g><g id="uc01_subtitle"><text x="960" y="78" text-anchor="middle" class="uc01-subtitle">Business Context + Trace + Enrichment</text></g><g id="uc01_outcome"><text x="960" y="110" text-anchor="middle" font-family="Segoe UI" font-weight="600" font-size="32" fill="#64a70b">Outcome: Traceability Coverage (100%)</text></g><g id="uc01_footer"><text x="960" y="1056" text-anchor="middle" class="uc01-footer">OSF is a demonstrator showcasing integration principles; productive implementations depend on the customer's target landscape.</text></g><g id="uc01_step_description" style="display:none;">
  <rect x="260" y="20" width="1400" height="160" rx="8" fill="#64a70b" opacity="0.92"></rect>
  <text id="uc01_step_description_title" x="960" y="68" text-anchor="middle" class="uc01-step-title"></text>
  <text id="uc01_step_description_text" x="960" y="120" text-anchor="middle" class="uc01-step-text"></text>
</g><g id="uc01_lanes"><g id="uc01_lane_business"><rect x="40" y="125" width="1840" height="220" rx="12" fill="#d5e8d4" stroke="#82b366" stroke-width="1.5" filter="url(#uc01_shadow)"></rect><text x="60" y="155" class="uc01-lane-title">Business Context</text></g><g id="uc01_lane_trace"><rect x="40" y="355" width="1840" height="380" rx="12" fill="#dae8fc" stroke="#6c8ebf" stroke-width="1.5" filter="url(#uc01_shadow)"></rect><text x="60" y="385" class="uc01-lane-title">Trace &amp; Genealogie</text></g><g id="uc01_lane_shopfloor"><rect x="40" y="745" width="1840" height="250" rx="12" fill="#f5f5f5" stroke="#666666" stroke-width="1.5" filter="url(#uc01_shadow)"></rect><text x="60" y="790" class="uc01-lane-title">Shopfloor &amp; Enrichment</text></g></g><g id="uc01_time_arrow"><text x="60" y="410" class="uc01-lane-title" font-style="italic">Zeit →</text></g><g id="uc01_phases"><g id="uc01_phase_procurement"><line x1="89" y1="312" x2="451" y2="312" stroke="#555555" stroke-width="1" opacity="0.5"></line><line x1="89" y1="307" x2="89" y2="317" stroke="#555555" stroke-width="1" opacity="0.5"></line><line x1="451" y1="307" x2="451" y2="317" stroke="#555555" stroke-width="1" opacity="0.5"></line><line x1="270" y1="312" x2="270" y2="320" stroke="#555555" stroke-width="1" opacity="0.5"></line><text x="270" y="296" text-anchor="middle" class="uc01-phase-text">Phase 1: Beschaffung</text></g><g id="uc01_phase_production"><line x1="528" y1="312" x2="1512" y2="312" stroke="#555555" stroke-width="1" opacity="0.5"></line><line x1="528" y1="307" x2="528" y2="317" stroke="#555555" stroke-width="1" opacity="0.5"></line><line x1="1512" y1="307" x2="1512" y2="317" stroke="#555555" stroke-width="1" opacity="0.5"></line><line x1="1020" y1="312" x2="1020" y2="320" stroke="#555555" stroke-width="1" opacity="0.5"></line><text x="1020" y="296" text-anchor="middle" class="uc01-phase-text">Phase 2: Produktionsabwicklung</text></g></g><g id="uc01_connections"><g id="uc01_joins"><path id="uc01_join_po_dps" d="M 205 253 L 205 395 L 192 395 L 192 491" fill="none" stroke="#1f1f1f" stroke-width="1" stroke-dasharray="5,5" opacity="0.6"></path><path id="uc01_join_so_dps" d="M 400 253 L 400 395 L 214 395 L 214 491" fill="none" stroke="#1f1f1f" stroke-width="1" stroke-dasharray="5,5" opacity="0.6"></path><path id="uc01_join_co_hbw" d="M 630 253 L 630 395 L 542 395 L 542 491" fill="none" stroke="#1f1f1f" stroke-width="1" stroke-dasharray="5,5" opacity="0.6"></path><path id="uc01_join_prod_hbw" d="M 844 253 L 844 395 L 542 395 L 542 491" fill="none" stroke="#1f1f1f" stroke-width="1" stroke-dasharray="5,5" opacity="0.6"></path><text x="205" y="324" text-anchor="middle" class="uc01-join-id">[PO-ID]</text><text x="400" y="324" text-anchor="middle" class="uc01-join-id">[SO-ID]</text><text x="630" y="324" text-anchor="middle" class="uc01-join-id">[CO-ID]</text><text x="844" y="324" text-anchor="middle" class="uc01-join-id">[PROD-ID]</text></g><g id="uc01_enrich_conns"><path id="uc01_enrich_temp_dps" d="M 1447 805 L 1447 579" fill="none" stroke="#1f1f1f" stroke-width="1" stroke-dasharray="5,5" opacity="0.6"></path><path id="uc01_enrich_cam_aiqs" d="M 1260 821 L 1260 635 L 1262 635 L 1262 579" fill="none" stroke="#1f1f1f" stroke-width="1" stroke-dasharray="5,5" opacity="0.6"></path><path id="uc01_enrich_oee_drill" d="M 730 825 L 730 635 L 902 635 L 902 579" fill="none" stroke="#1f1f1f" stroke-width="1" stroke-dasharray="5,5" opacity="0.6"></path><path id="uc01_enrich_cfg_drill" d="M 1034 825 L 1034 635 L 902 635 L 902 579" fill="none" stroke="#1f1f1f" stroke-width="1" stroke-dasharray="5,5" opacity="0.6"></path></g><g id="uc01_agv_conns"><path id="uc01_agv_dps_in" d="M 340 825 L 340 635 L 192 635 L 192 579" fill="none" stroke="#1f1f1f" stroke-width="1" stroke-dasharray="5,5" opacity="0.6"></path><path id="uc01_agv_hbw" d="M 340 825 L 340 635 L 542 635 L 542 579" fill="none" stroke="#1f1f1f" stroke-width="1" stroke-dasharray="5,5" opacity="0.6"></path><path id="uc01_agv_drill" d="M 340 825 L 340 635 L 902 635 L 902 579" fill="none" stroke="#1f1f1f" stroke-width="1" stroke-dasharray="5,5" opacity="0.6"></path><path id="uc01_agv_aiqs" d="M 340 825 L 340 635 L 1262 635 L 1262 579" fill="none" stroke="#1f1f1f" stroke-width="1" stroke-dasharray="5,5" opacity="0.6"></path><path id="uc01_agv_dps_out" d="M 340 825 L 340 635 L 1442 635 L 1442 579" fill="none" stroke="#1f1f1f" stroke-width="1" stroke-dasharray="5,5" opacity="0.6"></path></g><g id="uc01_agv_par_conns"><path id="uc01_agv_par_mill" d="M 410 891 L 450 891 L 450 685 L 362 685 L 362 579" fill="none" stroke="#b85450" stroke-width="1" stroke-dasharray="8,8" opacity="0.6"></path><path id="uc01_agv_par_aiqs" d="M 410 891 L 620 891 L 620 685 L 722 685 L 722 579" fill="none" stroke="#b85450" stroke-width="1" stroke-dasharray="8,8" opacity="0.6"></path><path id="uc01_agv_par_dps" d="M 410 891 L 620 891 L 620 685 L 1082 685 L 1082 579" fill="none" stroke="#b85450" stroke-width="1" stroke-dasharray="8,8" opacity="0.6"></path></g></g><g id="uc01_thread"><line x1="144" y1="539" x2="1524" y2="539" stroke="#00bcd4" stroke-width="12" stroke-linecap="round"></line></g><g id="uc01_thread_label"><rect x="1540" y="521" width="280" height="68" rx="6" fill="#ffffff" stroke="#00bcd4" stroke-width="1.5"></rect><text text-anchor="middle"><tspan x="1680" y="547" class="uc01-thread-label">NFC [UID-1234]</tspan><tspan x="1680" y="569" class="uc01-thread-label-sub">SinglePart-Faden</tspan></text></g><g id="uc01_nodes"><g id="uc01_node_dps_in"><circle cx="192" cy="535" r="44" fill="#ffffff" stroke="#1f1f1f" stroke-width="2"></circle><text x="192" y="543" text-anchor="middle" class="uc01-node-label">DPS</text></g><g id="uc01_node_mill_par"><circle cx="362" cy="535" r="44" fill="#f8cecc" stroke="#1f1f1f" stroke-width="2"></circle><text x="362" y="543" text-anchor="middle" class="uc01-node-label">(MILL)</text></g><g id="uc01_node_hbw"><circle cx="542" cy="535" r="44" fill="#ffffff" stroke="#1f1f1f" stroke-width="2"></circle><text x="542" y="543" text-anchor="middle" class="uc01-node-label">HBW</text></g><g id="uc01_node_aiqs_par"><circle cx="722" cy="535" r="44" fill="#f8cecc" stroke="#1f1f1f" stroke-width="2"></circle><text x="722" y="543" text-anchor="middle" class="uc01-node-label">(AIQS)</text></g><g id="uc01_node_drill"><circle cx="902" cy="535" r="44" fill="#ffffff" stroke="#1f1f1f" stroke-width="2"></circle><text x="902" y="543" text-anchor="middle" class="uc01-node-label">DRILL</text></g><g id="uc01_node_dps_par"><circle cx="1082" cy="535" r="44" fill="#f8cecc" stroke="#1f1f1f" stroke-width="2"></circle><text x="1082" y="543" text-anchor="middle" class="uc01-node-label">(DPS)</text></g><g id="uc01_node_aiqs"><circle cx="1262" cy="535" r="44" fill="#ffffff" stroke="#1f1f1f" stroke-width="2"></circle><text x="1262" y="543" text-anchor="middle" class="uc01-node-label">AIQS</text></g><g id="uc01_node_dps_out"><circle cx="1442" cy="535" r="44" fill="#ffffff" stroke="#1f1f1f" stroke-width="2"></circle><text x="1442" y="543" text-anchor="middle" class="uc01-node-label">DPS</text></g></g><g id="uc01_badges"><g id="uc01_badge_mill"><circle cx="382" cy="469" r="20" fill="#ffffff" stroke="#1f1f1f" stroke-width="1.5"></circle><text x="382" y="477" text-anchor="middle" class="uc01-badge-text">1</text></g><g id="uc01_badge_aiqs"><circle cx="742" cy="469" r="20" fill="#ffffff" stroke="#1f1f1f" stroke-width="1.5"></circle><text x="742" y="477" text-anchor="middle" class="uc01-badge-text">1</text></g><g id="uc01_badge_dps"><circle cx="1102" cy="469" r="20" fill="#ffffff" stroke="#1f1f1f" stroke-width="1.5"></circle><text x="1102" y="477" text-anchor="middle" class="uc01-badge-text">1</text></g></g><g id="uc01_business"><g id="uc01_biz_po"><rect x="125" y="185" width="160" height="68" rx="12" fill="#ffffff" stroke="#1f1f1f" stroke-width="1.5"></rect><text text-anchor="middle" style="font-size:18px;font-weight:700;font-family:'Segoe UI', Arial, sans-serif;fill:#16203b"><tspan x="205" y="212.70000000000002">Einkaufs-</tspan><tspan x="205" dy="21.599999999999998">bestellung</tspan></text></g><g id="uc01_biz_so"><rect x="320" y="185" width="160" height="68" rx="12" fill="#ffffff" stroke="#1f1f1f" stroke-width="1.5"></rect><text text-anchor="middle" style="font-size:18px;font-weight:700;font-family:'Segoe UI', Arial, sans-serif;fill:#16203b"><tspan x="400" y="223.5">Verkaufsauftrag</tspan></text></g><g id="uc01_biz_co"><rect x="550" y="185" width="160" height="68" rx="12" fill="#ffffff" stroke="#1f1f1f" stroke-width="1.5"></rect><text text-anchor="middle" style="font-size:18px;font-weight:700;font-family:'Segoe UI', Arial, sans-serif;fill:#16203b"><tspan x="630" y="223.5">Kundenauftrag</tspan></text></g><g id="uc01_biz_prod"><rect x="754" y="185" width="180" height="68" rx="12" fill="#ffffff" stroke="#1f1f1f" stroke-width="1.5"></rect><text text-anchor="middle" style="font-size:18px;font-weight:700;font-family:'Segoe UI', Arial, sans-serif;fill:#16203b"><tspan x="844" y="212.70000000000002">Fertigungs-</tspan><tspan x="844" dy="21.599999999999998">auftrag</tspan></text></g></g><g id="uc01_enrichment"><g id="uc01_enrich_agv"><rect x="260" y="825" width="160" height="88" rx="12" fill="#ffffff" stroke="#1f1f1f" stroke-width="1.5"></rect><text text-anchor="middle" style="font-size:18px;font-weight:700;font-family:'Segoe UI', Arial, sans-serif;fill:#16203b"><tspan x="340" y="873.5">FTS (AGV)</tspan></text></g><g id="uc01_enrich_oee"><rect x="650" y="825" width="160" height="88" rx="12" fill="#ffffff" stroke="#1f1f1f" stroke-width="1.5"></rect><text text-anchor="middle" style="font-size:18px;font-weight:700;font-family:'Segoe UI', Arial, sans-serif;fill:#16203b"><tspan x="730" y="851.9">OEE</tspan><tspan x="730" dy="21.599999999999998">Gesamtanlagen -</tspan><tspan x="730" dy="21.599999999999998">effektivität</tspan></text></g><g id="uc01_enrich_cfg"><rect x="954" y="825" width="160" height="88" rx="12" fill="#ffffff" stroke="#1f1f1f" stroke-width="1.5"></rect><text text-anchor="middle" style="font-size:18px;font-weight:700;font-family:'Segoe UI', Arial, sans-serif;fill:#16203b"><tspan x="1034" y="862.6999999999999">Maschinen -</tspan><tspan x="1034" dy="21.599999999999998">konfiguration</tspan></text></g><g id="uc01_enrich_cam"><rect x="1180" y="821" width="160" height="88" rx="12" fill="#ffffff" stroke="#1f1f1f" stroke-width="1.5"></rect><text text-anchor="middle" style="font-size:18px;font-weight:700;font-family:'Segoe UI', Arial, sans-serif;fill:#16203b"><tspan x="1260" y="847.9">Kamera /</tspan><tspan x="1260" dy="21.599999999999998">Bild -</tspan><tspan x="1260" dy="21.599999999999998">verarbeitung</tspan></text></g><g id="uc01_enrich_temp"><rect x="1367" y="805" width="160" height="88" rx="12" fill="#ffffff" stroke="#1f1f1f" stroke-width="1.5"></rect><text text-anchor="middle" style="font-size:18px;font-weight:700;font-family:'Segoe UI', Arial, sans-serif;fill:#16203b"><tspan x="1447" y="853.5">Temperatur</tspan></text></g></g><g id="uc01_legend"><rect x="1480" y="135" width="400" height="158" rx="6" fill="#ffffff" stroke="#1f1f1f" stroke-width="1"></rect><text x="1494" y="163" class="uc01-legend-title" fill="#16203b">Legende</text><text x="1494" y="186.2" class="uc01-legend-text" fill="#00bcd4">━━ Werkstück (NFC)</text><text x="1494" y="209.4" class="uc01-legend-text" fill="#b85450">▬▬ Parallelstopp ①</text><text x="1494" y="232.6" class="uc01-legend-text" fill="#16203b">┈┈ Korrelation / Join</text><text x="1494" y="255.8" class="uc01-legend-text" fill="#16203b">① Parallelauftrag FTS</text></g></g></svg>