<svg xmlns="http://www.w3.org/2000/svg" version="1.1" xmlns:xlink="http://www.w3.org/1999/xlink" width="512" height="512" x="0" y="0" viewBox="0 0 64 64" style="enable-background:new 0 0 512 512" xml:space="preserve" class=""><g><path d="M19.19 27.059a1 1 0 0 0 1 1h5.852a1 1 0 0 0 1-1v-4.942a5.67 5.67 0 0 0 0-11.16V6.015a1 1 0 0 0-1-1H8.401A4.405 4.405 0 0 0 4 9.416v17.643a1 1 0 0 0 1 1h5.853a1 1 0 0 0 1-1 3.669 3.669 0 0 1 7.337 0Zm-9.25-1H6V9.416a2.404 2.404 0 0 1 2.4-2.4h16.642v4.852a1 1 0 0 0 1 1 3.669 3.669 0 0 1 0 7.337 1 1 0 0 0-1 1v4.854h-3.94a5.678 5.678 0 0 0-11.161 0Z" fill="#154194" opacity="1" data-original="#000000"></path><path d="M55.6 15.537H37.957a1 1 0 0 0-1 1v5.853a1 1 0 0 0 1 1 3.669 3.669 0 0 1 0 7.337 1 1 0 0 0-1 1v4.214h-3.942a5.67 5.67 0 0 0-11.16 0h-4.941a1 1 0 0 0-1 1v17.643a4.405 4.405 0 0 0 4.4 4.4H55.6a4.405 4.405 0 0 0 4.401-4.4V19.937a4.405 4.405 0 0 0-4.4-4.4ZM43.625 27.06a5.678 5.678 0 0 0-4.668-5.581v-3.94h16.641a2.404 2.404 0 0 1 2.401 2.4V35.94h-4.853a1 1 0 0 0-1 1 3.669 3.669 0 0 1-7.337 0 1 1 0 0 0-1-1h-4.852V32.64a5.678 5.678 0 0 0 4.668-5.58ZM17.915 54.584V37.941h4.853a1 1 0 0 0 1-1 3.668 3.668 0 0 1 7.336 0 1 1 0 0 0 1 1h4.853v3.942a5.67 5.67 0 0 0 0 11.16v3.941H20.315a2.404 2.404 0 0 1-2.4-2.4Zm37.684 2.4H38.958v-4.852a1 1 0 0 0-1-1 3.668 3.668 0 1 1 0-7.337 1 1 0 0 0 1-1v-4.216h3.94a5.67 5.67 0 0 0 11.161 0H58v16.005a2.404 2.404 0 0 1-2.4 2.4Z" fill="#154194" opacity="1" data-original="#000000"></path></g></svg>