<svg xmlns="http://www.w3.org/2000/svg" version="1.1" xmlns:xlink="http://www.w3.org/1999/xlink" width="512" height="512" x="0" y="0" viewBox="0 0 512 512" style="enable-background:new 0 0 512 512" xml:space="preserve"><g><path fill="#154194" fill-rule="evenodd" d="M122.84 76.53a6.39 6.39 0 0 1-5.43 6.31 79.69 79.69 0 0 0-28.08 11.58 6.38 6.38 0 0 1-8.46-.5l-11-11h-6.06L55 91.74v6.1l11 11a6.38 6.38 0 0 1 .51 8.47 79.74 79.74 0 0 0-11.58 28.07 6.39 6.39 0 0 1-6.32 5.44H33.09l-4.31 4.31v12.43l4.31 4.31h15.5a6.39 6.39 0 0 1 6.32 5.43 79.69 79.69 0 0 0 11.58 28.08 6.37 6.37 0 0 1-.49 8.42l-11 11v6.09l8.79 8.79h6.11l11-11a6.38 6.38 0 0 1 8.46-.51 79.69 79.69 0 0 0 28.08 11.58 6.4 6.4 0 0 1 5.43 6.32v15.5l4.31 4.31h12.43l4.31-4.31v-15.5a6.4 6.4 0 0 1 5.44-6.32 79.74 79.74 0 0 0 28.07-11.58 6.39 6.39 0 0 1 8.47.51l11 11h6l8.82-8.82v-6.09l-11-11a6.38 6.38 0 0 1-.5-8.46 79.69 79.69 0 0 0 11.58-28.08 6.39 6.39 0 0 1 6.32-5.43h15.5l4.31-4.31v-12.4l-4.02-4.09-15.4-.28a6.39 6.39 0 0 1-6.63-5.15 79.64 79.64 0 0 0-11.63-28.34 6.39 6.39 0 0 1 .5-8.47l11-11v-6L202.93 83h-6.22L185.4 93.68a6.36 6.36 0 0 1-8.14.54c-7.35-5.12-19-9.81-27.93-11.38a6.39 6.39 0 0 1-5.44-6.31V61l-4.31-4.31h-12.43L122.84 61zm356.72 297.94L494.12 389a6.36 6.36 0 0 1 1.87 4.52v68.11a6.39 6.39 0 0 1-6.39 6.39h-61.86a6.39 6.39 0 0 1-6.39-6.39V379a6.39 6.39 0 0 1 6.39-6.39H475a6.37 6.37 0 0 1 4.56 1.91zm3.66 21.73-10.86-10.86h-38.24v70h49.1zm-3.66-146.9 14.56 14.57a6.34 6.34 0 0 1 1.87 4.51v68.12a6.39 6.39 0 0 1-6.39 6.39h-61.86a6.39 6.39 0 0 1-6.39-6.39v-82.72a6.39 6.39 0 0 1 6.39-6.39H475a6.37 6.37 0 0 1 4.56 1.91zm3.66 21.7-10.86-10.86h-38.24v69.94h49.1zm-3.66-146.9 14.56 14.56a6.36 6.36 0 0 1 1.87 4.52v68.12a6.39 6.39 0 0 1-6.39 6.39h-61.86a6.39 6.39 0 0 1-6.39-6.39v-82.7a6.39 6.39 0 0 1 6.39-6.38H475a6.37 6.37 0 0 1 4.56 1.91zm3.66 21.72L472.36 135h-38.24v69.95h49.1v-59.1zm-79.74 142.9a6.39 6.39 0 0 1 0 12.78h-22.4v105a7.46 7.46 0 0 0 7.44 7.43h16a6.39 6.39 0 0 1 0 12.78h-16a20.25 20.25 0 0 1-20.22-20.21v-105h-14.47a6.39 6.39 0 0 1 0-12.78h14.47v-105a20.25 20.25 0 0 1 20.22-20.21h16a6.39 6.39 0 0 1 0 12.77h-16a7.46 7.46 0 0 0-7.44 7.44v105zm-90.71-57.1v25.12h7.29a21.41 21.41 0 0 1 21.36 21.36v34a21.41 21.41 0 0 1-21.36 21.36h-7.29v25.12h7.29A21.41 21.41 0 0 1 341.42 380v34a21.4 21.4 0 0 1-21.36 21.35H102.77A21.39 21.39 0 0 1 81.42 414v-34a21.4 21.4 0 0 1 21.35-21.35h7.3v-25.14h-7.3a21.4 21.4 0 0 1-21.35-21.36v-34a21.4 21.4 0 0 1 21.35-21.36h7.3v-5.61a92.09 92.09 0 0 1-23.75-9.86l-9.26 9.26a6.38 6.38 0 0 1-4.51 1.87H61.16a6.36 6.36 0 0 1-4.55-1.91L44.11 238a6.38 6.38 0 0 1-1.87-4.51v-11.37a6.36 6.36 0 0 1 1.91-4.55l9.22-9.22a92 92 0 0 1-9.86-23.75H30.44a6.36 6.36 0 0 1-4.55-1.91l-8-8a6.36 6.36 0 0 1-1.89-4.53v-17.72a6.36 6.36 0 0 1 1.91-4.55l8-8a6.38 6.38 0 0 1 4.53-1.89h13.07a92.09 92.09 0 0 1 9.86-23.75L44.11 105a6.4 6.4 0 0 1-1.87-4.52V89.1a6.37 6.37 0 0 1 1.91-4.56l12.5-12.49a6.34 6.34 0 0 1 4.51-1.87h11.39a6.36 6.36 0 0 1 4.55 1.91l9.22 9.21a92.09 92.09 0 0 1 23.75-9.86V58.38a6.37 6.37 0 0 1 1.93-4.56l8-8a6.36 6.36 0 0 1 4.52-1.87h17.72a6.36 6.36 0 0 1 4.55 1.91l8 8a6.4 6.4 0 0 1 1.87 4.52v13.05A89 89 0 0 1 180.21 81l9.59-9a6.31 6.31 0 0 1 4.39-1.76h11.38a6.37 6.37 0 0 1 4.56 1.91l12.49 12.49a6.35 6.35 0 0 1 1.85 5.07v10.83a6.34 6.34 0 0 1-1.86 4.5l-9.25 9.25a92.12 92.12 0 0 1 9.89 23.87l13.47.24a6.36 6.36 0 0 1 4.4 1.87l7.71 7.71c2.15 2.15 1.87 4.35 1.87 7h69.33a21.41 21.41 0 0 1 21.36 21.36v34a21.41 21.41 0 0 1-21.36 21.36zm-6.37 37.9H154l-7.24 7.24a6.39 6.39 0 0 1-4.52 1.88h-17.73a6.37 6.37 0 0 1-4.56-1.91l-7.21-7.21h-10a8.62 8.62 0 0 0-8.58 8.58v34a8.62 8.62 0 0 0 8.58 8.58h217.32a8.62 8.62 0 0 0 8.58-8.58v-34a8.62 8.62 0 0 0-8.58-8.58zm-6.4-12.75H156.67v-5.61a91.89 91.89 0 0 0 23.75-9.86l9.25 9.26a6.34 6.34 0 0 0 4.5 1.86H205a6.38 6.38 0 0 0 5.07-1.84l12.49-12.5c2-2 1.91-3.93 1.91-6.41H300v25.12zm6.4 114.63H102.77a8.63 8.63 0 0 0-8.58 8.6v34a8.63 8.63 0 0 0 8.58 8.58h217.29a8.62 8.62 0 0 0 8.58-8.58v-34a8.62 8.62 0 0 0-8.58-8.58zm-6.4-12.77v-25.12H122.84v25.12zm2.89 24.79A13.58 13.58 0 1 0 316.45 397a13.57 13.57 0 0 0-13.57-13.58zm-38.08 0A13.58 13.58 0 1 0 278.37 397a13.58 13.58 0 0 0-13.57-13.58zm-38.08 0A13.58 13.58 0 1 0 240.3 397a13.58 13.58 0 0 0-13.58-13.58zm-102.36 20h53.23a6.39 6.39 0 1 0 0-12.77h-53.24a6.39 6.39 0 0 0 0 12.77zm178.51-121.85a13.57 13.57 0 1 0 13.57 13.57 13.56 13.56 0 0 0-13.57-13.57zm-38.08 0a13.57 13.57 0 1 0 13.57 13.57 13.57 13.57 0 0 0-13.57-13.57zm-38.08 0a13.57 13.57 0 1 0 13.58 13.57 13.57 13.57 0 0 0-13.58-13.57zm-102.36 20h53.23a6.39 6.39 0 1 0 0-12.78h-53.23a6.39 6.39 0 0 0 0 12.78zm178.52-121.86a13.57 13.57 0 1 0 13.57 13.57 13.57 13.57 0 0 0-13.57-13.57zm-38.08 0a13.57 13.57 0 1 0 13.57 13.57 13.58 13.58 0 0 0-13.57-13.57zm-140.44 20h37.21a47.65 47.65 0 0 1-67.38-11.3v-12.1a8.63 8.63 0 0 1 8.58-8.58h77.79a47.47 47.47 0 0 1-7 19.21h-49.2a6.39 6.39 0 0 0 0 12.77zM182.1 197a60.41 60.41 0 0 1-99.64-3.17c-15.3-23.61-11.78-55.22 8.21-75.2A60.39 60.39 0 0 1 182.1 197zm41.51 21.91c-.83-1.4-8.55-8.84-10.24-10.53a92.09 92.09 0 0 0 9.86-23.75h13.06a6.36 6.36 0 0 0 4.52-1.87l8-8c2.18-2.16 1.91-4.29 1.91-7h69.33a8.62 8.62 0 0 1 8.58 8.58v34a8.63 8.63 0 0 1-8.58 8.59zM85.8 163.34a47.62 47.62 0 0 1 94.76-8.43h-77.79a21.37 21.37 0 0 0-16.97 8.43z" opacity="1" data-original="#2e4277"></path></g></svg>