<svg xmlns="http://www.w3.org/2000/svg" version="1.1" xmlns:xlink="http://www.w3.org/1999/xlink" width="512" height="512" x="0" y="0" viewBox="0 0 512 512" style="enable-background:new 0 0 512 512" xml:space="preserve"><g><path d="M338.569 174.902c-.332-4.129-3.961-7.215-8.082-6.877-23.872 1.92-48.936 2.894-74.497 2.894-60.941 0-117.791-5.466-160.078-15.391-4.026-.94-8.073 1.556-9.021 5.591a7.505 7.505 0 0 0 5.591 9.021c43.378 10.181 101.446 15.787 163.508 15.787 25.96 0 51.43-.99 75.701-2.943a7.504 7.504 0 0 0 6.878-8.082zM338.569 303.515c-.332-4.13-3.961-7.213-8.082-6.877-23.872 1.92-48.936 2.894-74.497 2.894-60.941 0-117.791-5.466-160.078-15.391-4.026-.943-8.073 1.556-9.021 5.591a7.505 7.505 0 0 0 5.591 9.021c43.378 10.181 101.446 15.787 163.508 15.787 25.96 0 51.43-.99 75.701-2.943a7.504 7.504 0 0 0 6.878-8.082z" fill="#154194" opacity="1" data-original="#000000"></path><path d="M492.036 59.031c-1.582-35.887-98.66-49.916-140.601-54.298-12.94-1.352-26.503-2.433-40.315-3.211C293.177.512 274.628 0 255.99 0c-47.689 0-93.486 3.316-132.44 9.591a7.503 7.503 0 0 0-6.215 8.602c.659 4.091 4.515 6.877 8.602 6.215 38.179-6.149 83.15-9.4 130.054-9.4 18.358 0 36.622.504 54.286 1.499 13.572.764 26.895 1.825 39.6 3.152 38.81 4.055 71.621 10.495 94.885 18.624 30.746 10.744 32.304 19.906 32.304 21.633 0 5.843-12.874 18.684-61.122 29.747a388.98 388.98 0 0 1-4.039.904c-42.155 9.205-97.298 14.258-155.914 14.258-58.616 0-113.759-5.054-155.914-14.258a388.98 388.98 0 0 1-4.039-.904c-47.81-10.962-60.877-23.665-61.111-29.58.001-.056.008-.11.008-.165 0-.053-.007-.104-.008-.157.123-3.532 4.399-8.034 11.792-12.387 9.328-5.493 23.006-10.574 40.656-15.102a7.504 7.504 0 1 0-3.731-14.537c-42.293 10.85-63.738 25.044-63.738 42.184v392.166c0 18.373 24.486 33.303 72.777 44.376C136.391 506.481 194.388 512 255.99 512s119.601-5.519 163.306-15.541c48.291-11.073 72.777-26.003 72.777-44.376V60.304c.007-.129.02-.257.02-.387.001-.3-.021-.595-.057-.886zM415.943 481.83c-42.64 9.777-99.445 15.161-159.953 15.161s-117.313-5.384-159.953-15.161c-48.248-11.064-61.122-23.904-61.122-29.747V344.171c.164.113.345.224.512.337a81.379 81.379 0 0 0 2.286 1.479c.441.274.895.545 1.353.816.36.213.717.427 1.087.638.483.276.982.55 1.482.824.37.202.733.405 1.112.606.545.289 1.11.574 1.674.86.358.181.706.364 1.072.544.699.344 1.422.684 2.149 1.024.254.118.495.239.752.357.987.453 2.001.902 3.039 1.347.324.139.665.275.995.414.733.308 1.467.615 2.225.919.431.173.878.343 1.317.515.68.266 1.36.532 2.059.795.484.182.981.362 1.474.542.68.249 1.363.498 2.06.745.519.183 1.05.365 1.579.547a217.77 217.77 0 0 0 7.694 2.491 296.922 296.922 0 0 0 4.067 1.205 278.3 278.3 0 0 0 2.451.69c.587.163 1.17.327 1.766.488.875.237 1.769.472 2.664.706.567.149 1.128.299 1.703.446 1.005.258 2.032.512 3.06.766.489.121.967.243 1.461.363 1.534.372 3.09.74 4.675 1.103 43.708 10.021 101.704 15.541 163.307 15.541s119.6-5.52 163.307-15.541c1.585-.363 3.141-.732 4.675-1.103.495-.12.974-.242 1.463-.363 1.027-.254 2.053-.507 3.057-.765.577-.148 1.138-.298 1.707-.447.893-.234 1.786-.469 2.66-.706.596-.162 1.179-.325 1.766-.488a278.3 278.3 0 0 0 2.451-.69c.592-.17 1.175-.342 1.758-.514a249.909 249.909 0 0 0 6.229-1.922 201.946 201.946 0 0 0 3.773-1.259c.529-.182 1.06-.364 1.579-.547.698-.246 1.38-.495 2.06-.745.493-.181.99-.36 1.474-.542.699-.263 1.379-.529 2.059-.795.439-.172.886-.342 1.317-.515.755-.303 1.488-.61 2.219-.917.332-.139.675-.277 1.002-.417 1.038-.445 2.051-.894 3.038-1.346.257-.118.499-.238.752-.357.727-.34 1.45-.68 2.149-1.024.366-.18.714-.363 1.072-.544.564-.286 1.129-.571 1.674-.86.379-.201.743-.404 1.113-.607.499-.273.998-.547 1.48-.823.371-.212.729-.426 1.09-.64.457-.271.91-.542 1.351-.815a81.536 81.536 0 0 0 2.287-1.479c.167-.113.347-.224.512-.337v107.912h.001c0 5.843-12.873 18.684-61.122 29.747zm60.765-158.648c-2.367 6.415-17.039 17.9-60.764 27.927-42.64 9.777-99.446 15.162-159.953 15.162s-117.313-5.385-159.953-15.162c-43.725-10.027-58.397-21.512-60.764-27.927-.245-.663-.358-1.273-.358-1.821V213.448c.159.109.333.216.494.325a71.157 71.157 0 0 0 3.671 2.316c.353.209.704.419 1.067.626.488.279.992.555 1.497.832.366.2.726.401 1.101.6.543.288 1.106.573 1.669.857.362.183.714.368 1.083.55.688.339 1.4.673 2.115 1.008.264.124.517.249.785.372.985.452 1.997.9 3.032 1.344.342.147.703.291 1.051.437.714.299 1.428.599 2.165.895.447.179.911.356 1.366.534.663.259 1.326.519 2.008.775.497.187 1.009.372 1.516.558.666.244 1.333.487 2.016.729.531.188 1.074.374 1.615.56.687.236 1.378.471 2.081.705a256.705 256.705 0 0 0 5.599 1.78c.754.23 1.518.458 2.288.684.588.173 1.176.347 1.773.518.802.23 1.618.459 2.438.686.591.164 1.179.329 1.779.492.868.235 1.754.468 2.641.701.575.151 1.143.303 1.726.452 1 .257 2.023.509 3.047.762.492.121.973.245 1.47.365 1.534.372 3.09.74 4.675 1.103 43.708 10.021 101.705 15.541 163.307 15.541s119.6-5.52 163.307-15.541c1.585-.363 3.141-.732 4.675-1.103.498-.121.98-.244 1.472-.365 1.023-.252 2.044-.505 3.043-.761.584-.15 1.154-.302 1.73-.453.885-.232 1.77-.464 2.637-.7.6-.163 1.188-.328 1.779-.492.819-.228 1.636-.456 2.438-.686a280.143 280.143 0 0 0 4.061-1.202 241.977 241.977 0 0 0 7.679-2.485c.542-.186 1.084-.372 1.616-.56.683-.241 1.35-.485 2.016-.729.507-.186 1.019-.37 1.516-.558.682-.256 1.344-.516 2.008-.775.455-.178.919-.355 1.366-.534.735-.295 1.447-.593 2.159-.892.351-.147.713-.292 1.058-.44 1.036-.444 2.047-.892 3.032-1.344.268-.123.52-.248.785-.372.715-.334 1.427-.669 2.115-1.008.369-.182.721-.366 1.083-.55.562-.285 1.126-.57 1.669-.857.375-.199.736-.4 1.102-.601.504-.276 1.008-.552 1.495-.831.364-.208.716-.418 1.07-.628.465-.276.927-.552 1.375-.83.344-.213.679-.428 1.013-.642.435-.28.863-.561 1.281-.843.161-.109.335-.216.494-.325v107.913h.001c-.001.548-.113 1.157-.358 1.821zm-60.765-102.796c-42.64 9.777-99.446 15.162-159.953 15.162s-117.313-5.385-159.953-15.162c-48.248-11.063-61.122-23.903-61.122-29.747V82.726c.159.109.333.216.494.325a71.157 71.157 0 0 0 3.671 2.316c.353.209.704.419 1.067.626.488.279.992.555 1.497.832.366.2.726.401 1.101.6.543.288 1.106.573 1.669.857.362.183.714.368 1.083.55.688.339 1.4.673 2.115 1.008.264.124.517.249.785.372.985.452 1.997.9 3.032 1.344.342.147.703.291 1.051.437.714.299 1.428.599 2.165.895.447.179.911.356 1.366.534.663.259 1.326.519 2.008.775.497.187 1.009.372 1.516.558.666.244 1.333.487 2.016.729.531.188 1.074.374 1.615.56.687.236 1.378.471 2.081.705a256.705 256.705 0 0 0 5.599 1.78c.754.23 1.518.458 2.288.684.588.173 1.176.347 1.773.518.802.23 1.618.459 2.438.686.591.164 1.179.329 1.779.492.868.235 1.754.468 2.641.701.575.151 1.143.303 1.726.452 1 .256 2.023.509 3.047.762.492.121.973.245 1.47.365 1.534.372 3.09.74 4.675 1.103 43.707 10.021 101.704 15.541 163.307 15.541s119.601-5.52 163.307-15.541c1.585-.363 3.141-.732 4.675-1.103.498-.121.98-.244 1.472-.365 1.023-.252 2.044-.505 3.043-.761.584-.15 1.154-.302 1.73-.453.885-.232 1.77-.464 2.637-.7.6-.163 1.188-.328 1.779-.492.819-.228 1.636-.456 2.438-.686a280.143 280.143 0 0 0 4.061-1.202 241.977 241.977 0 0 0 7.679-2.485c.542-.186 1.084-.372 1.616-.56.683-.241 1.35-.485 2.016-.729.507-.186 1.019-.37 1.516-.558.682-.256 1.344-.516 2.008-.775.455-.178.919-.355 1.366-.534.735-.295 1.447-.593 2.159-.892.351-.147.713-.292 1.058-.44 1.036-.444 2.047-.892 3.032-1.344.268-.123.52-.248.785-.372.715-.334 1.427-.669 2.115-1.008.369-.182.721-.366 1.083-.55.562-.285 1.126-.57 1.669-.857.375-.199.736-.4 1.102-.601.504-.276 1.008-.552 1.495-.831.364-.208.716-.418 1.07-.628.465-.276.927-.552 1.375-.83.344-.213.679-.428 1.013-.642.435-.28.863-.561 1.281-.843.161-.109.335-.216.494-.325v107.913h.001c0 5.843-12.873 18.684-61.122 29.747z" fill="#154194" opacity="1" data-original="#000000"></path><path d="M415.504 144.51c-11.408-11.405-29.967-11.405-41.374 0-11.406 11.407-11.406 29.966 0 41.373 5.703 5.702 13.195 8.555 20.687 8.555s14.983-2.852 20.687-8.555c11.406-11.407 11.406-29.966 0-41.373zm-10.614 30.76c-2.69 2.691-6.268 4.173-10.073 4.173s-7.383-1.482-10.073-4.173c-2.691-2.69-4.173-6.268-4.173-10.073s1.482-7.383 4.173-10.073c2.69-2.691 6.268-4.173 10.073-4.173s7.383 1.482 10.073 4.173c2.691 2.69 4.173 6.268 4.173 10.073s-1.482 7.383-4.173 10.073zM415.504 273.513c-11.408-11.405-29.967-11.405-41.374 0-11.406 11.407-11.406 29.966 0 41.373 5.703 5.702 13.195 8.555 20.687 8.555s14.983-2.852 20.687-8.555c11.406-11.407 11.406-29.966 0-41.373zm-10.614 30.76c-2.69 2.691-6.268 4.173-10.073 4.173s-7.383-1.482-10.073-4.173c-2.691-2.69-4.173-6.268-4.173-10.073s1.482-7.383 4.173-10.073c2.69-2.691 6.268-4.173 10.073-4.173s7.383 1.482 10.073 4.173c2.691 2.69 4.173 6.268 4.173 10.073s-1.482 7.383-4.173 10.073zM415.504 402.711c-11.408-11.405-29.967-11.405-41.374 0-11.406 11.407-11.406 29.966 0 41.373 5.703 5.702 13.195 8.555 20.687 8.555s14.983-2.852 20.687-8.555c11.406-11.407 11.406-29.966 0-41.373zm-10.614 30.76c-2.69 2.691-6.268 4.173-10.073 4.173s-7.383-1.482-10.073-4.173c-2.691-2.69-4.173-6.268-4.173-10.073s1.482-7.383 4.173-10.073c2.69-2.691 6.268-4.173 10.073-4.173s7.383 1.482 10.073 4.173a14.15 14.15 0 0 1 4.173 10.073c0 3.804-1.482 7.383-4.173 10.073zM338.57 434.554c-.332-4.129-3.961-7.224-8.082-6.877a880.63 880.63 0 0 1-32.231 1.986 7.506 7.506 0 0 0 .653 14.995 894.973 894.973 0 0 0 32.782-2.022 7.504 7.504 0 0 0 6.878-8.082zM258.326 430.57h-.019l-2.316.002c-60.941 0-117.791-5.466-160.078-15.391-4.026-.943-8.073 1.556-9.021 5.591a7.505 7.505 0 0 0 5.591 9.021c43.378 10.181 101.446 15.787 163.508 15.787l2.353-.002a7.505 7.505 0 0 0 7.486-7.523 7.506 7.506 0 0 0-7.504-7.485z" fill="#154194" opacity="1" data-original="#000000"></path></g></svg>