<svg xmlns="http://www.w3.org/2000/svg" version="1.1" xmlns:xlink="http://www.w3.org/1999/xlink" width="512" height="512" x="0" y="0" viewBox="0 0 512 512" style="enable-background:new 0 0 512 512" xml:space="preserve"><g><path d="M335.97 237.94a82.162 82.162 0 0 1 1.97 17.93c0 45.18-36.76 81.94-81.94 81.94-15.76 0-31.02-4.53-44.11-12.9l3.24 10.55c.97 3.17-.8 6.52-3.97 7.5-.59.18-1.18.27-1.77.27-2.57 0-4.94-1.66-5.73-4.24l-7.64-24.85c-.47-1.52-.31-3.17.43-4.57a6.02 6.02 0 0 1 3.54-2.93l24.85-7.64c3.17-.97 6.52.8 7.5 3.97.97 3.17-.8 6.52-3.97 7.5l-11.34 3.49A69.778 69.778 0 0 0 256 325.82c38.56 0 69.94-31.37 69.94-69.94 0-5.17-.57-10.32-1.68-15.31a5.996 5.996 0 0 1 4.55-7.16c3.23-.74 6.44 1.3 7.16 4.53zm-149.91 17.93c0-38.56 31.37-69.94 69.94-69.94 12.82 0 25.23 3.5 36.04 10l-11.2 1.61a5.987 5.987 0 0 0-5.08 6.79 6.007 6.007 0 0 0 6.79 5.09l25.74-3.7a5.987 5.987 0 0 0 5.08-6.79l-3.7-25.74c-.47-3.28-3.51-5.55-6.79-5.08s-5.56 3.51-5.08 6.79l1.65 11.49a81.757 81.757 0 0 0-43.44-12.46c-45.18 0-81.94 36.76-81.94 81.94 0 6.04.66 12.08 1.97 17.93.62 2.79 3.1 4.69 5.85 4.69.43 0 .87-.05 1.31-.15a6.003 6.003 0 0 0 4.55-7.16 70.013 70.013 0 0 1-1.69-15.31zm310.67 82.42c0 14.93-12.15 27.08-27.08 27.08-12.87 0-23.67-9.03-26.41-21.08h-64.63a13.48 13.48 0 0 1-2.62 3.68l-28.02 28.02c-4.49 4.49-11.36 5.23-16.7 1.77l-22.36-14.45c-.46-.3-.83-.32-1.33-.08a118.63 118.63 0 0 1-12.24 5.08c-.52.18-.76.46-.88 1l-5.59 26.02c-1.33 6.21-6.71 10.55-13.06 10.55H262v58.04h116.93c2.74-12.06 13.53-21.08 26.41-21.08 14.93 0 27.08 12.15 27.08 27.08S420.27 497 405.34 497c-12.87 0-23.67-9.03-26.41-21.08H256c-3.31 0-6-2.69-6-6v-64.04h-13.81c-6.35 0-11.73-4.34-13.06-10.55l-5.59-26.02c-.12-.54-.36-.82-.88-1-4.15-1.45-8.26-3.16-12.24-5.08-.49-.24-.87-.22-1.33.08l-22.36 14.45c-.33.21-.67.41-1.01.6v64.88c12.06 2.74 21.08 13.53 21.08 26.41 0 14.93-12.15 27.08-27.08 27.08s-27.08-12.15-27.08-27.08c0-12.87 9.03-23.67 21.08-26.41v-64.63c-1.33-.64-2.58-1.52-3.69-2.62l-28.02-28.02c-4.5-4.49-5.22-11.36-1.77-16.7l14.45-22.36c.3-.46.32-.83.08-1.33a118.63 118.63 0 0 1-5.08-12.24c-.18-.52-.46-.77-1-.88l-26.02-5.59c-6.21-1.34-10.55-6.71-10.55-13.06V262H48.08v116.93c12.06 2.74 21.08 13.53 21.08 26.41 0 14.93-12.15 27.08-27.08 27.08S15 420.27 15 405.34c0-12.87 9.03-23.67 21.08-26.41V256c0-3.31 2.69-6 6-6h64.04v-13.81c0-6.35 4.34-11.73 10.55-13.06l26.02-5.59c.54-.12.82-.36 1-.88 1.45-4.14 3.16-8.26 5.08-12.24.24-.49.21-.87-.08-1.33l-14.46-22.36c-.21-.33-.41-.67-.6-1.01H68.76c-2.74 12.05-13.53 21.08-26.41 21.08-14.93 0-27.08-12.15-27.08-27.08s12.15-27.08 27.08-27.08c12.87 0 23.67 9.03 26.41 21.08h64.63a13.48 13.48 0 0 1 2.62-3.68l28.02-28.02c4.49-4.5 11.36-5.22 16.7-1.77l22.36 14.45c.46.3.83.32 1.33.08 3.98-1.92 8.1-3.63 12.24-5.08.52-.18.76-.46.88-1l5.59-26.02c1.34-6.21 6.71-10.55 13.06-10.55H250V48.08H133.07c-2.74 12.05-13.53 21.08-26.41 21.08-14.93 0-27.08-12.15-27.08-27.08S91.73 15 106.66 15c12.87 0 23.67 9.03 26.41 21.08H256c3.31 0 6 2.69 6 6v64.04h13.81c6.36 0 11.73 4.34 13.06 10.55l5.59 26.02c.12.54.36.82.88 1 4.15 1.45 8.26 3.16 12.24 5.08.49.24.87.22 1.33-.08l22.36-14.45c.33-.21.67-.41 1.01-.6V68.76c-12.06-2.74-21.08-13.53-21.08-26.41 0-14.93 12.15-27.08 27.08-27.08s27.08 12.15 27.08 27.08c0 12.87-9.03 23.67-21.08 26.41v64.63c1.33.64 2.58 1.52 3.68 2.62l28.02 28.02c4.49 4.49 5.22 11.36 1.77 16.7l-14.46 22.36c-.3.46-.32.83-.08 1.33 1.92 3.97 3.62 8.09 5.08 12.24.18.52.46.76 1 .88l26.02 5.59c6.21 1.33 10.55 6.71 10.55 13.06V250h58.04V133.07c-12.06-2.74-21.08-13.53-21.08-26.41 0-14.93 12.15-27.08 27.08-27.08S497 91.73 497 106.66c0 12.87-9.03 23.67-21.08 26.41V256c0 3.31-2.69 6-6 6h-64.04v13.81c0 6.35-4.34 11.73-10.55 13.06l-26.02 5.59c-.54.12-.82.36-1 .88a118.63 118.63 0 0 1-5.08 12.24c-.24.49-.21.87.08 1.33l14.45 22.36c.21.33.41.67.6 1.01h64.88c2.74-12.06 13.53-21.08 26.41-21.08 14.93 0 27.08 12.15 27.08 27.09zm-26.81-216.54c8.32 0 15.08-6.77 15.08-15.08 0-8.32-6.77-15.08-15.08-15.08-8.32 0-15.08 6.77-15.08 15.08-.01 8.31 6.76 15.08 15.08 15.08zM121.75 42.08c0-8.32-6.77-15.08-15.08-15.08s-15.08 6.77-15.08 15.08c0 8.32 6.77 15.08 15.08 15.08s15.08-6.76 15.08-15.08zM57.44 173.71c0-8.32-6.77-15.08-15.08-15.08s-15.08 6.77-15.08 15.08c0 8.32 6.77 15.08 15.08 15.08s15.08-6.76 15.08-15.08zM42.08 390.25c-8.32 0-15.08 6.77-15.08 15.08s6.77 15.08 15.08 15.08c8.32 0 15.08-6.77 15.08-15.08s-6.76-15.08-15.08-15.08zm348.17 79.67c0 8.32 6.77 15.08 15.08 15.08s15.08-6.77 15.08-15.08c0-8.32-6.77-15.08-15.08-15.08s-15.08 6.76-15.08 15.08zM338.29 57.44c8.32 0 15.08-6.77 15.08-15.08 0-8.32-6.77-15.08-15.08-15.08-8.32 0-15.08 6.77-15.08 15.08-.01 8.31 6.76 15.08 15.08 15.08zM173.71 454.56c-8.32 0-15.08 6.77-15.08 15.08s6.77 15.08 15.08 15.08c8.32 0 15.08-6.77 15.08-15.08s-6.76-15.08-15.08-15.08zm193.98-116.77-14.46-22.37c-2.59-4-2.88-8.76-.81-13.05 1.72-3.57 3.26-7.27 4.56-11 1.58-4.49 5.15-7.64 9.8-8.64l26.02-5.59c.66-.14 1.07-.65 1.07-1.33v-39.62c0-.68-.41-1.19-1.07-1.33l-26.02-5.59c-4.65-1-8.22-4.15-9.8-8.64-1.31-3.73-2.84-7.43-4.56-11-2.07-4.29-1.77-9.05.81-13.05l14.45-22.36c.37-.57.3-1.22-.18-1.7l-28.02-28.02c-.48-.48-1.13-.55-1.7-.18l-22.36 14.45c-4 2.59-8.76 2.88-13.06.81a105.29 105.29 0 0 0-11-4.56c-4.49-1.58-7.64-5.15-8.64-9.8l-5.59-26.02c-.14-.66-.65-1.07-1.33-1.07h-39.62c-.68 0-1.19.41-1.33 1.07l-5.59 26.02c-1 4.65-4.15 8.23-8.64 9.8-3.72 1.3-7.42 2.84-11 4.56-4.29 2.07-9.05 1.77-13.05-.81l-22.36-14.45c-.57-.37-1.22-.3-1.7.18l-28.02 28.02c-.48.48-.55 1.13-.18 1.7l14.45 22.36c2.59 4 2.88 8.76.81 13.05-1.72 3.58-3.26 7.27-4.56 11-1.58 4.49-5.15 7.64-9.8 8.64l-26.02 5.59c-.66.14-1.07.65-1.07 1.33v39.62c0 .68.41 1.19 1.08 1.33l26.02 5.59c4.65 1 8.23 4.15 9.8 8.64 1.31 3.72 2.84 7.42 4.56 10.99 2.07 4.29 1.77 9.05-.81 13.05l-14.45 22.36c-.37.57-.3 1.22.18 1.7l28.02 28.02c.48.48 1.13.55 1.7.18l22.37-14.46c2.24-1.45 4.72-2.18 7.21-2.18 1.97 0 3.95.45 5.84 1.37 3.57 1.72 7.27 3.26 11 4.56 4.49 1.57 7.64 5.15 8.64 9.8l5.59 26.02c.14.66.65 1.07 1.33 1.07h39.62c.68 0 1.19-.41 1.33-1.07l5.59-26.02c1-4.65 4.15-8.22 8.64-9.8 3.73-1.31 7.43-2.84 11-4.56 4.29-2.07 9.05-1.78 13.05.81l22.36 14.45c.57.37 1.22.3 1.7-.18l28.02-28.02c.47-.45.54-1.1.18-1.67zm117.04.5c0-8.32-6.77-15.08-15.08-15.08s-15.08 6.77-15.08 15.08c0 8.32 6.77 15.08 15.08 15.08s15.08-6.77 15.08-15.08zM256 213.6c23.38 0 42.4 19.02 42.4 42.4s-19.02 42.4-42.4 42.4-42.4-19.02-42.4-42.4 19.02-42.4 42.4-42.4zm0 12c-16.76 0-30.4 13.64-30.4 30.4s13.64 30.4 30.4 30.4 30.4-13.64 30.4-30.4-13.64-30.4-30.4-30.4z" fill="#154194" opacity="1" data-original="#000000"></path></g></svg>