<svg xmlns="http://www.w3.org/2000/svg" version="1.1" xmlns:xlink="http://www.w3.org/1999/xlink" width="512" height="512" x="0" y="0" viewBox="0 0 128 128" style="enable-background:new 0 0 512 512" xml:space="preserve" class=""><g><path d="M54 12a13.935 13.935 0 0 1-3.196 8.894l1.833 3.905A17.96 17.96 0 0 0 54.04.748a2 2 0 1 0-3.12 2.504A13.836 13.836 0 0 1 54 12zM40 30c.51 0 1.01-.035 1.51-.076l-1.778-3.938A14.01 14.01 0 0 1 26 12a13.836 13.836 0 0 1 3.08-8.748A2 2 0 1 0 25.96.748 17.991 17.991 0 0 0 40 30zM.748 76.04a17.973 17.973 0 0 0 27.962-7.387l-4.31-.178A14.006 14.006 0 0 1 12 76a13.834 13.834 0 0 1-8.748-3.08 2 2 0 0 0-2.504 3.12zM3.252 51.08A13.834 13.834 0 0 1 12 48a14.018 14.018 0 0 1 12.865 8.488l4.318.148A17.99 17.99 0 0 0 .748 47.96a2 2 0 0 0 2.504 3.12zM34 116a18.04 18.04 0 0 0 3.96 11.252 2 2 0 1 0 3.12-2.504A13.836 13.836 0 0 1 38 116a14.018 14.018 0 0 1 10.996-13.667l.972-4.21A18.02 18.02 0 0 0 34 116zM63.229 127.56a2 2 0 0 0 2.811-.308 17.959 17.959 0 0 0-4.383-26.417l-.97 4.206a13.962 13.962 0 0 1 2.234 19.707 2 2 0 0 0 .308 2.812zM102.302 72.862l3.98 1.592a13.954 13.954 0 0 1 18.466-.865 2 2 0 1 0 2.504-3.119 17.954 17.954 0 0 0-24.95 2.392zM127.56 95.738a2 2 0 0 0-2.812-.307A13.837 13.837 0 0 1 116 98.51a14.012 14.012 0 0 1-13.94-12.819l-4.038-1.616c-.003.146-.022.288-.022.435a17.991 17.991 0 0 0 29.252 14.04 2 2 0 0 0 .308-2.812zM87.22 27.69a14.085 14.085 0 1 1 9.114 7.806l-2.81 3.28a18.049 18.049 0 1 0-9.11-7.812zM46 64a18 18 0 1 0 18-18 18.02 18.02 0 0 0-18 18zm18-14a14 14 0 1 1-14 14 14.016 14.016 0 0 1 14-14z" fill="#154194" opacity="1" data-original="#000000"></path><path d="M64 74a10 10 0 1 0-10-10 10.011 10.011 0 0 0 10 10zm0-16a6 6 0 1 1-6 6 6.007 6.007 0 0 1 6-6zM116 94.515a10 10 0 1 0-8.489-15.26l-22.43-8.974a21.852 21.852 0 0 1-1.491 3.711l22.536 9.017A9.928 9.928 0 0 0 116 94.515zm0-16a6 6 0 1 1-6 6 6.007 6.007 0 0 1 6-6zM52.252 106.013c-.085-.002-.167-.013-.252-.013a10.032 10.032 0 1 0 4.15.913l4.873-21.12a21.81 21.81 0 0 1-3.898-.899zM58 116a6 6 0 1 1-6-6 6.007 6.007 0 0 1 6 6zM40 22a9.962 9.962 0 0 0 2.287-.274l10.72 23.23a21.9 21.9 0 0 1 3.628-1.684l-10.72-23.228A9.981 9.981 0 1 0 40 22zm0-16a6 6 0 1 1-6 6 6.007 6.007 0 0 1 6-6zM95.146 30.736a10.062 10.062 0 1 0-3.032-2.61L76.73 46.075a22.17 22.17 0 0 1 3.037 2.605zM100 16a6 6 0 1 1-6 6 6.007 6.007 0 0 1 6-6zM21.856 60.377a9.999 9.999 0 1 0-.153 3.998l20.328.781Q42 64.582 42 64a22.076 22.076 0 0 1 .19-2.84zM12 68a6 6 0 1 1 6-6 6.007 6.007 0 0 1-6 6z" fill="#154194" opacity="1" data-original="#000000"></path></g></svg>