<svg xmlns="http://www.w3.org/2000/svg" version="1.1" xmlns:xlink="http://www.w3.org/1999/xlink" width="512" height="512" x="0" y="0" viewBox="0 0 512 512" style="enable-background:new 0 0 512 512" xml:space="preserve" class=""><g><path d="M144.37 214.295H98.334c-16.959 0-30.755 13.797-30.755 30.755v21.898c0 16.959 13.797 30.755 30.755 30.755h46.035c16.959 0 30.755-13.797 30.755-30.755V245.05c.001-16.959-13.795-30.755-30.754-30.755zm15.547 52.655c0 8.573-6.974 15.548-15.548 15.548H98.334c-8.573 0-15.548-6.974-15.548-15.548v-21.898c0-8.573 6.974-15.548 15.548-15.548h46.035c8.573 0 15.548 6.974 15.548 15.548v21.898zM413.666 214.295H367.63c-16.959 0-30.755 13.797-30.755 30.755v21.898c0 16.959 13.797 30.755 30.755 30.755h46.035c16.959 0 30.755-13.797 30.755-30.755V245.05c.001-16.959-13.796-30.755-30.754-30.755zm15.547 52.655c0 8.573-6.974 15.548-15.548 15.548H367.63c-8.573 0-15.548-6.974-15.548-15.548v-21.898c0-8.573 6.974-15.548 15.548-15.548h46.035c8.573 0 15.548 6.974 15.548 15.548v21.898zM279.018 0h-46.035c-16.959 0-30.755 13.797-30.755 30.755v21.898c0 16.959 13.798 30.755 30.755 30.755h46.035c16.959 0 30.755-13.797 30.755-30.755V30.755C309.773 13.797 295.976 0 279.018 0zm15.547 52.654c0 8.573-6.974 15.548-15.548 15.548h-46.035c-8.573 0-15.548-6.974-15.548-15.548V30.755c0-8.573 6.974-15.548 15.548-15.548h46.035c8.573 0 15.548 6.974 15.548 15.548v21.899zM77.045 428.591H31.011c-16.959 0-30.755 13.797-30.755 30.755v21.898c0 6.706 2.121 13.08 6.134 18.433a7.605 7.605 0 0 0 12.169-9.123 15.401 15.401 0 0 1-3.094-9.311v-21.898c0-8.573 6.974-15.548 15.548-15.548h46.035c8.573 0 15.548 6.974 15.548 15.548v21.898c0 8.573-6.974 15.548-15.548 15.548H36.08a7.605 7.605 0 0 0 0 15.208h40.965c16.959 0 30.755-13.797 30.755-30.755v-21.898c.001-16.959-13.796-30.755-30.755-30.755zM211.694 428.591h-46.035c-16.959 0-30.755 13.797-30.755 30.755v21.898c0 16.959 13.797 30.755 30.755 30.755h46.035c16.959 0 30.755-13.797 30.755-30.755v-21.898c.001-16.959-13.797-30.755-30.755-30.755zm15.548 52.654c0 8.573-6.974 15.548-15.548 15.548h-46.035c-8.573 0-15.548-6.974-15.548-15.548v-21.898c0-8.573 6.974-15.548 15.548-15.548h46.035c8.573 0 15.548 6.974 15.548 15.548v21.898zM346.341 428.591h-46.035c-16.959 0-30.755 13.797-30.755 30.755v21.898c0 16.959 13.797 30.755 30.755 30.755h46.035c16.959 0 30.755-13.797 30.755-30.755v-21.898c.002-16.959-13.796-30.755-30.755-30.755zm.001 68.201h-46.036c-8.573 0-15.548-6.974-15.548-15.548v-21.898c0-8.573 6.974-15.548 15.548-15.548h46.035c8.573 0 15.548 6.974 15.548 15.548v21.898h.001c0 8.574-6.975 15.548-15.548 15.548zM480.989 428.591h-46.035c-16.959 0-30.755 13.797-30.755 30.755v21.898c0 16.959 13.797 30.755 30.755 30.755h46.035c16.959 0 30.755-13.797 30.755-30.755v-21.898c.001-16.959-13.796-30.755-30.755-30.755zm15.548 52.654c0 8.573-6.974 15.548-15.548 15.548h-46.035c-8.573 0-15.548-6.974-15.548-15.548v-21.898c0-8.573 6.974-15.548 15.548-15.548h46.035c8.573 0 15.548 6.974 15.548 15.548v21.898zM188.676 362.221h-59.719v-47.145a7.605 7.605 0 0 0-15.208 0v47.145h-59.72a7.605 7.605 0 0 0-7.604 7.604v40.554a7.605 7.605 0 0 0 15.208 0v-32.951h119.44v32.951h-.001a7.605 7.605 0 0 0 15.208 0v-40.554a7.605 7.605 0 0 0-7.604-7.604zM457.971 362.221h-59.719v-47.145a7.605 7.605 0 0 0-15.208 0v47.145h-59.719a7.605 7.605 0 0 0-7.604 7.604v40.554a7.605 7.605 0 0 0 15.208 0v-32.951h119.439v32.951a7.605 7.605 0 0 0 15.208 0v-40.554a7.606 7.606 0 0 0-7.605-7.604zM390.648 149.681h-37.905a7.605 7.605 0 0 0 0 15.208h30.301v32.951a7.605 7.605 0 0 0 15.208 0v-40.554c0-4.2-3.405-7.605-7.604-7.605zM327.394 149.681h-63.79v-47.145a7.605 7.605 0 0 0-15.208 0v47.145H121.352a7.605 7.605 0 0 0-7.604 7.604v40.554a7.605 7.605 0 0 0 15.208 0v-32.951h198.438a7.605 7.605 0 0 0 0-15.207z" fill="#154194" opacity="1" data-original="#000000"></path></g></svg>