<?xml version="1.0" encoding="UTF-8"?>
<svg xmlns="http://www.w3.org/2000/svg" viewBox="-80 -80 160 160">
  <!-- Hub & Spokes only (5 spokes, 72° spacing) -->
  <circle cx="0" cy="0" r="10" fill="none" stroke="#154194" stroke-width="3" />
  <!-- 0° -->
  <line x1="0" y1="-10" x2="0" y2="-32" stroke="#154194" stroke-width="3" stroke-linecap="round" />
  <!-- 72° -->
  <line x1="9.51" y1="-3.09" x2="30.8" y2="-10.0" stroke="#154194" stroke-width="3" stroke-linecap="round" />
  <!-- 144° -->
  <line x1="5.88" y1="8.09" x2="18.08" y2="25.91" stroke="#154194" stroke-width="3" stroke-linecap="round" />
  <!-- 216° -->
  <line x1="-5.88" y1="8.09" x2="-18.08" y2="25.91" stroke="#154194" stroke-width="3" stroke-linecap="round" />
  <!-- 288° -->
  <line x1="-9.51" y1="-3.09" x2="-30.8" y2="-10.0" stroke="#154194" stroke-width="3" stroke-linecap="round" />

  <!-- 12:00 Automation -->
  <g transform="translate(0,-57) scale(0.07429) translate(-256,-256)">
    <path d="m94.855 496.811-9.268-70.398 70.398-9.268M417.145 15.189l9.268 70.398-70.398 9.268" fill="none" stroke="#154194" stroke-width="30" stroke-linecap="round" stroke-linejoin="round" />
    <path d="M426.413 85.587C382.801 41.975 322.551 15 256 15 122.9 15 15 122.899 15 256c0 37.205 8.443 72.432 23.498 103.893M85.587 426.413C129.199 470.025 189.45 497 256 497c133.1 0 241-107.9 241-241 0-37.205-8.443-72.433-23.498-103.893" fill="none" stroke="#154194" stroke-width="30" stroke-linecap="round" stroke-linejoin="round" />
    <path d="m394.744 216.311-35-60.622-7.494 4.327c-27.222 15.717-61.25-3.929-61.25-35.363V116h-70v8.653c0 31.433-34.028 51.079-61.25 35.363l-7.494-4.327-35 60.622 7.493 4.326c27.222 15.717 27.222 55.009 0 70.726l-7.493 4.326 35 60.622 7.494-4.327c27.222-15.717 61.25 3.929 61.25 35.363V396h70v-8.653c0-31.433 34.028-51.079 61.25-35.363l7.494 4.327 35-60.622-7.493-4.326c-27.222-15.717-27.222-55.009 0-70.726l7.493-4.326z" fill="none" stroke="#154194" stroke-width="30" stroke-linecap="round" stroke-linejoin="round" />
    <circle cx="256" cy="256" r="50" fill="none" stroke="#154194" stroke-width="30" stroke-linecap="round" stroke-linejoin="round" />
  </g>

  <!-- 2:00 User (10% verkleinert) -->
  <g transform="translate(57,-21.5) scale(1.512) translate(-12,-12)">
    <path d="M12 12a6 6 0 1 0-6-6 6.006 6.006 0 0 0 6 6Zm0-10a4 4 0 1 1-4 4 4 4 0 0 1 4-4ZM12 14a9.01 9.01 0 0 0-9 9 1 1 0 0 0 2 0 7 7 0 0 1 14 0 1 1 0 0 0 2 0 9.01 9.01 0 0 0-9-9Z" fill="#154194" />
  </g>

  <!-- 10:00 Workflow -->
  <g transform="translate(-53,-14.5) scale(1.716) translate(-12,-12)">
    <path d="M8.75 11v2A2.25 2.25 0 0 0 11 15.25h2A2.25 2.25 0 0 0 15.25 13v-2A2.25 2.25 0 0 0 13 8.75h-2A2.25 2.25 0 0 0 8.75 11zm1.5 0c0-.199.079-.39.22-.53a.747.747 0 0 1 .53-.22h2c.199 0 .39.079.53.22.141.14.22.331.22.53v2c0 .199-.079.39-.22.53a.747.747 0 0 1-.53.22h-2a.747.747 0 0 1-.53-.22.747.747 0 0 1-.22-.53zM1.25 3.5v2A2.25 2.25 0 0 0 3.5 7.75h2A2.25 2.25 0 0 0 7.75 5.5v-2A2.25 2.25 0 0 0 5.5 1.25h-2A2.25 2.25 0 0 0 1.25 3.5zm1.5 0c0-.199.079-.39.22-.53a.747.747 0 0 1 .53-.22h2c.199 0 .39.079.53.22.141.14.22.331.22.53v2c0 .199-.079.39-.22.53a.747.747 0 0 1-.53.22h-2a.747.747 0 0 1-.53-.22.747.747 0 0 1-.22-.53zM16.25 18.5v2a2.25 2.25 0 0 0 2.25 2.25h2a2.25 2.25 0 0 0 2.25-2.25v-2a2.25 2.25 0 0 0-2.25-2.25h-2a2.25 2.25 0 0 0-2.25 2.25zm1.5 0c0-.199.079-.39.22-.53a.747.747 0 0 1 .53-.22h2c.199 0 .39.079.53.22.141.14.22.331.22.53v2c0 .199-.079.39-.22.53a.747.747 0 0 1-.53.22h-2a.747.747 0 0 1-.53-.22.747.747 0 0 1-.22-.53z" fill="#154194" />
    <path d="M7 5.25h13a1.252 1.252 0 0 1 1.25 1.25V10A1.252 1.252 0 0 1 20 11.25h-3a.75.75 0 0 0 0 1.5h3c.729 0 1.429-.29 1.945-.805A2.755 2.755 0 0 0 22.75 10V6.5c0-.729-.29-1.429-.805-1.945A2.755 2.755 0 0 0 20 3.75H7a.75.75 0 0 0 0 1.5zM13 18.75H4a1.252 1.252 0 0 1-1.25-1.25V14A1.252 1.252 0 0 1 4 12.75h5.5a.75.75 0 0 0 0-1.5H4c-.729 0-1.429.29-1.945.805A2.755 2.755 0 0 0 1.25 14v3.5c0 .729.29 1.429.805 1.945A2.755 2.755 0 0 0 4 20.25h9a.75.75 0 0 0 0-1.5z" fill="#154194" />
    <path d="M19.53 13.47 18.061 12l1.469-1.47a.749.749 0 1 0-1.06-1.06l-2 2a.749.749 0 0 0 0 1.06l2 2a.749.749 0 1 0 1.06-1.06zM12.53 22.03l2-2a.749.749 0 0 0 0-1.06l-2-2a.749.749 0 1 0-1.06 1.06l1.469 1.47-1.469 1.47a.749.749 0 1 0 1.06 1.06z" fill="#154194" />
  </g>

  <!-- 5:00 Robotic Arm (8px Richtung Zentrum) -->
  <g transform="translate(37,45) scale(1.92) translate(-12,-12)">
    <path d="M22.5 21H22V11a2.993 2.993 0 0 0-1.444-2.553l-4.895-7.181A2.491 2.491 0 0 0 13.5 0 2.503 2.503 0 0 0 11 2.5c0 .075.016.146.022.22l-.006.004L7.739 6H4.926a4.47 4.47 0 0 0-3.182 1.318L.429 8.633a1.465 1.465 0 0 0 2.07 2.07l1.557-1.557A.504.504 0 0 1 4.41 9l2.591-.064v2.655c0 .131-.053.26-.146.354l-1.557 1.557a1.465 1.465 0 0 0 2.07 2.07l1.315-1.315a4.469 4.469 0 0 0 1.318-3.182V8.262l2.631-2.632 3.406 4.998c-.016.124-.038.245-.038.373v10h-.5c-.827 0-1.5.673-1.5 1.5s.673 1.5 1.5 1.5h7c.827 0 1.5-.673 1.5-1.5s-.673-1.5-1.5-1.5ZM21 11c0 1.103-.897 2-2 2s-2-.897-2-2 .897-2 2-2 2 .897 2 2Zm0 2.22V21h-4v-7.78c.532.48 1.229.78 2 .78s1.468-.301 2-.78ZM9 11.074c0 .935-.364 1.813-1.025 2.475L6.66 14.864a.465.465 0 0 1-.792-.328.46.46 0 0 1 .136-.328l1.557-1.557A1.49 1.49 0 0 0 8 11.59V8.935a.937.937 0 0 0-.936-.936H4.409c-.4 0-.777.156-1.061.439L1.791 9.995a.477.477 0 0 1-.656 0 .464.464 0 0 1 0-.656L2.45 8.024a3.477 3.477 0 0 1 2.475-1.025h2.813L8.999 8.26v2.813Zm.5-3.728-.847-.847 2.714-2.714c.058.095.691 1.002.691 1.002L9.5 7.346ZM12 2.499a1.5 1.5 0 1 1 3.001.001A1.5 1.5 0 0 1 12 2.5Zm1.406 2.491c.032.001.062.009.094.009 1.09 0 2.009-.705 2.351-1.68l3.193 4.684c-.015 0-.029-.004-.043-.004a2.99 2.99 0 0 0-2.555 1.449L13.407 4.99ZM22.5 22.999h-7a.5.5 0 0 1 0-1h7a.5.5 0 0 1 0 1Z" fill="#154194" />
  </g>

  <!-- 7:00 Apps (4px Richtung Ecke/outward) -->
  <g transform="translate(-48.5,46.5) scale(1.28) translate(-16,-15.5)">
    <path d="M15 20c0-.796-.316-1.559-.879-2.121A2.996 2.996 0 0 0 12 17H5c-.796 0-1.559.316-2.121.879A2.996 2.996 0 0 0 2 20v7c0 .796.316 1.559.879 2.121A2.996 2.996 0 0 0 5 30h7c.796 0 1.559-.316 2.121-.879A2.996 2.996 0 0 0 15 27zm15 0c0-.796-.316-1.559-.879-2.121A2.996 2.996 0 0 0 27 17h-7c-.796 0-1.559.316-2.121.879A2.996 2.996 0 0 0 17 20v7c0 .796.316 1.559.879 2.121A2.996 2.996 0 0 0 20 30h7c.796 0 1.559-.316 2.121-.879A2.996 2.996 0 0 0 30 27zm-17 0v7a.997.997 0 0 1-1 1H5a.997.997 0 0 1-1-1v-7a.997.997 0 0 1 1-1h7a.997.997 0 0 1 1 1zm15 0v7a.997.997 0 0 1-1 1h-7a.997.997 0 0 1-1-1v-7a.997.997 0 0 1 1-1h7a.997.997 0 0 1 1 1zm1.793-13.621-4.172-4.172a3 3 0 0 0-4.242 0l-4.172 4.172a3 3 0 0 0 0 4.242l4.172 4.172a3 3 0 0 0 4.242 0l4.172-4.172a3 3 0 0 0 0-4.242zM15 5c0-.796-.316-1.559-.879-2.121A2.996 2.996 0 0 0 12 2H5c-.796 0-1.559.316-2.121.879A2.996 2.996 0 0 0 2 5v7c0 .796.316 1.559.879 2.121A2.996 2.996 0 0 0 5 15h7c.796 0 1.559-.316 2.121-.879A2.996 2.996 0 0 0 15 12zm9.207-1.379 4.172 4.172a1 1 0 0 1 0 1.414l-4.172 4.172a1 1 0 0 1-1.414 0l-4.172-4.172a1 1 0 0 1 0-1.414l4.172-4.172a1 1 0 0 1 1.414 0zM13 5v7a.997.997 0 0 1-1 1H5a.997.997 0 0 1-1-1V5a.997.997 0 0 1 1-1h7a.997.997 0 0 1 1 1z" fill="#154194" />
  </g>
</svg>
