<?xml version="1.0" encoding="UTF-8"?>
<svg xmlns="http://www.w3.org/2000/svg" xmlns:xlink="http://www.w3.org/1999/xlink" version="1.1" width="512" height="512" x="0" y="0" viewBox="0 0 64 64" style="enable-background:new 0 0 512 512" xml:space="preserve">
  <g>
    <path d="M1.06 12.1a1.727 1.727 0 0 0 .192 1.352l1.288 2.13a1.836 1.836 0 0 0 2.438.642l.376-.208a7.925 7.925 0 0 0 1.553.868v.347A1.789 1.789 0 0 0 8.711 19h2.578a1.789 1.789 0 0 0 1.8-1.769v-.347a7.947 7.947 0 0 0 1.553-.868l.375.206a1.83 1.83 0 0 0 2.438-.638l1.29-2.135a1.725 1.725 0 0 0 .191-1.35 1.754 1.754 0 0 0-.859-1.09l-.329-.183a7.131 7.131 0 0 0 0-1.652l.328-.182A1.757 1.757 0 0 0 18.94 7.9a1.727 1.727 0 0 0-.192-1.352l-1.288-2.13a1.835 1.835 0 0 0-2.438-.642l-.376.208a7.925 7.925 0 0 0-1.553-.868v-.347A1.789 1.789 0 0 0 11.289 1H8.711a1.789 1.789 0 0 0-1.8 1.769v.347a7.947 7.947 0 0 0-1.553.868l-.375-.206a1.829 1.829 0 0 0-2.438.638L1.251 6.551A1.725 1.725 0 0 0 1.06 7.9a1.754 1.754 0 0 0 .859 1.09l.329.183a7.131 7.131 0 0 0 0 1.652l-.328.182a1.757 1.757 0 0 0-.86 1.093ZM4.2 10a5.019 5.019 0 0 1 .054-.738 1.754 1.754 0 0 0-.9-1.764l-.254-.14 1.057-1.75.327.181a1.872 1.872 0 0 0 1.989-.145 5.791 5.791 0 0 1 1.283-.713 1.787 1.787 0 0 0 1.151-1.648V3h2.186v.283a1.785 1.785 0 0 0 1.151 1.647 5.857 5.857 0 0 1 1.285.715 1.864 1.864 0 0 0 1.99.143l.324-.18 1.057 1.75-.25.139a1.755 1.755 0 0 0-.9 1.768 5.087 5.087 0 0 1 .05.735 5.019 5.019 0 0 1-.054.738 1.754 1.754 0 0 0 .9 1.764l.251.14-1.057 1.75-.327-.181a1.872 1.872 0 0 0-1.989.145 5.791 5.791 0 0 1-1.283.713 1.787 1.787 0 0 0-1.151 1.648V17H8.907v-.283a1.785 1.785 0 0 0-1.151-1.647 5.857 5.857 0 0 1-1.285-.715 1.87 1.87 0 0 0-1.99-.143l-.324.18-1.057-1.75.25-.139a1.755 1.755 0 0 0 .9-1.768A5.087 5.087 0 0 1 4.2 10Z" fill="#154194" opacity="1" data-original="#000000"/>
    <path d="M10 14a4 4 0 1 0-4-4 4 4 0 0 0 4 4Zm0-6a2 2 0 1 1-2 2 2 2 0 0 1 2-2ZM23.06 34.1a1.727 1.727 0 0 0 .192 1.352l1.288 2.131a1.835 1.835 0 0 0 2.438.642l.376-.208a7.925 7.925 0 0 0 1.553.868v.347A1.789 1.789 0 0 0 30.711 41h2.578a1.789 1.789 0 0 0 1.8-1.769v-.347a7.947 7.947 0 0 0 1.553-.868l.375.206a1.831 1.831 0 0 0 2.438-.638l1.29-2.135a1.725 1.725 0 0 0 .191-1.35 1.754 1.754 0 0 0-.859-1.09l-.329-.183a7.131 7.131 0 0 0 0-1.652l.328-.182a1.757 1.757 0 0 0 .86-1.091 1.727 1.727 0 0 0-.192-1.352l-1.284-2.131a1.834 1.834 0 0 0-2.438-.642l-.376.208a7.925 7.925 0 0 0-1.553-.868v-.347A1.789 1.789 0 0 0 33.289 23h-2.578a1.789 1.789 0 0 0-1.8 1.769v.347a7.947 7.947 0 0 0-1.553.868l-.375-.206a1.831 1.831 0 0 0-2.438.638l-1.29 2.135a1.725 1.725 0 0 0-.191 1.35 1.754 1.754 0 0 0 .859 1.09l.329.183a7.131 7.131 0 0 0 0 1.652l-.328.182a1.757 1.757 0 0 0-.864 1.092ZM26.2 32a5.019 5.019 0 0 1 .054-.738 1.754 1.754 0 0 0-.9-1.764l-.251-.14 1.057-1.75.327.181a1.874 1.874 0 0 0 1.989-.145 5.791 5.791 0 0 1 1.283-.713 1.787 1.787 0 0 0 1.151-1.648V25h2.186v.283a1.785 1.785 0 0 0 1.151 1.647 5.857 5.857 0 0 1 1.285.715 1.864 1.864 0 0 0 1.99.143l.324-.18 1.057 1.75-.25.139a1.755 1.755 0 0 0-.9 1.768A5.087 5.087 0 0 1 37.8 32a5.019 5.019 0 0 1-.054.738 1.754 1.754 0 0 0 .9 1.764l.251.14-1.057 1.75-.327-.181a1.872 1.872 0 0 0-1.989.145 5.791 5.791 0 0 1-1.283.713 1.787 1.787 0 0 0-1.151 1.648V39h-2.183v-.283a1.785 1.785 0 0 0-1.151-1.647 5.857 5.857 0 0 1-1.285-.715 1.87 1.87 0 0 0-1.99-.143l-.324.18-1.057-1.75.25-.139a1.755 1.755 0 0 0 .9-1.768A5.087 5.087 0 0 1 26.2 32Z" fill="#154194" opacity="1" data-original="#000000"/>
    <path d="M32 36a4 4 0 1 0-4-4 4 4 0 0 0 4 4Zm0-6a2 2 0 1 1-2 2 2 2 0 0 1 2-2ZM62.081 55.009l-.329-.183a7.131 7.131 0 0 0 0-1.652l.328-.182a1.757 1.757 0 0 0 .86-1.091 1.727 1.727 0 0 0-.192-1.352l-1.288-2.131a1.833 1.833 0 0 0-2.438-.642l-.376.208a7.925 7.925 0 0 0-1.553-.868v-.347A1.789 1.789 0 0 0 55.289 45h-2.578a1.789 1.789 0 0 0-1.8 1.769v.347a7.947 7.947 0 0 0-1.553.868l-.375-.206a1.83 1.83 0 0 0-2.438.638l-1.29 2.135a1.725 1.725 0 0 0-.191 1.35 1.754 1.754 0 0 0 .859 1.09l.329.183a7.131 7.131 0 0 0 0 1.652l-.328.182a1.757 1.757 0 0 0-.86 1.091 1.727 1.727 0 0 0 .192 1.352l1.288 2.131a1.836 1.836 0 0 0 2.438.642l.376-.208a7.925 7.925 0 0 0 1.553.868v.347a1.789 1.789 0 0 0 1.8 1.769h2.578a1.789 1.789 0 0 0 1.8-1.769v-.347a7.947 7.947 0 0 0 1.553-.868l.375.206a1.83 1.83 0 0 0 2.438-.638l1.29-2.135a1.725 1.725 0 0 0 .191-1.35 1.754 1.754 0 0 0-.855-1.09ZM59.8 54a5.019 5.019 0 0 1-.054.738 1.754 1.754 0 0 0 .9 1.764l.251.14-1.057 1.75-.327-.181a1.872 1.872 0 0 0-1.989.145 5.791 5.791 0 0 1-1.283.713 1.787 1.787 0 0 0-1.151 1.648V61h-2.183v-.283a1.785 1.785 0 0 0-1.151-1.647 5.857 5.857 0 0 1-1.285-.715 1.87 1.87 0 0 0-1.99-.143l-.324.18-1.057-1.75.25-.139a1.755 1.755 0 0 0 .9-1.768A5.087 5.087 0 0 1 48.2 54a5.019 5.019 0 0 1 .054-.738 1.754 1.754 0 0 0-.9-1.764l-.251-.14 1.057-1.75.327.181a1.87 1.87 0 0 0 1.989-.145 5.791 5.791 0 0 1 1.283-.713 1.787 1.787 0 0 0 1.151-1.648V47h2.186v.283a1.785 1.785 0 0 0 1.151 1.647 5.857 5.857 0 0 1 1.285.715 1.866 1.866 0 0 0 1.99.143l.324-.18 1.057 1.75-.25.139a1.755 1.755 0 0 0-.9 1.768A5.087 5.087 0 0 1 59.8 54Z" fill="#154194" opacity="1" data-original="#000000"/>
    <path d="M54 50a4 4 0 1 0 4 4 4 4 0 0 0-4-4Zm0 6a2 2 0 1 1 2-2 2 2 0 0 1-2 2ZM51 9H26.173l2.4-1.681-1.146-1.638-5 3.5a1 1 0 0 0 0 1.638l5 3.5 1.146-1.638-2.4-1.681H51a10 10 0 0 1 0 20h-2.827l2.4-1.681-1.146-1.638-5 3.5a1 1 0 0 0 0 1.638l5 3.5 1.146-1.638-2.4-1.681H51a12 12 0 0 0 0-24ZM37.827 55l-2.4 1.681 1.146 1.638 5-3.5a1 1 0 0 0 0-1.638l-5-3.5-1.146 1.638 2.4 1.681H13a10 10 0 0 1 0-20h2.827l-2.4 1.681 1.146 1.638 5-3.5a1 1 0 0 0 0-1.638l-5-3.5-1.146 1.638 2.4 1.681H13a12 12 0 0 0 0 24Z" fill="#154194" opacity="1" data-original="#000000"/>
  </g>
</svg>
