<svg xmlns="http://www.w3.org/2000/svg" version="1.1" xmlns:xlink="http://www.w3.org/1999/xlink" width="512" height="512" x="0" y="0" viewBox="0 0 510 510" style="enable-background:new 0 0 512 512" xml:space="preserve" fill-rule="evenodd" class=""><g><path d="M130.899 196.458h92.594c9.466 0 17.139 7.673 17.139 17.138v93.856c0 8.448-6.904 15.355-15.391 15.355h-96.09c-8.487 0-15.391-6.907-15.391-15.355v-93.856c0-9.465 7.674-17.138 17.139-17.138zm15.287 15.999h-15.287a1.14 1.14 0 0 0-1.139 1.139v93.211h94.872v-93.211a1.14 1.14 0 0 0-1.139-1.139h-15.286v37.022a7.999 7.999 0 0 1-12.274 6.762l-18.737-11.844-18.735 11.844a8 8 0 0 1-12.275-6.762zm46.022 0h-30.022v22.5l10.735-6.787a8.003 8.003 0 0 1 8.55 0l10.737 6.788zM7 405.677c0-42.103 34.448-76.551 76.552-76.551h338.865V115.923a48.254 48.254 0 0 1-16.337-18.042h-51.149v41.537h15.803a14.91 14.91 0 0 1 14.911 14.912v23.333a14.912 14.912 0 0 1-14.911 14.912H296.91a14.908 14.908 0 0 1-10.544-4.368 14.908 14.908 0 0 1-4.368-10.544V154.33c0-3.955 1.571-7.748 4.368-10.544a14.908 14.908 0 0 1 10.544-4.368h15.802V97.881H272.9a8 8 0 0 1-5.304-13.989l41.202-36.491a8.002 8.002 0 0 1 5.304-2.011h97.416c8.803-10.752 22.178-17.618 37.145-17.618 26.483 0 47.984 21.501 47.984 47.984 0 16.799-8.652 31.594-21.739 40.167V346.53C492.031 360.599 503 381.919 503 405.677c0 42.103-34.448 76.551-76.552 76.551H83.552C41.448 482.228 7 447.78 7 405.677zm431.417-75.61a75.81 75.81 0 0 1 20.491 6.325v-213.75a48.111 48.111 0 0 1-10.245 1.098c-3.516 0-6.944-.379-10.246-1.098zM401.066 81.881a48.365 48.365 0 0 1-.388-6.125c0-5.004.768-9.829 2.191-14.366h-85.734l-23.136 20.491zm-62.135 16h-10.219v41.537h10.219zM487 405.677c0-33.303-27.248-60.552-60.552-60.552H83.552C50.248 345.125 23 372.374 23 405.677s27.248 60.552 60.552 60.552h342.896c33.304 0 60.552-27.249 60.552-60.552zM121.718 433.23c-8.55 11.823-22.459 19.515-38.165 19.515-25.994 0-47.067-21.072-47.067-47.067s21.073-47.068 47.067-47.068c15.705 0 29.613 7.692 38.163 19.514h37.972c8.55-11.822 22.459-19.514 38.163-19.514 15.705 0 29.613 7.692 38.164 19.514h37.971c8.551-11.822 22.459-19.514 38.164-19.514 15.704 0 29.613 7.692 38.163 19.514h37.971c8.551-11.822 22.459-19.514 38.164-19.514 25.994 0 47.068 21.073 47.068 47.068s-21.074 47.067-47.068 47.067c-15.706 0-29.615-7.692-38.165-19.515h-37.969c-8.55 11.823-22.459 19.515-38.164 19.515-15.706 0-29.615-7.692-38.165-19.515h-37.969c-8.55 11.823-22.459 19.515-38.165 19.515-15.705 0-29.614-7.692-38.164-19.515zm7.474-39.107c.933 3.697 1.429 7.569 1.429 11.555s-.496 7.856-1.428 11.552h23.019c-.933-3.696-1.428-7.566-1.428-11.552s.496-7.858 1.429-11.555zm114.298 0c.933 3.697 1.429 7.569 1.429 11.555s-.496 7.856-1.428 11.552h23.019c-.932-3.696-1.428-7.566-1.428-11.552s.496-7.858 1.429-11.555zm114.298 0c.933 3.697 1.429 7.569 1.429 11.555s-.495 7.856-1.428 11.552h23.019c-.933-3.696-1.428-7.566-1.428-11.552s.496-7.858 1.429-11.555zM83.553 374.61c-17.158 0-31.067 13.91-31.067 31.068s13.909 31.067 31.067 31.067c17.159 0 31.068-13.909 31.068-31.067s-13.909-31.068-31.068-31.068zm0 8c12.74 0 23.068 10.328 23.068 23.068 0 12.739-10.327 23.067-23.068 23.067-12.739 0-23.067-10.327-23.067-23.067s10.328-23.068 23.067-23.068zm0 16a7.068 7.068 0 1 0 .002 14.136 7.068 7.068 0 0 0-.002-14.136zm228.597-24c-17.159 0-31.068 13.91-31.068 31.068s13.909 31.067 31.068 31.067c17.158 0 31.067-13.909 31.067-31.067s-13.909-31.068-31.067-31.068zm0 8c12.751 0 23.067 10.316 23.067 23.068s-10.316 23.067-23.067 23.067c-12.753 0-23.068-10.315-23.068-23.067s10.316-23.068 23.068-23.068zm0 15.999c-3.908 0-7.068 3.162-7.068 7.069s3.161 7.067 7.068 7.067 7.067-3.16 7.067-7.067-3.16-7.069-7.067-7.069zM197.851 374.61c-17.158 0-31.067 13.91-31.067 31.068s13.909 31.067 31.067 31.067c17.159 0 31.068-13.909 31.068-31.067s-13.909-31.068-31.068-31.068zm0 8c12.752 0 23.068 10.316 23.068 23.068s-10.315 23.067-23.068 23.067c-12.751 0-23.068-10.315-23.068-23.067s10.317-23.068 23.068-23.068zm0 15.999c-3.907 0-7.068 3.162-7.068 7.069s3.161 7.067 7.068 7.067 7.068-3.16 7.068-7.067-3.16-7.069-7.068-7.069zm228.597-23.999c-17.159 0-31.068 13.91-31.068 31.068s13.909 31.067 31.068 31.067c17.158 0 31.068-13.909 31.068-31.067s-13.91-31.068-31.068-31.068zm0 8c12.739 0 23.068 10.328 23.068 23.068 0 12.739-10.329 23.067-23.068 23.067-12.74 0-23.068-10.328-23.068-23.067 0-12.74 10.328-23.068 23.068-23.068zm0 16a7.068 7.068 0 1 0 0 14.136 7.068 7.068 0 0 0 0-14.136zm-128.45-243.192v21.157h71.647v-21.157zM448.663 43.772c-17.653 0-31.985 14.331-31.985 31.984s14.332 31.984 31.985 31.984c17.652 0 31.984-14.331 31.984-31.984s-14.332-31.984-31.984-31.984zm0 5.739c14.485 0 26.245 11.76 26.245 26.245s-11.76 26.245-26.245 26.245c-14.486 0-26.246-11.76-26.246-26.245s11.76-26.245 26.246-26.245zm0 16c-5.655 0-10.246 4.59-10.246 10.245 0 5.654 4.591 10.245 10.246 10.245 5.654 0 10.245-4.591 10.245-10.245 0-5.655-4.591-10.245-10.245-10.245zM95.719 217.247c4.416 0 8 3.585 8 8 0 4.416-3.584 8-8 8H51.933c-4.416 0-8-3.584-8-8 0-4.415 3.584-8 8-8zm-25.541 34.385c4.416 0 8 3.585 8 8 0 4.416-3.584 8-8 8H26.392c-4.415 0-8-3.584-8-8 0-4.415 3.585-8 8-8zm29.289 34.385c4.415 0 8 3.585 8 8s-3.585 8-8 8H55.681c-4.416 0-8-3.585-8-8s3.584-8 8-8zm226.355-55.019c0-4.415 3.585-8 8-8s8 3.585 8 8v14.943c0 4.415-3.585 8-8 8s-8-3.585-8-8zm-25.416-23.912a8.005 8.005 0 0 1 10.928 2.928c2.208 3.824.895 8.721-2.928 10.929l-12.941 7.471a8.004 8.004 0 0 1-10.929-2.928c-2.207-3.824-.895-8.721 2.929-10.928zm58.832 13.857a8.004 8.004 0 0 1-2.928-10.929 8.005 8.005 0 0 1 10.928-2.928l12.941 7.472a8.003 8.003 0 0 1 2.928 10.928 8.003 8.003 0 0 1-10.928 2.928z" fill="#154194" opacity="1" data-original="#000000"></path></g></svg>