<svg xmlns="http://www.w3.org/2000/svg" version="1.1" xmlns:xlink="http://www.w3.org/1999/xlink" width="512" height="512" x="0" y="0" viewBox="0 0 510 510" style="enable-background:new 0 0 512 512" xml:space="preserve" fill-rule="evenodd"><g><path d="M7 426.448c0-42.102 34.448-76.551 76.552-76.551h342.896c42.104 0 76.552 34.449 76.552 76.551C503 468.551 468.552 503 426.448 503H83.552C41.448 503 7 468.551 7 426.448zm480 0c0-33.303-27.248-60.551-60.552-60.551H83.552C50.248 365.897 23 393.145 23 426.448 23 459.752 50.248 487 83.552 487h342.896C459.752 487 487 459.752 487 426.448zm-365.282 27.554c-8.55 11.823-22.459 19.515-38.165 19.515-25.994 0-47.067-21.073-47.067-47.067 0-25.995 21.073-47.068 47.067-47.068 15.705 0 29.613 7.691 38.163 19.513h37.972c8.55-11.822 22.459-19.513 38.163-19.513 15.705 0 29.613 7.691 38.164 19.513h37.971c8.551-11.822 22.459-19.513 38.164-19.513 15.704 0 29.613 7.691 38.163 19.513h37.971c8.551-11.822 22.459-19.513 38.164-19.513 25.994 0 47.068 21.073 47.068 47.068 0 25.994-21.074 47.067-47.068 47.067-15.706 0-29.615-7.692-38.165-19.515h-37.969c-8.55 11.823-22.459 19.515-38.164 19.515-15.706 0-29.615-7.692-38.165-19.515h-37.969c-8.55 11.823-22.459 19.515-38.165 19.515-15.705 0-29.614-7.692-38.164-19.515zm7.474-39.107a47.169 47.169 0 0 1 1.429 11.555c0 3.986-.496 7.856-1.428 11.552h23.019a47.144 47.144 0 0 1-1.428-11.552c0-3.987.496-7.858 1.429-11.555zm114.298 0a47.169 47.169 0 0 1 1.429 11.555c0 3.986-.496 7.856-1.428 11.552h23.019a47.192 47.192 0 0 1-1.428-11.552c0-3.987.496-7.858 1.429-11.555zm114.298 0a47.169 47.169 0 0 1 1.429 11.555c0 3.986-.495 7.856-1.428 11.552h23.019a47.144 47.144 0 0 1-1.428-11.552c0-3.987.496-7.858 1.429-11.555zM83.553 395.382c-17.158 0-31.067 13.909-31.067 31.068 0 17.158 13.909 31.067 31.067 31.067 17.159 0 31.068-13.909 31.068-31.067 0-17.159-13.909-31.068-31.068-31.068zm0 8c12.74 0 23.068 10.328 23.068 23.068 0 12.739-10.327 23.067-23.068 23.067-12.739 0-23.067-10.328-23.067-23.067 0-12.741 10.328-23.068 23.067-23.068zm0 16a7.067 7.067 0 0 0 0 14.135 7.068 7.068 0 1 0 0-14.135zm114.298-24c-17.158 0-31.067 13.909-31.067 31.068 0 17.158 13.909 31.067 31.067 31.067 17.159 0 31.068-13.909 31.068-31.067 0-17.159-13.909-31.068-31.068-31.068zm0 7.999c12.752 0 23.068 10.317 23.068 23.069 0 12.751-10.315 23.067-23.068 23.067-12.751 0-23.068-10.316-23.068-23.067 0-12.752 10.317-23.069 23.068-23.069zm0 16a7.064 7.064 0 0 0-7.068 7.069c0 3.907 3.161 7.067 7.068 7.067s7.068-3.16 7.068-7.067a7.063 7.063 0 0 0-7.068-7.069zm114.299-23.999c-17.159 0-31.068 13.909-31.068 31.068 0 17.158 13.909 31.067 31.068 31.067 17.158 0 31.067-13.909 31.067-31.067 0-17.159-13.909-31.068-31.067-31.068zm0 7.999c12.751 0 23.067 10.316 23.067 23.069 0 12.751-10.316 23.067-23.067 23.067-12.753 0-23.068-10.316-23.068-23.067 0-12.752 10.316-23.069 23.068-23.069zm0 16a7.063 7.063 0 0 0-7.068 7.069c0 3.907 3.161 7.067 7.068 7.067s7.067-3.16 7.067-7.067-3.16-7.069-7.067-7.069zm114.298-23.999c-17.159 0-31.068 13.909-31.068 31.068 0 17.158 13.909 31.067 31.068 31.067 17.158 0 31.068-13.909 31.068-31.067 0-17.159-13.91-31.068-31.068-31.068zm0 8c12.739 0 23.068 10.328 23.068 23.068 0 12.739-10.329 23.067-23.068 23.067-12.74 0-23.068-10.328-23.068-23.067 0-12.74 10.328-23.068 23.068-23.068zm0 16a7.067 7.067 0 1 0 0 14.135 7.068 7.068 0 1 0 0-14.135zM121.145 174.404h121.831c11.059 0 20.024 8.965 20.024 20.024v123.491c0 9.727-7.953 17.677-17.725 17.677h-126.43c-9.773 0-17.724-7.95-17.724-17.677V194.428c0-11.059 8.965-20.024 20.024-20.024zm22.639 16h-22.639a4.024 4.024 0 0 0-4.024 4.024v123.491c0 .935.785 1.677 1.724 1.677h126.43c.939 0 1.725-.742 1.725-1.677V194.428a4.025 4.025 0 0 0-4.024-4.024h-22.639v51.237a7.998 7.998 0 0 1-12.274 6.762l-26.003-16.437-26.001 16.437a8 8 0 0 1-12.275-6.762zm60.553 0h-44.553v36.715l18.001-11.38a7.999 7.999 0 0 1 8.55 0l18.002 11.381zm86.273 35.5h78.618c8.703 0 15.759 7.055 15.759 15.759v79.688c0 7.836-6.403 14.245-14.276 14.245h-81.585c-7.873 0-14.275-6.408-14.275-14.245v-79.688c0-8.704 7.056-15.759 15.759-15.759zm11.772 16h-11.531v77.692h78.136v-77.692h-11.53v30.226a8 8 0 0 1-12.275 6.762l-15.263-9.649-15.262 9.649a8.002 8.002 0 0 1-12.275-6.762zm39.075 0h-23.075v15.703l7.262-4.591a8.003 8.003 0 0 1 8.55 0l7.263 4.592zm68.874 11.36h55.66c7.452 0 13.493 6.041 13.493 13.493v56.418c0 6.831-5.579 12.421-12.443 12.421H409.28c-6.863 0-12.442-5.589-12.442-12.421v-56.418c0-7.452 6.041-13.493 13.493-13.493zm19.83 16h-17.323v50.332h50.646v-50.332h-17.323v11.486c0 4.415-3.585 8-8 8s-8-3.585-8-8zm-62.15-145.219-19.182 10.47v56.697c0 11.314-9.186 20.5-20.5 20.5-11.315 0-20.5-9.186-20.5-20.5v-68.863c0-7.5 4.095-14.401 10.678-17.994l31.273-17.069c-.007-.329-.01-.658-.01-.989 0-17.81 9.682-33.377 24.064-41.72V15a8 8 0 0 1 8-8h32.263a8 8 0 0 1 8 8v29.577c14.382 8.343 24.064 23.91 24.064 41.72 0 .331-.003.66-.01.989l31.273 17.069a20.499 20.499 0 0 1 10.678 17.994v68.863c0 11.314-9.185 20.5-20.5 20.5-11.314 0-20.5-9.186-20.5-20.5v-56.697l-19.182-10.47a47.984 47.984 0 0 1-29.955 10.448 47.984 47.984 0 0 1-29.954-10.448zm-14.982-20.304-26.856 14.658a4.5 4.5 0 0 0-2.344 3.95v68.863c0 2.484 2.016 4.5 4.5 4.5 2.483 0 4.5-2.016 4.5-4.5v-61.445a8 8 0 0 1 4.167-7.022l20.07-10.954a48.038 48.038 0 0 1-4.037-8.05zm36.805-64.955a48.437 48.437 0 0 1 8.131-.684c2.771 0 5.488.234 8.132.684V23h-16.263zm53.068 64.955a48.038 48.038 0 0 1-4.037 8.05l20.07 10.954a8 8 0 0 1 4.167 7.022v61.445c0 2.484 2.017 4.5 4.5 4.5 2.484 0 4.5-2.016 4.5-4.5v-68.863a4.5 4.5 0 0 0-2.344-3.95zm-44.937-49.639c-17.769 0-32.195 14.426-32.195 32.195 0 17.77 14.426 32.196 32.195 32.196 17.77 0 32.196-14.426 32.196-32.196 0-17.769-14.426-32.195-32.196-32.195zm0 8.064c13.319 0 24.132 10.813 24.132 24.131 0 13.319-10.813 24.131-24.132 24.131-13.318 0-24.131-10.812-24.131-24.131 0-13.318 10.813-24.131 24.131-24.131zm0 16a8.136 8.136 0 0 0-8.131 8.131 8.135 8.135 0 0 0 8.131 8.131 8.135 8.135 0 0 0 8.132-8.131c0-4.487-3.644-8.131-8.132-8.131zM84.328 212.615c4.415 0 8 3.585 8 8 0 4.416-3.585 8-8 8H40.541c-4.415 0-8-3.584-8-8 0-4.415 3.585-8 8-8zM58.787 247c4.415 0 8 3.585 8 8s-3.585 8-8 8H15c-4.415 0-8-3.585-8-8s3.585-8 8-8zm29.288 34.385c4.416 0 8 3.584 8 8 0 4.415-3.584 8-8 8H44.289c-4.416 0-8-3.585-8-8 0-4.416 3.584-8 8-8z" fill="#154194" opacity="1" data-original="#000000"></path></g></svg>