<svg xmlns="http://www.w3.org/2000/svg" version="1.1" xmlns:xlink="http://www.w3.org/1999/xlink" width="512" height="512" x="0" y="0" viewBox="0 0 512 512" style="enable-background:new 0 0 512 512" xml:space="preserve" class=""><g><path d="M488.913 497.003h-8.025v-69.442a7.498 7.498 0 0 0-14.996 0v7.328h-55.169a38.363 38.363 0 0 0 8.051-23.554c0-6.147-2.963-14.649-7.121-23.556h54.239v7.108a7.498 7.498 0 0 0 14.996 0v-76.842c0-35.825-27.253-65.404-62.115-69.096v-8.879c0-9.929-6.466-18.375-15.408-21.351V82.101C403.366 36.83 366.536 0 321.265 0h-99.477c-45.27 0-82.101 36.83-82.101 82.101v11.186h-23.966c-12.404 0-22.495 10.091-22.495 22.495v9.008c-34.86 3.694-62.11 33.272-62.11 69.095v303.118h-8.029a7.498 7.498 0 0 0 0 14.996h465.826a7.498 7.498 0 0 0 0-14.996zm-23.021.002H294.553v-47.119h171.338v47.119zM217.447 279.187v31.516h-47.114v-31.516zm-47.114-14.997v-31.516h47.114v31.516zm47.114 61.509v31.515h-47.114v-31.515zm0 46.512v31.516h-47.114v-31.516zm0-154.533h-47.114v-31.516h47.114zm-47.114 201.045h47.114v31.516h-47.114zm47.114-247.557h-47.114v-31.768h47.114zm-47.114 294.069h47.114v31.768h-47.114zm62.11-325.34c26.569 3.61 47.113 26.446 47.113 53.99l-.002 303.118h-47.111zm62.11 247.886h54.235c-4.158 8.906-7.121 17.409-7.121 23.556a38.363 38.363 0 0 0 8.051 23.554h-55.165zm85.286 47.109c-12.814-.204-23.176-10.692-23.176-23.554 0-8.585 12.302-31.014 23.557-48.562 11.255 17.548 23.557 39.977 23.557 48.562 0 14.062-11.845 21.85-23.938 23.554zm86.053-116.843v54.737h-62.038c-7.206-12.75-14.851-24.038-17.464-27.82-4.113-4.315-8.226-4.315-12.339 0-2.612 3.782-10.258 15.07-17.464 27.82h-62.034v-55.179c.238-29.842 24.588-54.046 54.485-54.046h62.366c30.044 0 54.488 24.443 54.488 54.488zm-62.115-69.484h-47.114v-8.491c0-4.004 3.155-7.285 7.11-7.488.264.028 32.633.028 32.896 0 3.954.204 7.108 3.484 7.108 7.488zM154.684 82.101c0-37.002 30.103-67.105 67.104-67.105h99.477c37.002 0 67.105 30.103 67.105 67.105v135.476h-16.296V82.101c0-28.016-22.793-50.808-50.809-50.808h-33.932a7.498 7.498 0 0 0 0 14.996h33.932c19.747 0 35.812 16.065 35.812 35.812V218.72c-8.943 2.975-15.41 11.422-15.41 21.352v8.879c-19.042 2.017-35.814 11.758-47.114 26.021v-81.087c0-35.823-27.25-65.401-62.11-69.095v-9.008c0-12.404-10.091-22.495-22.495-22.495h-23.973V82.101c0-19.746 16.065-35.812 35.812-35.812h32.873a7.498 7.498 0 0 0 0-14.996h-32.873c-28.016 0-50.808 22.793-50.808 50.808v11.186h-16.296V82.101zm-46.461 33.681c0-4.135 3.363-7.498 7.498-7.498h94.227c4.135 0 7.498 3.363 7.498 7.498v8.619H108.223zm-62.11 78.103c0-30.044 24.443-54.487 54.487-54.487h18.964c-16.036 12.739-26.336 32.403-26.336 54.427v61.246a7.498 7.498 0 0 0 14.996 0v-61.246c0-27.544 20.543-50.379 47.113-53.99v357.168h-47.113v-209.25a7.498 7.498 0 0 0-14.996 0v209.25H46.113z" fill="#154194" opacity="1" data-original="#000000"></path></g></svg>