<svg xmlns="http://www.w3.org/2000/svg" version="1.1" xmlns:xlink="http://www.w3.org/1999/xlink" width="512" height="512" x="0" y="0" viewBox="0 0 64 64" style="enable-background:new 0 0 512 512" xml:space="preserve" class=""><g><circle cx="16" cy="19" r="1" fill="#154194" opacity="1" data-original="#000000"></circle><path d="M61 33V8.382L54.236 5H25v28h-5.159A8.888 8.888 0 0 0 16 29.351v-.601a4.378 4.378 0 0 0 1.707-1.043 4.383 4.383 0 0 0 1.291-2.986l3.002-1V23c0-3.38-1.259-6.293-2.199-8H21c1.103 0 2-.897 2-2v-2c0-1.103-.897-2-2-2h-.219l-.084-.334A10.105 10.105 0 0 0 10.879 1c-4.495 0-8.496 3.019-9.73 7.339l-.11.385L1.034 9H1v7.854c0 3.545 1.722 6.891 4.606 8.951L8 27.515v.808l-.6.24a6.967 6.967 0 0 0-4.4 6.5V63h60V33zm-2 0h-4V7.618l4 2zM27 7h26v26H27zm33.248 28L48.429 55H21v-2h7.009A2.997 2.997 0 0 0 31 50.004V48c0-1.654-1.346-3-3-3h-.382l-.188-.376A2.922 2.922 0 0 0 24.803 43a2.92 2.92 0 0 0-2.077.86L21.586 45H21v-7.615c0-.822-.117-1.621-.326-2.385zm-40.27-12.713L17 23.279v1.307c0 .635-.258 1.258-.707 1.707S15.221 27 14.586 27H12v2h2v.697l-1.155 1.733L10 28.586v-4.757c0-.801-.312-1.555-.879-2.122l-.828-.828A.996.996 0 0 1 8 20.171V20c0-.551.449-1 1-1h1v-4h7.472c.657 1.012 2.298 3.854 2.506 7.287zM3.072 8.89A8.154 8.154 0 0 1 10.879 3c3.68 0 6.876 2.46 7.833 6H3.04zM21 11v2H3v-2zM6.769 24.177A9.016 9.016 0 0 1 3 16.854V15h5v2.171A3.006 3.006 0 0 0 6 20v.171c0 .801.312 1.555.879 2.122l.828.828a.996.996 0 0 1 .293.708v1.228zm1.374 6.243.617-.247 4.396 4.396 2.193-3.289A6.908 6.908 0 0 1 19 37.385V45h-8v-5.599c0-3.259-1.552-6.316-4.12-8.25a5.03 5.03 0 0 1 1.263-.731zm-2.549 2.268A8.341 8.341 0 0 1 9 39.401V47h12v4h2v-4.586l1.14-1.14c.431-.429 1.23-.299 1.501.244L26.382 47H28c.551 0 1 .449 1 1v2.004a.994.994 0 0 1-.991.996H9.117c-1.098 0-2.133-.432-2.955-1.252A3.945 3.945 0 0 1 5 46.95V45h-.001v-9.938a5.013 5.013 0 0 1 .595-2.374zM13 61v-1.838c0-1.46.931-2.751 2.316-3.213l-.633-1.897A5.38 5.38 0 0 0 11 59.162V61H5v-9.606A6.074 6.074 0 0 0 9.117 53H19v8zm8-4h27v4H21zm29 4v-4.727l11-18.615V61z" fill="#154194" opacity="1" data-original="#000000"></path><path d="M50 43c1.654 0 3-1.346 3-3s-1.346-3-3-3-3 1.346-3 3 1.346 3 3 3zm0-4c.551 0 1 .449 1 1s-.449 1-1 1-1-.449-1-1 .449-1 1-1zM46 50c1.654 0 3-1.346 3-3s-1.346-3-3-3-3 1.346-3 3 1.346 3 3 3zm0-4c.551 0 1 .449 1 1s-.449 1-1 1-1-.449-1-1 .449-1 1-1zM38 47c-1.654 0-3 1.346-3 3s1.346 3 3 3 3-1.346 3-3-1.346-3-3-3zm0 4c-.551 0-1-.449-1-1s.449-1 1-1 1 .449 1 1-.449 1-1 1zM43 37H31v8h12zm-2 6h-8v-4h8zM27 37h2v2h-2zM23 37h2v2h-2zM29 9v22h22V9zm20 20H31V11h18z" fill="#154194" opacity="1" data-original="#000000"></path><path d="M35 19h10c1.103 0 2-.897 2-2v-2c0-1.103-.897-2-2-2H35c-1.103 0-2 .897-2 2v2c0 1.103.897 2 2 2zm0-4h10l.001 2H35zM44 21c-1.654 0-3 1.346-3 3s1.346 3 3 3 3-1.346 3-3-1.346-3-3-3zm0 4c-.551 0-1-.449-1-1s.449-1 1-1 1 .449 1 1-.449 1-1 1zM33 21h2v2h-2zM33 25h2v2h-2zM37 25h2v2h-2zM37 21h2v2h-2z" fill="#154194" opacity="1" data-original="#000000"></path></g></svg>