<svg xmlns="http://www.w3.org/2000/svg" version="1.1" xmlns:xlink="http://www.w3.org/1999/xlink" width="512" height="512" x="0" y="0" viewBox="0 0 512 512" style="enable-background:new 0 0 512 512" xml:space="preserve"><g><path d="M460.437 247.967c.477 5.559.736 11.197.799 16.8l3.35-4.219a8 8 0 0 1 12.531 9.949l-18.194 22.915a8 8 0 0 1-6.265 3.025h-.053a8.004 8.004 0 0 1-6.278-3.109l-17.887-23.155a8 8 0 0 1 12.662-9.782l4.145 5.366a210.413 210.413 0 0 0-.751-16.423 8 8 0 0 1 15.941-1.367zM114.6 98.827c1.585 0 3.186-.47 4.582-1.448a208.309 208.309 0 0 1 12.91-8.331l-2.363 5.456a8 8 0 0 0 14.682 6.36l11.629-26.849a8 8 0 0 0-6.013-11.069l-28.853-4.856c-4.349-.73-8.483 2.204-9.217 6.562a8.001 8.001 0 0 0 6.562 9.217l6.08 1.023a223.506 223.506 0 0 0-14.595 9.382 8 8 0 0 0 4.596 14.553zm293.1 49.427a7.99 7.99 0 0 0 6.552 3.401 8 8 0 0 0 6.539-12.6 225.019 225.019 0 0 0-24.836-29.562 7.998 7.998 0 0 0-11.313-.007 8 8 0 0 0-.007 11.313 209.11 209.11 0 0 1 23.065 27.455zM27.912 219.122a8.012 8.012 0 0 0 2.076.275 8.003 8.003 0 0 0 7.722-5.931 206.328 206.328 0 0 1 12.269-33.693 7.998 7.998 0 0 0-3.869-10.631 7.998 7.998 0 0 0-10.631 3.869 222.332 222.332 0 0 0-13.223 36.313 7.999 7.999 0 0 0 5.656 9.798zm-3.776 74.739a8 8 0 0 0 7.287-8.654 210.782 210.782 0 0 1-.767-17.936c0-5.954.258-11.989.768-17.937a8.001 8.001 0 0 0-15.942-1.366 227.23 227.23 0 0 0-.827 19.303c0 6.421.278 12.915.826 19.303a8 8 0 0 0 8.655 7.287zM325.705 79.42a207.682 207.682 0 0 1 31.037 17.954 7.958 7.958 0 0 0 4.583 1.448 8 8 0 0 0 4.597-14.553 223.743 223.743 0 0 0-33.435-19.34 7.997 7.997 0 0 0-10.636 3.856 7.996 7.996 0 0 0 3.854 10.635zm112.5 134.049a8.003 8.003 0 0 0 9.8 5.654 8 8 0 0 0 5.654-9.799 222.562 222.562 0 0 0-13.226-36.309 8 8 0 1 0-14.5 6.762 206.532 206.532 0 0 1 12.272 33.692zm-381.13-63.268a7.962 7.962 0 0 0 4.593 1.455 7.99 7.99 0 0 0 6.552-3.401A209.015 209.015 0 0 1 91.284 120.8a8 8 0 0 0-11.32-11.308 225.003 225.003 0 0 0-24.834 29.563 8 8 0 0 0 1.945 11.146zm299.662 286.962a207.92 207.92 0 0 1-31.035 17.955 7.998 7.998 0 0 0-3.854 10.637 8 8 0 0 0 7.251 4.61 7.96 7.96 0 0 0 3.386-.757 223.704 223.704 0 0 0 33.432-19.34 8 8 0 1 0-9.18-13.105zm-65.245 30.414a207.24 207.24 0 0 1-35.314 6.19 8 8 0 0 0 1.387 15.94 223.094 223.094 0 0 0 38.049-6.671 8 8 0 0 0 5.669-9.791 7.998 7.998 0 0 0-9.791-5.668zm-71.751 6.191a206.975 206.975 0 0 1-17.806-2.334l6.439-2.49a8.001 8.001 0 0 0-5.77-14.924l-27.291 10.551a8.001 8.001 0 0 0-3.668 12.051l16.784 23.967a7.989 7.989 0 0 0 6.56 3.412 8 8 0 0 0 6.546-12.59l-3.042-4.344a223.12 223.12 0 0 0 19.86 2.64 8 8 0 0 0 8.663-7.277 7.997 7.997 0 0 0-7.275-8.662zM49.986 354.765a206.549 206.549 0 0 1-12.272-33.692c-1.145-4.268-5.533-6.802-9.799-5.653a8 8 0 0 0-5.654 9.8 222.62 222.62 0 0 0 13.224 36.308 8 8 0 0 0 7.256 4.621 8 8 0 0 0 7.245-11.384zm446.286 56.015a7.998 7.998 0 0 1-6.928 4H377.036a7.998 7.998 0 0 1-6.928-12l56.154-97.262a7.998 7.998 0 0 1 13.856 0l56.154 97.262a8 8 0 0 1 0 8zm-20.785-12-42.298-73.262-42.297 73.262zM157.08 432.947c0 31.227-25.404 56.631-56.631 56.631s-56.631-25.404-56.631-56.631 25.404-56.631 56.631-56.631 56.631 25.405 56.631 56.631zm-16 0c0-22.404-18.227-40.631-40.631-40.631s-40.631 18.227-40.631 40.631 18.227 40.631 40.631 40.631 40.631-18.226 40.631-40.631zm40.248-345.011V16a8 8 0 0 1 8-8h97.262a8 8 0 0 1 8 8v71.936a8 8 0 0 1-8 8h-97.262a8 8 0 0 1-8-8zm16-8h81.262V24h-81.262zm144.665 267.915-23.453 23.455a7.996 7.996 0 0 1-8.904 1.654l-16.129-7.164a112.334 112.334 0 0 1-25.161 10.431l-6.336 16.461a8 8 0 0 1-7.466 5.126h-33.168a8 8 0 0 1-7.466-5.126l-6.338-16.466a112.263 112.263 0 0 1-25.152-10.429l-16.137 7.167a8 8 0 0 1-8.904-1.654l-23.454-23.453a8 8 0 0 1-1.654-8.904l7.164-16.13a112.295 112.295 0 0 1-10.431-25.161l-16.46-6.336a7.998 7.998 0 0 1-5.126-7.466v-33.168a8 8 0 0 1 5.126-7.466l16.463-6.337a112.336 112.336 0 0 1 10.429-25.156l-7.166-16.134a8 8 0 0 1 1.654-8.904l23.454-23.454a7.997 7.997 0 0 1 8.904-1.654l16.136 7.167a112.294 112.294 0 0 1 25.153-10.428l6.338-16.466a8 8 0 0 1 7.466-5.126h33.167a8 8 0 0 1 7.466 5.126l6.338 16.465a112.314 112.314 0 0 1 25.152 10.428l16.137-7.167a8.003 8.003 0 0 1 8.904 1.655l23.454 23.454a7.999 7.999 0 0 1 1.654 8.904l-7.164 16.129a112.334 112.334 0 0 1 10.431 25.161l16.46 6.336a7.998 7.998 0 0 1 5.126 7.466v33.168a8 8 0 0 1-5.126 7.466l-16.466 6.339a112.353 112.353 0 0 1-10.428 25.152l7.167 16.136a7.997 7.997 0 0 1-1.654 8.903zm-4.673-63.645 15.181-5.844v-22.183l-15.176-5.841a8 8 0 0 1-4.909-5.614 96.429 96.429 0 0 0-11.727-28.289 7.998 7.998 0 0 1-.5-7.442l6.605-14.873-15.686-15.686-14.88 6.608a7.998 7.998 0 0 1-7.442-.499 96.429 96.429 0 0 0-28.281-11.725 8 8 0 0 1-5.614-4.909l-5.843-15.181h-22.182l-5.844 15.181a8.002 8.002 0 0 1-5.614 4.909 96.441 96.441 0 0 0-28.282 11.725 7.996 7.996 0 0 1-7.441.499l-14.879-6.608-15.686 15.686 6.607 14.878a7.998 7.998 0 0 1-.5 7.442 96.43 96.43 0 0 0-11.726 28.283 8 8 0 0 1-4.909 5.614l-15.179 5.843v22.182l15.176 5.842a8 8 0 0 1 4.909 5.614 96.412 96.412 0 0 0 11.727 28.288 7.998 7.998 0 0 1 .5 7.442l-6.606 14.874 15.686 15.685 14.88-6.608a7.996 7.996 0 0 1 7.441.499 96.404 96.404 0 0 0 28.281 11.725 8 8 0 0 1 5.614 4.909l5.844 15.182h22.182l5.842-15.177a8.002 8.002 0 0 1 5.614-4.909 96.364 96.364 0 0 0 28.288-11.727 8.003 8.003 0 0 1 7.443-.5l14.873 6.606 15.686-15.686-6.609-14.88a7.996 7.996 0 0 1 .5-7.441 96.424 96.424 0 0 0 11.725-28.281 8.01 8.01 0 0 1 4.911-5.613zm-33.516-16.935c0 36.307-29.538 65.845-65.845 65.845s-65.845-29.538-65.845-65.845 29.538-65.845 65.845-65.845 65.845 29.538 65.845 65.845zm-16 0c0-27.485-22.36-49.845-49.845-49.845s-49.845 22.36-49.845 49.845c0 27.484 22.36 49.845 49.845 49.845s49.845-22.36 49.845-49.845z" fill="#154194" opacity="1" data-original="#000000"></path></g></svg>