<svg xmlns="http://www.w3.org/2000/svg" version="1.1" xmlns:xlink="http://www.w3.org/1999/xlink" width="512" height="512" x="0" y="0" viewBox="0 0 512 512" style="enable-background:new 0 0 512 512" xml:space="preserve" class=""><g><path d="M294.387 257.087h-.301c11.002-10.23 17.903-24.815 17.903-40.987 0-30.872-25.116-55.988-55.988-55.988-30.871 0-55.988 25.116-55.988 55.988 0 16.172 6.901 30.757 17.903 40.987h-.302c-21.959 0-39.825 17.865-39.825 39.825V345.4a7.5 7.5 0 0 0 7.5 7.5h141.422c4.143 0 7.5-3.357 7.5-7.5v-48.488c.001-21.96-17.864-39.825-39.824-39.825zM215.014 216.1c0-22.6 18.387-40.988 40.988-40.988S296.99 193.5 296.99 216.1s-18.388 40.987-40.988 40.987-40.988-18.387-40.988-40.987zm104.198 121.8H192.79v-40.988c0-13.688 11.137-24.825 24.825-24.825h76.772c13.688 0 24.825 11.137 24.825 24.825zM210.761 126.622h90.48c9.825 0 17.819-7.994 17.819-17.82v-30.36c0-4.143-3.357-7.5-7.5-7.5s-7.5 3.357-7.5 7.5v30.359a2.823 2.823 0 0 1-2.819 2.82h-90.48a2.824 2.824 0 0 1-2.82-2.82V18.322a2.819 2.819 0 0 1 2.82-2.811h90.48a2.818 2.818 0 0 1 2.819 2.811v25.12c0 4.143 3.357 7.5 7.5 7.5s7.5-3.357 7.5-7.5v-25.12c0-9.82-7.994-17.81-17.819-17.81h-90.48c-9.826 0-17.82 7.99-17.82 17.81v90.479c.001 9.827 7.995 17.821 17.82 17.821zM494.955 213.384a7.502 7.502 0 0 0-10.95 10.254 47.922 47.922 0 0 1 12.994 32.873c0 26.495-21.559 48.05-48.059 48.05-26.501 0-48.06-21.555-48.06-48.05 0-26.5 21.559-48.059 48.06-48.059 2.945 0 5.896.271 8.771.804 4.075.762 7.987-1.933 8.742-6.006a7.5 7.5 0 0 0-6.006-8.742 63.282 63.282 0 0 0-11.508-1.056c-34.771 0-63.06 28.288-63.06 63.059 0 34.765 28.289 63.049 63.06 63.049S512 291.276 512 256.511c0-16.074-6.054-31.39-17.045-43.127zM123.314 310.611c3.465-5.607 3.774-12.475.827-18.371l-44.178-88.355c-3.219-6.438-9.689-10.438-16.888-10.438-7.197 0-13.668 4-16.887 10.437L2.011 292.24c-2.948 5.896-2.639 12.764.826 18.371 3.465 5.606 9.469 8.954 16.06 8.954h88.356c6.592 0 12.596-3.348 16.061-8.954zm-107.717-7.886c-.342-.554-1.043-2.029-.17-3.776l44.178-88.357c.968-1.936 2.75-2.145 3.47-2.145.721 0 2.503.21 3.471 2.146l44.178 88.355c.874 1.747.172 3.224-.17 3.776-.342.554-1.348 1.841-3.301 1.841H18.897c-1.952 0-2.958-1.287-3.3-1.84zM307.141 399.085l-39.22-22.64c-7.353-4.245-16.487-4.245-23.839 0l-39.219 22.639c-7.353 4.243-11.921 12.154-11.921 20.646v5.14c0 4.143 3.358 7.5 7.5 7.5s7.5-3.357 7.5-7.5v-5.14a8.862 8.862 0 0 1 4.419-7.655l39.22-22.64a8.867 8.867 0 0 1 8.84 0l39.221 22.641a8.86 8.86 0 0 1 4.418 7.654v45.289a8.861 8.861 0 0 1-4.42 7.655l-39.22 22.64a8.86 8.86 0 0 1-8.84 0l-39.221-22.641a8.858 8.858 0 0 1-4.418-7.654v-5.149c0-4.143-3.358-7.5-7.5-7.5s-7.5 3.357-7.5 7.5v5.149c0 8.492 4.568 16.403 11.92 20.645l39.22 22.64A23.839 23.839 0 0 0 256 511.488c4.122 0 8.243-1.062 11.919-3.184l39.219-22.639c7.353-4.243 11.922-12.154 11.922-20.646V419.73c.001-8.492-4.568-16.403-11.919-20.645zM343.885 71.066h84.854c7.005 0 12.703 5.698 12.703 12.703v66.746l-11.44-11.441a7.5 7.5 0 0 0-10.607 10.607l24.244 24.244a7.502 7.502 0 0 0 10.608-.001l24.243-24.244a7.498 7.498 0 0 0-.001-10.606 7.5 7.5 0 0 0-10.606.001l-11.439 11.44V83.769c0-15.275-12.428-27.703-27.703-27.703h-84.854c-4.143 0-7.5 3.357-7.5 7.5s3.355 7.5 7.498 7.5zM149.182 34.014a7.5 7.5 0 0 0-10.606.001 7.5 7.5 0 0 0 0 10.606l11.44 11.439H83.269c-15.275 0-27.703 12.428-27.703 27.703v84.854c0 4.143 3.358 7.5 7.5 7.5s7.5-3.357 7.5-7.5V83.764c0-7.005 5.699-12.703 12.703-12.703h66.747l-11.44 11.44a7.5 7.5 0 0 0 10.606 10.607l24.244-24.244a7.5 7.5 0 0 0 0-10.608zM168.117 441.936H83.264c-7.004 0-12.703-5.698-12.703-12.703v-66.746l11.44 11.441c1.464 1.464 3.384 2.196 5.303 2.196s3.839-.732 5.303-2.196a7.5 7.5 0 0 0 0-10.607l-24.244-24.244a7.5 7.5 0 0 0-10.606 0L33.514 363.32a7.5 7.5 0 0 0 10.606 10.607l11.441-11.441v66.746c0 15.275 12.428 27.703 27.703 27.703h84.853a7.5 7.5 0 1 0 0-14.999zM448.936 336.884a7.499 7.499 0 0 0-7.5 7.5v84.854c0 7.005-5.698 12.703-12.703 12.703h-66.746l11.441-11.44a7.5 7.5 0 0 0-10.607-10.607l-24.244 24.244a7.502 7.502 0 0 0 .001 10.608l24.244 24.243c1.464 1.464 3.384 2.196 5.303 2.196s3.839-.732 5.304-2.197a7.498 7.498 0 0 0-.001-10.606l-11.44-11.439h66.746c15.275 0 27.703-12.428 27.703-27.703v-84.854a7.502 7.502 0 0 0-7.501-7.502z" fill="#154194" opacity="1" data-original="#000000" class=""></path></g></svg>