<svg xmlns="http://www.w3.org/2000/svg" version="1.1" xmlns:xlink="http://www.w3.org/1999/xlink" width="512" height="512" x="0" y="0" viewBox="0 0 512.001 512.001" style="enable-background:new 0 0 512 512" xml:space="preserve"><g><path d="M371.259 114.917h85.837" style="stroke-width:15;stroke-linecap:round;stroke-linejoin:round;stroke-miterlimit:10;" fill="none" stroke="#154194" stroke-width="15" stroke-linecap="round" stroke-linejoin="round" stroke-miterlimit="10" data-original="#000000" opacity="1"></path><circle cx="476.245" cy="114.917" r="19.149" style="stroke-width:15;stroke-linecap:round;stroke-linejoin:round;stroke-miterlimit:10;" fill="none" stroke="#154194" stroke-width="15" stroke-linecap="round" stroke-linejoin="round" stroke-miterlimit="10" data-original="#000000" opacity="1"></circle><circle cx="433.951" cy="192.209" r="19.149" style="stroke-width:15;stroke-linecap:round;stroke-linejoin:round;stroke-miterlimit:10;" fill="none" stroke="#154194" stroke-width="15" stroke-linecap="round" stroke-linejoin="round" stroke-miterlimit="10" data-original="#000000" opacity="1"></circle><path d="M364.714 154.16h28.83c3.37 0 6.58 1.41 8.85 3.89l18.74 20.47" style="stroke-width:15;stroke-linecap:round;stroke-linejoin:round;stroke-miterlimit:10;" fill="none" stroke="#154194" stroke-width="15" stroke-linecap="round" stroke-linejoin="round" stroke-miterlimit="10" data-original="#000000" opacity="1"></path><circle cx="433.951" cy="39.363" r="19.149" style="stroke-width:15;stroke-linecap:round;stroke-linejoin:round;stroke-miterlimit:10;" fill="none" stroke="#154194" stroke-width="15" stroke-linecap="round" stroke-linejoin="round" stroke-miterlimit="10" data-original="#000000" opacity="1"></circle><path d="M363.934 77.42h29.61a12 12 0 0 0 8.85-3.9l18.74-20.46M152.61 114.917H54.906" style="stroke-width:15;stroke-linecap:round;stroke-linejoin:round;stroke-miterlimit:10;" fill="none" stroke="#154194" stroke-width="15" stroke-linecap="round" stroke-linejoin="round" stroke-miterlimit="10" data-original="#000000" opacity="1"></path><circle cx="35.757" cy="114.917" r="19.149" style="stroke-width:15;stroke-linecap:round;stroke-linejoin:round;stroke-miterlimit:10;" fill="none" stroke="#154194" stroke-width="15" stroke-linecap="round" stroke-linejoin="round" stroke-miterlimit="10" data-original="#000000" opacity="1"></circle><circle cx="78.05" cy="192.209" r="19.149" style="stroke-width:15;stroke-linecap:round;stroke-linejoin:round;stroke-miterlimit:10;" fill="none" stroke="#154194" stroke-width="15" stroke-linecap="round" stroke-linejoin="round" stroke-miterlimit="10" data-original="#000000" opacity="1"></circle><path d="m90.87 178.516 18.734-20.463a12 12 0 0 1 8.851-3.897h41.577" style="stroke-width:15;stroke-linecap:round;stroke-linejoin:round;stroke-miterlimit:10;" fill="none" stroke="#154194" stroke-width="15" stroke-linecap="round" stroke-linejoin="round" stroke-miterlimit="10" data-original="#000000" opacity="1"></path><circle cx="78.05" cy="39.363" r="19.149" style="stroke-width:15;stroke-linecap:round;stroke-linejoin:round;stroke-miterlimit:10;" fill="none" stroke="#154194" stroke-width="15" stroke-linecap="round" stroke-linejoin="round" stroke-miterlimit="10" data-original="#000000" opacity="1"></circle><path d="m90.87 53.056 18.734 20.463a12 12 0 0 0 8.851 3.897h41.476M228.594 340.75V220.96M295.274 220.96v57.56c0 .78-.46 1.49-1.17 1.82l-23.7 10.81c-1.6.73-1.55 3.01.08 3.67l23.54 9.5c.76.3 1.25 1.04 1.25 1.85v22.12c0 .58-.25 1.13-.69 1.51l-23.83 20.63c-1.01.87-.89 2.48.24 3.2l23.35 14.82c.58.36.93 1 .93 1.69v21.77c0 .49-.18.97-.51 1.34l-21.46 23.78a2 2 0 0 0 .34 2.98l20.77 14.45c.54.37.86.99.86 1.64v22.28c0 1.26-.39 2.48-1.12 3.5L265.364 502a6 6 0 0 1-8.28 1.44l-25.9-17.85a6.012 6.012 0 0 1-2.59-4.94v-104.9" style="stroke-width:15;stroke-linecap:round;stroke-linejoin:round;stroke-miterlimit:10;" fill="none" stroke="#154194" stroke-width="15" stroke-linecap="round" stroke-linejoin="round" stroke-miterlimit="10" data-original="#000000" opacity="1"></path><path d="M350.694 53.01c12.94 17.96 20.56 40 20.56 63.81 0 60.38-48.94 109.33-109.32 109.33s-109.32-48.95-109.32-109.33c0-60.37 48.94-109.32 109.32-109.32 23.92 0 46.04 7.68 64.04 20.72M320.424 125.86h-24.46M227.904 125.86h-24.46" style="stroke-width:15;stroke-linecap:round;stroke-linejoin:round;stroke-miterlimit:10;" fill="none" stroke="#154194" stroke-width="15" stroke-linecap="round" stroke-linejoin="round" stroke-miterlimit="10" data-original="#000000" opacity="1"></path><path d="M310.244 59.93v10.34c0 9.96-5.84 18.55-14.29 22.53M213.624 59.93v10.34c0 9.96 5.84 18.55 14.29 22.53M231.504 157.15c-10.53 3.03-18.14 12.82-17.96 24.3l.17 10.34M292.674 156.52c9.98 3.11 17.3 12.35 17.49 23.37l.16 10.33M244.654 75.79v-8.47c0-9.54 7.74-17.28 17.28-17.28 4.77 0 9.09 1.94 12.22 5.06 3.12 3.13 5.06 7.45 5.06 12.22v8.47" style="stroke-width:15;stroke-linecap:round;stroke-linejoin:round;stroke-miterlimit:10;" fill="none" stroke="#154194" stroke-width="15" stroke-linecap="round" stroke-linejoin="round" stroke-miterlimit="10" data-original="#000000" opacity="1"></path><path d="M261.934 175.936h0c-18.795 0-34.031-15.236-34.031-34.031V93.14c0-9.585 7.77-17.355 17.355-17.355h33.351c9.585 0 17.355 7.77 17.355 17.355v48.766c.001 18.794-15.235 34.03-34.03 34.03zM261.934 175.936V115.79" style="stroke-width:15;stroke-linecap:round;stroke-linejoin:round;stroke-miterlimit:10;" fill="none" stroke="#154194" stroke-width="15" stroke-linecap="round" stroke-linejoin="round" stroke-miterlimit="10" data-original="#000000" opacity="1"></path><path d="M227.904 106.67c21 12.15 47.06 12.15 68.06 0M248.744 56.17V41.86M275.124 56.17V41.86" style="stroke-width:15;stroke-linecap:round;stroke-linejoin:round;stroke-miterlimit:10;" fill="none" stroke="#154194" stroke-width="15" stroke-linecap="round" stroke-linejoin="round" stroke-miterlimit="10" data-original="#000000" opacity="1"></path></g></svg>