<?xml version="1.0" encoding="UTF-8"?>
<svg xmlns="http://www.w3.org/2000/svg" xmlns:xlink="http://www.w3.org/1999/xlink" version="1.1" width="512" height="512" x="0" y="0" viewBox="0 0 512 512" style="enable-background:new 0 0 512 512" xml:space="preserve">
  <g>
    <path d="m341.473 225.329-13.795-2.874a74.039 74.039 0 0 0-6.566-15.826l7.729-11.797a6.837 6.837 0 0 0-.884-8.58l-15.34-15.34a6.835 6.835 0 0 0-8.58-.884l-11.797 7.729a74.039 74.039 0 0 0-15.826-6.566l-2.874-13.795a6.835 6.835 0 0 0-6.692-5.441h-21.695a6.836 6.836 0 0 0-6.692 5.441l-2.874 13.795a74.039 74.039 0 0 0-15.826 6.566l-11.797-7.729a6.837 6.837 0 0 0-8.58.884l-15.34 15.34a6.835 6.835 0 0 0-.884 8.58l7.729 11.797a74.039 74.039 0 0 0-6.566 15.826l-13.795 2.874a6.835 6.835 0 0 0-5.441 6.692v21.695a6.836 6.836 0 0 0 5.441 6.692l13.795 2.874a74.039 74.039 0 0 0 6.566 15.826l-7.729 11.797a6.837 6.837 0 0 0 .884 8.58l15.34 15.34a6.835 6.835 0 0 0 8.58.884l11.797-7.729a74.039 74.039 0 0 0 15.826 6.566l2.874 13.795a6.835 6.835 0 0 0 6.692 5.441h21.695a6.836 6.836 0 0 0 6.692-5.441l2.874-13.795a74.039 74.039 0 0 0 15.826-6.566l11.797 7.729a6.837 6.837 0 0 0 8.58-.884l15.34-15.34a6.835 6.835 0 0 0 .884-8.58l-7.729-11.797a74.018 74.018 0 0 0 6.566-15.826l13.795-2.874a6.835 6.835 0 0 0 5.441-6.692v-21.695a6.834 6.834 0 0 0-5.441-6.692zM256 284.429c-22.953 0-41.561-18.607-41.561-41.561s18.607-41.561 41.561-41.561c22.953 0 41.561 18.607 41.561 41.561S278.953 284.429 256 284.429zM212.563 67.1h86.874M212.563 418.636h96.976M440.86 67.1h43.437c11.158 0 20.203 9.045 20.203 20.203v135.362c0 11.158-9.045 20.203-20.203 20.203H346.915M165.085 242.868H27.703c-11.158 0-20.203 9.045-20.203 20.203v135.362c0 11.158 9.045 20.203 20.203 20.203H71.14" style="stroke-width:15;stroke-linecap:round;stroke-linejoin:round;stroke-miterlimit:10;" fill="none" stroke="#154194" stroke-width="15" stroke-linecap="round" stroke-linejoin="round" stroke-miterlimit="10" data-original="#000000" opacity="1"/>
    <path d="M165.09 452.98h37.37c5.58 0 10.1-4.52 10.1-10.1v-48.49c0-5.58-4.52-10.1-10.1-10.1H81.24c-5.58 0-10.1 4.52-10.1 10.1v48.49c0 5.58 4.52 10.1 10.1 10.1h48.75M151.1 101.45h51.36c5.58 0 10.1-4.53 10.1-10.11V42.86c0-5.58-4.52-10.11-10.1-10.11H81.24c-5.58 0-10.1 4.53-10.1 10.11v48.48c0 5.58 4.52 10.11 10.1 10.11H116M430.758 101.445h-121.22c-5.579 0-10.102-4.523-10.102-10.102V42.856c0-5.579 4.523-10.102 10.102-10.102h121.22c5.579 0 10.102 4.523 10.102 10.102v48.488c0 5.578-4.523 10.101-10.102 10.101zM71.14 67.1H7.5M430.758 418.636H504.5M479.334 443.803l25.166-25.167-25.166-25.166M351.31 361.01a60.766 60.766 0 0 1 18.84-2.98c33.47 0 60.61 27.13 60.61 60.61 0 33.47-27.14 60.61-60.61 60.61-33.48 0-60.61-27.14-60.61-60.61 0-14.24 4.91-27.34 13.13-37.68" style="stroke-width:15;stroke-linecap:round;stroke-linejoin:round;stroke-miterlimit:10;" fill="none" stroke="#154194" stroke-width="15" stroke-linecap="round" stroke-linejoin="round" stroke-miterlimit="10" data-original="#000000" opacity="1"/>
    <path d="m394.642 402.307-32.658 32.658-16.329-16.329" style="stroke-width:15;stroke-linecap:round;stroke-linejoin:round;stroke-miterlimit:10;" fill="none" stroke="#154194" stroke-width="15" stroke-linecap="round" stroke-linejoin="round" stroke-miterlimit="10" data-original="#000000" opacity="1"/>
  </g>
</svg>
