<svg xmlns="http://www.w3.org/2000/svg" version="1.1" xmlns:xlink="http://www.w3.org/1999/xlink" width="512" height="512" x="0" y="0" viewBox="0 0 24 24" style="enable-background:new 0 0 512 512" xml:space="preserve" class=""><g><path d="M24 9.5a4.464 4.464 0 0 1-1.319 3.182l-5.146 4.904a1.5 1.5 0 0 1-2.07-2.172L20.098 11H5.5A2.503 2.503 0 0 0 3 13.5v7a1.5 1.5 0 1 1-3 0v-7C0 10.467 2.467 8 5.5 8h14.599l-4.634-4.414a1.5 1.5 0 1 1 2.07-2.172l5.121 4.879A4.487 4.487 0 0 1 24 9.5Z" fill="#154194" opacity="1" data-original="#000000" class=""></path></g></svg>