<svg xmlns="http://www.w3.org/2000/svg" version="1.1" xmlns:xlink="http://www.w3.org/1999/xlink" width="512" height="512" x="0" y="0" viewBox="0 0 682.667 682.667" style="enable-background:new 0 0 512 512" xml:space="preserve" class=""><g><defs><clipPath id="a" clipPathUnits="userSpaceOnUse"><path d="M0 512h512V0H0Z" fill="#154194" opacity="1" data-original="#000000"></path></clipPath></defs><g clip-path="url(#a)" transform="matrix(1.33333 0 0 -1.33333 0 682.667)"><path d="M0 0h-19.832c-5.591 0-10.123-4.533-10.123-10.124v-26.364c0-4.352-2.796-8.181-6.913-9.593a171.11 171.11 0 0 1-19.777-8.189c-3.911-1.915-8.596-1.185-11.675 1.894l-18.64 18.64c-3.954 3.954-10.363 3.954-14.317 0l-55.015-55.014c-3.953-3.954-3.953-10.364 0-14.317l18.64-18.641c3.08-3.079 3.808-7.764 1.894-11.675a171.288 171.288 0 0 1-8.189-19.777c-1.411-4.117-5.24-6.912-9.593-6.912h-26.364c-5.591 0-10.123-4.533-10.123-10.124v-77.803c0-5.59 4.532-10.123 10.123-10.123h26.364c4.353 0 8.182-2.795 9.593-6.913a171.273 171.273 0 0 1 8.189-19.776c1.914-3.911 1.186-8.597-1.894-11.676l-18.64-18.64c-3.953-3.954-3.953-10.363 0-14.317l55.015-55.014c3.954-3.954 10.363-3.954 14.317 0l18.64 18.64c3.079 3.079 7.764 3.808 11.675 1.894a171.116 171.116 0 0 1 19.777-8.19c4.117-1.411 6.913-5.24 6.913-9.593v-26.364c0-5.591 4.532-10.123 10.123-10.123h77.803c5.591 0 10.123 4.532 10.123 10.123v26.364c0 4.353 2.796 8.182 6.913 9.593a171.101 171.101 0 0 1 19.776 8.19c3.911 1.914 8.597 1.185 11.676-1.894l18.64-18.64c3.954-3.954 10.363-3.954 14.317 0l55.015 55.014c3.953 3.954 3.953 10.363 0 14.317l-18.64 18.64c-3.08 3.079-3.809 7.765-1.895 11.676a171.101 171.101 0 0 1 8.19 19.776c1.411 4.118 5.24 6.913 9.593 6.913h26.364c5.591 0 10.123 4.533 10.123 10.123v77.803c0 5.591-4.532 10.124-10.123 10.124h-26.364c-4.353 0-8.182 2.795-9.593 6.912a171.116 171.116 0 0 1-8.19 19.777c-1.914 3.911-1.185 8.596 1.895 11.675l18.64 18.641c3.953 3.953 3.953 10.363 0 14.317l-55.015 55.014c-3.954 3.954-10.363 3.954-14.317 0l-18.64-18.64c-3.079-3.079-7.765-3.809-11.676-1.894a171.096 171.096 0 0 1-19.776 8.189c-4.117 1.412-6.913 5.241-6.913 9.593v26.364C68.094-4.533 63.562 0 57.971 0H35" style="stroke-width:15;stroke-linecap:round;stroke-linejoin:round;stroke-miterlimit:10;stroke-dasharray:none;stroke-opacity:1" transform="translate(236.93 465.097)" fill="none" stroke="#154194" stroke-width="15" stroke-linecap="round" stroke-linejoin="round" stroke-miterlimit="10" stroke-dasharray="none" stroke-opacity="" data-original="#000000" opacity="1"></path><path d="M0 0c-16.862-9.704-36.418-15.254-57.271-15.254-63.506 0-114.989 51.482-114.989 114.988 0 63.507 51.483 114.989 114.989 114.989 63.507 0 114.99-51.482 114.99-114.989 0-30.093-11.561-57.486-30.482-77.981" style="stroke-width:15;stroke-linecap:round;stroke-linejoin:round;stroke-miterlimit:10;stroke-dasharray:none;stroke-opacity:1" transform="translate(313.27 156.266)" fill="none" stroke="#154194" stroke-width="15" stroke-linecap="round" stroke-linejoin="round" stroke-miterlimit="10" stroke-dasharray="none" stroke-opacity="" data-original="#000000" opacity="1"></path><path d="M0 0h-29.7v-70.484H0" style="stroke-width:15;stroke-linecap:round;stroke-linejoin:round;stroke-miterlimit:10;stroke-dasharray:none;stroke-opacity:1" transform="translate(206.866 291.242)" fill="none" stroke="#154194" stroke-width="15" stroke-linecap="round" stroke-linejoin="round" stroke-miterlimit="10" stroke-dasharray="none" stroke-opacity="" data-original="#000000" opacity="1"></path><path d="M0 0h-27.51" style="stroke-width:15;stroke-linecap:round;stroke-linejoin:round;stroke-miterlimit:10;stroke-dasharray:none;stroke-opacity:1" transform="translate(204.676 256)" fill="none" stroke="#154194" stroke-width="15" stroke-linecap="round" stroke-linejoin="round" stroke-miterlimit="10" stroke-dasharray="none" stroke-opacity="" data-original="#000000" opacity="1"></path><path d="m0 0 29.881-33.951" style="stroke-width:15;stroke-linecap:round;stroke-linejoin:round;stroke-miterlimit:10;stroke-dasharray:none;stroke-opacity:1" transform="translate(240.2 254.384)" fill="none" stroke="#154194" stroke-width="15" stroke-linecap="round" stroke-linejoin="round" stroke-miterlimit="10" stroke-dasharray="none" stroke-opacity="" data-original="#000000" opacity="1"></path><path d="M0 0v-71.134" style="stroke-width:15;stroke-linecap:round;stroke-linejoin:round;stroke-miterlimit:10;stroke-dasharray:none;stroke-opacity:1" transform="translate(231.621 291.567)" fill="none" stroke="#154194" stroke-width="15" stroke-linecap="round" stroke-linejoin="round" stroke-miterlimit="10" stroke-dasharray="none" stroke-opacity="" data-original="#000000" opacity="1"></path><path d="M0 0c0-10.21-8.952-18.487-19.533-18.487-5.247 0-18.772-.081-18.772-.081S-38.389-5.146-38.389 0c0 4.227-.047 18.487-.047 18.487h18.903C-8.952 18.487 0 10.21 0 0Z" style="stroke-width:15;stroke-linecap:round;stroke-linejoin:round;stroke-miterlimit:10;stroke-dasharray:none;stroke-opacity:1" transform="translate(270.08 273.08)" fill="none" stroke="#154194" stroke-width="15" stroke-linecap="round" stroke-linejoin="round" stroke-miterlimit="10" stroke-dasharray="none" stroke-opacity="" data-original="#000000" opacity="1"></path><path d="M0 0v-71.134" style="stroke-width:15;stroke-linecap:round;stroke-linejoin:round;stroke-miterlimit:10;stroke-dasharray:none;stroke-opacity:1" transform="translate(294.56 291.567)" fill="none" stroke="#154194" stroke-width="15" stroke-linecap="round" stroke-linejoin="round" stroke-miterlimit="10" stroke-dasharray="none" stroke-opacity="" data-original="#000000" opacity="1"></path><path d="M0 0c0-11.087-9.381-20.074-20.468-20.074-5.498 0-19.669-.089-19.669-.089S-40.226-5.588-40.226 0c0 4.59-.048 20.074-.048 20.074h19.806C-9.381 20.074 0 11.086 0 0Z" style="stroke-width:15;stroke-linecap:round;stroke-linejoin:round;stroke-miterlimit:10;stroke-dasharray:none;stroke-opacity:1" transform="translate(334.834 271.493)" fill="none" stroke="#154194" stroke-width="15" stroke-linecap="round" stroke-linejoin="round" stroke-miterlimit="10" stroke-dasharray="none" stroke-opacity="" data-original="#000000" opacity="1"></path><path d="m0 0-34.74-34.74" style="stroke-width:15;stroke-linecap:round;stroke-linejoin:round;stroke-miterlimit:10;stroke-dasharray:none;stroke-opacity:1" transform="translate(459.26 459.26)" fill="none" stroke="#154194" stroke-width="15" stroke-linecap="round" stroke-linejoin="round" stroke-miterlimit="10" stroke-dasharray="none" stroke-opacity="" data-original="#000000" opacity="1"></path><path d="M0 0c0-14.636-11.864-26.5-26.5-26.5S-53-14.636-53 0s11.864 26.5 26.5 26.5S0 14.636 0 0Z" style="stroke-width:15;stroke-linecap:round;stroke-linejoin:round;stroke-miterlimit:10;stroke-dasharray:none;stroke-opacity:1" transform="translate(504.5 478)" fill="none" stroke="#154194" stroke-width="15" stroke-linecap="round" stroke-linejoin="round" stroke-miterlimit="10" stroke-dasharray="none" stroke-opacity="" data-original="#000000" opacity="1"></path><path d="m0 0-34.74 34.74" style="stroke-width:15;stroke-linecap:round;stroke-linejoin:round;stroke-miterlimit:10;stroke-dasharray:none;stroke-opacity:1" transform="translate(87.48 424.52)" fill="none" stroke="#154194" stroke-width="15" stroke-linecap="round" stroke-linejoin="round" stroke-miterlimit="10" stroke-dasharray="none" stroke-opacity="" data-original="#000000" opacity="1"></path><path d="M0 0c0-14.636 11.864-26.5 26.5-26.5S53-14.636 53 0 41.136 26.5 26.5 26.5 0 14.636 0 0Z" style="stroke-width:15;stroke-linecap:round;stroke-linejoin:round;stroke-miterlimit:10;stroke-dasharray:none;stroke-opacity:1" transform="translate(7.5 478)" fill="none" stroke="#154194" stroke-width="15" stroke-linecap="round" stroke-linejoin="round" stroke-miterlimit="10" stroke-dasharray="none" stroke-opacity="" data-original="#000000" opacity="1"></path><path d="m0 0-34.74 34.74" style="stroke-width:15;stroke-linecap:round;stroke-linejoin:round;stroke-miterlimit:10;stroke-dasharray:none;stroke-opacity:1" transform="translate(459.26 52.74)" fill="none" stroke="#154194" stroke-width="15" stroke-linecap="round" stroke-linejoin="round" stroke-miterlimit="10" stroke-dasharray="none" stroke-opacity="" data-original="#000000" opacity="1"></path><path d="M0 0c0 14.636-11.864 26.5-26.5 26.5S-53 14.636-53 0s11.864-26.5 26.5-26.5S0-14.636 0 0Z" style="stroke-width:15;stroke-linecap:round;stroke-linejoin:round;stroke-miterlimit:10;stroke-dasharray:none;stroke-opacity:1" transform="translate(504.5 34)" fill="none" stroke="#154194" stroke-width="15" stroke-linecap="round" stroke-linejoin="round" stroke-miterlimit="10" stroke-dasharray="none" stroke-opacity="" data-original="#000000" opacity="1"></path><path d="m0 0-34.74-34.74" style="stroke-width:15;stroke-linecap:round;stroke-linejoin:round;stroke-miterlimit:10;stroke-dasharray:none;stroke-opacity:1" transform="translate(87.48 87.48)" fill="none" stroke="#154194" stroke-width="15" stroke-linecap="round" stroke-linejoin="round" stroke-miterlimit="10" stroke-dasharray="none" stroke-opacity="" data-original="#000000" opacity="1"></path><path d="M0 0c0 14.636 11.864 26.5 26.5 26.5S53 14.636 53 0 41.136-26.5 26.5-26.5 0-14.636 0 0Z" style="stroke-width:15;stroke-linecap:round;stroke-linejoin:round;stroke-miterlimit:10;stroke-dasharray:none;stroke-opacity:1" transform="translate(7.5 34)" fill="none" stroke="#154194" stroke-width="15" stroke-linecap="round" stroke-linejoin="round" stroke-miterlimit="10" stroke-dasharray="none" stroke-opacity="" data-original="#000000" opacity="1"></path></g></g></svg>