<svg xmlns="http://www.w3.org/2000/svg" version="1.1" xmlns:xlink="http://www.w3.org/1999/xlink" width="512" height="512" x="0" y="0" viewBox="0 0 512 512" style="enable-background:new 0 0 512 512" xml:space="preserve" class=""><g><path d="M502.005 438.395h-13.194a26.715 26.715 0 0 0 4.492-14.853V189.201c0-14.817-12.056-26.873-26.873-26.873H363.449v-39.021l22.567-13.024c12.168 17.232 32.222 28.519 54.875 28.519 37.013 0 67.125-30.125 67.125-67.153S477.902 4.524 440.89 4.524s-67.152 30.112-67.152 67.125a66.737 66.737 0 0 0 6.247 28.238l-25.55 14.747a6.012 6.012 0 0 0-3.006 5.205v42.49h-89.404v-24.152c32.765-4.432 58.11-32.567 58.11-66.527 0-37.013-30.125-67.125-67.153-67.125s-67.125 30.112-67.125 67.125c0 36.03 28.513 65.513 64.148 67.078v23.602h-89.433v-42.49a6.01 6.01 0 0 0-3.006-5.205L132.018 99.89a66.752 66.752 0 0 0 6.245-28.239c0-37.013-30.112-67.125-67.125-67.125S3.985 34.636 3.985 71.649s30.125 67.153 67.153 67.153c22.642 0 42.687-11.285 54.851-28.516l22.563 13.022v39.021H45.599c-14.817 0-26.873 12.056-26.873 26.873v234.341a26.715 26.715 0 0 0 4.492 14.853H9.995a6.01 6.01 0 0 0-6.01 6.01v28.517c0 19.054 15.501 34.555 34.555 34.555h434.948c19.038 0 34.526-15.501 34.526-34.555v-28.517a6.01 6.01 0 0 0-6.01-6.01zM440.89 16.543c30.386 0 55.105 24.72 55.105 55.105s-24.72 55.134-55.105 55.134-55.133-24.732-55.133-55.134 24.732-55.105 55.133-55.105zM279.209 120.134l-29.989-29.99 27.659-27.659 27.945 27.923c-4.628 12.75-13.829 23.324-25.615 29.725zM252.981 16.543c30.401 0 55.134 24.72 55.134 55.105 0 1.63-.085 3.239-.225 4.833l-26.766-26.744a6.007 6.007 0 0 0-8.497.002l-31.906 31.907-13.936-13.936a6.007 6.007 0 0 0-8.498 0l-18.458 18.458a55.009 55.009 0 0 1-1.954-14.521c0-30.386 24.72-55.105 55.105-55.105zm-48.243 81.714 17.799-17.798 44.501 44.501a55.013 55.013 0 0 1-14.057 1.823c-20.746 0-38.844-11.534-48.243-28.525zm-133.6 28.525c-30.401 0-55.134-24.732-55.134-55.134s24.732-55.105 55.134-55.105 55.105 24.72 55.105 55.105-24.72 55.134-55.105 55.134zm280.29 47.565v18.737h-89.404v-18.737zm-28.544 79.428h68.853v10.062c0 2.362-1.463 4.277-3.739 4.882l-20.183 5.414a6.01 6.01 0 0 0-4.224 4.161 110.92 110.92 0 0 1-9.921 23.903 6.011 6.011 0 0 0 .037 5.945l10.452 18.101c1.173 2.042.854 4.447-.79 6.104l-22.749 22.751c-1.682 1.667-4.087 1.984-6.115.82l-18.113-10.46a6.012 6.012 0 0 0-5.931-.045 112.358 112.358 0 0 1-23.918 9.929 6.01 6.01 0 0 0-4.16 4.222l-5.42 20.177c-.602 2.276-2.516 3.746-4.877 3.746h-32.173c-2.361 0-4.275-1.471-4.884-3.769l-5.414-20.154a6.01 6.01 0 0 0-4.16-4.222 112.226 112.226 0 0 1-23.916-9.929 6.014 6.014 0 0 0-5.936.047l-18.055 10.442c-2.068 1.181-4.489.863-6.146-.782l-22.74-22.768c-1.669-1.669-1.986-4.057-.798-6.103l10.432-18.113a6.013 6.013 0 0 0 .041-5.926c-4.251-7.622-7.58-15.663-9.896-23.899a6.011 6.011 0 0 0-4.229-4.179l-20.195-5.417c-2.281-.606-3.755-2.521-3.755-4.879v-10.062h68.88c3.051 34.221 31.869 61.143 66.871 61.143s63.818-26.922 66.87-61.143zm-66.87 49.123c-28.371 0-51.806-21.538-54.809-49.123h109.616c-3.003 27.585-26.438 49.123-54.808 49.123zm-61.144-61.143h-34.299v-36.651h89.433v36.651zm-46.318 0h-34.299a6.01 6.01 0 0 0-6.01 6.01v16.072c0 7.849 5.099 14.478 12.674 16.491l16.936 4.543a122.83 122.83 0 0 0 8.355 20.171l-8.748 15.19c-3.937 6.778-2.851 15.064 2.704 20.618l22.751 22.779c5.533 5.491 13.81 6.582 20.62 2.694l15.179-8.779a124.308 124.308 0 0 0 20.163 8.371l4.539 16.897c2.009 7.592 8.638 12.692 16.497 12.692h32.173c7.86 0 14.489-5.102 16.49-12.671l4.545-16.919a124.344 124.344 0 0 0 20.166-8.372l15.221 8.79c6.763 3.881 15.031 2.796 20.599-2.726l22.772-22.773c5.501-5.543 6.587-13.812 2.696-20.589l-8.778-15.201a122.946 122.946 0 0 0 8.369-20.172l16.932-4.542c7.571-2.013 12.658-8.642 12.658-16.494v-16.072a6.01 6.01 0 0 0-6.01-6.01h-34.299v-36.651h87.079v202.534H61.501V205.102h87.052v36.651zm202.876 0h-89.404v-36.651h89.404zm-101.424-67.408v18.737h-89.433v-18.737zM30.745 423.542V189.201c0-8.19 6.663-14.854 14.854-14.854h102.954v18.737H55.491a6.01 6.01 0 0 0-6.01 6.01v214.554a6.01 6.01 0 0 0 6.01 6.01h401.046a6.01 6.01 0 0 0 6.01-6.01V199.094a6.01 6.01 0 0 0-6.01-6.01h-93.089v-18.737h102.981c8.19 0 14.854 6.663 14.854 14.854v234.341c0 8.189-6.663 14.853-14.854 14.853H45.599c-8.19 0-14.854-6.663-14.854-14.853zm167.471 26.872h115.568v8.249c0 4.548-3.7 8.248-8.249 8.248h-99.07c-4.549 0-8.249-3.7-8.249-8.248zm297.779 22.507c0 12.426-10.097 22.535-22.507 22.535H38.54c-12.426 0-22.535-10.109-22.535-22.535v-22.507h170.191v8.249c0 11.176 9.093 20.268 20.269 20.268h99.07c11.176 0 20.269-9.092 20.269-20.268v-8.249h170.191zm-75.897-369.84a11.44 11.44 0 0 0 5.707 1.539c1.966 0 3.935-.516 5.732-1.548l37.176-21.478c3.594-2.062 5.739-5.781 5.739-9.946s-2.143-7.85-5.731-9.913l-37.199-21.492c-3.578-2.053-7.85-2.052-11.387-.021-3.635 2.052-5.806 5.778-5.806 9.968v42.944c0 4.131 2.146 7.844 5.769 9.946zm6.251-51.946 35.529 20.528-35.529 20.527V51.134zm-182.75 9.998c9.737 0 17.66-7.91 17.66-17.632s-7.923-17.66-17.66-17.66-17.632 7.923-17.632 17.66 7.91 17.632 17.632 17.632zm0-23.272c3.11 0 5.641 2.53 5.641 5.641 0 3.095-2.53 5.612-5.641 5.612a5.618 5.618 0 0 1-5.612-5.612c0-3.11 2.518-5.641 5.612-5.641zM99.827 48.774a6.01 6.01 0 0 1-6.01 6.01H48.434a6.01 6.01 0 1 1 0-12.02h45.383a6.01 6.01 0 0 1 6.01 6.01zm0 22.875a6.01 6.01 0 0 1-6.01 6.01H48.434a6.01 6.01 0 1 1 0-12.02h45.383a6.01 6.01 0 0 1 6.01 6.01zm0 22.876a6.01 6.01 0 0 1-6.01 6.01H48.434a6.01 6.01 0 1 1 0-12.02h45.383a6.01 6.01 0 0 1 6.01 6.01z" fill="#154194" opacity="1" data-original="#000000"></path></g></svg>