<svg xmlns="http://www.w3.org/2000/svg" version="1.1" xmlns:xlink="http://www.w3.org/1999/xlink" width="512" height="512" x="0" y="0" viewBox="0 0 512 512" style="enable-background:new 0 0 512 512" xml:space="preserve" class=""><g><path d="M504 370.937h-21.499v-46a8 8 0 0 0-8-8h-52a8 8 0 0 0-8 8v46h-35v-46a8 8 0 0 0-8-8h-52a8 8 0 0 0-8 8v46h-35v-46a8 8 0 0 0-8-8h-52a8 8 0 0 0-8 8v46H179.32v-4.027c0-11.043-8.984-20.027-20.027-20.027h-4.256l-34.392-129.994L254.354 99.287l60.44 52.828a29.839 29.839 0 0 0 6.732 17.315c-19.752 8.889-33.546 28.742-33.546 51.769 0 20.18 10.858 39.006 28.337 49.132a7.998 7.998 0 0 0 12.01-6.922v-38.291l15.902-9.182 15.902 9.182v38.855a8.003 8.003 0 0 0 8 8 7.999 7.999 0 0 0 3.846-.985c18.197-9.978 29.501-29.056 29.501-49.789 0-23.027-13.794-42.88-33.545-51.769a29.84 29.84 0 0 0 6.779-18.965c0-15.979-12.565-29.076-28.333-29.936l-52.906-60.501c-2.705-16.062-16.701-28.338-33.52-28.338-9.061 0-17.298 3.569-23.399 9.367L62.236 148.118l.013.022c-13.595 7.898-22.763 22.611-22.763 39.434 0 1.616 8.796 159.308 8.796 159.308h-1.755c-11.042 0-20.026 8.984-20.026 20.027v4.027H8a8 8 0 0 0-8 8v93.373a8 8 0 0 0 8 8h496a8 8 0 0 0 8-8v-93.373a8 8 0 0 0-8-7.999zm-73.499-38h36v38h-36zm-103 0h36v38h-36zm-103 0h36v38h-36zM99.147 144.226l126.825-77.891c.194 10.324 5.004 19.538 12.457 25.651l-107.795 94.81c-.337-19.883-13.458-36.701-31.487-42.57zm191.248-63.413 38.602 44.144a30.223 30.223 0 0 0-9.777 9.777l-44.157-38.596a34.223 34.223 0 0 0 15.332-15.325zm95.085 140.386a40.743 40.743 0 0 1-9.348 25.971v-26.671a8 8 0 0 0-4-6.928l-23.902-13.8a7.992 7.992 0 0 0-8 0l-23.902 13.8a7.999 7.999 0 0 0-4 6.928v25.381c-5.32-7-8.348-15.651-8.348-24.681 0-22.47 18.28-40.75 40.75-40.75s40.75 18.28 40.75 40.75zm-26.766-70.733c0 7.711-6.273 13.983-13.984 13.983-7.71 0-13.983-6.272-13.983-13.983s6.273-13.983 13.983-13.983c7.711-.001 13.984 6.272 13.984 13.983zM259.956 47.69c9.925 0 18 8.075 18 18s-8.075 18-18 18-18-8.075-18-18 8.074-18 18-18zM85.069 157.991c16.313 0 29.584 13.271 29.584 29.583s-13.271 29.584-29.584 29.584-29.583-13.271-29.583-29.584 13.271-29.583 29.583-29.583zm-27.565 65.856c7.661 5.836 17.214 9.311 27.566 9.311 7.913 0 15.359-2.03 21.851-5.591l31.566 119.314h-74.18zM42.501 366.909c0-2.183 1.844-4.027 4.026-4.027h112.765c2.183 0 4.027 1.845 4.027 4.027v4.027H42.501zM496 386.937v20.372H16v-20.372zM16 464.31v-41.001h480v41.001z" fill="#154194" opacity="1" data-original="#000000"></path></g></svg>