<svg xmlns="http://www.w3.org/2000/svg" version="1.1" xmlns:xlink="http://www.w3.org/1999/xlink" width="512" height="512" x="0" y="0" viewBox="0 0 512 512" style="enable-background:new 0 0 512 512" xml:space="preserve" class=""><g><path d="M163.625 38.56h309.811V7.5H38.564v31.06h92.371M365.515 100.69h61.85c8.29 0 15-6.72 15-15V38.56h-248.49v47.13c0 8.28 6.71 15 15 15h123.96M365.515 100.69h45.79v109.25c0 8.28-6.71 15-15 15h-156.37c-8.29 0-15-6.72-15-15V100.69h107.9M287.055 287.451v30.67h62.13v-93.18h-62.13v29.82M318.12 504.5h0a23.298 23.298 0 0 1-21.505-14.336l-58.242-139.781c-6.394-15.345 4.881-32.257 21.505-32.257h116.484c16.624 0 27.899 16.912 21.505 32.257l-58.242 139.781A23.298 23.298 0 0 1 318.12 504.5zM318.118 318.126l67.304 62.124M259.878 318.126l108.163 103.837M349.182 464.439l-104.835-99.72" style="stroke-width:15;stroke-linecap:round;stroke-linejoin:round;stroke-miterlimit:10;" fill="none" stroke="#154194" stroke-width="15" stroke-linecap="round" stroke-linejoin="round" stroke-miterlimit="10" data-original="#000000" opacity="1"></path><path d="M224.933 131.751h62.125v62.125h-62.125zM349.182 131.751h62.125v62.125h-62.125z" style="stroke-width:15;stroke-linecap:round;stroke-linejoin:round;stroke-miterlimit:10;" fill="none" stroke="#154194" stroke-width="15" stroke-linecap="round" stroke-linejoin="round" stroke-miterlimit="10" data-original="#000000" opacity="1"></path><path d="M100.683 38.564v124.117c0 34.384 27.873 62.257 62.257 62.257h0c17.082 0 30.93 13.848 30.93 30.93v.265c0 17.082 13.848 30.93 30.93 30.93h0c17.186 0 31.076-14.01 30.929-31.195l-.265-30.93" style="stroke-width:15;stroke-linecap:round;stroke-linejoin:round;stroke-miterlimit:10;" fill="none" stroke="#154194" stroke-width="15" stroke-linecap="round" stroke-linejoin="round" stroke-miterlimit="10" data-original="#000000" opacity="1"></path></g></svg>