<svg xmlns="http://www.w3.org/2000/svg" version="1.1" xmlns:xlink="http://www.w3.org/1999/xlink" width="512" height="512" x="0" y="0" viewBox="0 0 512 512" style="enable-background:new 0 0 512 512" xml:space="preserve" class=""><g><path d="M112 200H16a8 8 0 0 0-8 8v96a8 8 0 0 0 8 8h96a8 8 0 0 0 8-8v-96a8 8 0 0 0-8-8zm-8 96H24v-80h80zM400 120h96a8 8 0 0 0 8-8V16a8 8 0 0 0-8-8h-96a8 8 0 0 0-8 8v40H256a8 8 0 0 0-8 8v184h-80a8 8 0 0 0 0 16h80v184a8 8 0 0 0 8 8h136v40a8 8 0 0 0 8 8h96a8 8 0 0 0 8-8v-96a8 8 0 0 0-8-8h-96a8 8 0 0 0-8 8v40H264V264h64v40a8 8 0 0 0 8 8h96a8 8 0 0 0 8-8v-96a8 8 0 0 0-8-8h-96a8 8 0 0 0-8 8v40h-64V72h128v40a8 8 0 0 0 8 8zm8-96h80v80h-80zm0 384h80v80h-80zm-64-192h80v80h-80zM144 248h-8a8 8 0 0 0 0 16h8a8 8 0 0 0 0-16z" fill="#154194" opacity="1" data-original="#000000"></path></g></svg>