<svg xmlns="http://www.w3.org/2000/svg" version="1.1" xmlns:xlink="http://www.w3.org/1999/xlink" width="512" height="512" x="0" y="0" viewBox="0 0 64 64" style="enable-background:new 0 0 512 512" xml:space="preserve"><g><path d="M49 48h-9v-9a1 1 0 0 0-1-1H29a1 1 0 0 0-1 1v9h-5v-9a1 1 0 0 0-1-1H12a1 1 0 0 0-1 1v9H9c-3.859 0-7 3.141-7 7s3.141 7 7 7h40c3.859 0 7-3.141 7-7s-3.141-7-7-7zm-19-8h3v3h2v-3h3v8h-8zm-17 0h3v3h2v-3h3v8h-8zm36 20H9c-2.757 0-5-2.243-5-5s2.243-5 5-5h40c2.757 0 5 2.243 5 5s-2.243 5-5 5z" fill="#154194" opacity="1" data-original="#000000"></path><path d="M56.707 36.293A1 1 0 0 0 55 37v2h-9a1 1 0 0 0-1 1v4a1 1 0 0 0 1 1h9v2a.999.999 0 0 0 1.707.707l5-5a.999.999 0 0 0 0-1.414zM57 44.586V44a1 1 0 0 0-1-1h-9v-2h9a1 1 0 0 0 1-1v-.586L59.586 42zM9 52c-1.654 0-3 1.346-3 3s1.346 3 3 3 3-1.346 3-3-1.346-3-3-3zm0 4a1 1 0 1 1 0-2 1 1 0 0 1 0 2zM19 52c-1.654 0-3 1.346-3 3s1.346 3 3 3 3-1.346 3-3-1.346-3-3-3zm0 4a1 1 0 1 1 0-2 1 1 0 0 1 0 2zM29 52c-1.654 0-3 1.346-3 3s1.346 3 3 3 3-1.346 3-3-1.346-3-3-3zm0 4a1 1 0 1 1 0-2 1 1 0 0 1 0 2zM39 52c-1.654 0-3 1.346-3 3s1.346 3 3 3 3-1.346 3-3-1.346-3-3-3zm0 4a1 1 0 1 1 0-2 1 1 0 0 1 0 2zM49 52c-1.654 0-3 1.346-3 3s1.346 3 3 3 3-1.346 3-3-1.346-3-3-3zm0 4a1 1 0 1 1 0-2 1 1 0 0 1 0 2zM32 23c2.757 0 5-2.243 5-5s-2.243-5-5-5-5 2.243-5 5 2.243 5 5 5zm0-8c1.654 0 3 1.346 3 3s-1.346 3-3 3-3-1.346-3-3 1.346-3 3-3z" fill="#154194" opacity="1" data-original="#000000"></path><path d="M22 15a1 1 0 0 0-1 1v4a1 1 0 0 0 1 1l1.537.04c.096.271.206.534.348.833l-1.077 1.077a.999.999 0 0 0 0 1.414l2.828 2.828a.999.999 0 0 0 1.414 0l1.118-1.057c.258.121.521.231.832.34V28a1 1 0 0 0 1 1h4a1 1 0 0 0 1-1l.04-1.537c.271-.096.534-.206.833-.348l1.077 1.077a.999.999 0 0 0 1.414 0l2.828-2.828a.999.999 0 0 0 0-1.414l-1.057-1.118c.121-.258.231-.521.34-.832H42a1 1 0 0 0 1-1v-4a1 1 0 0 0-1-1l-1.537-.04a8.578 8.578 0 0 0-.348-.833l1.077-1.077a.999.999 0 0 0 0-1.414l-2.828-2.828a.999.999 0 0 0-1.414 0l-1.118 1.057A8.383 8.383 0 0 0 35 9.524V8a1 1 0 0 0-1-1h-4a1 1 0 0 0-1 1l-.04 1.537a8.578 8.578 0 0 0-.833.348L27.05 8.808a.999.999 0 0 0-1.414 0l-2.828 2.828a.999.999 0 0 0 0 1.414l1.057 1.118a8.636 8.636 0 0 0-.34.832zm3.299-2.287-.37-.37 1.414-1.414.37.37c.603.603 1.511.75 2.309.374.197-.094.4-.177.612-.253.83-.299 1.366-1.043 1.366-1.896V9h2v.524c0 .853.536 1.597 1.37 1.897.208.074.411.157.609.252.799.374 1.705.229 2.308-.375l.37-.37 1.414 1.414-.37.37c-.604.604-.75 1.509-.374 2.309.094.197.177.4.253.612.299.831 1.043 1.367 1.896 1.367H41v2h-.524c-.853 0-1.597.536-1.897 1.37a6.238 6.238 0 0 1-.252.609c-.375.799-.229 1.704.375 2.308l.37.37-1.414 1.414-.37-.37c-.603-.603-1.51-.751-2.309-.374a6.54 6.54 0 0 1-.612.253c-.831.299-1.367 1.043-1.367 1.896V27h-2v-.524c0-.853-.536-1.597-1.37-1.897a6.238 6.238 0 0 1-.609-.252c-.798-.374-1.704-.227-2.308.375l-.37.37-1.414-1.414.37-.37c.604-.604.75-1.509.374-2.309a6.54 6.54 0 0 1-.253-.612C25.121 19.536 24.377 19 23.524 19H23v-2h.524c.853 0 1.597-.536 1.897-1.37.074-.208.157-.411.252-.609.376-.799.229-1.705-.374-2.308z" fill="#154194" opacity="1" data-original="#000000"></path><path d="M17.861 22h-.008c-.418 0-.792.26-.938.652l-1.854 5 1.875.695 1.003-2.704A16.038 16.038 0 0 0 32 34c8.822 0 16-7.178 16-16h-2c0 7.72-6.28 14-14 14a14.027 14.027 0 0 1-13.204-9.333 1 1 0 0 0-.935-.667zM47.031 7.752l-.768 2.992C43.574 5.473 38.087 2 32 2c-8.822 0-16 7.178-16 16h2c0-7.72 6.28-14 14-14 6.278 0 11.828 4.222 13.497 10.266a1 1 0 0 0 .964.734h.009a1 1 0 0 0 .96-.752l1.539-6z" fill="#154194" opacity="1" data-original="#000000"></path></g></svg>