<svg xmlns="http://www.w3.org/2000/svg" version="1.1" xmlns:xlink="http://www.w3.org/1999/xlink" width="512" height="512" x="0" y="0" viewBox="0 0 60 61" style="enable-background:new 0 0 512 512" xml:space="preserve" class=""><g><g fill="none"><g transform="translate(0 1)"><path fill="#2c5fb8" d="M43 28v18l-3 2-3-2V28z" opacity="1" data-original="#7facfa" class=""></path><path fill="#a4c2f7" d="M40 28v20l-3-2V28z" opacity="1" data-original="#a4c2f7"></path><path fill="#cad9fc" d="m51 16-6.71 11.5a1 1 0 0 1-.86.5h-6.86a1 1 0 0 1-.86-.5L29 16z" opacity="1" data-original="#cad9fc"></path><path fill="#e8edfc" d="m48 16-6.71 11.5a1 1 0 0 1-.86.5h-3.86a1 1 0 0 1-.86-.5L29 16zM59 47v11a1 1 0 0 1-1 1H2a1 1 0 0 1-1-1V47a1 1 0 0 1 1-1h7.5a2 2 0 0 1 1.79 1.22c1.48 3.1 8.52 5.51 17.21 5.76L30 53c9.37 0 17.15-2.5 18.71-5.78A2 2 0 0 1 50.5 46H58a1 1 0 0 1 1 1z" opacity="1" data-original="#e8edfc"></path><g fill="#cad9fc"><path d="M58 46h-3a1 1 0 0 1 1 1v11a1 1 0 0 1-1 1h3a1 1 0 0 0 1-1V47a1 1 0 0 0-1-1zM17.26 42.74a2 2 0 0 1-2.49-2.68 5.28 5.28 0 0 0-2.37-6.93 9.23 9.23 0 0 1-4.11-12 5.27 5.27 0 0 0-2.37-6.93 9.24 9.24 0 0 1-4.11-12 2 2 0 0 1 2.63-1.04 2 2 0 0 1 1 2.62 5.27 5.27 0 0 0 2.38 6.93 9.25 9.25 0 0 1 4.1 12 5.29 5.29 0 0 0 2.37 6.93 9.23 9.23 0 0 1 4.11 12 2 2 0 0 1-1.14 1.1zM22 28a2 2 0 0 1-1.15-3.63c.19-.16 1.59-1.4.29-4.63a2.002 2.002 0 0 1 3.72-1.48c2.57 6.43-1.57 9.29-1.75 9.4A2 2 0 0 1 22 28zM1.25 34a2 2 0 0 1 3.75.78c0 .24.45 2.06 3.91 2.48a2.015 2.015 0 1 1-.49 4C1.54 40.39 1 35.38 1 35.17A1.89 1.89 0 0 1 1.25 34z" fill="#cad9fc" opacity="1" data-original="#cad9fc"></path></g><path fill="#a4c2f7" d="M51 16v-6H29v6z" opacity="1" data-original="#a4c2f7"></path><rect width="32" height="9" x="24" y="1" fill="#cad9fc" rx="1" opacity="1" data-original="#cad9fc"></rect><rect width="29" height="9" x="24" y="1" fill="#e8edfc" rx="1" opacity="1" data-original="#e8edfc"></rect></g><g fill="#fff"><path d="M2 60h3a1 1 0 0 1-1-1V48a1 1 0 0 1 1-1H2a1 1 0 0 0-1 1v11a1 1 0 0 0 1 1zM8.41 42.23a2 2 0 0 0 1.34-.32C4.47 40.53 4 36.37 4 36.17a2 2 0 0 1 .49-1.49A2 2 0 0 0 1 36.17c0 .21.54 5.22 7.41 6.06zM1.81 3.22a9.24 9.24 0 0 0 4.11 12 5.27 5.27 0 0 1 2.37 6.93 9.23 9.23 0 0 0 4.11 12 5.28 5.28 0 0 1 2.37 6.93 2 2 0 0 0 3.34 2.1 2 2 0 0 1-.34-2.1 5.28 5.28 0 0 0-2.37-6.93 9.23 9.23 0 0 1-4.11-12 5.27 5.27 0 0 0-2.37-6.93 9.24 9.24 0 0 1-4.11-12 2 2 0 0 1 .35-.53 2 2 0 0 0-3.35.53z" fill="#ffffff" opacity="1" data-original="#ffffff" class=""></path></g><path fill="#ffffff" d="m.24 9.25 2-.42a8.39 8.39 0 0 0 4.22 5.5l-1 1.75A10.45 10.45 0 0 1 .24 9.25z" opacity="1" data-original="#ffffff" class=""></path><g fill="#428dff" transform="translate(-1)"><path d="M58 10V3a2 2 0 0 0-2-2H26a2 2 0 0 0-2 2v7a2 2 0 0 0 2 2h3v5c.01.175.058.345.14.5L35.85 29a2 2 0 0 0 1.15.9V47a1 1 0 0 0 .45.83l3 2a1 1 0 0 0 1.1 0l3-2A1 1 0 0 0 45 47V29.91a2 2 0 0 0 1.15-.9l6.71-11.51A1.22 1.22 0 0 0 53 17v-5h3a2 2 0 0 0 2-2zM43 46.46l-2 1.34-2-1.3 4-2.63zm0-5-4 2.67v-2.59l4-2.67zm0-5-4 2.67v-2.59l4-2.67zm0-5-4 2.67V30h4zM51 16H40a1 1 0 0 0 0 2h10.26l-5.83 10h-6.86l-5.83-10H35a1 1 0 0 0 0-2h-4v-4h20zm1-6H26V3h2v2a1 1 0 0 0 2 0V3h2v2a1 1 0 0 0 2 0V3h2v2a1 1 0 0 0 2 0V3h2v2a1 1 0 0 0 2 0V3h2v2a1 1 0 0 0 2 0V3h2v2a1 1 0 0 0 2 0V3h2v2a1 1 0 0 0 2 0V3h2v7z" fill="#154194" opacity="1" data-original="#428dff" class=""></path><path d="M60 46h-8.5a3 3 0 0 0-2.69 1.79C47.59 50.35 40.6 53 31 53s-16.6-2.65-17.81-5.21A3 3 0 0 0 10.5 46H2a1 1 0 0 0-1 1v13a1 1 0 0 0 1 1h58a1 1 0 0 0 1-1V47a1 1 0 0 0-1-1zm-1 13H3V48h7.5a1 1 0 0 1 .88.64C13.16 52.39 21.23 55 31 55s17.84-2.61 19.62-6.36a1 1 0 0 1 .88-.64H59z" fill="#154194" opacity="1" data-original="#428dff" class=""></path><path d="M33.29 46.71a1 1 0 0 0 1.42 0 1 1 0 0 0 0-1.42l-8-8a1.004 1.004 0 1 0-1.42 1.42zM47.29 46.71a1 1 0 0 0 1.42 0l8-8a1.004 1.004 0 1 0-1.42-1.42l-8 8a1 1 0 0 0 0 1.42z" fill="#154194" opacity="1" data-original="#428dff" class=""></path><circle cx="23" cy="35" r="1" fill="#154194" opacity="1" data-original="#428dff" class=""></circle><circle cx="59" cy="35" r="1" fill="#154194" opacity="1" data-original="#428dff" class=""></circle><path d="M34 40a1 1 0 0 0 .78-1.62l-4-5a1 1 0 1 0-1.56 1.24l4 5A1 1 0 0 0 34 40zM48 40a1 1 0 0 0 .78-.38l4-5a1 1 0 0 0-.15-1.4 1 1 0 0 0-1.41.16l-4 5A1 1 0 0 0 48 40zM4.9 12.65a1 1 0 1 0-2 0 1 1 0 0 0 2 0z" fill="#154194" opacity="1" data-original="#428dff" class=""></path><path d="M16.43 44.6a3 3 0 0 0 1.18.25 3 3 0 0 0 1-.17A3 3 0 0 0 20.37 43a10.21 10.21 0 0 0-4.54-13.26 4.26 4.26 0 0 1-1.94-5.66 10.2 10.2 0 0 0-4.54-13.24 4.27 4.27 0 0 1-1.94-5.66A3 3 0 1 0 1.9 2.82a10.57 10.57 0 0 0-.66 6.43 1 1 0 0 0 1.24.75 1 1 0 0 0 .71-1.17 8.69 8.69 0 0 1 .54-5.22 1 1 0 1 1 1.84.78 6.25 6.25 0 0 0 2.81 8.2 8.25 8.25 0 0 1 3.67 10.72 6.24 6.24 0 0 0 2.81 8.2 8.27 8.27 0 0 1 3.67 10.73 1 1 0 0 1-.6.55 1 1 0 0 1-.71 0 1 1 0 0 1-.53-1.31 6.23 6.23 0 0 0-2.81-8.19 8.27 8.27 0 0 1-3.67-10.76 6.24 6.24 0 0 0-2.8-8.2 1.008 1.008 0 1 0-1 1.75 4.27 4.27 0 0 1 1.94 5.67A10.2 10.2 0 0 0 12.91 35a4.27 4.27 0 0 1 1.94 5.67 3 3 0 0 0 1.58 3.93zM26.79 18.89a3.003 3.003 0 0 0-5.58 2.22c1 2.6.06 3.44.06 3.44a3 3 0 0 0 3.39 4.95c.21-.14 5-3.43 2.13-10.61zm-3.24 8.94a1 1 0 0 1-1.53-1.039 1 1 0 0 1 .45-.641c.37-.28 2.14-1.94.6-5.78a1 1 0 1 1 1.86-.74c2.27 5.68-1.22 8.1-1.38 8.2z" fill="#154194" opacity="1" data-original="#428dff" class=""></path><path d="M1.37 34.56a3 3 0 0 0-.37 1.7c0 .24.6 6 8.28 7 .123.01.247.01.37 0a3.005 3.005 0 0 0 .36-6c-2.77-.34-3-1.6-3-1.6a3 3 0 0 0-5.64-1.1zm1.75 1a1 1 0 0 1 .79-.56H4a1 1 0 0 1 1 .94c.07.47.67 2.81 4.78 3.31a1 1 0 0 1 .87 1.11 1 1 0 0 1-1.12.88C3.46 40.5 3 36.27 3 36.08a1.09 1.09 0 0 1 .12-.56zM7 55H6a1 1 0 0 0 0 2h1a1 1 0 0 0 0-2zM18 55h-7a1 1 0 0 0 0 2h7a1 1 0 0 0 0-2z" fill="#154194" opacity="1" data-original="#428dff" class=""></path></g></g></g></svg>