<!-- Generated by IcoMoon.io -->
<svg version="1.1" xmlns="http://www.w3.org/2000/svg" width="32" height="32" viewBox="0 0 32 32">
<title>camera_center</title>
<path d="M13.333 5.333h-4l6.667 6.667 6.667-6.667h-4v-4h-5.333v4zM1.333 18.667h4v4l6.667-6.667-6.667-6.667v4h-4v5.333zM26.667 22.667v-4h4v-5.333h-4v-4l-6.667 6.667 6.667 6.667zM18.667 26.667h4l-6.667-6.667-6.667 6.667h4v4h5.333v-4zM18.4 16c0 1.467-1.2 2.667-2.667 2.667s-2.667-1.2-2.667-2.667 1.2-2.667 2.667-2.667 2.667 1.2 2.667 2.667z"></path>
</svg>
