<?xml version="1.0" encoding="utf-8"?>
<!-- Generator: Adobe Illustrator 20.0.0, SVG Export Plug-In . SVG Version: 6.00 Build 0)  -->
<svg version="1.1" id="Ebene_1" xmlns="http://www.w3.org/2000/svg" xmlns:xlink="http://www.w3.org/1999/xlink" x="0px" y="0px"
	 viewBox="0 0 24 24" style="enable-background:new 0 0 24 24;" xml:space="preserve">
<path d="M21,2H3C1.9,2,1,2.9,1,4v12c0,1.1,0.9,2,2,2h7v2H8v2h8v-2h-2v-2h7c1.1,0,2-0.9,2-2V4C23,2.9,22.1,2,21,2z M14,9.6l2.2-3.7
	l0.9,0.5L14.4,11l-3.3-1.9l-2.4,4.2h8.4v1H6.9V5.1h1v7.4l2.8-4.8L14,9.6z"/>
</svg>
