<svg id="Ebene_1" data-name="Ebene 1" xmlns="http://www.w3.org/2000/svg" width="270" height="460" viewBox="0 0 270 460"><defs><style>.cls-1{fill:#fff;}.cls-2{fill:#8d8d8d;}.cls-3{fill:#ddd;}.cls-4{fill:none;stroke:#ddd;stroke-miterlimit:10;}.cls-5{fill:#f21600;}</style></defs><title>Thermometer_complete</title><g id="Ebene_3" data-name="Ebene 3"><path class="cls-1" d="M0,0V460H270V0ZM219.76,446.16A33,33,0,0,1,209,381.92V53.66a10.5,10.5,0,0,1,21,0V381.92c14,4.43,22.63,16.87,22.63,31.27A32.92,32.92,0,0,1,219.76,446.16Z"/><path class="cls-2" d="M19.12,11.63a3.52,3.52,0,0,1-1-2.62,3.47,3.47,0,0,1,3.65-3.65A3.47,3.47,0,0,1,25.41,9a3.52,3.52,0,0,1-1,2.62,3.59,3.59,0,0,1-2.64,1A3.59,3.59,0,0,1,19.12,11.63ZM20.27,7.5A2.1,2.1,0,0,0,19.71,9a2.05,2.05,0,0,0,.56,1.5,2,2,0,0,0,1.49.58,2.07,2.07,0,0,0,1.51-.58A2,2,0,0,0,23.86,9a2,2,0,0,0-2.1-2.1A2,2,0,0,0,20.27,7.5Z"/><path class="cls-2" d="M36.49,23Q32.74,23,31.4,21t-1.34-6.83q0-4.75,1.35-6.76t5.07-2a21.72,21.72,0,0,1,4.9.63l-.1,2.25a25.76,25.76,0,0,0-4.5-.4,3.26,3.26,0,0,0-3.05,1.34q-.8,1.34-.8,5t.78,5a3.19,3.19,0,0,0,3,1.34,28.26,28.26,0,0,0,4.55-.37l.07,2.3A23.34,23.34,0,0,1,36.49,23Z"/><path class="cls-3" d="M243,373.28V52a23,23,0,0,0-46,0V373.28a46.61,46.61,0,0,0-23.14,39.92A46.07,46.07,0,1,0,243,373.28Zm-23.14,81.9a42,42,0,0,1-19.91-79l1-.57V52a19,19,0,0,1,38,0V375.65l.91.57a42,42,0,0,1-20,79Z"/></g><line class="cls-4" x1="83" y1="355.57" x2="198.83" y2="355.57"/><line class="cls-4" x1="115.19" y1="339.48" x2="198.83" y2="339.48"/><line class="cls-4" x1="83" y1="323.39" x2="198.83" y2="323.39"/><line class="cls-4" x1="115.19" y1="307.3" x2="198.83" y2="307.3"/><line class="cls-4" x1="83" y1="291.21" x2="198.83" y2="291.21"/><line class="cls-4" x1="115.19" y1="275.12" x2="198.83" y2="275.12"/><line class="cls-4" x1="83" y1="259.04" x2="198.83" y2="259.04"/><line class="cls-4" x1="115.19" y1="242.95" x2="198.83" y2="242.95"/><line class="cls-4" x1="83" y1="226.86" x2="198.83" y2="226.86"/><line class="cls-4" x1="115.19" y1="210.77" x2="198.83" y2="210.77"/><line class="cls-4" x1="83" y1="194.68" x2="198.83" y2="194.68"/><line class="cls-4" x1="115.19" y1="178.59" x2="198.83" y2="178.59"/><line class="cls-4" x1="83" y1="162.5" x2="198.83" y2="162.5"/><line class="cls-4" x1="115.19" y1="146.42" x2="198.83" y2="146.42"/><line class="cls-4" x1="83" y1="130.33" x2="198.83" y2="130.33"/><line class="cls-4" x1="115.19" y1="114.24" x2="198.83" y2="114.24"/><line class="cls-4" x1="83" y1="98.15" x2="198.83" y2="98.15"/><line class="cls-4" x1="115.19" y1="82.06" x2="198.83" y2="82.06"/><line class="cls-4" x1="83" y1="65.97" x2="198.83" y2="65.97"/><path class="cls-2" d="M26.29,88.59v1.75h-8l-.45,5.38a8.17,8.17,0,0,1,3.88-1q5.25,0,5.25,4.88a5.85,5.85,0,0,1-1.45,4.28,5.46,5.46,0,0,1-4.08,1.47,22.24,22.24,0,0,1-4.65-.55l-.83-.17.22-1.53a26.49,26.49,0,0,0,4.84.55,4,4,0,0,0,3-1,3.86,3.86,0,0,0,1-2.84A3.21,3.21,0,0,0,24,97.18a3.93,3.93,0,0,0-2.59-.76,7.67,7.67,0,0,0-1.89.25,8.56,8.56,0,0,0-1.51.5l-.53.25-1.33-.25.45-8.58Z"/><path class="cls-2" d="M35.33,88.32a6.33,6.33,0,0,1,3.33.78q2.7,1.6,2.7,8,0,4.52-1.5,6.39a5.43,5.43,0,0,1-4.5,1.86,5.5,5.5,0,0,1-4.51-1.84q-1.51-1.84-1.51-6.55t1.49-6.67A5.3,5.3,0,0,1,35.33,88.32Zm0,1.73a3.76,3.76,0,0,0-2.25.6q-1.78,1.23-1.78,6.48,0,3.7,1,5.11a3.45,3.45,0,0,0,3,1.41,3.43,3.43,0,0,0,3-1.42q1-1.43,1-5.29t-.94-5.37A3.35,3.35,0,0,0,35.36,90Z"/><path class="cls-2" d="M26.41,58a33.06,33.06,0,0,0-4.37-.3,3.91,3.91,0,0,0-3.27,1.47,6.74,6.74,0,0,0-1.15,4.23l.63-.25a16.44,16.44,0,0,1,1.66-.48,8,8,0,0,1,1.84-.25q5.55,0,5.55,5.13a5.25,5.25,0,0,1-1.51,4A6,6,0,0,1,21.51,73q-5.9,0-5.9-8.58,0-4.32,1.69-6.37a5.82,5.82,0,0,1,4.76-2,23.7,23.7,0,0,1,3.85.3l.67.13Zm-4.8,6.15a8.21,8.21,0,0,0-1.86.24,12.32,12.32,0,0,0-1.59.46l-.58.25a9.45,9.45,0,0,0,1,4.53,3.07,3.07,0,0,0,2.86,1.67,4,4,0,0,0,2.9-1,3.66,3.66,0,0,0,1-2.73,3.31,3.31,0,0,0-1-2.61A4,4,0,0,0,21.61,64.16Z"/><path class="cls-2" d="M35.33,56a6.33,6.33,0,0,1,3.33.78q2.7,1.6,2.7,8,0,4.52-1.5,6.39A5.43,5.43,0,0,1,35.36,73a5.5,5.5,0,0,1-4.51-1.84q-1.51-1.84-1.51-6.55t1.49-6.67A5.3,5.3,0,0,1,35.33,56Zm0,1.73a3.76,3.76,0,0,0-2.25.6q-1.78,1.23-1.78,6.48,0,3.7,1,5.11a3.45,3.45,0,0,0,3,1.41,3.43,3.43,0,0,0,3-1.42q1-1.43,1-5.29t-.94-5.37A3.35,3.35,0,0,0,35.36,57.71Z"/><path class="cls-2" d="M23.36,137.42V134.2h-8v-1.5l4.7-11.78h2.1L17.39,132.5h6v-5.15h1.92v5.15h2.1v1.7h-2.1v3.22Z"/><path class="cls-2" d="M35.33,120.65a6.33,6.33,0,0,1,3.33.78q2.7,1.6,2.7,8,0,4.52-1.5,6.39a5.43,5.43,0,0,1-4.5,1.86,5.5,5.5,0,0,1-4.51-1.84q-1.51-1.84-1.51-6.55t1.49-6.67A5.3,5.3,0,0,1,35.33,120.65Zm0,1.73a3.76,3.76,0,0,0-2.25.6q-1.78,1.23-1.78,6.48,0,3.7,1,5.11a3.45,3.45,0,0,0,3,1.41,3.43,3.43,0,0,0,3-1.42q1-1.43,1-5.29t-.94-5.38A3.35,3.35,0,0,0,35.36,122.37Z"/><path class="cls-2" d="M16.16,153.68a17.6,17.6,0,0,1,5-.7,6,6,0,0,1,3.89,1,4.08,4.08,0,0,1,1.2,3.28,3.33,3.33,0,0,1-.31,1.66q-.31.51-.5.79a2.56,2.56,0,0,1-.49.53,7,7,0,0,1-.87.6l-.28.18A5,5,0,0,1,26,162.37a4.06,4.06,0,0,1,.7,2.66,5,5,0,0,1-1.29,3.75A5.74,5.74,0,0,1,21.33,170a23.3,23.3,0,0,1-4.65-.5l-.78-.17.17-1.58a25.35,25.35,0,0,0,5.05.55q3.57,0,3.57-3.2,0-3-3.4-3.1H18v-1.65h3.33a3.08,3.08,0,0,0,2-.84,2.77,2.77,0,0,0,1-2.21,2.38,2.38,0,0,0-.78-2,4.26,4.26,0,0,0-2.6-.61,20.86,20.86,0,0,0-4,.38l-.65.13Z"/><path class="cls-2" d="M35.33,153a6.33,6.33,0,0,1,3.33.78q2.7,1.6,2.7,8,0,4.52-1.5,6.39a5.43,5.43,0,0,1-4.5,1.86,5.5,5.5,0,0,1-4.51-1.84q-1.51-1.84-1.51-6.55t1.49-6.67A5.3,5.3,0,0,1,35.33,153Zm0,1.73a3.76,3.76,0,0,0-2.25.6q-1.78,1.23-1.78,6.48,0,3.7,1,5.11a3.45,3.45,0,0,0,3,1.41,3.43,3.43,0,0,0,3-1.42q1-1.43,1-5.29t-.94-5.37A3.35,3.35,0,0,0,35.36,154.7Z"/><path class="cls-2" d="M26.64,202.09H16.08v-1.62l4.83-5.08q1.25-1.3,1.83-2a7.94,7.94,0,0,0,1-1.6,4.1,4.1,0,0,0,.46-1.85,2.63,2.63,0,0,0-.87-2.25,4.59,4.59,0,0,0-2.72-.65,17.6,17.6,0,0,0-3.62.43l-.65.13-.15-1.6a17.83,17.83,0,0,1,4.9-.67,5.88,5.88,0,0,1,3.81,1.06,4.11,4.11,0,0,1,1.29,3.36,5.84,5.84,0,0,1-.77,3,16.23,16.23,0,0,1-2.67,3.13l-4.4,4.48h8.28Z"/><path class="cls-2" d="M35.33,185.31a6.33,6.33,0,0,1,3.33.78q2.7,1.6,2.7,8,0,4.52-1.5,6.39a5.43,5.43,0,0,1-4.5,1.86,5.5,5.5,0,0,1-4.51-1.84q-1.51-1.84-1.51-6.55t1.49-6.67A5.3,5.3,0,0,1,35.33,185.31Zm0,1.73a3.76,3.76,0,0,0-2.25.6q-1.78,1.23-1.78,6.48,0,3.7,1,5.11a3.45,3.45,0,0,0,3,1.41,3.43,3.43,0,0,0,3-1.42q1-1.43,1-5.29t-.94-5.37A3.35,3.35,0,0,0,35.36,187Z"/><path class="cls-2" d="M24.08,217.92v16.5H22.16V220.07l-4.25,2.8L17,221.42l5.25-3.5Z"/><path class="cls-2" d="M35.33,217.64a6.33,6.33,0,0,1,3.33.78q2.7,1.6,2.7,8,0,4.52-1.5,6.39a5.43,5.43,0,0,1-4.5,1.86,5.5,5.5,0,0,1-4.51-1.84q-1.51-1.84-1.51-6.55t1.49-6.67A5.3,5.3,0,0,1,35.33,217.64Zm0,1.73a3.76,3.76,0,0,0-2.25.6q-1.78,1.23-1.78,6.48,0,3.7,1,5.11a3.45,3.45,0,0,0,3,1.41,3.43,3.43,0,0,0,3-1.42q1-1.43,1-5.29t-.94-5.37A3.35,3.35,0,0,0,35.36,219.37Z"/><path class="cls-2" d="M35.33,250a6.33,6.33,0,0,1,3.33.78q2.7,1.6,2.7,8,0,4.52-1.5,6.39a5.43,5.43,0,0,1-4.5,1.86,5.5,5.5,0,0,1-4.51-1.84q-1.51-1.84-1.51-6.55t1.49-6.67A5.3,5.3,0,0,1,35.33,250Zm0,1.73a3.76,3.76,0,0,0-2.25.6q-1.78,1.23-1.78,6.48,0,3.7,1,5.11a3.45,3.45,0,0,0,3,1.41,3.43,3.43,0,0,0,3-1.42q1-1.43,1-5.29t-.94-5.37A3.35,3.35,0,0,0,35.36,251.7Z"/><path class="cls-5" d="M5.11,293.08v-1.75h7.58v1.75Z"/><path class="cls-5" d="M24.08,282.58v16.5H22.16V284.73l-4.25,2.8L17,286.08l5.25-3.5Z"/><path class="cls-5" d="M35.33,282.31a6.33,6.33,0,0,1,3.33.78q2.7,1.6,2.7,8,0,4.52-1.5,6.39a5.43,5.43,0,0,1-4.5,1.86,5.5,5.5,0,0,1-4.51-1.84q-1.51-1.84-1.51-6.55t1.49-6.67A5.3,5.3,0,0,1,35.33,282.31Zm0,1.73a3.76,3.76,0,0,0-2.25.6q-1.78,1.23-1.78,6.48,0,3.7,1,5.11a3.45,3.45,0,0,0,3,1.41,3.43,3.43,0,0,0,3-1.42q1-1.43,1-5.29t-.94-5.37A3.35,3.35,0,0,0,35.36,284Z"/><path class="cls-5" d="M5.11,325.41v-1.75h7.58v1.75Z"/><path class="cls-5" d="M26.64,331.41H16.08v-1.62l4.83-5.08q1.25-1.3,1.83-2a7.94,7.94,0,0,0,1-1.6,4.1,4.1,0,0,0,.46-1.85,2.63,2.63,0,0,0-.87-2.25,4.59,4.59,0,0,0-2.72-.65,17.6,17.6,0,0,0-3.62.43l-.65.13-.15-1.6a17.83,17.83,0,0,1,4.9-.67,5.88,5.88,0,0,1,3.81,1.06,4.11,4.11,0,0,1,1.29,3.36,5.84,5.84,0,0,1-.77,3,16.23,16.23,0,0,1-2.67,3.13l-4.4,4.48h8.28Z"/><path class="cls-5" d="M35.33,314.64a6.33,6.33,0,0,1,3.33.78q2.7,1.6,2.7,8,0,4.52-1.5,6.39a5.43,5.43,0,0,1-4.5,1.86,5.5,5.5,0,0,1-4.51-1.84q-1.51-1.84-1.51-6.55t1.49-6.67A5.3,5.3,0,0,1,35.33,314.64Zm0,1.73a3.76,3.76,0,0,0-2.25.6q-1.78,1.23-1.78,6.48,0,3.7,1,5.11a3.45,3.45,0,0,0,3,1.41,3.43,3.43,0,0,0,3-1.42q1-1.43,1-5.29t-.94-5.37A3.35,3.35,0,0,0,35.36,316.36Z"/><path class="cls-5" d="M5.11,357.75V356h7.58v1.75Z"/><path class="cls-5" d="M16.16,347.67a17.6,17.6,0,0,1,5-.7,6,6,0,0,1,3.89,1,4.08,4.08,0,0,1,1.2,3.28,3.33,3.33,0,0,1-.31,1.66q-.31.51-.5.79a2.56,2.56,0,0,1-.49.53,7,7,0,0,1-.87.6l-.28.18A5,5,0,0,1,26,356.36a4.06,4.06,0,0,1,.7,2.66,5,5,0,0,1-1.29,3.75A5.74,5.74,0,0,1,21.33,364a23.3,23.3,0,0,1-4.65-.5l-.78-.17.17-1.58a25.35,25.35,0,0,0,5.05.55q3.57,0,3.57-3.2,0-3-3.4-3.1H18v-1.65h3.33a3.08,3.08,0,0,0,2-.84,2.77,2.77,0,0,0,1-2.21,2.38,2.38,0,0,0-.78-2,4.26,4.26,0,0,0-2.6-.61,20.86,20.86,0,0,0-4,.38l-.65.13Z"/><path class="cls-5" d="M35.33,347a6.33,6.33,0,0,1,3.33.78q2.7,1.6,2.7,8,0,4.52-1.5,6.39a5.43,5.43,0,0,1-4.5,1.86,5.5,5.5,0,0,1-4.51-1.84q-1.51-1.84-1.51-6.55t1.49-6.67A5.3,5.3,0,0,1,35.33,347Zm0,1.73a3.76,3.76,0,0,0-2.25.6q-1.78,1.23-1.78,6.48,0,3.7,1,5.11a3.45,3.45,0,0,0,3,1.41,3.43,3.43,0,0,0,3-1.42q1-1.43,1-5.29t-.94-5.37A3.35,3.35,0,0,0,35.36,348.7Z"/><line class="cls-4" x1="242.83" y1="339.48" x2="268.83" y2="339.48"/><line class="cls-4" x1="242.83" y1="307.3" x2="268.83" y2="307.3"/><line class="cls-4" x1="242.83" y1="275.12" x2="268.83" y2="275.12"/><line class="cls-4" x1="242.83" y1="210.77" x2="268.83" y2="210.77"/><line class="cls-4" x1="242.83" y1="178.59" x2="268.83" y2="178.59"/><line class="cls-4" x1="242.83" y1="146.41" x2="268.83" y2="146.41"/><line class="cls-4" x1="242.83" y1="114.24" x2="268.83" y2="114.24"/><line class="cls-4" x1="242.83" y1="82.06" x2="268.83" y2="82.06"/><line class="cls-4" x1="242.83" y1="355.56" x2="268.83" y2="355.56"/><line class="cls-4" x1="242.83" y1="323.39" x2="268.83" y2="323.39"/><line class="cls-4" x1="242.83" y1="291.21" x2="268.83" y2="291.21"/><line class="cls-4" x1="242.83" y1="259.03" x2="268.83" y2="259.03"/><line class="cls-4" x1="242.83" y1="242.94" x2="268.83" y2="242.94"/><line class="cls-4" x1="242.83" y1="226.86" x2="268.83" y2="226.86"/><line class="cls-4" x1="242.83" y1="194.68" x2="268.83" y2="194.68"/><line class="cls-4" x1="242.83" y1="162.5" x2="268.83" y2="162.5"/><line class="cls-4" x1="242.83" y1="130.32" x2="268.83" y2="130.32"/><line class="cls-4" x1="242.83" y1="98.15" x2="268.83" y2="98.15"/><line class="cls-4" x1="242.83" y1="65.97" x2="268.83" y2="65.97"/></svg>