<?xml version="1.0" encoding="UTF-8"?><svg id="Ebene_1" xmlns="http://www.w3.org/2000/svg" width="24" height="24" viewBox="0 0 24 24"><path d="m11,21H2v-3c3.1045,0,6.6726,0,9,0v3Z" fill="#0069b4" stroke-width="0"/><path d="m22,21h-9v-3c3.1045,0,6.6726,0,9,0v3Z" fill="#0069b4" stroke-width="0"/><path d="m9.5,17.541c-.1387,0-.2764-.0527-.3828-.1582l-1-1c-.2109-.2119-.2109-.5537,0-.7656.2129-.2109.5527-.2109.7656,0l1,1c.2109.2119.2109.5537,0,.7656-.1064.1055-.2441.1582-.3828.1582Z" fill="#0069b4" stroke-width="0"/><path d="m14.5,17.541c-.1387,0-.2764-.0527-.3828-.1582-.2109-.2119-.2109-.5537,0-.7656l1-1c.2129-.2109.5527-.2109.7656,0,.2109.2119.2109.5537,0,.7656l-1,1c-.1064.1055-.2441.1582-.3828.1582Z" fill="#0069b4" stroke-width="0"/><polygon points="11.25 15.75 11.25 16 12 17 12.75 16 12.75 14.25 11.25 15.75" fill="#0069b4" stroke-width="0"/><rect width="24" height="24" fill="none" stroke-width="0"/><polygon points="11.25 13.75 11.25 15.25 12.75 13.75 12.75 12.25 11.25 13.75" fill="#0069b4" stroke-width="0"/><polygon points="11.25 11.75 11.25 13.25 12.75 11.75 12.75 10.25 11.25 11.75" fill="#0069b4" stroke-width="0"/><polygon points="9 2 9 6 10 9 11.25 9 11.25 11.25 12.75 9.75 12.75 9 14 9 15 6 15 2 9 2" fill="#0069b4" stroke-width="0"/></svg>