<svg xmlns="http://www.w3.org/2000/svg" version="1.1" xmlns:xlink="http://www.w3.org/1999/xlink" width="512" height="512" x="0" y="0" viewBox="0 0 24 24" style="enable-background:new 0 0 512 512" xml:space="preserve" class=""><g><path d="M18.5 0h-13A5.506 5.506 0 0 0 0 5.5v13C0 21.532 2.467 24 5.5 24h13c3.032 0 5.5-2.468 5.5-5.5v-13C24 2.467 21.532 0 18.5 0ZM21 18.5c0 1.379-1.121 2.5-2.5 2.5h-13A2.503 2.503 0 0 1 3 18.5v-13C3 4.122 4.122 3 5.5 3h13C19.879 3 21 4.122 21 5.5v13Zm-5-10v7a1.5 1.5 0 0 1-3 0v-7a1.5 1.5 0 1 1 3 0Zm-5 0v7a1.5 1.5 0 1 1-3 0v-7a1.5 1.5 0 1 1 3 0Z" fill="#154194" opacity="1" data-original="#000000" class=""></path></g></svg>