<svg xmlns="http://www.w3.org/2000/svg" version="1.1" xmlns:xlink="http://www.w3.org/1999/xlink" width="512" height="512" x="0" y="0" viewBox="0 0 64 64" style="enable-background:new 0 0 512 512" xml:space="preserve" class=""><g><path d="M57 4c-1.654 0-3 1.346-3 3v12h-3v-8c0-1.103-.897-2-2-2h-7c-1.103 0-2 .897-2 2v8h-2.5v-8c0-1.103-.897-2-2-2h-7c-1.103 0-2 .897-2 2v8H24v-8c0-1.103-.897-2-2-2h-7c-1.103 0-2 .897-2 2v8h-3V7c.024-1.634-1.383-3.022-3-3-1.654 0-3 1.346-3 3v52a1 1 0 0 0 1 1h4a1 1 0 0 0 1-1v-4c8.075.004 39.172 0 44 0v4a1 1 0 0 0 1 1h4a1 1 0 0 0 1-1V7c.023-1.634-1.383-3.022-3-3zm-15 7h7v8h-7zm-13.5 0h7v8h-7zM15 11h7v8h-7zm7 42h-7v-8h7zm13.5 0h-7v-8h7zM49 53h-7v-8h7zm5 0h-3v-8c0-1.103-.897-2-2-2h-7c-1.103 0-2 .897-2 2v8h-2.5v-8c0-1.103-.897-2-2-2h-7c-1.103 0-2 .897-2 2v8H24v-8c0-1.103-.897-2-2-2h-7c-1.103 0-2 .897-2 2v8H9a1 1 0 0 0-1 1v4H6V7c.027-1.287 1.96-1.338 2 0v42c.029 1.313 1.973 1.317 2 0V38h44v15zM15 36v-8h7v8zm13.5 0v-8h7v8zM42 36v-8h7v8zm16 22h-2V25c-.03-1.317-1.974-1.315-2 0v11h-3v-8c0-1.103-.897-2-2-2h-7c-1.103 0-2 .897-2 2v8h-2.5v-8c0-1.103-.897-2-2-2h-7c-1.103 0-2 .897-2 2v8H24v-8c0-1.103-.897-2-2-2h-7c-1.103 0-2 .897-2 2v8h-3V21h45a1 1 0 0 0 1-1V7c0-.551.449-1 1-1 .52-.01 1.014.461 1 1v51z" fill="#154194" opacity="1" data-original="#000000" class=""></path></g></svg>