<svg xmlns="http://www.w3.org/2000/svg" version="1.1" xmlns:xlink="http://www.w3.org/1999/xlink" width="512" height="512" x="0" y="0" viewBox="0 0 24 24" style="enable-background:new 0 0 512 512" xml:space="preserve"><g><path d="M18.5 0h-13A5.506 5.506 0 0 0 0 5.5v13C0 21.532 2.468 24 5.5 24h13c3.032 0 5.5-2.468 5.5-5.5v-13C24 2.467 21.532 0 18.5 0ZM21 18.5c0 1.379-1.121 2.5-2.5 2.5h-13A2.502 2.502 0 0 1 3 18.5v-13C3 4.122 4.121 3 5.5 3h13C19.879 3 21 4.122 21 5.5v13ZM14.5 7h-5A2.503 2.503 0 0 0 7 9.5v5C7 15.879 8.121 17 9.5 17h5c1.379 0 2.5-1.121 2.5-2.5v-5C17 8.122 15.879 7 14.5 7Zm-.5 7h-4v-4h4v4Z" fill="#154194" opacity="1" data-original="#000000"></path></g></svg>