<svg xmlns="http://www.w3.org/2000/svg" version="1.1" xmlns:xlink="http://www.w3.org/1999/xlink" width="512" height="512" x="0" y="0" viewBox="0 0 512 512" style="enable-background:new 0 0 512 512" xml:space="preserve"><g><path d="M291.22 51.53c-29.11-9.53-67.71-14.81-108.7-14.81S102.93 42 73.82 51.53C42.54 61.79 26 75.58 26 91.42v329.16c0 15.83 16.54 29.63 47.82 39.89 29.11 9.55 67.71 14.81 108.7 14.81s79.59-5.26 108.7-14.81C322.5 450.21 339 436.41 339 420.58V91.42c0-15.84-16.5-29.63-47.78-39.89Zm-108.7-4.81c86.34 0 146.48 23.56 146.48 44.7s-60.18 44.71-146.52 44.71S36 112.57 36 91.42s60.17-44.7 146.52-44.7ZM36 221.25c8 7.49 20.69 14.17 37.82 19.79 29.11 9.55 67.71 14.81 108.7 14.81s79.59-5.26 108.7-14.81c17.13-5.62 29.82-12.3 37.82-19.79v89.6c0 21.15-60.18 44.71-146.52 44.71S36 332 36 310.85Zm146.52 24.6C96.17 245.85 36 222.29 36 201.15v-89.62c8 7.49 20.69 14.17 37.82 19.79 29.11 9.55 67.71 14.81 108.7 14.81s79.59-5.26 108.7-14.81C308.35 125.7 321 119 329 111.53v89.62c0 21.14-60.14 44.7-146.48 44.7Zm0 219.43C96.17 465.28 36 441.72 36 420.57V331c8 7.49 20.69 14.17 37.82 19.79 29.11 9.55 67.71 14.81 108.7 14.81s79.59-5.26 108.7-14.81C308.35 345.13 321 338.45 329 331v89.61c0 21.11-60.14 44.67-146.48 44.67Zm-50.46-77.22a19.46 19.46 0 1 0 19.46 19.46 19.48 19.48 0 0 0-19.46-19.46Zm0 28.92a9.46 9.46 0 1 1 9.46-9.46 9.47 9.47 0 0 1-9.46 9.48Zm50.46-28.92A19.46 19.46 0 1 0 202 407.52a19.48 19.48 0 0 0-19.48-19.46Zm0 28.92a9.46 9.46 0 1 1 9.46-9.46 9.47 9.47 0 0 1-9.46 9.48ZM233 388.06a19.46 19.46 0 1 0 19.46 19.46A19.48 19.48 0 0 0 233 388.06Zm0 28.94a9.46 9.46 0 1 1 9.46-9.46A9.47 9.47 0 0 1 233 417Zm-100.94-99.73a19.46 19.46 0 1 0-19.46-19.46 19.48 19.48 0 0 0 19.46 19.46Zm0-28.92a9.46 9.46 0 1 1-9.46 9.46 9.47 9.47 0 0 1 9.46-9.46Zm50.46 28.92a19.46 19.46 0 1 0-19.46-19.46 19.48 19.48 0 0 0 19.46 19.46Zm0-28.92a9.46 9.46 0 1 1-9.46 9.46 9.47 9.47 0 0 1 9.46-9.46ZM233 317.27a19.46 19.46 0 1 0-19.46-19.46A19.48 19.48 0 0 0 233 317.27Zm0-28.92a9.46 9.46 0 1 1-9.46 9.46 9.47 9.47 0 0 1 9.46-9.46ZM132.06 168.63a19.46 19.46 0 1 0 19.46 19.46 19.48 19.48 0 0 0-19.46-19.46Zm0 28.91a9.46 9.46 0 1 1 9.46-9.45 9.46 9.46 0 0 1-9.46 9.45Zm50.46-28.91A19.46 19.46 0 1 0 202 188.09a19.48 19.48 0 0 0-19.48-19.46Zm0 28.91a9.46 9.46 0 1 1 9.46-9.45 9.46 9.46 0 0 1-9.46 9.45ZM233 168.63a19.46 19.46 0 1 0 19.46 19.46A19.48 19.48 0 0 0 233 168.63Zm0 28.91a9.46 9.46 0 1 1 9.46-9.45 9.46 9.46 0 0 1-9.46 9.45ZM435.4 128V75.26a5 5 0 1 0-10 0V128a55.66 55.66 0 0 0-50.6 55.36v25.68a14.82 14.82 0 0 0 14.79 14.8h6v23.75a5 5 0 1 0 10 0v-23.73h49.7v23.75a5 5 0 0 0 10 0v-23.75h6a14.82 14.82 0 0 0 14.71-14.8v-25.68A55.66 55.66 0 0 0 435.4 128Zm40.6 81a4.8 4.8 0 0 1-4.79 4.8h-81.62a4.8 4.8 0 0 1-4.79-4.8v-25.62a45.6 45.6 0 0 1 91.2 0Zm-4.79 79.08h-81.62a14.82 14.82 0 0 0-14.79 14.8v25.68A55.66 55.66 0 0 0 425.4 384v52.76a5 5 0 0 0 10 0V384a55.66 55.66 0 0 0 50.6-55.38v-25.68a14.82 14.82 0 0 0-14.79-14.8Zm4.79 40.54a45.6 45.6 0 0 1-91.2 0v-25.68a4.8 4.8 0 0 1 4.79-4.8h81.62a4.8 4.8 0 0 1 4.79 4.8Z" fill="#154194" opacity="1" data-original="#000000"></path></g></svg>