<svg xmlns="http://www.w3.org/2000/svg" viewBox="0 0 1920 1080" width="1920" height="1080"><defs>
  <linearGradient id="uc01_bgGrad" x1="0" y1="0" x2="0" y2="1">
    <stop offset="0%" stop-color="#fafbfc"></stop>
    <stop offset="100%" stop-color="#ffffff"></stop>
  </linearGradient>
  <filter id="uc01_shadow" x="-4%" y="-4%" width="108%" height="108%">
    <feGaussianBlur in="SourceAlpha" stdDeviation="2"></feGaussianBlur>
    <feOffset dx="1" dy="1"></feOffset>
    <feComponentTransfer><feFuncA type="linear" slope="0.12"></feFuncA></feComponentTransfer>
    <feMerge><feMergeNode></feMergeNode><feMergeNode in="SourceGraphic"></feMergeNode></feMerge>
  </filter>
  <style>
    .uc01-title { font: 700 28px "Segoe UI",Arial,sans-serif; fill: #16203b; }
    .uc01-subtitle { font: 400 18px "Segoe UI",Arial,sans-serif; fill: #bbbcbc; }
    .uc01-lane-title { font: 700 15px "Segoe UI",Arial,sans-serif; fill: #16203b; }
    .uc01-node-label { font: 700 12px "Segoe UI",Arial,sans-serif; fill: #16203b; }
    .uc01-box-text { font: 700 12px "Segoe UI",Arial,sans-serif; fill: #16203b; }
    .uc01-badge-text { font: 700 11px "Segoe UI",Arial,sans-serif; fill: #16203b; }
    .uc01-phase-text { font: 600 13px "Segoe UI",Arial,sans-serif; fill: #16203b; }
    .uc01-legend-text { font: 400 11px "Segoe UI",Arial,sans-serif; fill: #16203b; }
    .uc01-legend-title { font: 700 12px "Segoe UI",Arial,sans-serif; fill: #16203b; }
    .uc01-abbr-text { font: 400 11px "Segoe UI",Arial,sans-serif; fill: #16203b; }
    .uc01-thread-label { font: 700 12px "Segoe UI",Arial,sans-serif; fill: #00bcd4; }
    .uc01-step-title { font: 700 22px "Segoe UI",Arial,sans-serif; fill: #ffffff; }
    .uc01-step-text { font: 400 14px "Segoe UI",Arial,sans-serif; fill: #ffffff; }
    /* Animation classes */
    .hl { opacity: 1; filter: drop-shadow(0 3px 8px rgba(21,65,148,0.18)); transition: opacity 0.3s, filter 0.3s; }
    .dim { opacity: 0.5; transition: opacity 0.3s; }
    .hidden { display: none; }
  </style>
</defs><g id="uc01_root"><rect x="0" y="0" width="1920" height="1080" fill="url(#uc01_bgGrad)" rx="0"></rect><g id="uc01_title"><text x="960" y="52" text-anchor="middle" class="uc01-title">Track &amp; Trace — SinglePart (NFC)</text></g><g id="uc01_subtitle"><text x="960" y="78" text-anchor="middle" class="uc01-subtitle">Business Context + Trace + Enrichment</text></g><g id="uc01_step_description" style="display:none;">
  <rect x="260" y="20" width="1400" height="100" rx="8" fill="#64a70b" opacity="0.92"></rect>
  <text id="uc01_step_description_title" x="960" y="48" text-anchor="middle" class="uc01-step-title"></text>
  <text id="uc01_step_description_text" x="960" y="78" text-anchor="middle" class="uc01-step-text"></text>
</g><g id="uc01_lanes"><g id="uc01_lane_business"><rect x="40" y="125" width="1840" height="220" rx="12" fill="#d5e8d4" stroke="#82b366" stroke-width="1.5" filter="url(#uc01_shadow)"></rect><text x="60" y="155" class="uc01-lane-title">Business Context</text></g><g id="uc01_lane_trace"><rect x="40" y="355" width="1840" height="380" rx="12" fill="#dae8fc" stroke="#6c8ebf" stroke-width="1.5" filter="url(#uc01_shadow)"></rect><text x="60" y="385" class="uc01-lane-title">Trace &amp; Genealogie</text></g><g id="uc01_lane_shopfloor"><rect x="40" y="745" width="1840" height="250" rx="12" fill="#f5f5f5" stroke="#666666" stroke-width="1.5" filter="url(#uc01_shadow)"></rect><text x="60" y="790" class="uc01-lane-title">Shopfloor &amp; Enrichment</text></g></g><g id="uc01_time_arrow"><text x="60" y="410" class="uc01-lane-title" font-style="italic">Zeit →</text></g><g id="uc01_phases"><g id="uc01_phase_procurement"><line x1="89" y1="278" x2="451" y2="278" stroke="#555555" stroke-width="1" opacity="0.5"></line><line x1="89" y1="273" x2="89" y2="283" stroke="#555555" stroke-width="1" opacity="0.5"></line><line x1="451" y1="273" x2="451" y2="283" stroke="#555555" stroke-width="1" opacity="0.5"></line><line x1="270" y1="278" x2="270" y2="286" stroke="#555555" stroke-width="1" opacity="0.5"></line><text x="270" y="269" text-anchor="middle" class="uc01-phase-text">Phase 1: Beschaffung</text></g><g id="uc01_phase_production"><line x1="528" y1="278" x2="1512" y2="278" stroke="#555555" stroke-width="1" opacity="0.5"></line><line x1="528" y1="273" x2="528" y2="283" stroke="#555555" stroke-width="1" opacity="0.5"></line><line x1="1512" y1="273" x2="1512" y2="283" stroke="#555555" stroke-width="1" opacity="0.5"></line><line x1="1020" y1="278" x2="1020" y2="286" stroke="#555555" stroke-width="1" opacity="0.5"></line><text x="1020" y="269" text-anchor="middle" class="uc01-phase-text">Phase 2: Produktionsabwicklung</text></g></g><g id="uc01_connections"><g id="uc01_joins"><path id="uc01_join_po_dps" d="M 200 219 L 200 395 L 192 395 L 192 513" fill="none" stroke="#1f1f1f" stroke-width="1" stroke-dasharray="5,5" opacity="0.6"></path><path id="uc01_join_so_dps" d="M 395 219 L 395 395 L 214 395 L 214 513" fill="none" stroke="#1f1f1f" stroke-width="1" stroke-dasharray="5,5" opacity="0.6"></path><path id="uc01_join_co_hbw" d="M 625 219 L 625 395 L 542 395 L 542 513" fill="none" stroke="#1f1f1f" stroke-width="1" stroke-dasharray="5,5" opacity="0.6"></path><path id="uc01_join_prod_hbw" d="M 839 219 L 839 395 L 542 395 L 542 513" fill="none" stroke="#1f1f1f" stroke-width="1" stroke-dasharray="5,5" opacity="0.6"></path></g><g id="uc01_enrich_conns"><path id="uc01_enrich_temp_dps" d="M 1442 805 L 1442 557" fill="none" stroke="#1f1f1f" stroke-width="1" stroke-dasharray="5,5" opacity="0.6"></path><path id="uc01_enrich_cam_aiqs" d="M 1255 821 L 1255 635 L 1262 635 L 1262 557" fill="none" stroke="#1f1f1f" stroke-width="1" stroke-dasharray="5,5" opacity="0.6"></path><path id="uc01_enrich_oee_drill" d="M 725 825 L 725 635 L 902 635 L 902 557" fill="none" stroke="#1f1f1f" stroke-width="1" stroke-dasharray="5,5" opacity="0.6"></path><path id="uc01_enrich_cfg_drill" d="M 1029 825 L 1029 635 L 902 635 L 902 557" fill="none" stroke="#1f1f1f" stroke-width="1" stroke-dasharray="5,5" opacity="0.6"></path></g><g id="uc01_agv_conns"><path id="uc01_agv_dps_in" d="M 335 825 L 335 635 L 192 635 L 192 557" fill="none" stroke="#1f1f1f" stroke-width="1" stroke-dasharray="5,5" opacity="0.6"></path><path id="uc01_agv_hbw" d="M 335 825 L 335 635 L 542 635 L 542 557" fill="none" stroke="#1f1f1f" stroke-width="1" stroke-dasharray="5,5" opacity="0.6"></path><path id="uc01_agv_drill" d="M 335 825 L 335 635 L 902 635 L 902 557" fill="none" stroke="#1f1f1f" stroke-width="1" stroke-dasharray="5,5" opacity="0.6"></path><path id="uc01_agv_aiqs" d="M 335 825 L 335 635 L 1262 635 L 1262 557" fill="none" stroke="#1f1f1f" stroke-width="1" stroke-dasharray="5,5" opacity="0.6"></path><path id="uc01_agv_dps_out" d="M 335 825 L 335 635 L 1442 635 L 1442 557" fill="none" stroke="#1f1f1f" stroke-width="1" stroke-dasharray="5,5" opacity="0.6"></path></g><g id="uc01_agv_par_conns"><path id="uc01_agv_par_mill" d="M 410 847 L 450 847 L 450 685 L 362 685 L 362 557" fill="none" stroke="#b85450" stroke-width="1" stroke-dasharray="8,8" opacity="0.6"></path><path id="uc01_agv_par_aiqs" d="M 410 847 L 620 847 L 620 685 L 722 685 L 722 557" fill="none" stroke="#b85450" stroke-width="1" stroke-dasharray="8,8" opacity="0.6"></path><path id="uc01_agv_par_dps" d="M 410 847 L 620 847 L 620 685 L 1082 685 L 1082 557" fill="none" stroke="#b85450" stroke-width="1" stroke-dasharray="8,8" opacity="0.6"></path></g></g><g id="uc01_thread"><line x1="144" y1="539" x2="1524" y2="539" stroke="#00bcd4" stroke-width="6" stroke-linecap="round"></line></g><g id="uc01_thread_label"><rect x="1540" y="524" width="340" height="30" rx="6" fill="#ffffff" stroke="#00bcd4" stroke-width="1.5"></rect><text x="1710" y="544" text-anchor="middle" class="uc01-thread-label">NFC-ID: [UID-1234]  (SinglePart Thread)</text></g><g id="uc01_nodes"><g id="uc01_node_dps_in"><circle cx="192" cy="535" r="22" fill="#ffffff" stroke="#1f1f1f" stroke-width="1.5"></circle><text x="192" y="539" text-anchor="middle" class="uc01-node-label">DPS</text></g><g id="uc01_node_mill_par"><circle cx="362" cy="535" r="22" fill="#f8cecc" stroke="#1f1f1f" stroke-width="1.5"></circle><text x="362" y="539" text-anchor="middle" class="uc01-node-label">(MILL)</text></g><g id="uc01_node_hbw"><circle cx="542" cy="535" r="22" fill="#ffffff" stroke="#1f1f1f" stroke-width="1.5"></circle><text x="542" y="539" text-anchor="middle" class="uc01-node-label">HBW</text></g><g id="uc01_node_aiqs_par"><circle cx="722" cy="535" r="22" fill="#f8cecc" stroke="#1f1f1f" stroke-width="1.5"></circle><text x="722" y="539" text-anchor="middle" class="uc01-node-label">(AIQS)</text></g><g id="uc01_node_drill"><circle cx="902" cy="535" r="22" fill="#ffffff" stroke="#1f1f1f" stroke-width="1.5"></circle><text x="902" y="539" text-anchor="middle" class="uc01-node-label">DRILL</text></g><g id="uc01_node_dps_par"><circle cx="1082" cy="535" r="22" fill="#f8cecc" stroke="#1f1f1f" stroke-width="1.5"></circle><text x="1082" y="539" text-anchor="middle" class="uc01-node-label">(DPS)</text></g><g id="uc01_node_aiqs"><circle cx="1262" cy="535" r="22" fill="#ffffff" stroke="#1f1f1f" stroke-width="1.5"></circle><text x="1262" y="539" text-anchor="middle" class="uc01-node-label">AIQS</text></g><g id="uc01_node_dps_out"><circle cx="1442" cy="535" r="22" fill="#ffffff" stroke="#1f1f1f" stroke-width="1.5"></circle><text x="1442" y="539" text-anchor="middle" class="uc01-node-label">DPS</text></g></g><g id="uc01_badges"><g id="uc01_badge_mill"><circle cx="382" cy="513" r="10" fill="#ffffff" stroke="#1f1f1f" stroke-width="1"></circle><text x="382" y="517" text-anchor="middle" class="uc01-badge-text">1</text></g><g id="uc01_badge_aiqs"><circle cx="742" cy="513" r="10" fill="#ffffff" stroke="#1f1f1f" stroke-width="1"></circle><text x="742" y="517" text-anchor="middle" class="uc01-badge-text">1</text></g><g id="uc01_badge_dps"><circle cx="1102" cy="513" r="10" fill="#ffffff" stroke="#1f1f1f" stroke-width="1"></circle><text x="1102" y="517" text-anchor="middle" class="uc01-badge-text">1</text></g></g><g id="uc01_business"><g id="uc01_biz_po"><rect x="125" y="185" width="150" height="34" rx="6" fill="#ffffff" stroke="#1f1f1f" stroke-width="1"></rect><text x="200" y="206" text-anchor="middle" class="uc01-box-text">PO [PO-ID]</text></g><g id="uc01_biz_so"><rect x="320" y="185" width="150" height="34" rx="6" fill="#ffffff" stroke="#1f1f1f" stroke-width="1"></rect><text x="395" y="206" text-anchor="middle" class="uc01-box-text">SO [SO-ID]</text></g><g id="uc01_biz_co"><rect x="550" y="185" width="150" height="34" rx="6" fill="#ffffff" stroke="#1f1f1f" stroke-width="1"></rect><text x="625" y="206" text-anchor="middle" class="uc01-box-text">CO [CO-ID]</text></g><g id="uc01_biz_prod"><rect x="754" y="185" width="170" height="34" rx="6" fill="#ffffff" stroke="#1f1f1f" stroke-width="1"></rect><text x="839" y="206" text-anchor="middle" class="uc01-box-text">PROD [PROD-ID]</text></g></g><g id="uc01_enrichment"><g id="uc01_enrich_agv"><rect x="260" y="825" width="150" height="44" rx="6" fill="#ffffff" stroke="#1f1f1f" stroke-width="1"></rect><text x="335" y="851" text-anchor="middle" class="uc01-box-text">AGV System</text></g><g id="uc01_enrich_oee"><rect x="650" y="825" width="150" height="44" rx="6" fill="#ffffff" stroke="#1f1f1f" stroke-width="1"></rect><text x="725" y="851" text-anchor="middle" class="uc01-box-text">OEE</text></g><g id="uc01_enrich_cfg"><rect x="954" y="825" width="150" height="44" rx="6" fill="#ffffff" stroke="#1f1f1f" stroke-width="1"></rect><text x="1029" y="851" text-anchor="middle" class="uc01-box-text">CFG</text></g><g id="uc01_enrich_cam"><rect x="1180" y="821" width="150" height="44" rx="6" fill="#ffffff" stroke="#1f1f1f" stroke-width="1"></rect><text x="1255" y="847" text-anchor="middle" class="uc01-box-text">CAM</text></g><g id="uc01_enrich_temp"><rect x="1367" y="805" width="150" height="44" rx="6" fill="#ffffff" stroke="#1f1f1f" stroke-width="1"></rect><text x="1442" y="831" text-anchor="middle" class="uc01-box-text">TEMP</text></g></g><g id="uc01_legend"><rect x="1540" y="775" width="340" height="210" rx="6" fill="#ffffff" stroke="#1f1f1f" stroke-width="1"></rect><text x="1554" y="803" class="uc01-legend-title" fill="#16203b">Legende</text><text x="1554" y="821" class="uc01-legend-text" fill="#00bcd4">━━ Physisches Werkstück (NFC)</text><text x="1554" y="839" class="uc01-legend-text" fill="#b85450">▬▬ Parallelstopp ①</text><text x="1554" y="857" class="uc01-legend-text" fill="#16203b">┈┈ Korrelation / Join</text><text x="1554" y="875" class="uc01-legend-text" fill="#16203b">Abk.: HBW, DPS, DRILL, MILL, AIQS</text><text x="1554" y="893" class="uc01-legend-text" fill="#16203b">① Parallelauftrag FTS</text></g><g id="uc01_abbreviations"><rect x="60" y="1005" width="1480" height="30" rx="6" fill="#ffffff" stroke="#1f1f1f" stroke-width="1"></rect><text x="800" y="1025" text-anchor="middle" class="uc01-abbr-text">HBW=Hochregallager | DPS=Delivery &amp; Pickup | DRILL=Bohren | MILL=Fräsen | AIQS=KI-Qualitätsprüfung</text></g></g></svg>