<svg xmlns="http://www.w3.org/2000/svg" version="1.1" xmlns:xlink="http://www.w3.org/1999/xlink" width="512" height="512" x="0" y="0" viewBox="0 0 512 512" style="enable-background:new 0 0 512 512" xml:space="preserve" class=""><g><path d="M425.958 74.705c-97.414-91.43-250.525-89.57-345.674 5.579-89.362 89.362-96.437 229.852-21.224 327.309M86.042 437.295c97.414 91.43 250.525 89.57 345.674-5.579 89.362-89.362 96.437-229.852 21.224-327.31" style="stroke-width:15;stroke-linecap:round;stroke-linejoin:round;stroke-miterlimit:10;" fill="none" stroke="#154194" stroke-width="15" stroke-linecap="round" stroke-linejoin="round" stroke-miterlimit="10" data-original="#000000" opacity="1"></path><path d="m399.839 15.214 32.145 64.802-71.01-13.791M112.161 496.786l-32.145-64.802 71.01 13.791M410.295 230.196l-21.039-2.63c-3.511-16.531-10.055-31.916-18.965-45.635l13.058-16.789c4.964-6.382 4.399-15.462-1.319-21.179l-13.994-13.994c-5.718-5.718-14.797-6.283-21.179-1.319l-16.789 13.058c-13.719-8.91-29.104-15.454-45.635-18.965l-2.63-21.039c-1.003-8.023-7.823-14.043-15.908-14.043h-19.791a16.03 16.03 0 0 0-15.908 14.043l-2.63 21.039c-16.531 3.511-31.916 10.055-45.635 18.965l-16.789-13.058c-6.382-4.964-15.462-4.399-21.179 1.319l-13.994 13.994c-5.718 5.717-6.283 14.797-1.319 21.179l13.058 16.789c-8.91 13.719-15.454 29.104-18.965 45.635l-21.039 2.63c-8.023 1.003-14.044 7.823-14.044 15.908v19.791c0 8.085 6.021 14.905 14.044 15.908l21.039 2.63c3.511 16.53 10.054 31.915 18.964 45.634l-13.058 16.789c-4.964 6.382-4.399 15.462 1.319 21.18l13.994 13.994c5.718 5.717 14.797 6.283 21.179 1.319l16.789-13.058c13.719 8.91 29.104 15.454 45.635 18.965l2.63 21.039c1.003 8.023 7.823 14.044 15.908 14.044h19.791c8.086 0 14.905-6.021 15.908-14.044l2.63-21.039c16.531-3.511 31.916-10.055 45.635-18.965l16.789 13.058c6.382 4.964 15.462 4.398 21.179-1.319l13.994-13.994a16.032 16.032 0 0 0 1.319-21.18l-13.058-16.789c8.91-13.719 15.453-29.104 18.964-45.634l21.039-2.63c8.023-1.003 14.044-7.823 14.044-15.908v-19.791c.002-8.085-6.019-14.905-14.042-15.908z" style="stroke-width:15;stroke-linecap:round;stroke-linejoin:round;stroke-miterlimit:10;" fill="none" stroke="#154194" stroke-width="15" stroke-linecap="round" stroke-linejoin="round" stroke-miterlimit="10" data-original="#000000" opacity="1"></path><path d="M294.355 194.972c-11.12-7.004-24.243-11.117-38.355-11.117-39.845 0-72.145 32.3-72.145 72.145 0 14.112 4.113 27.235 11.117 38.355M217.645 317.028c11.12 7.004 24.243 11.117 38.355 11.117 39.845 0 72.145-32.301 72.145-72.145 0-14.112-4.113-27.235-11.117-38.355" style="stroke-width:15;stroke-linecap:round;stroke-linejoin:round;stroke-miterlimit:10;" fill="none" stroke="#154194" stroke-width="15" stroke-linecap="round" stroke-linejoin="round" stroke-miterlimit="10" data-original="#000000" opacity="1"></path></g></svg>