<svg xmlns="http://www.w3.org/2000/svg" version="1.1" xmlns:xlink="http://www.w3.org/1999/xlink" width="512" height="512" x="0" y="0" viewBox="0 0 128 128" style="enable-background:new 0 0 512 512" xml:space="preserve"><g><path d="M121.693 91.857h-3.656V58.594a54.037 54.037 0 0 0-108.074 0v33.263H6.307a1.751 1.751 0 0 0-1.75 1.75v28.086a1.75 1.75 0 0 0 1.75 1.75h115.386a1.75 1.75 0 0 0 1.75-1.75V93.607a1.751 1.751 0 0 0-1.75-1.75Zm-1.75 14.043H94.6V95.357h25.346Zm-72.116 3.5v10.543H22.48V109.4ZM13.463 58.594c0-1.523.08-3.027.213-4.517L24.1 55.959c-.057.872-.1 1.749-.1 2.635v14.234H13.463Zm7.966-27.182 8.823 5.762a39.726 39.726 0 0 0-5.777 15.3L14.1 50.6a50.226 50.226 0 0 1 7.329-19.188Zm6.077 27.182a36.494 36.494 0 0 1 72.988 0v33.263H86.011a28.6 28.6 0 0 0 5.4-17.279 31.154 31.154 0 0 0-9.591-22.636 1.75 1.75 0 0 0-2.891 1.373 19.375 19.375 0 0 1-.917 5.528 33.569 33.569 0 0 0-13.02-18.779 1.743 1.743 0 0 0-1.984 0 33.565 33.565 0 0 0-13.017 18.767 19.784 19.784 0 0 1-.92-5.516 1.75 1.75 0 0 0-2.891-1.373 31.154 31.154 0 0 0-9.593 22.636 28.6 28.6 0 0 0 5.4 17.279H27.506Zm38.244-39.95V8.1a50.185 50.185 0 0 1 20.394 5.077l-5.128 9.233a39.7 39.7 0 0 0-15.266-3.766Zm-3.5 0a39.7 39.7 0 0 0-15.266 3.766l-5.128-9.232A50.185 50.185 0 0 1 62.25 8.1ZM113.9 50.6l-10.373 1.872a39.726 39.726 0 0 0-5.777-15.3l8.823-5.762A50.226 50.226 0 0 1 113.9 50.6Zm.639 8v14.228h-10.545V58.594c0-.886-.039-1.763-.1-2.635l10.426-1.882a49.27 49.27 0 0 1 .217 4.517ZM65.75 105.9V95.357H91.1V105.9ZM46.583 91.857c-1.525-1.488-6.5-7.117-6.5-17.279a28.318 28.318 0 0 1 5.919-17.242 25.252 25.252 0 0 0 3.147 8.156 1.751 1.751 0 0 0 3.242-.777c.01-.135 1.111-13.109 11.6-21.052C74.494 51.606 75.6 64.58 75.605 64.712a1.75 1.75 0 0 0 3.242.78A25.245 25.245 0 0 0 82 57.322a28.222 28.222 0 0 1 5.916 17.256c0 10.161-4.97 15.791-6.5 17.279H73.73c2.6-6.52 3.174-17.588-8.742-25.745a1.748 1.748 0 0 0-1.976 0C51.1 74.269 51.668 85.337 54.27 91.857Zm11.54 0C56.643 88.792 52.7 78.172 64 69.708c11.3 8.464 7.357 19.084 5.877 22.149Zm4.127 3.5V105.9H36.9V95.357ZM51.327 109.4h25.346v10.543H51.327Zm28.846 0h25.347v10.543H80.173Zm23.821-17.543V76.328h10.543v15.529Zm.6-63.331L95.743 34.3a40.28 40.28 0 0 0-11.632-10.254l5.117-9.214a50.9 50.9 0 0 1 15.362 13.694ZM38.772 14.832l5.117 9.214A40.28 40.28 0 0 0 32.257 34.3l-8.847-5.774a50.9 50.9 0 0 1 15.362-13.694Zm-25.309 61.5h10.543v15.525H13.463ZM33.4 95.357V105.9H8.057V95.357ZM8.057 109.4H18.98v10.543H8.057Zm100.963 10.543V109.4h10.923v10.543Z" fill="#154194" opacity="1" data-original="#000000"></path></g></svg>