<svg xmlns="http://www.w3.org/2000/svg" version="1.1" xmlns:xlink="http://www.w3.org/1999/xlink" width="512" height="512" x="0" y="0" viewBox="0 0 512 512" style="enable-background:new 0 0 512 512" xml:space="preserve" class=""><g><path fill-rule="evenodd" d="M458.833 197.954c6.44-6.59 10.419-15.594 10.419-25.515 0-19.803-15.838-35.965-35.511-36.512l-69.789-79.746c-3.007-20.088-20.375-35.544-41.288-35.544-11.162 0-21.306 4.411-28.804 11.57L68.647 170.658c-17.158 9.308-28.997 27.201-29.746 47.875h-.016a57.338 57.338 0 0 0 .283 8.087l9.292 168.047a81.951 81.951 0 0 0-11.807 35.135h-2.582C19.695 429.801 8 440.394 8 453.414v29.949a8 8 0 0 0 8 8h205.597a8 8 0 0 0 8-8v-29.949c0-13.021-11.696-23.613-26.073-23.613h-2.579c-2.234-23.115-14.047-43.456-31.403-57.029L139.14 257.857l176.026-154.404c.496.09.993.177 1.495.25l79.544 69.755c.262 9.516 4.175 18.133 10.394 24.497-26.419 10.444-45.167 36.219-45.167 66.307 0 25.347 13.64 48.995 35.596 61.717a8 8 0 0 0 12.011-6.922v-51.085l23.029-13.297 23.028 13.297v51.816a8 8 0 0 0 11.846 7.015C489.8 314.271 504 290.306 504 264.262c0-30.089-18.747-55.864-45.167-66.308zm-58.589-42.233-62.186-54.533a41.965 41.965 0 0 0 23.446-23.509l54.505 62.282a36.77 36.77 0 0 0-15.765 15.76zM322.665 36.637c14.199 0 25.752 11.553 25.752 25.752s-11.553 25.752-25.752 25.752-25.752-11.553-25.752-25.752 11.553-25.752 25.752-25.752zM95.638 179.822c22.491 0 40.789 18.298 40.789 40.789S118.129 261.4 95.638 261.4c-20.933 0-38.226-15.853-40.522-36.183l-.263-4.763c.085-22.418 18.346-40.632 40.785-40.632zm117.959 273.592v21.949H24v-21.949c0-4.127 4.612-7.613 10.071-7.613h169.452c5.46 0 10.074 3.486 10.074 7.613zM105.26 412.048c0-7.465 6.072-13.537 13.537-13.537s13.538 6.072 13.538 13.537-6.073 13.537-13.538 13.537-13.537-6.072-13.537-13.537zm79.581 17.753h-42.454a29.38 29.38 0 0 0 5.948-17.753c0-16.287-13.251-29.537-29.538-29.537s-29.537 13.25-29.537 29.537a29.382 29.382 0 0 0 5.947 17.753h-42.45c3.966-32.93 32.06-58.541 66.04-58.541 33.982 0 62.078 25.611 66.044 58.541zm-34.859-68.405a82.076 82.076 0 0 0-31.185-6.136c-21.26 0-40.665 8.083-55.312 21.333l-6.317-114.254c10.125 9.342 23.64 15.062 38.47 15.062a56.433 56.433 0 0 0 29.868-8.518zm2.252-136.31c.116-1.478.193-2.968.193-4.475 0-27.045-19.009-49.719-44.363-55.403L281.074 58.85a41.839 41.839 0 0 0-.161 3.539c0 14.127 7.059 26.629 17.828 34.188zm259.944-52.647c0-11.325 9.213-20.538 20.538-20.538 11.324 0 20.537 9.213 20.537 20.538 0 11.324-9.213 20.537-20.537 20.537-11.325.001-20.538-9.212-20.538-20.537zm58.917 131.618v-40.704a7.998 7.998 0 0 0-4-6.928l-31.028-17.915a7.986 7.986 0 0 0-4-1.072 7.99 7.99 0 0 0-4 1.072l-31.029 17.915a7.997 7.997 0 0 0-4 6.928v39.383c-9.852-10.196-15.606-23.978-15.606-38.474 0-30.484 24.801-55.285 55.285-55.285 30.483 0 55.284 24.801 55.284 55.285a55.298 55.298 0 0 1-16.906 39.795zM95.638 248.295c15.265 0 27.684-12.419 27.684-27.684s-12.419-27.684-27.684-27.684-27.684 12.419-27.684 27.684 12.419 27.684 27.684 27.684zm0-39.367c6.442 0 11.684 5.241 11.684 11.684s-5.241 11.684-11.684 11.684-11.684-5.241-11.684-11.684 5.241-11.684 11.684-11.684zM309.997 62.389c0-6.997 5.671-12.668 12.668-12.668 6.996 0 12.668 5.672 12.668 12.668s-5.672 12.668-12.668 12.668c-6.997 0-12.668-5.672-12.668-12.668z" clip-rule="evenodd" fill="#154194" opacity="1" data-original="#000000"></path></g></svg>