<svg xmlns="http://www.w3.org/2000/svg" version="1.1" xmlns:xlink="http://www.w3.org/1999/xlink" width="512" height="512" x="0" y="0" viewBox="0 0 64 64" style="enable-background:new 0 0 512 512" xml:space="preserve" class=""><g><path d="M32 48a1 1 0 0 1-1-1v-2a1 1 0 0 1 2 0v2a1 1 0 0 1-1 1Z" fill="#154194" opacity="1" data-original="#000000" class=""></path><path d="m55.329 22 6.423-7.341a1 1 0 0 0-.449-1.612l-22-7a1 1 0 0 0-1.055.294L32 13.481l-6.248-7.14a1 1 0 0 0-1.052-.294l-22 7a1 1 0 0 0-.449 1.612L8.671 22l-6.423 7.341a1 1 0 0 0 .452 1.612L9 32.959V53a1 1 0 0 0 .658.94l22 8a.17.17 0 0 1 .022 0 .942.942 0 0 0 .64 0 .17.17 0 0 1 .022 0l22-8A1 1 0 0 0 55 53V32.959l6.3-2.006a1 1 0 0 0 .449-1.612ZM32 27.95 13.3 22 31 16.368V25a1 1 0 0 0 2 0v-8.632L50.7 22Zm7.321-19.8 19.921 6.34-5.563 6.359-19.921-6.339Zm-14.642 0 5.563 6.359-19.921 6.34-5.563-6.359Zm-14.358 15 19.921 6.34-5.563 6.359L4.758 29.51ZM53 52.3l-20 7.272V51a1 1 0 0 0-2 0v8.572L11 52.3V33.6l13.7 4.358A.983.983 0 0 0 25 38a1 1 0 0 0 .752-.341l5.248-6V41a1 1 0 0 0 2 0v-9.339l5.248 6A1 1 0 0 0 39 38a.987.987 0 0 0 .3-.047L53 33.6ZM39.321 35.849l-5.563-6.359 19.921-6.339 5.563 6.359Z" fill="#154194" opacity="1" data-original="#000000" class=""></path></g></svg>