<svg xmlns="http://www.w3.org/2000/svg" version="1.1" xmlns:xlink="http://www.w3.org/1999/xlink" width="512" height="512" x="0" y="0" viewBox="0 0 64 64" style="enable-background:new 0 0 512 512" xml:space="preserve" class=""><g><path d="M61 18c0-.3-.14-.59-.37-.78-.24-.19-.54-.26-.84-.2l-5.78 1.29v-6l2.77.66c.08.02.16.03.23.03.22 0 .44-.07.62-.21.24-.19.38-.48.38-.79V8c0-.46-.32-.86-.77-.97L35.23 1.75l-.47 1.94 21.23 5.1v1.94l-23.77-5.7a.935.935 0 0 0-.47 0L8 10.73V8.79l21.23-5.1-.47-1.94L6.77 7.03C6.32 7.14 6 7.54 6 8v4a1.005 1.005 0 0 0 1.23.98l2.77-.66v6l-5.78-1.29c-.3-.07-.61 0-.84.2a.99.99 0 0 0-.37.78V61H1v2h62v-2h-2zm-11-6.65 2 .48v6.93l-2 .44zm-34-.48 16-3.84 16 3.84v8.77l-6.22 1.38c-.46.1-.78.51-.78.98v13h-6v-8h1c.35 0 .67-.18.85-.47s.2-.66.04-.97l-4-8c-.34-.68-1.45-.68-1.79 0l-4 8c-.15.31-.14.68.04.97s.5.47.85.47h1v8h-6V22c0-.47-.33-.87-.78-.98l-6.22-1.38v-8.77zM25.06 44l1.54-.86 4.91 2.73c.15.08.32.13.49.13s.33-.04.49-.13l4.91-2.73 1.54.86L32 47.86zM31 49.59v7.71l-7-3.89V45.7zm2 0 7-3.89v7.71l-7 3.89zm-1-5.73L25.06 40 29 37.81V40c0 .55.45 1 1 1h4c.55 0 1-.45 1-1v-2.19L38.94 40zM30 25h-.38L32 20.24 34.38 25H34c-.55 0-1 .45-1 1v13h-2V26c0-.55-.45-1-1-1zM12 11.83l2-.48v7.85l-2-.44zM13 61h-3v-6h3zm5-25v25h-3v-7c0-.55-.45-1-1-1H9c-.55 0-1 .45-1 1v7H5V19.25l16 3.56v12.2h-2c-.55 0-1 .45-1 1zm26 25H20V37h6.34l-3.83 2.13c-.32.18-.51.51-.51.87s.2.7.51.87L24.54 42l-2.03 1.13c-.32.18-.51.51-.51.87v10c0 .36.2.7.51.87l9 5c.15.08.32.13.49.13s.33-.04.49-.13l9-5c.32-.18.51-.51.51-.87V44a1 1 0 0 0-.51-.87L39.46 42l2.03-1.13c.32-.18.51-.51.51-.87s-.2-.7-.51-.87L37.66 37H44zm10 0h-3v-6h3zm5 0h-3v-7c0-.55-.45-1-1-1h-5c-.55 0-1 .45-1 1v7h-3V36c0-.55-.45-1-1-1h-2V22.8l16-3.56z" fill="#154194" opacity="1" data-original="#000000" class=""></path><path d="M31 1h2v2h-2z" fill="#154194" opacity="1" data-original="#000000" class=""></path></g></svg>