<svg xmlns="http://www.w3.org/2000/svg" version="1.1" xmlns:xlink="http://www.w3.org/1999/xlink" width="512" height="512" x="0" y="0" viewBox="0 0 128 128" style="enable-background:new 0 0 512 512" xml:space="preserve" class=""><g><path d="M75.31 16.67a2 2 0 0 0 1.42-3.41 18 18 0 0 0-25.46 0 2 2 0 1 0 2.83 2.83 14 14 0 0 1 19.8 0 2 2 0 0 0 1.41.58z" fill="#154194" opacity="1" data-original="#000000"></path><path d="M56.93 18.92a2 2 0 0 0 2.83 2.83 6 6 0 0 1 8.48 0 2 2 0 0 0 1.42.58 2 2 0 0 0 1.41-.58 2 2 0 0 0 0-2.83 10 10 0 0 0-14.14 0zM48.44 10.43a22 22 0 0 1 31.12 0 2 2 0 1 0 2.82-2.83 26 26 0 0 0-36.76 0 2 2 0 0 0 2.82 2.83zM96 28H32.05a18.07 18.07 0 0 0-18 18v64a18.07 18.07 0 0 0 18 18H96a18.07 18.07 0 0 0 18-18V46.05A18.07 18.07 0 0 0 96 28zm14 82a14.06 14.06 0 0 1-14 14H32.05a14.06 14.06 0 0 1-14-14V46.05a14.06 14.06 0 0 1 14-14H96a14.06 14.06 0 0 1 14 14z" fill="#154194" opacity="1" data-original="#000000"></path><path d="M43 76a9 9 0 0 0 6-15.7V46a6 6 0 0 0-12 0v14.3A9 9 0 0 0 43 76zm-2.85-13.1a2 2 0 0 0 .85-1.64V46a2 2 0 0 1 4 0v15.26a2 2 0 0 0 .85 1.64 5 5 0 1 1-5.7 0zM41.47 84.72c-1 1.2-9.84 12-9.84 19.66a11.38 11.38 0 1 0 22.75 0c0-7.68-8.84-18.46-9.85-19.66a2.06 2.06 0 0 0-3.06 0zM43 112a7.5 7.5 0 0 1-7.37-7.62c0-4.4 4.45-11.26 7.37-15.15 2.92 3.89 7.38 10.75 7.38 15.15A7.51 7.51 0 0 1 43 112zM80 60h8.39L80.3 72.94a2 2 0 0 0 .64 2.76A2.05 2.05 0 0 0 82 76a2 2 0 0 0 1.7-.94l10-16a2 2 0 0 0 0-2A2 2 0 0 0 92 56h-8.76l6.55-13.11a2 2 0 0 0-3.58-1.78l-8 16a2 2 0 0 0 .09 1.94A2 2 0 0 0 80 60zM90.52 89a2.15 2.15 0 0 0-2.23.36 2.43 2.43 0 0 0-.38 2.81c.55 1.64 1 3.5-.47 5A2.71 2.71 0 0 1 83 95.93c-1.11-3 .11-6.18.76-7.89.46-1.2.9-2.34 0-3.36a2.13 2.13 0 0 0-2.17-.59c-1.75.5-10.62 5.61-10.62 17.85A14.06 14.06 0 1 0 90.52 89zM85 112a10.07 10.07 0 0 1-10.06-10.06 16.07 16.07 0 0 1 3.8-10.88 12.19 12.19 0 0 0 .53 6.27 6.7 6.7 0 0 0 11 2.64 7.12 7.12 0 0 0 2.16-4.82A10.07 10.07 0 0 1 85 112z" fill="#154194" opacity="1" data-original="#000000"></path></g></svg>