<svg xmlns="http://www.w3.org/2000/svg" version="1.1" xmlns:xlink="http://www.w3.org/1999/xlink" width="512" height="512" x="0" y="0" viewBox="0 0 510 510" style="enable-background:new 0 0 512 512" xml:space="preserve" fill-rule="evenodd" class=""><g><path d="M218.573 242.029h72.854c8.39 0 15.191 6.801 15.191 15.191v73.847c0 7.584-6.197 13.787-13.816 13.787h-75.605c-7.619 0-13.815-6.203-13.815-13.787V257.22c0-8.39 6.801-15.191 15.191-15.191zm10.322 16h-9.513v70.825h71.236v-70.825h-9.512v27.424a8.001 8.001 0 0 1-12.275 6.762L255 283.472l-13.83 8.743a8 8 0 0 1-12.275-6.762zm36.211 0h-20.211v12.902l5.83-3.686a8 8 0 0 1 8.55 0l5.831 3.686zm87.892-16h72.854c8.39 0 15.191 6.801 15.191 15.191v73.847c0 7.584-6.196 13.787-13.816 13.787h-75.605c-7.619 0-13.815-6.203-13.815-13.787V257.22c0-8.39 6.801-15.191 15.191-15.191zm10.322 16h-9.513v70.825h71.236v-70.825h-9.512v27.424a8 8 0 0 1-12.275 6.762l-13.831-8.743-13.83 8.743a8 8 0 0 1-12.275-6.762zm36.211 0H379.32v12.902l5.83-3.686a8 8 0 0 1 8.55 0l5.831 3.686zm-315.383-16h72.854c8.39 0 15.191 6.801 15.191 15.191v73.847c0 7.584-6.197 13.787-13.816 13.787H82.772c-7.619 0-13.815-6.203-13.815-13.787V257.22c0-8.39 6.801-15.191 15.191-15.191zm10.322 16h-9.513v70.825h71.236v-70.825h-9.513v27.424a8 8 0 0 1-12.274 6.762l-13.831-8.743-13.83 8.743a8 8 0 0 1-12.275-6.762zm36.211 0H110.47v12.902l5.83-3.686a8 8 0 0 1 8.55 0l5.831 3.686zm36.085-188.523H24.018C14.619 69.506 7 61.886 7 52.488V41.375c0-9.398 7.619-17.018 17.018-17.018h142.323C167.846 14.528 176.337 7 186.587 7h136.826c10.25 0 18.741 7.528 20.246 17.357h142.323c9.399 0 17.018 7.62 17.018 17.018v11.113c0 9.398-7.619 17.018-17.018 17.018H343.234c-2.296 8.801-10.3 15.297-19.821 15.297h-42.996v20.637c10.154 7.696 16.718 19.887 16.718 33.599v.128l25.921 14.148a18.616 18.616 0 0 1 9.697 16.34v58.48c0 10.274-8.342 18.615-18.616 18.615s-18.615-8.341-18.615-18.615v-47.433l-14.967-8.169c-7.091 5.42-15.95 8.641-25.555 8.641s-18.464-3.221-25.555-8.641l-14.967 8.169v47.433c0 10.274-8.341 18.615-18.615 18.615s-18.616-8.341-18.616-18.615v-58.48c0-6.81 3.719-13.077 9.697-16.34l25.921-14.148v-.128c0-13.712 6.564-25.903 16.718-33.599V84.803h-42.996c-9.521 0-17.525-6.496-19.821-15.297zm-.662-29.149H24.018c-.562 0-1.018.456-1.018 1.018v11.113c0 .562.456 1.018 1.018 1.018h142.086zm177.792 0v13.149h142.086c.562 0 1.018-.456 1.018-1.018V41.375c0-.562-.456-1.018-1.018-1.018zm-79.479 44.446h-18.834v13.159c3.028-.693 6.18-1.058 9.417-1.058s6.389.365 9.417 1.058zm29.352 70.755a42.037 42.037 0 0 1-2.352 4.675l15.938 8.699a8.001 8.001 0 0 1 4.167 7.022v52.181a2.616 2.616 0 0 0 5.231 0v-58.48c0-.957-.523-1.837-1.363-2.296zm-75.186 4.675a42.037 42.037 0 0 1-2.352-4.675l-21.621 11.801a2.617 2.617 0 0 0-1.363 2.296v58.48a2.616 2.616 0 0 0 5.231 0v-52.181a8.001 8.001 0 0 1 4.167-7.022zM323.413 23H186.587a4.483 4.483 0 0 0-4.483 4.483V64.32a4.483 4.483 0 0 0 4.483 4.483h136.826a4.483 4.483 0 0 0 4.483-4.483V27.483A4.483 4.483 0 0 0 323.413 23zM255 112.904c-14.424 0-26.135 11.71-26.135 26.135 0 14.424 11.711 26.135 26.135 26.135s26.135-11.711 26.135-26.135c0-14.425-11.711-26.135-26.135-26.135zm0 4.436c11.976 0 21.699 9.723 21.699 21.699s-9.723 21.699-21.699 21.699-21.699-9.723-21.699-21.699S243.024 117.34 255 117.34zm0 16a5.702 5.702 0 0 0-5.699 5.699c0 3.145 2.554 5.699 5.699 5.699s5.699-2.554 5.699-5.699A5.702 5.702 0 0 0 255 133.34zm248 293.108C503 468.551 468.552 503 426.448 503H83.552C41.448 503 7 468.551 7 426.448c0-42.102 34.448-76.551 76.552-76.551h342.896c42.104 0 76.552 34.449 76.552 76.551zm-16 0c0-33.303-27.248-60.551-60.552-60.551H83.552C50.248 365.897 23 393.145 23 426.448 23 459.752 50.248 487 83.552 487h342.896C459.752 487 487 459.752 487 426.448zm-365.282 27.554c-8.55 11.823-22.459 19.515-38.165 19.515-25.994 0-47.067-21.073-47.067-47.067 0-25.995 21.073-47.068 47.067-47.068 15.705 0 29.613 7.691 38.163 19.513h37.972c8.55-11.822 22.459-19.513 38.163-19.513 15.705 0 29.613 7.691 38.164 19.513h37.971c8.551-11.822 22.459-19.513 38.164-19.513 15.704 0 29.613 7.691 38.163 19.513h37.971c8.551-11.822 22.459-19.513 38.164-19.513 25.994 0 47.068 21.073 47.068 47.068 0 25.994-21.074 47.067-47.068 47.067-15.706 0-29.615-7.692-38.165-19.515h-37.969c-8.55 11.823-22.459 19.515-38.164 19.515-15.706 0-29.615-7.692-38.165-19.515h-37.969c-8.55 11.823-22.459 19.515-38.165 19.515-15.705 0-29.614-7.692-38.164-19.515zm7.474-39.107a47.169 47.169 0 0 1 1.429 11.555c0 3.986-.496 7.856-1.428 11.552h23.019a47.144 47.144 0 0 1-1.428-11.552c0-3.987.496-7.858 1.429-11.555zm114.298 0a47.169 47.169 0 0 1 1.429 11.555c0 3.986-.496 7.856-1.428 11.552h23.019a47.192 47.192 0 0 1-1.428-11.552c0-3.987.496-7.858 1.429-11.555zm114.298 0a47.169 47.169 0 0 1 1.429 11.555c0 3.986-.495 7.856-1.428 11.552h23.019a47.144 47.144 0 0 1-1.428-11.552c0-3.987.496-7.858 1.429-11.555zm-159.937-19.513c-17.158 0-31.067 13.909-31.067 31.068 0 17.158 13.909 31.067 31.067 31.067 17.159 0 31.068-13.909 31.068-31.067 0-17.159-13.909-31.068-31.068-31.068zm0 7.999c12.752 0 23.068 10.317 23.068 23.069 0 12.751-10.315 23.067-23.068 23.067-12.751 0-23.068-10.316-23.068-23.067 0-12.752 10.317-23.069 23.068-23.069zm0 16a7.064 7.064 0 0 0-7.068 7.069c0 3.907 3.161 7.067 7.068 7.067s7.068-3.16 7.068-7.067a7.063 7.063 0 0 0-7.068-7.069zm114.299-23.999c-17.159 0-31.068 13.909-31.068 31.068 0 17.158 13.909 31.067 31.068 31.067 17.158 0 31.067-13.909 31.067-31.067 0-17.159-13.909-31.068-31.067-31.068zm0 7.999c12.751 0 23.067 10.316 23.067 23.069 0 12.751-10.316 23.067-23.067 23.067-12.753 0-23.068-10.316-23.068-23.067 0-12.752 10.316-23.069 23.068-23.069zm0 16a7.063 7.063 0 0 0-7.068 7.069c0 3.907 3.161 7.067 7.068 7.067s7.067-3.16 7.067-7.067-3.16-7.069-7.067-7.069zM83.553 395.382c-17.158 0-31.067 13.909-31.067 31.068 0 17.158 13.909 31.067 31.067 31.067 17.159 0 31.068-13.909 31.068-31.067 0-17.159-13.909-31.068-31.068-31.068zm0 8c12.74 0 23.068 10.328 23.068 23.068 0 12.739-10.327 23.067-23.068 23.067-12.739 0-23.067-10.328-23.067-23.067 0-12.741 10.328-23.068 23.067-23.068zm0 16a7.067 7.067 0 0 0 0 14.135 7.068 7.068 0 1 0 0-14.135zm342.895-24c-17.159 0-31.068 13.909-31.068 31.068 0 17.158 13.909 31.067 31.068 31.067 17.158 0 31.068-13.909 31.068-31.067 0-17.159-13.91-31.068-31.068-31.068zm0 8c12.739 0 23.068 10.328 23.068 23.068 0 12.739-10.329 23.067-23.068 23.067-12.74 0-23.068-10.328-23.068-23.067 0-12.74 10.328-23.068 23.068-23.068zm0 16a7.067 7.067 0 1 0 0 14.135 7.068 7.068 0 1 0 0-14.135z" fill="#154194" opacity="1" data-original="#000000"></path></g></svg>