<svg xmlns="http://www.w3.org/2000/svg" version="1.1" xmlns:xlink="http://www.w3.org/1999/xlink" width="512" height="512" x="0" y="0" viewBox="0 0 512 512" style="enable-background:new 0 0 512 512" xml:space="preserve"><g><path d="M23.702 499.085h464.597c2.635 0 4.766-2.134 4.766-4.766s-2.132-4.766-4.766-4.766h-8.672v-27.234c0-8.839-7.191-16.028-16.026-16.028h-5.19c0-.486.18-282.221-.363-287.76v-.032l-.002-.009c-3.484-35.371-32.341-63.319-68.065-65.532-2.379-44.523-39.242-80.043-84.35-80.043h-91.036c-46.64 0-84.58 37.943-84.58 84.58v166.411c-54.246 2.516-97.641 47.309-97.641 102.171v123.477h-8.672a4.764 4.764 0 0 0-4.766 4.766 4.763 4.763 0 0 0 4.766 4.765zm18.204-124.514H227.66v79.723H41.906zm428.188 87.747v27.234h-169.3v-27.234c0-3.582 2.914-6.496 6.493-6.496H463.6a6.503 6.503 0 0 1 6.494 6.496zM322.01 218.265h126.868v45.399H322.01zm126.845-9.533H322.033l.307-45.434h126.207zM322.01 446.29V273.197h126.868V446.29zm125.705-292.525H323.173c5.602-29.289 31.372-51.504 62.271-51.504s56.669 22.215 62.271 51.504zM214.594 22.447h91.036c39.857 0 72.465 31.256 74.819 70.534-35.513 2.422-64.138 30.289-67.607 65.509l-.002.009c-.565 7.434-.375-21.338-.363 287.791h-5.19c-8.835 0-16.026 7.189-16.026 16.028v27.234h-54.069V366.075c0-54.862-43.395-99.655-97.646-102.171V97.495c.001-41.383 33.668-75.048 75.048-75.048zm-79.813 250.75c50.865 0 92.262 41.11 92.827 91.841H41.959c.564-50.732 41.961-91.841 92.822-91.841zM41.906 463.826H227.66v25.726H41.906z" fill="#154194" opacity="1" data-original="#000000"></path><path d="M385.444 321.31c-4.506 0-8.551 2.323-10.822 6.216-10.515 18.044-15.849 30.684-15.849 37.565 0 14.709 11.962 26.674 26.671 26.674s26.671-11.965 26.671-26.674c0-6.882-5.334-19.522-15.849-37.568-2.271-3.891-6.316-6.213-10.822-6.213zm0 60.922c-9.449 0-17.139-7.69-17.139-17.141 0-4.883 5.441-17.132 14.555-32.764.777-1.341 2.067-1.485 2.583-1.485.517 0 1.806.144 2.583 1.483 9.114 15.635 14.555 27.884 14.555 32.767.002 9.451-7.688 17.14-17.137 17.14zM134.785 387.069h-.005c-3.784 0-7.182 1.953-9.091 5.22-11.925 20.457-11.925 26.504-11.925 28.491 0 11.59 9.426 21.018 21.016 21.018s21.02-9.428 21.02-21.018c0-1.985 0-8.025-11.93-28.487-1.902-3.27-5.296-5.222-9.085-5.224zm-.004 45.196c-6.33 0-11.483-5.153-11.483-11.485 0-2.639 2.793-10.247 10.631-23.688a.938.938 0 0 1 .852-.491.92.92 0 0 1 .852.491c7.843 13.447 10.636 21.053 10.636 23.688-.001 6.333-5.153 11.485-11.488 11.485z" fill="#154194" opacity="1" data-original="#000000"></path></g></svg>