<svg xmlns="http://www.w3.org/2000/svg" version="1.1" xmlns:xlink="http://www.w3.org/1999/xlink" width="512" height="512" x="0" y="0" viewBox="0 0 512 512" style="enable-background:new 0 0 512 512" xml:space="preserve" class=""><g><path d="M431.714 100.368H80.285C41.468 100.368 10 68.9 10 30.082h492c0 38.818-31.468 70.286-70.286 70.286zM190.735 100.368h120.49v60.245h-120.49zM481.913 481.918H30.087c-12.382 0-21.813-11.094-19.82-23.315l34.354-259.197c3.18-22.26 22.244-38.793 44.729-38.793h333.298c22.486 0 41.55 16.533 44.73 38.793l34.353 259.197c1.996 12.221-7.436 23.315-19.818 23.315z" style="stroke-width:20;stroke-linecap:round;stroke-linejoin:round;stroke-miterlimit:10;" fill="none" stroke="#154194" stroke-width="20" stroke-linecap="round" stroke-linejoin="round" stroke-miterlimit="10" data-original="#000000" opacity="1"></path><circle cx="256" cy="321.266" r="110.449" style="stroke-width:20;stroke-linecap:round;stroke-linejoin:round;stroke-miterlimit:10;" fill="none" stroke="#154194" stroke-width="20" stroke-linecap="round" stroke-linejoin="round" stroke-miterlimit="10" data-original="#000000" opacity="1"></circle><path d="M256 210.816v30.124M256 401.592v30.123M145.551 321.266h30.123M336.326 321.266h30.123M241.8 335.467c-7.843-7.844-7.843-20.559 0-28.402 7.843-7.842 20.558-7.842 28.4 0 7.841 7.844 7.841 20.559 0 28.402-7.842 7.84-20.557 7.84-28.4 0zM270.2 307.065l28.474-28.473" style="stroke-width:20;stroke-linecap:round;stroke-linejoin:round;stroke-miterlimit:10;" fill="none" stroke="#154194" stroke-width="20" stroke-linecap="round" stroke-linejoin="round" stroke-miterlimit="10" data-original="#000000" opacity="1"></path></g></svg>