<?xml version="1.0" encoding="UTF-8"?><svg id="Ebene_1" xmlns="http://www.w3.org/2000/svg" viewBox="0 0 24 24"><rect x="3.84" y="3.84" width="16.3199" height="16.3199" rx="6" ry="6" fill="#f21600"/><g><path d="M14.5996,20.1213c1.267-.0933,2.4306-.5583,3.3573-1.3168l-.7275-.7274c-.7402,.5814-1.6429,.9528-2.6298,1.0439v1.0002Z" fill="#999"/><path d="M4.879,9.3999c.0911-.9865,.4623-1.8889,1.0435-2.6289l-.7274-.7274c-.7581,.9265-1.223,2.0897-1.3163,3.3563h1.0003Z" fill="#999"/><rect x="3.84" y="10.6001" width="1" height="2.8003" fill="#999"/><rect x="10.5996" y="19.16" width="2.8008" height="1" fill="#999"/><path d="M5.9229,17.2295c-.5813-.7399-.9504-1.6406-1.0384-2.6299h-1.0222c.0922,1.269,.5738,2.4295,1.3332,3.3573l.7274-.7274Z" fill="#999"/><path d="M9.4004,19.1155c-.9893-.088-1.8899-.4571-2.6298-1.0383l-.7275,.7274c.9278,.7593,2.0883,1.241,3.3573,1.3332v-1.0222Z" fill="#999"/><path d="M9.4004,3.8787c-1.267,.0933-2.4306,.5583-3.3573,1.3168l.7274,.7274c.7402-.5815,1.6429-.9529,2.6299-1.0439v-1.0002Z" fill="#999"/><rect x="10.5996" y="3.84" width="2.8008" height="1" fill="#999"/><path d="M17.9506,5.2017c-.9279-.7573-2.0829-1.2473-3.351-1.3395v1.0222c.9869,.0878,1.8885,.4651,2.6288,1.0395l.7222-.7222Z" fill="#999"/><path d="M20.1212,9.3999c-.094-1.2663-.5617-2.4266-1.3206-3.3519l-.7283,.7283c.5842,.7358,.9572,1.6363,1.0486,2.6236h1.0002Z" fill="#999"/><rect x="19.16" y="10.6001" width="1" height="2.8003" fill="#999"/><path d="M19.1212,14.5996c-.0911,.987-.4625,1.8898-1.0439,2.6299l.7274,.7274c.7585-.9267,1.2236-2.0903,1.3168-3.3573h-1.0002Z" fill="#999"/></g><g><path d="M3.1708,19.2314H0v1.8885c0,1.5906,1.2894,2.88,2.88,2.88h1.87v-3.168c-.7344-.272-1.3099-.8596-1.5792-1.6005Z" fill="#999"/><rect x="21" y="12" width="3" height="5.7314" fill="#999"/><rect y="12" width="3" height="5.7314" fill="#999"/><rect x="6.25" y="21" width="5" height="3" fill="#999"/><rect x="12.75" y="21" width="5" height="3" fill="#999"/><path d="M19.25,20.8228v3.1772h1.87c1.5906,0,2.88-1.2894,2.88-2.88v-1.8885h-3.1629c-.2668,.7366-.8489,1.317-1.5871,1.5914Z" fill="#999"/></g></svg>