<svg id="Ebene_1" data-name="Ebene 1" xmlns="http://www.w3.org/2000/svg" viewBox="0 0 24 24"><defs><style>.cls-1{fill:#999;}.cls-2{fill:#ffffff;}.cls-3{fill:none;}</style></defs><title>icon_workpiece_instock_unprocessed_1</title><g id="icon_workpiece_unprocessed_instock"><path class="cls-1" d="M21,12v6.24A2.68,2.68,0,0,1,18.24,21H5.76A2.68,2.68,0,0,1,3,18.24V12H0v9.12A2.88,2.88,0,0,0,2.88,24H21.12A2.88,2.88,0,0,0,24,21.12V12Z"/><g id="workpiece_unprocessed"><rect class="cls-2" x="4.34" y="4.34" width="15.32" height="15.32" rx="5.5" ry="5.5"/><path class="cls-1" d="M14.16,4.84a5,5,0,0,1,5,5v4.32a5,5,0,0,1-5,5H9.84a5,5,0,0,1-5-5V9.84a5,5,0,0,1,5-5h4.32m0-1H9.84a6,6,0,0,0-6,6v4.32a6,6,0,0,0,6,6h4.32a6,6,0,0,0,6-6V9.84a6,6,0,0,0-6-6Z"/></g><rect class="cls-3" width="24" height="24"/></g></svg>