<?xml version="1.0" encoding="UTF-8"?><svg id="Ebene_1" xmlns="http://www.w3.org/2000/svg" width="24" height="24" viewBox="0 0 24 24"><circle cx="16.5" cy="17.5" r=".5" fill="#0069b4" stroke-width="0"/><path d="m17,13.5v-2h-1v-1h-5v1h-2v1h-.25v-2.5c0-.6895-.5605-1.25-1.25-1.25h-1.5c-.5993,0-1.0775.4321-1.1985.9957l-3.0602-1.1138-.513,1.4095.7048.2565-.2565.7048,1.4095.513.2565-.7048.884.3218.2734,1.3672h-1.5v3h-.5v1.5h.5v1.5h1.6837c-.1117-.3142-.1837-.6475-.1837-1,0-1.6569,1.3431-3,3-3s3,1.3431,3,3c0,.3525-.072.6858-.1837,1h3.3674c-.1117-.3142-.1837-.6475-.1837-1,0-1.6569,1.3431-3,3-3s3,1.3431,3,3c0,.3525-.072.6858-.1837,1h1.6837v-5h-4Zm-8.75-1h-2.25l-.5-2.5-.2328-.0847c.0441-.3719.3498-.6653.7328-.6653h1.5c.4131,0,.75.3364.75.75v2.5Z" fill="#0069b4" stroke-width="0"/><path d="m16.5,15c-1.3807,0-2.5,1.1193-2.5,2.5s1.1193,2.5,2.5,2.5,2.5-1.1193,2.5-2.5-1.1193-2.5-2.5-2.5Zm.8803,3.7289l-.3817-.3817c-.149.0883-.3132.1528-.4987.1528-.5514,0-1-.4486-1-1,0-.1854.0645-.3496.1528-.4987l-.3938-.3938.3501-.3502.3942.3942c.1486-.0876.3121-.1516.4968-.1516.5514,0,1,.4486,1,1,0,.1846-.0639.3481-.1516.4968l.382.382-.3501.3502Z" fill="#0069b4" stroke-width="0"/><path d="m7.1464,17.1464c-.1953.1953-.1953.5118,0,.7072.1953.1953.5118.1953.7072,0,.1953-.1953.1953-.5118,0-.7072-.1953-.1953-.5118-.1953-.7072,0Z" fill="#0069b4" stroke-width="0"/><path d="m7.5,15c-1.3807,0-2.5,1.1193-2.5,2.5s1.1193,2.5,2.5,2.5,2.5-1.1193,2.5-2.5-1.1193-2.5-2.5-2.5Zm.8803,3.7289l-.3817-.3817c-.149.0883-.3132.1528-.4987.1528-.5514,0-1-.4486-1-1,0-.1854.0645-.3496.1528-.4987l-.3938-.3938.3501-.3502.3942.3942c.1486-.0876.3121-.1516.4968-.1516.5514,0,1,.4486,1,1,0,.1846-.0639.3481-.1516.4968l.382.382-.3501.3502Z" fill="#0069b4" stroke-width="0"/><rect width="24" height="24" fill="none" stroke-width="0"/><path d="m13.5,3.5c-2.025,0-3.895.67-5.4,1.8l.9,1.2c1.25-.94,2.81-1.5,4.5-1.5s3.25.56,4.5,1.5l.9-1.2c-1.505-1.13-3.375-1.8-5.4-1.8m0,3c-1.35,0-2.595.445-3.6,1.2l.9,1.2c.75-.565,1.685-.9,2.7-.9s1.95.335,2.7.9l.9-1.2c-1.005-.755-2.25-1.2-3.6-1.2Z" fill="#0069b4" stroke-width="0"/></svg>