<svg xmlns="http://www.w3.org/2000/svg" version="1.1" xmlns:xlink="http://www.w3.org/1999/xlink" width="512" height="512" x="0" y="0" viewBox="0 0 512 512" style="enable-background:new 0 0 512 512" xml:space="preserve" class=""><g><path d="M350.84 434.09c17.47-25.04 26.18-51.9 29.12-62.29.89-3.18-.64-6.49-3.64-7.87s-6.5-.4-8.33 2.33c-4.45 6.59-9.8 11.52-16.19 14.9 7.51-30.65 4.06-64.06-10.59-104.01-1.04-2.77-3.73-4.5-6.68-4.33-11.38-.04-4.34 33.97-36.09 46.01 2.91-47.47-9.2-86.43-37.8-122.02a6.681 6.681 0 0 0-7.98-1.83c-10.22 4.23 7.06 24.42-14.26 47.52-19.18 18.64-35.93 34.28-39.3 63.28-8.12-5.24-10.8-13.67-11.88-23.06-.95-7.08-11.42-7.62-13.09-.68-3.28 12.76-7.12 29.77-7.74 48.25-.34 18.72.13 31.54 5.33 46.59-7.26-2.7-14.4-5.74-18.5-11.32a6.65 6.65 0 0 0-7.99-2.18c-2.85 1.21-4.49 4.2-3.98 7.2 3.06 29.22 27.49 87.03 65.93 104.34h-39.62c-3.31 0-6 2.69-6 6s2.69 6 6 6H353.8c7.82-.12 7.94-11.86 0-12h-46.99c16.48-8.81 31.21-22.43 44.02-40.8zm-100.2-13.97c-4.06-24.44-.14-43.96 11.98-59.23-.01 13.24 2.35 31.37 13.67 42.85 16.26 15.87 20.15 64.25-10.45 70.84-38.11 4.34-44.8-31.86-40.82-60.11 4.89 6.13 10.96 11.17 18.65 12.54 3.93.81 7.74-2.95 6.97-6.89zm42.96 47.74c12.47-22.42 7.7-55.92-8.77-72.55-7.5-7.61-9.63-20.23-10.09-29.49-.53-10.62.96-19.41.97-19.49 1.1-5.25-5.6-9.22-9.67-5.71-21.11 16.96-30.72 40.35-28.65 69.65-3.35-3.3-6.77-8.23-10.33-14.85a5.986 5.986 0 0 0-6-3.11c-8.04-2.71-16.11 51.76 1.5 76.39-42.82-16.25-59.98-60.59-66.4-85.54 4.58 2.47 9.47 4.25 14.06 5.93 4.79 1.15 9.27 5.53 13.83 2.4 6.58-5.01-2.7-20.01-3.4-26.68-3.58-16.41-2.94-42.43.74-60.43 2.5 5.45 24.98 26.96 28.86 11.05.45-9.47 2.6-23.32 10.31-35.56 13.85-21.21 39.52-32.82 41.14-61.27 20.47 31.35 28.15 66.01 24.11 107.7a5.997 5.997 0 0 0 7.13 6.46c20.01-3.94 33.92-15.79 42.19-36.05 10.7 35.37 11.25 64.99 1.88 92.24-1.63 4.3 2.66 9.01 7.09 7.78 6.22-1.51 11.91-3.91 17.04-7.18-10.72 29.23-38.19 67.65-67.53 78.29zM384.99 37.1c7.78-.11 7.97-11.86 0-12H127c-7.81.11-7.95 11.86 0 12h36.4c-1.32 13.15 5.6 25.63 18.28 29.26V77.5c-4.59-.35-9.14.47-9.43 6v15.66c2.34 23.66 23.03 41.69 47.4 41.68H250c-.46 4.29 1.09 8.53 6 8.66 4.91-.14 6.46-4.37 6-8.66h30.34c23.42.43 45.45-18.22 47.4-41.68V83.5c-.28-5.51-4.82-6.36-9.43-6V66.36c12.68-3.63 19.6-16.11 18.28-29.26zm-57.25 61.69c-1.99 17.11-18.22 30.36-35.4 30.06h-72.69c-21.66.18-38.07-18.58-35.4-39.34h143.49zM193.68 77.5V67.41h124.63V77.5zm142.91-35.59c0 7.44-6.06 13.5-13.5 13.5H188.9c-7.44 0-13.5-6.06-13.5-13.5V37.1h161.19z" fill="#154194" opacity="1" data-original="#000000" class=""></path><path d="M255.85 93.62c-3.31 0-6 2.69-6 6v19.09c0 3.31 2.69 6 6 6s6-2.69 6-6V99.62c0-3.31-2.69-6-6-6zM276.73 93.63a6 6 0 0 0-5.78 6.21c.2 5.42-.98 10.76-3.61 16.31-1.94 3.85 1.14 8.66 5.42 8.57 8.24.21 10.46-19.65 10.18-25.31-.12-3.31-2.89-5.92-6.21-5.78zM298.29 93.63c-3.29-.1-6.1 2.46-6.22 5.77-.17 4.58-1.89 8.24-5.58 11.87a6.002 6.002 0 0 0-.06 8.49c10.12 9.98 26.24-25.49 11.86-26.13zM316.44 93.63a5.98 5.98 0 0 0-6.17 5.82c-.07 2.34-1.21 4.88-3.38 7.55-3.25 3.72-.22 9.95 4.65 9.79 6.82-.36 10.63-12.05 10.72-16.98.1-3.31-2.51-6.08-5.82-6.17zM408.91 89.67c0-3.31-2.69-6-6-6h-36c-3.31 0-6 2.69-6 6s2.69 6 6 6h36c3.31 0 6-2.69 6-6zM397 148.38c6.14.13 8.34-8.66 2.69-11.37l-32.92-16.46c-7.1-3.41-12.37 7.08-5.37 10.73.8.08 35.78 18.66 35.6 17.09zM332.29 146.85a6.006 6.006 0 0 0-1.79 8.29l18.26 28.29c1.81 2.81 5.55 3.57 8.29 1.79a6.006 6.006 0 0 0 1.79-8.29l-18.26-28.29a6.006 6.006 0 0 0-8.29-1.79zM240.75 99.83c.14-7.88-11.6-8.3-11.99-.42-.25 7.3 1.34 14.66 4.75 21.86 1.42 3.03 5.06 4.26 7.99 2.86 3-1.42 4.28-4.99 2.86-7.99-2.62-5.53-3.8-10.87-3.61-16.32zM219.64 99.41c-.39-7.88-12.14-7.46-11.99.43.27 7.65 3.26 14.18 9.13 19.98 5.61 5.48 13.99-3 8.43-8.54-3.69-3.64-5.4-7.3-5.57-11.86zM201.44 99.45c-1.57-11.68-21.92-5.64-5.92 15.13 5.01 6.06 14.23-1.5 9.29-7.59-2.17-2.65-3.3-5.19-3.37-7.54zM102.79 89.67c0 3.31 2.69 6 6 6h35.99c3.31 0 6-2.69 6-6s-2.69-6-6-6h-35.99c-3.31 0-6 2.69-6 6zM114.71 148.38c-.28 1.62 34.87-17.05 35.59-17.09 6.98-3.64 1.76-14.14-5.37-10.73l-32.91 16.46c-5.64 2.7-3.46 11.5 2.69 11.37zM171.11 148.64l-18.25 28.29c-4.21 6.59 5.77 13.1 10.08 6.51l18.25-28.29c4.16-6.69-5.69-13.07-10.08-6.51z" fill="#154194" opacity="1" data-original="#000000" class=""></path></g></svg>