<svg xmlns="http://www.w3.org/2000/svg" version="1.1" xmlns:xlink="http://www.w3.org/1999/xlink" width="512" height="512" x="0" y="0" viewBox="0 0 512.022 512.022" style="enable-background:new 0 0 512 512" xml:space="preserve" class=""><g><path d="m165.558 141.889 59.328-59.349.448 290.816c0 17.673 14.327 32 32 32 17.673 0 32-14.327 32-32l-.448-290.453 58.987 58.987c12.278 12.712 32.536 13.064 45.248.786s13.064-32.536.786-45.248c-.258-.267-.52-.529-.786-.786l-68.523-68.523c-37.49-37.491-98.274-37.491-135.765-.001l-.001.001-68.522 68.522c-12.278 12.712-11.926 32.97.786 45.248 12.401 11.977 32.061 11.977 44.462 0z" fill="#154194" opacity="1" data-original="#000000"></path><path d="M480.011 309.355c-17.673 0-32 14.327-32 32v97.941a8.746 8.746 0 0 1-8.725 8.725H72.736a8.746 8.746 0 0 1-8.725-8.725v-97.941c0-17.673-14.327-32-32-32s-32 14.327-32 32v97.941c.047 40.146 32.58 72.678 72.725 72.725h366.549c40.146-.047 72.678-32.58 72.725-72.725v-97.941c.001-17.673-14.326-32-31.999-32z" fill="#154194" opacity="1" data-original="#000000"></path></g></svg>