<svg xmlns="http://www.w3.org/2000/svg" version="1.1" xmlns:xlink="http://www.w3.org/1999/xlink" width="512" height="512" x="0" y="0" viewBox="0 0 24 24" style="enable-background:new 0 0 512 512" xml:space="preserve"><g><path d="M2 12a1 1 0 0 1-2 0C0 5.383 5.383 0 12 0a11.95 11.95 0 0 1 8 3.077V1a1 1 0 1 1 2 0v3.5C22 5.878 20.879 7 19.5 7H16a1 1 0 1 1 0-2h3.126A9.959 9.959 0 0 0 12 2C6.486 2 2 6.486 2 12Zm21-1a1 1 0 0 0-1 1c0 5.514-4.486 10-10 10a9.963 9.963 0 0 1-7.127-3H8a1 1 0 0 0 0-2H4.5A2.503 2.503 0 0 0 2 19.5V23a1 1 0 0 0 2 0v-2.077A11.947 11.947 0 0 0 12 24c6.617 0 12-5.383 12-12a1 1 0 0 0-1-1Zm-5.304-1.134-.974.562c.166.497.278 1.019.278 1.572s-.111 1.075-.278 1.572l.974.562A.999.999 0 0 1 17.195 16a.992.992 0 0 1-.499-.134l-.973-.562A4.972 4.972 0 0 1 13 16.898v1.101a1 1 0 0 1-2 0v-1.101a4.983 4.983 0 0 1-2.723-1.594l-.973.562a.997.997 0 0 1-1.366-.366 1 1 0 0 1 .366-1.366l.974-.562C7.112 13.075 7 12.553 7 12s.111-1.075.278-1.572l-.974-.562a1 1 0 0 1 1-1.732l.973.562A4.972 4.972 0 0 1 11 7.102V6.001a1 1 0 0 1 2 0v1.101a4.983 4.983 0 0 1 2.723 1.594l.973-.562a1 1 0 1 1 1 1.732ZM15 12c0-1.654-1.346-3-3-3s-3 1.346-3 3 1.346 3 3 3 3-1.346 3-3Z" fill="#154194" opacity="1" data-original="#000000"></path></g></svg>