<svg xmlns="http://www.w3.org/2000/svg" version="1.1" xmlns:xlink="http://www.w3.org/1999/xlink" width="512" height="512" x="0" y="0" viewBox="0 0 511.707 511.707" style="enable-background:new 0 0 512 512" xml:space="preserve" class=""><g><path d="M511.707 134.35c0-7.996-3.114-15.513-8.768-21.165-5.653-5.653-13.17-8.767-21.165-8.767-7.996 0-15.512 3.114-21.166 8.767L236.37 337.42c-7.916 7.915-18.44 12.274-29.633 12.274s-21.717-4.359-29.633-12.275l-2.821-2.821c-7.915-7.916-12.275-18.439-12.275-29.632 0-11.194 4.359-21.717 12.274-29.632L398.52 51.098c5.654-5.653 8.769-13.171 8.769-21.166 0-7.996-3.114-15.513-8.768-21.165C392.868 3.113 385.352 0 377.356 0s-15.513 3.113-21.166 8.766L131.95 233.003c-19.223 19.221-29.809 44.778-29.809 71.962 0 17.573 4.389 34.45 12.786 49.477l-67.572 67.571a45.857 45.857 0 0 0-2.488-.068c-11.999 0-23.271 4.662-31.741 13.13-17.503 17.505-17.502 45.989.003 63.497 8.471 8.471 19.746 13.135 31.748 13.135s23.278-4.665 31.75-13.137c9.077-9.079 13.732-21.614 13.054-34.221l67.577-67.575c15.027 8.396 31.905 12.785 49.478 12.785 27.185 0 52.743-10.586 71.964-29.809l224.238-224.235c5.655-5.652 8.769-13.17 8.769-21.165zM496.627 341.805c-7.619-3.245-16.432.303-19.677 7.925-12.023 28.236-29.262 53.697-51.238 75.674-21.979 21.979-47.445 39.22-75.689 51.243-7.622 3.245-11.171 12.055-7.927 19.677 2.429 5.706 7.976 9.129 13.809 9.129 1.96 0 3.951-.387 5.868-1.202 31.795-13.535 60.444-32.926 85.152-57.634 24.705-24.704 44.094-53.348 57.627-85.135 3.246-7.622-.303-16.432-7.925-19.677zM15.381 169.614a14.949 14.949 0 0 0 5.868 1.202c5.832 0 11.38-3.424 13.809-9.129 12.024-28.245 29.264-53.71 51.243-75.688 21.976-21.975 47.435-39.214 75.675-51.237 7.622-3.245 11.171-12.055 7.925-19.677-3.245-7.623-12.055-11.17-19.677-7.925-31.789 13.534-60.433 32.923-85.136 57.626-24.708 24.706-44.099 53.355-57.634 85.151-3.244 7.622.305 16.432 7.927 19.677zM450.748 338.591c3.248-7.621-.297-16.432-7.918-19.68-7.62-3.25-16.432.297-19.68 7.918-18.235 42.789-53.236 77.786-96.028 96.019-7.621 3.247-11.167 12.058-7.92 19.68 2.431 5.703 7.976 9.124 13.807 9.124 1.961 0 3.955-.387 5.873-1.204 24.994-10.649 47.449-25.83 66.741-45.119 19.291-19.29 34.474-41.744 45.125-66.738zM61.257 172.827c-3.247 7.621.299 16.433 7.92 19.68a14.958 14.958 0 0 0 5.873 1.204c5.831 0 11.377-3.421 13.807-9.124 18.233-42.791 53.23-77.791 96.02-96.026 7.621-3.247 11.166-12.059 7.918-19.68-3.247-7.62-12.057-11.168-19.68-7.918-24.993 10.65-47.447 25.833-66.737 45.124-19.291 19.29-34.472 41.746-45.121 66.74z" fill="#154194" opacity="1" data-original="#000000" class=""></path></g></svg>