<svg xmlns="http://www.w3.org/2000/svg" version="1.1" xmlns:xlink="http://www.w3.org/1999/xlink" width="512" height="512" x="0" y="0" viewBox="0 0 64 64" style="enable-background:new 0 0 512 512" xml:space="preserve"><g><path d="m58.64 40.23-2.61-8.9a4.06 4.06 0 0 1-.09-2.01c.32-1.42.48-2.87.48-4.31 0-6.02-2.69-11.63-7.39-15.4S38.2 4.43 32.19 5.76c-.56.13-1.01.24-1.42.37-3.26-.99-6.77-1.14-10.24-.38C11.2 7.8 4.79 16.38 5.29 26.2c.31 5.69 2.76 10.56 4.92 14.85 1.56 3.1 2.91 5.78 3.05 8.03.35 5.67 0 8.81 0 8.84-.02.21.04.42.19.58.14.16.35.25.56.25h31.67c.41 0 .75-.34.75-.75v-7.25h2.25c2.07 0 3.75-1.68 3.75-3.75v-3.25h3.58c.87 0 1.67-.4 2.2-1.1s.69-1.58.44-2.42zM33.25 57.25H14.81c.09-1.3.19-4.1-.07-8.27-.06-1.03-.34-2.11-.74-3.23h11.24v2.62c-1.15.33-2 1.38-2 2.63 0 1.52 1.23 2.75 2.75 2.75s2.75-1.23 2.75-2.75c0-1.25-.85-2.3-2-2.63V45c0-.41-.34-.75-.75-.75H13.4c-.53-1.23-1.17-2.51-1.86-3.88-.1-.2-.21-.41-.31-.62h17.13c.33 1.15 1.38 2 2.63 2 1.52 0 2.75-1.23 2.75-2.75s-1.23-2.75-2.75-2.75c-1.25 0-2.3.85-2.63 2H10.49c-.85-1.74-1.67-3.57-2.33-5.5h15.2c.33 1.15 1.38 2 2.63 2 1.52 0 2.75-1.23 2.75-2.75s-1.23-2.75-2.75-2.75c-1.25 0-2.3.85-2.63 2H7.69a24.36 24.36 0 0 1-.85-4.5h22.52c.33 1.15 1.38 2 2.63 2 1.52 0 2.75-1.23 2.75-2.75s-1.23-2.75-2.75-2.75c-1.25 0-2.3.85-2.63 2H6.77c-.01-1.55.15-3.05.49-4.5h20.73c.41 0 .75-.34.75-.75v-3.37c1.15-.33 2-1.38 2-2.63 0-1.52-1.23-2.75-2.75-2.75s-2.75 1.23-2.75 2.75c0 1.25.85 2.3 2 2.63v2.62H7.68C9.63 13.28 14.5 8.6 20.84 7.21c5.56-1.23 11.24.07 15.57 3.56 4.34 3.49 6.83 8.68 6.83 14.23 0 1.36-.15 2.7-.44 3.98-.2.88-.16 1.83.11 2.77l2.61 8.9c.11.38.04.78-.2 1.1s-.6.5-1 .5h-4.33c-.41 0-.75.34-.75.75v4c0 1.24-1.01 2.25-2.25 2.25h-3c-.41 0-.75.34-.75.75v7.25zM26 49.75a1.25 1.25 0 1 1 0 2.5 1.25 1.25 0 0 1 0-2.5zM29.75 39a1.25 1.25 0 1 1 2.5 0 1.25 1.25 0 0 1-2.5 0zm-5-7a1.25 1.25 0 1 1 2.5 0 1.25 1.25 0 0 1-2.5 0zm6-6a1.25 1.25 0 1 1 2.5 0 1.25 1.25 0 0 1-2.5 0zM28 15.25a1.25 1.25 0 1 1 0-2.5 1.25 1.25 0 0 1 0 2.5zm29 26.5c-.24.32-.6.5-1 .5h-4.33c-.41 0-.75.34-.75.75v4c0 1.24-1.01 2.25-2.25 2.25h-3c-.41 0-.75.34-.75.75v7.25H34.75v-6.5H37c2.07 0 3.75-1.68 3.75-3.75v-3.25h3.58c.87 0 1.68-.4 2.2-1.1s.68-1.58.44-2.42l-2.61-8.9c-.2-.69-.23-1.39-.09-2.01.32-1.39.48-2.84.48-4.31 0-6.01-2.69-11.63-7.39-15.4a19.791 19.791 0 0 0-4.1-2.53c5.32-.96 10.68.37 14.83 3.7 4.34 3.49 6.83 8.67 6.83 14.23 0 1.33-.15 2.68-.44 3.98-.2.88-.16 1.84.11 2.77l2.61 8.9c.11.38.04.78-.2 1.1z" fill="#154194" opacity="1" data-original="#000000"></path></g></svg>