<svg xmlns="http://www.w3.org/2000/svg" version="1.1" xmlns:xlink="http://www.w3.org/1999/xlink" width="512" height="512" x="0" y="0" viewBox="0 0 500 500" style="enable-background:new 0 0 512 512" xml:space="preserve" class=""><g><path fill-rule="evenodd" d="M265.552 165.626c0 4.668-3.794 8.474-8.444 8.474-4.703 0-8.498-3.807-8.498-8.474 0-4.676 3.795-8.473 8.498-8.473 4.65 0 8.444 3.797 8.444 8.473zm-29.608 0c0 11.662 9.46 21.159 21.164 21.159 11.651 0 21.111-9.497 21.111-21.159 0-11.67-9.46-21.159-21.111-21.159-11.704.001-21.164 9.489-21.164 21.159zm52.857-1.607c0-17.488-14.216-31.712-31.693-31.712-17.53 0-31.746 14.224-31.746 31.712 0 12.625 21.201 44.805 31.746 61.433 10.398-17.012 31.693-48.316 31.693-61.433zm-76.105 0c0 13.929 13.842 36.931 29.288 61.28 2.726 4.272 5.077 7.959 6.787 10.891 3.64 6.158 12.785 6.383 16.621 0 1.764-2.925 4.062-6.603 6.787-10.866 15.445-24.39 29.288-47.426 29.288-61.305 0-24.48-19.881-44.396-44.359-44.396-24.531-.001-44.412 19.916-44.412 44.396zm-66.272-58.825C169.062 65.842 211.6 40.91 257.001 40.702h.16c22.019.202 43.825 6.09 62.958 17.017a128.626 128.626 0 0 1 47.619 47.476c2.509 4.339-.717 9.514-5.452 9.514a6.347 6.347 0 0 1-5.505-3.171c-20.468-35.478-58.681-57.753-99.673-58.15-41.046.396-79.259 22.672-99.728 58.148-1.71 3.036-5.612 4.066-8.658 2.317-3.046-1.75-4.061-5.623-2.298-8.659zm110.684-10.106c-24.424.382-47.192 13.726-59.377 34.852a6.341 6.341 0 0 1-8.658 2.317c-3.046-1.752-4.062-5.633-2.298-8.662 14.43-24.998 41.313-40.777 70.226-41.193h.16c28.913.416 55.85 16.194 70.226 41.193 2.513 4.342-.724 9.515-5.451 9.515a6.364 6.364 0 0 1-5.505-3.171c-12.185-21.125-34.952-34.469-59.323-34.851zm187.484 320.38c0 3.121-2.566 5.666-5.719 5.666h-21.859c-2.939-14.522-15.82-25.48-31.212-25.48-15.339 0-28.219 10.958-31.158 25.48H159.679c-2.993-14.522-15.82-25.48-31.212-25.48s-28.219 10.958-31.158 25.48H61.073c-3.1 0-5.665-2.545-5.665-5.666V370.01c0-3.128 2.566-5.674 5.665-5.674h252.259a6.338 6.338 0 0 0 6.36-6.342V253.332h69.585c38.197 0 55.315 11.201 55.315 49.43zm-58.789 31.146c10.582 0 19.133-8.585 19.133-19.138s-8.551-19.138-19.133-19.138c-10.529 0-19.133 8.584-19.133 19.138 0 10.553 8.604 19.138 19.133 19.138zm-257.336 0c10.582 0 19.133-8.585 19.133-19.138s-8.551-19.138-19.133-19.138c-10.529 0-19.133 8.584-19.133 19.138 0 10.553 8.604 19.138 19.133 19.138zM84.215 269.772v81.879h85.351v-81.879H150.7v35.653c0 3.501-2.833 6.342-6.306 6.342h-35.006a6.342 6.342 0 0 1-6.36-6.342v-35.653zm31.532 0v29.311h22.286v-29.311zm97.964 0v29.311h22.34v-29.311zm53.819 81.879v-81.879h-18.813v35.653a6.343 6.343 0 0 1-6.36 6.342h-34.953a6.343 6.343 0 0 1-6.36-6.342v-35.653h-18.812v81.879zm172.359-97.252c11.704 10.004 17.369 25.826 17.369 48.363v112.706c0 10.113-8.231 18.351-18.385 18.351h-21.859c-2.939 14.52-15.82 25.48-31.212 25.48-15.339 0-28.219-10.96-31.158-25.48H159.679c-2.993 14.52-15.82 25.48-31.212 25.48s-28.219-10.96-31.158-25.48H61.073c-10.101 0-18.332-8.238-18.332-18.351V370.01c0-10.121 8.231-18.359 18.332-18.359h10.475V263.43a6.338 6.338 0 0 1 6.36-6.342H273.89c3.474 0 6.307 2.833 6.307 6.342v88.221h26.829V246.989c0-3.5 2.833-6.342 6.307-6.342h75.945c23.568 0 39.655 4.372 50.611 13.752z" clip-rule="evenodd" fill="#154194" opacity="1" data-original="#000000"></path></g></svg>