<svg xmlns="http://www.w3.org/2000/svg" version="1.1" xmlns:xlink="http://www.w3.org/1999/xlink" width="512" height="512" x="0" y="0" viewBox="0 0 512 512" style="enable-background:new 0 0 512 512" xml:space="preserve" class=""><g><circle cx="256" cy="66.089" r="16.163" style="stroke-width:15;stroke-linecap:round;stroke-linejoin:round;stroke-miterlimit:10;" fill="none" stroke="#154194" stroke-width="15" stroke-linecap="round" stroke-linejoin="round" stroke-miterlimit="10" data-original="#000000" opacity="1" class=""></circle><circle cx="256" cy="130.74" r="16.163" style="stroke-width:15;stroke-linecap:round;stroke-linejoin:round;stroke-miterlimit:10;" fill="none" stroke="#154194" stroke-width="15" stroke-linecap="round" stroke-linejoin="round" stroke-miterlimit="10" data-original="#000000" opacity="1" class=""></circle><path d="M305.83 7.5h30.98v161.63c0 11.15-9.04 20.2-20.2 20.2H195.39c-11.16 0-20.2-9.05-20.2-20.2V7.5h95.64M504.5 7.5H336.813M336.813 39.825H504.5M7.5 7.5h167.687M175.187 39.825H7.5" style="stroke-width:15;stroke-linecap:round;stroke-linejoin:round;stroke-miterlimit:10;" fill="none" stroke="#154194" stroke-width="15" stroke-linecap="round" stroke-linejoin="round" stroke-miterlimit="10" data-original="#000000" opacity="1" class=""></path><path d="M304.488 189.329v44.447c0 11.158-9.045 20.203-20.203 20.203h-56.569c-11.158 0-20.203-9.045-20.203-20.203v-44.447M239.837 253.98v158.057a6.062 6.062 0 0 0 2.849 5.14l7.96 4.975a10.103 10.103 0 0 0 10.708 0l7.96-4.975a6.062 6.062 0 0 0 2.849-5.14V253.98M54.5 407.52H21.64c-7.81 0-14.14 6.34-14.14 14.15v68.69c0 7.81 6.33 14.14 14.14 14.14H401.5" style="stroke-width:15;stroke-linecap:round;stroke-linejoin:round;stroke-miterlimit:10;" fill="none" stroke="#154194" stroke-width="15" stroke-linecap="round" stroke-linejoin="round" stroke-miterlimit="10" data-original="#000000" opacity="1" class=""></path><path d="M89.5 407.52h40.99c7.46 0 13.95 5.1 15.71 12.35l5.78 23.8a16.164 16.164 0 0 0 15.71 12.34h176.62c7.46 0 13.95-5.1 15.71-12.34l5.78-23.8a16.162 16.162 0 0 1 15.71-12.35h108.85c7.81 0 14.14 6.34 14.14 14.15v68.69c0 7.81-6.33 14.14-14.14 14.14H436.5M239.837 305.645l32.326-6.217M239.837 342.345l32.326-6.216M239.837 379.22l32.326-6.216M325.194 423.687l8.748-5.051M304.488 402.981l10.101-17.496M186.806 423.687l-8.748-5.051M207.512 402.981l-10.101-17.496" style="stroke-width:15;stroke-linecap:round;stroke-linejoin:round;stroke-miterlimit:10;" fill="none" stroke="#154194" stroke-width="15" stroke-linecap="round" stroke-linejoin="round" stroke-miterlimit="10" data-original="#000000" opacity="1" class=""></path></g></svg>