<svg xmlns="http://www.w3.org/2000/svg" version="1.1" xmlns:xlink="http://www.w3.org/1999/xlink" width="512" height="512" x="0" y="0" viewBox="0 0 512 512" style="enable-background:new 0 0 512 512" xml:space="preserve" class=""><g><path d="M497.231 0H14.769C6.613 0 0 6.613 0 14.769v34.462c0 24.431 19.876 44.308 44.308 44.308h118.154v64c0 8.157 6.613 14.769 14.769 14.769h24.615v280.615a14.77 14.77 0 0 0 3.731 9.812l39.385 44.308a14.767 14.767 0 0 0 22.078 0l39.385-44.308a14.776 14.776 0 0 0 3.731-9.812V172.308h24.615c8.157 0 14.769-6.613 14.769-14.769v-64h118.154c24.431 0 44.308-19.876 44.308-44.308V14.769C512 6.613 505.387 0 497.231 0zM280.615 447.308 256 475l-24.615-27.692v-4.949l49.231-24.615v29.564zm0-62.589-49.231 24.615v-35.898l49.231-24.615v35.898zm0-68.924-49.231 24.615v-35.898l49.231-24.615v35.898zm0-68.923-49.231 24.615v-40.102h49.231v15.487zm0-45.026h-49.231v-29.538h49.231v29.538zM320 142.769H192V93.538h128v49.231zm162.462-93.538c0 8.144-6.625 14.769-14.769 14.769H44.308c-8.144 0-14.769-6.625-14.769-14.769V29.538h452.923v19.693zM201.171 487.419l-19.017-21.394V433.23c0-8.157-6.613-14.769-14.769-14.769H14.769C6.613 418.462 0 425.074 0 433.231v64C0 505.387 6.613 512 14.769 512h175.363a14.77 14.77 0 0 0 11.039-24.581zm-171.633-4.957V448h123.077v23.641a14.77 14.77 0 0 0 3.731 9.812l.897 1.009H29.538zM497.231 418.462H344.615c-8.156 0-14.769 6.613-14.769 14.769v32.795L310.83 487.42a14.77 14.77 0 0 0 11.039 24.581h175.362c8.157 0 14.769-6.613 14.769-14.769v-64c0-8.158-6.613-14.77-14.769-14.77zm-14.769 64H354.757l.897-1.009a14.776 14.776 0 0 0 3.731-9.812V448h123.077v34.462z" fill="#154194" opacity="1" data-original="#000000" class=""></path><path d="M384.597 294.788c-5.767-5.768-15.119-5.768-20.887 0l-29.538 29.538c-5.768 5.768-5.768 15.119 0 20.887a14.723 14.723 0 0 0 10.444 4.325c3.78 0 7.56-1.441 10.443-4.326l29.538-29.538c5.769-5.767 5.769-15.119 0-20.886zM384.597 353.864c-5.767-5.768-15.119-5.768-20.886.001l-19.692 19.692c-5.768 5.768-5.768 15.119 0 20.887 2.883 2.884 6.663 4.325 10.443 4.325s7.56-1.441 10.443-4.326l19.692-19.692c5.768-5.768 5.768-15.119 0-20.887zM177.827 324.325l-29.538-29.538c-5.767-5.768-15.119-5.768-20.887 0s-5.768 15.119 0 20.887l29.539 29.538a14.716 14.716 0 0 0 10.443 4.326c3.78 0 7.56-1.441 10.443-4.326 5.768-5.768 5.768-15.119 0-20.887zM167.981 373.556l-19.692-19.692c-5.767-5.768-15.119-5.768-20.887 0-5.768 5.768-5.768 15.12.001 20.887l19.692 19.692a14.716 14.716 0 0 0 10.443 4.326c3.78 0 7.56-1.441 10.443-4.326 5.768-5.768 5.768-15.119 0-20.887z" fill="#154194" opacity="1" data-original="#000000" class=""></path></g></svg>