<svg xmlns="http://www.w3.org/2000/svg" version="1.1" xmlns:xlink="http://www.w3.org/1999/xlink" width="512" height="512" x="0" y="0" viewBox="0 0 64 64" style="enable-background:new 0 0 512 512" xml:space="preserve" class=""><g><path d="M28.543 38.714h-2.576l1.618-6.471a1 1 0 0 0-.97-1.243h-5.786a1 1 0 0 0-.949.684l-3.857 11.57a1.007 1.007 0 0 0 .949 1.317h4.605L19.843 54.98a1.003 1.003 0 0 0 1.88.611l7.715-15.428a1.007 1.007 0 0 0-.895-1.448ZM22.91 48.748l.835-5.012a1 1 0 0 0-.986-1.165h-4.399L21.55 33h3.785l-1.618 6.472a1.007 1.007 0 0 0 .97 1.242h2.24Z" fill="#154194" opacity="1" data-original="#000000" class=""></path><path d="M57.258 16.999h-1.5v-3a1 1 0 0 0-2 0v3h-4v-3a1 1 0 0 0-2 0v3h-1.5a1 1 0 0 0 0 2h.5V22a5.008 5.008 0 0 0 4 4.899V40a3.003 3.003 0 0 1-3 3h-8V7a3.003 3.003 0 0 0-3-3h-28a3.003 3.003 0 0 0-3 3v50a3.003 3.003 0 0 0 3 3h28a3.003 3.003 0 0 0 3-3V45h8a5.006 5.006 0 0 0 5-5V26.899a5.008 5.008 0 0 0 4-4.899v-3.001h.5a1 1 0 0 0 0-2ZM37.758 57a1.001 1.001 0 0 1-1 1h-28a1.001 1.001 0 0 1-1-1V7a1.001 1.001 0 0 1 1-1h28a1.001 1.001 0 0 1 1 1Zm17-35a3 3 0 0 1-6 0v-3.001h6Z" fill="#154194" opacity="1" data-original="#000000" class=""></path><path d="M35.136 7.91h-24a1 1 0 0 0-1 1V28a1 1 0 0 0 1 1h24a1 1 0 0 0 1-1V8.91a1 1 0 0 0-1-1Zm-1 19.09h-22V9.91h22Z" fill="#154194" opacity="1" data-original="#000000" class=""></path></g></svg>