<svg xmlns="http://www.w3.org/2000/svg" version="1.1" xmlns:xlink="http://www.w3.org/1999/xlink" width="512" height="512" x="0" y="0" viewBox="0 0 64 64" style="enable-background:new 0 0 512 512" xml:space="preserve" class=""><g><path d="M58 13h-1v-1c0-1.654-1.346-3-3-3H42c-1.654 0-3 1.346-3 3v1H6c-2.757 0-5 2.243-5 5v32c0 2.757 2.243 5 5 5h52c2.757 0 5-2.243 5-5V18c0-2.757-2.243-5-5-5zm-17-1c0-.552.449-1 1-1h12c.551 0 1 .448 1 1v4c0 .552-.449 1-1 1H42c-.551 0-1-.448-1-1zM3 50V18c0-1.654 1.346-3 3-3h33v1c0 1.654 1.346 3 3 3h12c1.654 0 3-1.346 3-3v-1h1c1.654 0 3 1.346 3 3v23H49v12H6c-1.654 0-3-1.346-3-3zm55 3h-7V43h10v7c0 1.654-1.346 3-3 3z" fill="#154194" opacity="1" data-original="#000000"></path><path d="M11 20c0-1.654-1.346-3-3-3s-3 1.346-3 3 1.346 3 3 3 3-1.346 3-3zm-4 0a1.001 1.001 0 1 1 1 1c-.551 0-1-.448-1-1zM56 45c-1.654 0-3 1.346-3 3s1.346 3 3 3 3-1.346 3-3-1.346-3-3-3zm0 4a1.001 1.001 0 0 1 0-2 1.001 1.001 0 0 1 0 2zM15 43h14V29H15zm2-12h10v10H17z" fill="#154194" opacity="1" data-original="#000000"></path><path d="M31 25v-4h-2v4h-2v-4h-2v4h-2v-4h-2v4h-2v-4h-2v4h-2v-4h-2v4c-1.103 0-2 .897-2 2H7v2h4v2H7v2h4v2H7v2h4v2H7v2h4v2H7v2h4c0 1.103.897 2 2 2v4h2v-4h2v4h2v-4h2v4h2v-4h2v4h2v-4h2v4h2v-4c1.103 0 2-.897 2-2h4v-2h-4v-2h4v-2h-4v-2h4v-2h-4v-2h4v-2h-4v-2h4v-2h-4c0-1.103-.897-2-2-2zM13 45V27h18l.001 18zM45 29c2.206 0 4-1.794 4-4s-1.794-4-4-4-4 1.794-4 4 1.794 4 4 4zm0-6c1.103 0 2 .897 2 2s-.897 2-2 2-2-.897-2-2 .897-2 2-2zM55 29c2.206 0 4-1.794 4-4s-1.794-4-4-4-4 1.794-4 4 1.794 4 4 4zm0-6c1.103 0 2 .897 2 2s-.897 2-2 2-2-.897-2-2 .897-2 2-2zM59 31H41v8h18zm-2 6H43v-4h14zM43 43c-2.206 0-4 1.794-4 4s1.794 4 4 4 4-1.794 4-4-1.794-4-4-4zm0 6c-1.103 0-2-.897-2-2s.897-2 2-2 2 .897 2 2-.897 2-2 2zM47 13h2v2h-2zM51 13h2v2h-2zM43 13h2v2h-2z" fill="#154194" opacity="1" data-original="#000000"></path></g></svg>