<svg xmlns="http://www.w3.org/2000/svg" version="1.1" xmlns:xlink="http://www.w3.org/1999/xlink" width="512" height="512" x="0" y="0" viewBox="0 0 74 74" style="enable-background:new 0 0 512 512" xml:space="preserve"><g><path d="M52.35 52.57h-30.7a4 4 0 0 1-4-4V22.19a4 4 0 0 1 4-4h30.7a4 4 0 0 1 4 4v26.38a4 4 0 0 1-4 4zm-30.7-32.38a2 2 0 0 0-2 2v26.38a2 2 0 0 0 2 2h30.7a2 2 0 0 0 2-2V22.19a2 2 0 0 0-2-2z" fill="#154194" opacity="1" data-original="#000000"></path><path d="M47.79 67.6a1 1 0 0 1-1-1v-15a1 1 0 0 1 2 0v15a1 1 0 0 1-1 1z" fill="#154194" opacity="1" data-original="#000000"></path><path d="M52.11 72h-8.63a1 1 0 0 1-1-1v-4.4a1 1 0 0 1 1-1h8.63a1 1 0 0 1 1 1V71a1 1 0 0 1-1 1zm-7.63-2h6.63v-2.4h-6.63zM26.21 67.6a1 1 0 0 1-1-1v-15a1 1 0 0 1 2 0v15a1 1 0 0 1-1 1z" fill="#154194" opacity="1" data-original="#000000"></path><path d="M30.52 72h-8.63a1 1 0 0 1-1-1v-4.4a1 1 0 0 1 1-1h8.63a1 1 0 0 1 1 1V71a1 1 0 0 1-1 1zm-7.63-2h6.63v-2.4h-6.63zM64 41.78a1 1 0 0 1-1-1V30a3.31 3.31 0 0 0-3.31-3.31h-4.34a1 1 0 0 1 0-2h4.32A5.31 5.31 0 0 1 65 30v10.8a1 1 0 0 1-1 .98z" fill="#154194" opacity="1" data-original="#000000"></path><path d="M67.22 41.78h-6.47a1 1 0 0 1 0-2h6.47a1 1 0 0 1 0 2zM10 41.78a1 1 0 0 1-1-1V30a5.31 5.31 0 0 1 5.31-5.31h4.32a1 1 0 0 1 0 2h-4.3A3.31 3.31 0 0 0 11 30v10.8a1 1 0 0 1-1 .98z" fill="#154194" opacity="1" data-original="#000000"></path><path d="M13.25 41.78H6.78a1 1 0 0 1 0-2h6.47a1 1 0 0 1 0 2zM31.6 13.17a1 1 0 0 1-1-1V10a1 1 0 0 1 2 0v2.15a1 1 0 0 1-1 1.02zM42.4 13.17a1 1 0 0 1-1-1V10a1 1 0 0 1 2 0v2.15a1 1 0 0 1-1 1.02zM45.63 31H28.37a1 1 0 0 1 0-2h17.26a1 1 0 0 1 0 2zM45.63 41.78H28.37a1 1 0 0 1 0-2h17.26a1 1 0 0 1 0 2z" fill="#154194" opacity="1" data-original="#000000"></path><path d="M48.87 20.19H25.13a1 1 0 0 1-1-1V6.24A4.24 4.24 0 0 1 28.37 2h17.26a4.24 4.24 0 0 1 4.24 4.24v13a1 1 0 0 1-1 .95zm-22.74-2h21.74v-12A2.24 2.24 0 0 0 45.63 4H28.37a2.24 2.24 0 0 0-2.24 2.24z" fill="#154194" opacity="1" data-original="#000000"></path></g></svg>