<?xml version="1.0" standalone="no"?>
<!DOCTYPE svg PUBLIC "-//W3C//DTD SVG 20010904//EN"
 "http://www.w3.org/TR/2001/REC-SVG-20010904/DTD/svg10.dtd">
<svg version="1.0" xmlns="http://www.w3.org/2000/svg"
 width="90.000000pt" height="90.000000pt" viewBox="0 0 90.000000 90.000000"
 preserveAspectRatio="xMidYMid meet">

<g transform="translate(0.000000,90.000000) scale(0.100000,-0.100000)"
fill="#000000" stroke="none">
<path d="M670 867 c-87 -46 -102 -137 -34 -205 19 -19 34 -42 34 -52 0 -30 18
-33 55 -10 49 30 44 56 -6 30 -15 -8 -19 -7 -19 4 0 8 -13 23 -29 32 -50 29
-67 97 -35 142 64 92 234 53 234 -54 0 -47 -8 -62 -48 -89 -30 -21 -33 -25
-18 -31 13 -5 28 3 53 28 67 67 50 162 -37 206 -56 28 -96 28 -150 -1z"/>
<path d="M27 773 c-4 -3 -7 -17 -7 -30 0 -18 9 -28 33 -38 17 -7 40 -23 49
-34 10 -12 29 -21 43 -21 21 0 25 -5 25 -30 0 -28 -2 -30 -40 -30 -23 0 -51 7
-64 15 -38 25 -77 -6 -60 -49 7 -17 64 -23 64 -6 0 6 23 10 51 10 49 0 50 -1
47 -27 -2 -21 -9 -29 -28 -31 -14 -2 -36 -14 -50 -27 -14 -12 -35 -26 -47 -30
-35 -10 -32 -62 4 -71 30 -8 57 18 48 46 -7 21 39 64 59 57 9 -4 16 -16 16
-27 0 -29 35 -60 70 -60 27 0 30 -3 30 -30 0 -29 -2 -30 -45 -30 -25 0 -45 -3
-45 -7 1 -21 48 -88 63 -91 10 -2 38 13 63 33 l45 37 42 -38 c23 -21 42 -41
42 -44 0 -3 -6 -29 -14 -57 l-13 -53 -87 0 c-72 0 -91 -3 -104 -18 -10 -10
-17 -26 -17 -36 0 -15 -10 -16 -82 -14 l-83 3 -3 99 c-3 118 7 140 73 158 24
7 42 15 39 20 -8 13 -53 9 -84 -7 -47 -24 -60 -61 -60 -170 0 -147 -36 -135
420 -135 l381 0 23 23 c16 16 31 57 51 140 41 166 54 157 -227 157 l-218 0 0
30 c0 26 4 30 28 30 34 0 72 36 72 68 0 19 6 22 38 22 46 0 82 -32 82 -72 0
-41 59 -50 74 -12 8 22 -11 54 -33 54 -9 0 -28 11 -41 25 -19 20 -33 25 -72
25 -47 0 -48 1 -48 30 0 29 2 30 45 30 33 0 45 4 45 15 0 11 -12 15 -45 15
l-45 0 0 65 c0 101 -8 105 -178 105 -151 0 -182 -9 -182 -56 0 -19 -5 -24 -24
-24 -25 0 -60 36 -50 51 10 16 -17 49 -40 49 -12 0 -26 -3 -29 -7z m40 -39
c-9 -9 -28 6 -21 18 4 6 10 6 17 -1 6 -6 8 -13 4 -17z m416 -7 c16 -11 17 -30
15 -157 l-3 -145 -140 -3 c-123 -2 -141 0 -152 15 -9 11 -13 58 -13 144 0 162
-3 159 160 159 78 0 122 -4 133 -13z m-433 -152 c0 -8 -4 -15 -10 -15 -5 0
-10 7 -10 15 0 8 5 15 10 15 6 0 10 -7 10 -15z m20 -165 c0 -5 -7 -10 -15 -10
-8 0 -15 5 -15 10 0 6 7 10 15 10 8 0 15 -4 15 -10z m630 0 c0 -5 -7 -10 -15
-10 -8 0 -15 5 -15 10 0 6 7 10 15 10 8 0 15 -4 15 -10z m-300 -50 c0 -29 -1
-30 -50 -30 -49 0 -50 1 -50 30 0 29 1 30 50 30 49 0 50 -1 50 -30z m-100 -59
c0 -5 -13 -19 -29 -30 l-28 -20 -12 25 c-15 34 -16 34 29 34 22 0 40 -4 40 -9z
m154 -13 c-10 -34 -12 -34 -42 -5 l-27 27 38 0 c35 0 38 -2 31 -22z m400 16
c9 -3 16 -16 16 -28 0 -31 -49 -207 -62 -223 -8 -10 -55 -13 -199 -13 -104 0
-189 3 -189 8 0 34 64 240 77 250 18 13 325 18 357 6z m-454 -228 c0 -30 -16
-36 -91 -36 -72 0 -79 2 -79 20 0 18 7 20 85 20 47 0 85 -2 85 -4z"/>
<path d="M282 618 c-30 -69 -45 -119 -37 -126 4 -4 12 1 19 11 17 23 75 23 92
0 7 -10 16 -15 20 -10 10 10 -48 159 -63 165 -8 2 -21 -15 -31 -40z m42 -30
c9 -35 8 -38 -14 -38 -11 0 -20 3 -20 8 0 19 13 52 20 52 4 0 10 -10 14 -22z"/>
<path d="M410 575 c0 -69 3 -85 15 -85 12 0 15 16 15 85 0 69 -3 85 -15 85
-12 0 -15 -16 -15 -85z"/>
<path d="M627 202 c-22 -24 -21 -45 1 -65 23 -21 46 -22 66 -1 30 30 9 84 -33
84 -10 0 -25 -8 -34 -18z m53 -32 c0 -13 -7 -20 -20 -20 -13 0 -20 7 -20 20 0
13 7 20 20 20 13 0 20 -7 20 -20z"/>
<path d="M670 750 c0 -5 7 -10 15 -10 8 0 15 5 15 10 0 6 -7 10 -15 10 -8 0
-15 -4 -15 -10z"/>
<path d="M740 750 c0 -5 5 -10 10 -10 6 0 10 5 10 10 0 6 -4 10 -10 10 -5 0
-10 -4 -10 -10z"/>
<path d="M810 750 c0 -5 5 -10 10 -10 6 0 10 5 10 10 0 6 -4 10 -10 10 -5 0
-10 -4 -10 -10z"/>
</g>
</svg>
