<?xml version="1.0" standalone="no"?>
<!DOCTYPE svg PUBLIC "-//W3C//DTD SVG 20010904//EN"
 "http://www.w3.org/TR/2001/REC-SVG-20010904/DTD/svg10.dtd">
<svg version="1.0" xmlns="http://www.w3.org/2000/svg"
 width="91.000000pt" height="90.000000pt" viewBox="0 0 91.000000 90.000000"
 preserveAspectRatio="xMidYMid meet">

<g transform="translate(0.000000,90.000000) scale(0.100000,-0.100000)"
fill="#000000" stroke="none">
<path d="M84 890 c-54 -21 -54 -24 -54 -444 0 -351 -2 -390 -17 -401 -10 -7
-14 -19 -10 -29 6 -15 35 -16 309 -14 l303 3 3 23 c2 12 -1 22 -7 22 -8 0 -11
76 -11 240 0 211 2 239 15 233 36 -13 45 -57 45 -208 0 -81 4 -154 10 -164 16
-31 65 -46 100 -31 17 7 35 21 40 31 6 10 10 104 10 210 l0 192 45 41 45 42 0
71 c0 52 -4 72 -14 76 -8 3 -16 22 -18 44 -2 30 -7 38 -23 38 -16 0 -21 -8
-23 -37 -3 -34 -6 -38 -32 -38 -26 0 -29 4 -32 37 -5 64 -57 56 -58 -9 0 -15
-4 -30 -10 -33 -5 -3 -10 -39 -10 -79 0 -78 18 -118 60 -131 20 -6 20 -14 18
-203 l-3 -197 -25 0 -25 0 -5 162 c-6 179 -13 202 -77 233 l-31 15 -4 128 -3
129 -33 29 -32 29 -213 -1 c-116 0 -222 -4 -233 -9z m437 -50 c18 -10 19 -25
19 -400 l0 -390 -230 0 -230 0 0 382 c0 341 2 383 17 400 15 16 35 18 210 18
115 0 202 -4 214 -10z m339 -143 c0 -44 -25 -77 -57 -77 -39 0 -63 27 -63 72
l0 38 60 0 60 0 0 -33z"/>
<path d="M151 776 c-8 -9 -11 -55 -9 -137 l3 -124 165 0 165 0 3 129 c2 97 -1
131 -10 138 -7 4 -79 8 -159 8 -113 0 -149 -3 -158 -14z m279 -131 l0 -85
-115 0 -115 0 0 85 0 85 115 0 115 0 0 -85z"/>
<path d="M292 418 c-20 -25 -62 -118 -62 -137 0 -22 19 -31 66 -31 l34 0 -20
-32 c-23 -39 -26 -74 -6 -81 18 -7 26 3 65 81 37 74 32 92 -30 92 -22 0 -39 2
-39 5 0 3 9 24 21 46 16 32 18 44 8 55 -14 17 -24 18 -37 2z"/>
</g>
</svg>
