<svg xmlns="http://www.w3.org/2000/svg" version="1.1" xmlns:xlink="http://www.w3.org/1999/xlink" width="512" height="512" x="0" y="0" viewBox="0 0 682.667 682.667" style="enable-background:new 0 0 512 512" xml:space="preserve" class=""><g><defs><clipPath id="a" clipPathUnits="userSpaceOnUse"><path d="M0 512h512V0H0Z" fill="#154194" opacity="1" data-original="#000000"></path></clipPath></defs><path d="M0 0v-27.605" style="stroke-width:15;stroke-linecap:round;stroke-linejoin:round;stroke-miterlimit:10;stroke-dasharray:none;stroke-opacity:1" transform="matrix(1.33333 0 0 -1.33333 628.667 425.684)" fill="none" stroke="#154194" stroke-width="15" stroke-linecap="round" stroke-linejoin="round" stroke-miterlimit="10" stroke-dasharray="none" stroke-opacity="" data-original="#000000" opacity="1" class=""></path><path d="M0 0v-27.833" style="stroke-width:15;stroke-linecap:round;stroke-linejoin:round;stroke-miterlimit:10;stroke-dasharray:none;stroke-opacity:1" transform="matrix(1.33333 0 0 -1.33333 628.667 219.872)" fill="none" stroke="#154194" stroke-width="15" stroke-linecap="round" stroke-linejoin="round" stroke-miterlimit="10" stroke-dasharray="none" stroke-opacity="" data-original="#000000" opacity="1" class=""></path><g clip-path="url(#a)" transform="matrix(1.33333 0 0 -1.33333 0 682.667)"><path d="M0 0c0 13.873 11.246 25.119 25.119 25.119h380.762C419.754 25.119 431 13.873 431 0" style="stroke-width:15;stroke-linecap:round;stroke-linejoin:round;stroke-miterlimit:10;stroke-dasharray:none;stroke-opacity:1" transform="translate(40.5 479.396)" fill="none" stroke="#154194" stroke-width="15" stroke-linecap="round" stroke-linejoin="round" stroke-miterlimit="10" stroke-dasharray="none" stroke-opacity="" data-original="#000000" opacity="1" class=""></path><path d="M0 0v26.833" style="stroke-width:15;stroke-linecap:round;stroke-linejoin:round;stroke-miterlimit:10;stroke-dasharray:none;stroke-opacity:1" transform="translate(40.5 319.263)" fill="none" stroke="#154194" stroke-width="15" stroke-linecap="round" stroke-linejoin="round" stroke-miterlimit="10" stroke-dasharray="none" stroke-opacity="" data-original="#000000" opacity="1" class=""></path><path d="M0 0v27.605" style="stroke-width:15;stroke-linecap:round;stroke-linejoin:round;stroke-miterlimit:10;stroke-dasharray:none;stroke-opacity:1" transform="translate(40.5 165.132)" fill="none" stroke="#154194" stroke-width="15" stroke-linecap="round" stroke-linejoin="round" stroke-miterlimit="10" stroke-dasharray="none" stroke-opacity="" data-original="#000000" opacity="1" class=""></path><path d="M0 0c0-13.873-11.246-25.119-25.119-25.119h-380.762C-419.754-25.119-431-13.873-431 0" style="stroke-width:15;stroke-linecap:round;stroke-linejoin:round;stroke-miterlimit:10;stroke-dasharray:none;stroke-opacity:1" transform="translate(471.5 32.604)" fill="none" stroke="#154194" stroke-width="15" stroke-linecap="round" stroke-linejoin="round" stroke-miterlimit="10" stroke-dasharray="none" stroke-opacity="" data-original="#000000" opacity="1" class=""></path><path d="M0 0h-49.09c-13.489 0-24.425 10.936-24.425 24.425v77.676c0 13.49 10.936 24.425 24.425 24.425h448.18c13.489 0 24.425-10.935 24.425-24.425V24.425C423.515 10.936 412.579 0 399.09 0H54" style="stroke-width:15;stroke-linecap:round;stroke-linejoin:round;stroke-miterlimit:10;stroke-dasharray:none;stroke-opacity:1" transform="translate(81 346.868)" fill="none" stroke="#154194" stroke-width="15" stroke-linecap="round" stroke-linejoin="round" stroke-miterlimit="10" stroke-dasharray="none" stroke-opacity="" data-original="#000000" opacity="1" class=""></path><path d="M0 0h-330.09c-13.489 0-24.425 10.936-24.425 24.425v77.676c0 13.49 10.936 24.425 24.425 24.425h448.18c13.489 0 24.425-10.935 24.425-24.425V24.425C142.515 10.936 131.579 0 118.09 0H50" style="stroke-width:15;stroke-linecap:round;stroke-linejoin:round;stroke-miterlimit:10;stroke-dasharray:none;stroke-opacity:1" transform="translate(362 192.737)" fill="none" stroke="#154194" stroke-width="15" stroke-linecap="round" stroke-linejoin="round" stroke-miterlimit="10" stroke-dasharray="none" stroke-opacity="" data-original="#000000" opacity="1" class=""></path><path d="M0 0h-50.09c-13.489 0-24.425 10.936-24.425 24.425v77.677c0 13.489 10.936 24.424 24.425 24.424h448.18c13.489 0 24.425-10.935 24.425-24.424V24.425C422.515 10.936 411.579 0 398.09 0H45" style="stroke-width:15;stroke-linecap:round;stroke-linejoin:round;stroke-miterlimit:10;stroke-dasharray:none;stroke-opacity:1" transform="translate(82 38.605)" fill="none" stroke="#154194" stroke-width="15" stroke-linecap="round" stroke-linejoin="round" stroke-miterlimit="10" stroke-dasharray="none" stroke-opacity="" data-original="#000000" opacity="1" class=""></path><path d="M0 0c9.651 0 9.668 15 0 15-9.651 0-9.668-15 0-15" style="fill-opacity:1;fill-rule:nonzero;stroke:none" transform="translate(59 114.5)" fill="#154194" data-original="#000000" opacity="1"></path><path d="M0 0c9.651 0 9.668 15 0 15-9.651 0-9.668-15 0-15" style="fill-opacity:1;fill-rule:nonzero;stroke:none" transform="translate(102 114.5)" fill="#154194" data-original="#000000" opacity="1"></path><path d="M0 0c9.651 0 9.668 15 0 15-9.651 0-9.668-15 0-15" style="fill-opacity:1;fill-rule:nonzero;stroke:none" transform="translate(59 75.5)" fill="#154194" data-original="#000000" opacity="1"></path><path d="M0 0c9.651 0 9.668 15 0 15-9.651 0-9.668-15 0-15" style="fill-opacity:1;fill-rule:nonzero;stroke:none" transform="translate(102 75.5)" fill="#154194" data-original="#000000" opacity="1"></path><path d="M0 0c9.651 0 9.668 15 0 15-9.651 0-9.668-15 0-15" style="fill-opacity:1;fill-rule:nonzero;stroke:none" transform="translate(145 114.5)" fill="#154194" data-original="#000000" opacity="1"></path><path d="M0 0c9.651 0 9.668 15 0 15-9.651 0-9.668-15 0-15" style="fill-opacity:1;fill-rule:nonzero;stroke:none" transform="translate(145 75.5)" fill="#154194" data-original="#000000" opacity="1"></path><path d="M0 0c9.651 0 9.668 15 0 15-9.651 0-9.668-15 0-15" style="fill-opacity:1;fill-rule:nonzero;stroke:none" transform="translate(59 266.5)" fill="#154194" data-original="#000000" opacity="1"></path><path d="M0 0c9.651 0 9.668 15 0 15-9.651 0-9.668-15 0-15" style="fill-opacity:1;fill-rule:nonzero;stroke:none" transform="translate(102 266.5)" fill="#154194" data-original="#000000" opacity="1"></path><path d="M0 0c9.651 0 9.668 15 0 15-9.651 0-9.668-15 0-15" style="fill-opacity:1;fill-rule:nonzero;stroke:none" transform="translate(59 227.5)" fill="#154194" data-original="#000000" opacity="1"></path><path d="M0 0c9.651 0 9.668 15 0 15-9.651 0-9.668-15 0-15" style="fill-opacity:1;fill-rule:nonzero;stroke:none" transform="translate(102 227.5)" fill="#154194" data-original="#000000" opacity="1"></path><path d="M0 0c9.651 0 9.668 15 0 15-9.651 0-9.668-15 0-15" style="fill-opacity:1;fill-rule:nonzero;stroke:none" transform="translate(145 266.5)" fill="#154194" data-original="#000000" opacity="1"></path><path d="M0 0c9.651 0 9.668 15 0 15-9.651 0-9.668-15 0-15" style="fill-opacity:1;fill-rule:nonzero;stroke:none" transform="translate(145 227.5)" fill="#154194" data-original="#000000" opacity="1"></path><path d="M0 0c9.651 0 9.668 15 0 15-9.651 0-9.668-15 0-15" style="fill-opacity:1;fill-rule:nonzero;stroke:none" transform="translate(59 421.5)" fill="#154194" data-original="#000000" opacity="1"></path><path d="M0 0c9.651 0 9.668 15 0 15-9.651 0-9.668-15 0-15" style="fill-opacity:1;fill-rule:nonzero;stroke:none" transform="translate(102 421.5)" fill="#154194" data-original="#000000" opacity="1"></path><path d="M0 0c9.651 0 9.668 15 0 15-9.651 0-9.668-15 0-15" style="fill-opacity:1;fill-rule:nonzero;stroke:none" transform="translate(59 382.5)" fill="#154194" data-original="#000000" opacity="1"></path><path d="M0 0c9.651 0 9.668 15 0 15-9.651 0-9.668-15 0-15" style="fill-opacity:1;fill-rule:nonzero;stroke:none" transform="translate(102 382.5)" fill="#154194" data-original="#000000" opacity="1"></path><path d="M0 0c9.651 0 9.668 15 0 15-9.651 0-9.668-15 0-15" style="fill-opacity:1;fill-rule:nonzero;stroke:none" transform="translate(145 421.5)" fill="#154194" data-original="#000000" opacity="1"></path><path d="M0 0c9.651 0 9.668 15 0 15-9.651 0-9.668-15 0-15" style="fill-opacity:1;fill-rule:nonzero;stroke:none" transform="translate(145 382.5)" fill="#154194" data-original="#000000" opacity="1"></path><path d="M0 0c0-12.15-9.85-22-22-22s-22 9.85-22 22 9.85 22 22 22S0 12.15 0 0Z" style="stroke-width:15;stroke-linecap:round;stroke-linejoin:round;stroke-miterlimit:10;stroke-dasharray:none;stroke-opacity:1" transform="translate(364.5 409.5)" fill="none" stroke="#154194" stroke-width="15" stroke-linecap="round" stroke-linejoin="round" stroke-miterlimit="10" stroke-dasharray="none" stroke-opacity="" data-original="#000000" opacity="1" class=""></path><path d="M0 0c0-12.15-9.85-22-22-22s-22 9.85-22 22 9.85 22 22 22S0 12.15 0 0Z" style="stroke-width:15;stroke-linecap:round;stroke-linejoin:round;stroke-miterlimit:10;stroke-dasharray:none;stroke-opacity:1" transform="translate(453.5 409.5)" fill="none" stroke="#154194" stroke-width="15" stroke-linecap="round" stroke-linejoin="round" stroke-miterlimit="10" stroke-dasharray="none" stroke-opacity="" data-original="#000000" opacity="1" class=""></path><path d="M0 0c0-12.15-9.85-22-22-22s-22 9.85-22 22 9.85 22 22 22S0 12.15 0 0Z" style="stroke-width:15;stroke-linecap:round;stroke-linejoin:round;stroke-miterlimit:10;stroke-dasharray:none;stroke-opacity:1" transform="translate(364.5 254.5)" fill="none" stroke="#154194" stroke-width="15" stroke-linecap="round" stroke-linejoin="round" stroke-miterlimit="10" stroke-dasharray="none" stroke-opacity="" data-original="#000000" opacity="1" class=""></path><path d="M0 0c0-12.15-9.85-22-22-22s-22 9.85-22 22 9.85 22 22 22S0 12.15 0 0Z" style="stroke-width:15;stroke-linecap:round;stroke-linejoin:round;stroke-miterlimit:10;stroke-dasharray:none;stroke-opacity:1" transform="translate(453.5 254.5)" fill="none" stroke="#154194" stroke-width="15" stroke-linecap="round" stroke-linejoin="round" stroke-miterlimit="10" stroke-dasharray="none" stroke-opacity="" data-original="#000000" opacity="1" class=""></path><path d="M0 0c0-12.15-9.85-22-22-22s-22 9.85-22 22 9.85 22 22 22S0 12.15 0 0Z" style="stroke-width:15;stroke-linecap:round;stroke-linejoin:round;stroke-miterlimit:10;stroke-dasharray:none;stroke-opacity:1" transform="translate(364.5 102.5)" fill="none" stroke="#154194" stroke-width="15" stroke-linecap="round" stroke-linejoin="round" stroke-miterlimit="10" stroke-dasharray="none" stroke-opacity="" data-original="#000000" opacity="1" class=""></path><path d="M0 0c0-12.15-9.85-22-22-22s-22 9.85-22 22 9.85 22 22 22S0 12.15 0 0Z" style="stroke-width:15;stroke-linecap:round;stroke-linejoin:round;stroke-miterlimit:10;stroke-dasharray:none;stroke-opacity:1" transform="translate(453.5 102.5)" fill="none" stroke="#154194" stroke-width="15" stroke-linecap="round" stroke-linejoin="round" stroke-miterlimit="10" stroke-dasharray="none" stroke-opacity="" data-original="#000000" opacity="1" class=""></path></g></g></svg>