<?xml version="1.0" standalone="no"?>
<!DOCTYPE svg PUBLIC "-//W3C//DTD SVG 20010904//EN"
 "http://www.w3.org/TR/2001/REC-SVG-20010904/DTD/svg10.dtd">
<svg version="1.0" xmlns="http://www.w3.org/2000/svg"
 width="96.000000pt" height="96.000000pt" viewBox="0 0 96.000000 96.000000"
 preserveAspectRatio="xMidYMid meet">

<g transform="translate(0.000000,96.000000) scale(0.100000,-0.100000)"
fill="#000000" stroke="none">
<path d="M60 895 c-59 -60 -63 -67 -54 -92 10 -30 48 -43 67 -24 23 23 27 7
27 -107 0 -124 6 -142 45 -142 39 0 45 18 45 142 0 117 0 119 21 108 45 -25
93 15 70 57 -17 32 -119 123 -138 123 -10 0 -47 -29 -83 -65z m190 -89 c-6 -6
-20 -1 -38 17 -49 47 -52 40 -52 -118 0 -122 -2 -145 -15 -145 -13 0 -15 22
-15 139 0 90 -4 142 -11 147 -6 3 -24 -6 -40 -22 -22 -21 -32 -25 -41 -16 -9
9 2 25 46 69 l57 57 59 -59 c39 -39 56 -63 50 -69z"/>
<path d="M336 944 c-13 -12 -16 -39 -16 -129 l0 -113 -31 11 c-28 11 -33 10
-50 -12 -10 -13 -19 -28 -19 -33 0 -5 28 -39 62 -74 42 -44 69 -64 85 -64 34
0 143 111 143 145 0 33 -42 55 -71 37 -18 -12 -19 -8 -19 96 0 81 -4 113 -16
130 -18 26 -46 28 -68 6z m44 -153 c0 -84 4 -142 10 -146 6 -4 24 5 42 20 22
19 34 23 42 15 7 -7 -6 -27 -47 -67 l-57 -58 -55 55 c-50 50 -68 80 -47 80 5
0 19 -11 32 -25 45 -48 50 -37 50 113 0 76 3 142 7 145 19 19 23 -5 23 -132z"/>
<path d="M452 768 c3 -8 29 -15 61 -18 92 -8 92 -7 92 -243 l0 -202 -267 -3
c-257 -2 -268 -2 -288 18 -18 18 -20 33 -20 189 0 93 5 182 10 197 13 33 -1
52 -21 28 -11 -13 -15 -61 -17 -202 -3 -194 3 -236 39 -247 15 -5 19 -16 19
-55 0 -69 14 -99 55 -116 21 -8 35 -21 35 -32 1 -37 58 -82 105 -82 45 0 91
33 105 74 l12 36 131 0 132 0 17 -40 c32 -77 129 -92 182 -29 14 17 26 39 26
50 0 14 7 19 28 19 17 0 37 10 50 23 21 22 22 33 22 179 l0 155 -79 105 c-44
58 -87 108 -96 112 -9 3 -46 6 -81 6 -59 0 -65 2 -74 24 -16 44 -57 66 -122
66 -43 0 -59 -3 -56 -12z m326 -120 c22 -22 13 -28 -38 -28 -63 0 -70 -12 -70
-129 0 -121 0 -121 146 -121 l115 0 -3 -107 -3 -108 -28 -10 c-24 -8 -30 -6
-39 10 -25 43 -60 65 -106 65 -40 0 -50 -5 -83 -40 l-38 -40 -127 0 -127 0
-37 40 c-33 36 -42 40 -84 40 -39 0 -53 -5 -75 -28 -15 -15 -30 -33 -32 -41
-3 -9 -12 -11 -27 -7 -19 7 -22 14 -22 67 l0 59 347 2 c260 2 347 6 350 15 3
9 -18 13 -74 15 l-78 3 -3 165 c-1 90 0 170 2 177 7 17 117 18 134 1z m101
-125 c34 -44 51 -77 51 -95 l0 -29 -112 3 -113 3 -3 79 c-2 44 -1 85 2 93 4 9
24 13 64 13 l59 0 52 -67z m-572 -353 c28 -26 36 -52 24 -83 -32 -85 -151 -63
-151 27 0 65 80 100 127 56z m498 -5 c47 -46 23 -118 -42 -131 -27 -5 -37 -1
-64 25 -26 27 -30 37 -25 64 13 65 85 89 131 42z"/>
<path d="M832 288 c7 -20 58 -23 58 -4 0 11 -10 16 -31 16 -20 0 -29 -4 -27
-12z"/>
<path d="M387 204 c-12 -13 4 -24 34 -24 20 0 29 4 27 13 -5 13 -50 22 -61 11z"/>
<path d="M487 203 c-18 -17 -1 -23 63 -23 56 0 70 3 70 15 0 12 -14 15 -63 15
-35 0 -67 -3 -70 -7z"/>
<path d="M740 535 c0 -17 5 -25 13 -22 6 2 12 12 12 22 0 10 -6 20 -12 23 -8
2 -13 -6 -13 -23z"/>
<path d="M740 455 c0 -17 5 -25 13 -22 6 2 12 12 12 22 0 10 -6 20 -12 23 -8
2 -13 -6 -13 -23z"/>
<path d="M220 146 c-29 -36 13 -92 58 -75 25 9 31 56 10 77 -16 16 -53 15 -68
-2z m50 -37 c0 -5 -7 -9 -15 -9 -15 0 -20 12 -9 23 8 8 24 -1 24 -14z"/>
<path d="M715 136 c-30 -45 16 -91 61 -61 28 18 31 46 8 69 -22 23 -51 20 -69
-8z m53 -24 c2 -7 -3 -12 -12 -12 -9 0 -16 7 -16 16 0 17 22 14 28 -4z"/>
</g>
</svg>
