<?xml version="1.0" encoding="UTF-8"?>
<svg xmlns="http://www.w3.org/2000/svg" viewBox="0 0 1600 800" width="1600" height="800">
<g fill="none" stroke="currentColor" stroke-width="8" stroke-linecap="round">
<rect x="40" y="40" width="1520" height="720" rx="26" ry="26" fill="none" stroke-opacity="0.15"/>
</g>
<rect x="624.00" y="208.00" width="352.00" height="224.00" rx="26" ry="26" fill="none" stroke="currentColor" stroke-width="8"/>
<rect x="638.40" y="230.40" width="323.20" height="64.00" rx="12" ry="12" fill="none" stroke="currentColor" stroke-width="8"/>
<circle cx="944.00" cy="262.40" r="4.00" fill="currentColor"/>
<rect x="638.40" y="316.80" width="323.20" height="64.00" rx="12" ry="12" fill="none" stroke="currentColor" stroke-width="8"/>
<circle cx="944.00" cy="348.80" r="4.00" fill="currentColor"/>
<rect x="638.40" y="403.20" width="323.20" height="64.00" rx="12" ry="12" fill="none" stroke="currentColor" stroke-width="8"/>
<circle cx="944.00" cy="435.20" r="4.00" fill="currentColor"/>
<rect x="641.60" y="446.40" width="316.80" height="5.60" rx="2.80" ry="2.80" fill="currentColor"/>
<circle cx="800.00" cy="472.00" r="16.80" fill="none" stroke="currentColor" stroke-width="8"/>
<line x1="800.00" y1="432.00" x2="800.00" y2="455.20" stroke="currentColor" stroke-width="8" stroke-linecap="round"/>
<line x1="800.00" y1="472.00" x2="520.00" y2="472.00" stroke="currentColor" stroke-width="8" stroke-linecap="round"/>
<line x1="520.00" y1="472.00" x2="520.00" y2="224.00" stroke="currentColor" stroke-width="8" stroke-linecap="round"/>
<line x1="520.00" y1="224.00" x2="240.00" y2="224.00" stroke="currentColor" stroke-width="8" stroke-linecap="round"/>
<circle cx="240.00" cy="224.00" r="14" fill="none" stroke="currentColor" stroke-width="8"/>
<line x1="800.00" y1="472.00" x2="496.00" y2="472.00" stroke="currentColor" stroke-width="8" stroke-linecap="round"/>
<line x1="496.00" y1="472.00" x2="496.00" y2="400.00" stroke="currentColor" stroke-width="8" stroke-linecap="round"/>
<line x1="496.00" y1="400.00" x2="192.00" y2="400.00" stroke="currentColor" stroke-width="8" stroke-linecap="round"/>
<circle cx="192.00" cy="400.00" r="14" fill="none" stroke="currentColor" stroke-width="8"/>
<line x1="800.00" y1="472.00" x2="520.00" y2="472.00" stroke="currentColor" stroke-width="8" stroke-linecap="round"/>
<line x1="520.00" y1="472.00" x2="520.00" y2="576.00" stroke="currentColor" stroke-width="8" stroke-linecap="round"/>
<line x1="520.00" y1="576.00" x2="240.00" y2="576.00" stroke="currentColor" stroke-width="8" stroke-linecap="round"/>
<circle cx="240.00" cy="576.00" r="14" fill="none" stroke="currentColor" stroke-width="8"/>
<line x1="800.00" y1="472.00" x2="1080.00" y2="472.00" stroke="currentColor" stroke-width="8" stroke-linecap="round"/>
<line x1="1080.00" y1="472.00" x2="1080.00" y2="224.00" stroke="currentColor" stroke-width="8" stroke-linecap="round"/>
<line x1="1080.00" y1="224.00" x2="1360.00" y2="224.00" stroke="currentColor" stroke-width="8" stroke-linecap="round"/>
<circle cx="1360.00" cy="224.00" r="14" fill="none" stroke="currentColor" stroke-width="8"/>
<line x1="800.00" y1="472.00" x2="1104.00" y2="472.00" stroke="currentColor" stroke-width="8" stroke-linecap="round"/>
<line x1="1104.00" y1="472.00" x2="1104.00" y2="400.00" stroke="currentColor" stroke-width="8" stroke-linecap="round"/>
<line x1="1104.00" y1="400.00" x2="1408.00" y2="400.00" stroke="currentColor" stroke-width="8" stroke-linecap="round"/>
<circle cx="1408.00" cy="400.00" r="14" fill="none" stroke="currentColor" stroke-width="8"/>
<line x1="800.00" y1="472.00" x2="1080.00" y2="472.00" stroke="currentColor" stroke-width="8" stroke-linecap="round"/>
<line x1="1080.00" y1="472.00" x2="1080.00" y2="576.00" stroke="currentColor" stroke-width="8" stroke-linecap="round"/>
<line x1="1080.00" y1="576.00" x2="1360.00" y2="576.00" stroke="currentColor" stroke-width="8" stroke-linecap="round"/>
<circle cx="1360.00" cy="576.00" r="14" fill="none" stroke="currentColor" stroke-width="8"/>
<line x1="800.00" y1="472.00" x2="720.00" y2="472.00" stroke="currentColor" stroke-width="8" stroke-linecap="round"/>
<line x1="720.00" y1="472.00" x2="720.00" y2="96.00" stroke="currentColor" stroke-width="8" stroke-linecap="round"/>
<line x1="720.00" y1="96.00" x2="640.00" y2="96.00" stroke="currentColor" stroke-width="8" stroke-linecap="round"/>
<circle cx="640.00" cy="96.00" r="14" fill="none" stroke="currentColor" stroke-width="8"/>
<line x1="800.00" y1="472.00" x2="880.00" y2="472.00" stroke="currentColor" stroke-width="8" stroke-linecap="round"/>
<line x1="880.00" y1="472.00" x2="880.00" y2="96.00" stroke="currentColor" stroke-width="8" stroke-linecap="round"/>
<line x1="880.00" y1="96.00" x2="960.00" y2="96.00" stroke="currentColor" stroke-width="8" stroke-linecap="round"/>
<circle cx="960.00" cy="96.00" r="14" fill="none" stroke="currentColor" stroke-width="8"/>
<line x1="800.00" y1="472.00" x2="664.00" y2="472.00" stroke="currentColor" stroke-width="8" stroke-linecap="round"/>
<line x1="664.00" y1="472.00" x2="664.00" y2="680.00" stroke="currentColor" stroke-width="8" stroke-linecap="round"/>
<line x1="664.00" y1="680.00" x2="528.00" y2="680.00" stroke="currentColor" stroke-width="8" stroke-linecap="round"/>
<circle cx="528.00" cy="680.00" r="14" fill="none" stroke="currentColor" stroke-width="8"/>
<line x1="800.00" y1="472.00" x2="936.00" y2="472.00" stroke="currentColor" stroke-width="8" stroke-linecap="round"/>
<line x1="936.00" y1="472.00" x2="936.00" y2="680.00" stroke="currentColor" stroke-width="8" stroke-linecap="round"/>
<line x1="936.00" y1="680.00" x2="1072.00" y2="680.00" stroke="currentColor" stroke-width="8" stroke-linecap="round"/>
<circle cx="1072.00" cy="680.00" r="14" fill="none" stroke="currentColor" stroke-width="8"/>
<text x="800.00" y="776.00" font-family="Arial,Helvetica,sans-serif" font-size="56.00" text-anchor="middle" fill="currentColor">DSP: IT/OT-Integration &amp; Control</text>
</svg>