<?xml version="1.0" standalone="no"?>
<!DOCTYPE svg PUBLIC "-//W3C//DTD SVG 20010904//EN"
 "http://www.w3.org/TR/2001/REC-SVG-20010904/DTD/svg10.dtd">
<svg version="1.0" xmlns="http://www.w3.org/2000/svg"
 width="1024.000000pt" height="1024.000000pt" viewBox="0 0 1024.000000 1024.000000"
 preserveAspectRatio="xMidYMid meet">

<g transform="translate(0.000000,1024.000000) scale(0.100000,-0.100000)"
fill="#000000" stroke="none">
<path d="M5693 9210 c-45 -10 -80 -35 -103 -73 -19 -30 -20 -52 -20 -345 l0
-312 73 7 c90 9 116 9 197 0 l65 -7 -2 309 c-2 321 -3 331 -46 378 -31 34
-111 55 -164 43z"/>
<path d="M2175 9033 c-189 -42 -301 -90 -420 -181 -100 -76 -130 -118 -122
-170 7 -40 54 -92 85 -92 23 0 69 26 137 78 229 176 459 215 715 122 84 -30
130 -57 236 -137 55 -40 80 -53 106 -53 44 0 83 30 98 75 16 47 -5 83 -94 157
-111 93 -290 174 -439 198 -61 10 -263 12 -302 3z"/>
<path d="M8294 8865 c-155 -34 -303 -107 -412 -202 -84 -73 -103 -133 -61
-187 48 -61 90 -55 190 25 90 71 179 119 279 150 95 30 252 32 350 5 90 -24
221 -95 309 -166 42 -34 84 -60 97 -60 42 0 73 22 95 68 22 44 22 45 4 79 -53
97 -281 235 -471 283 -92 24 -283 26 -380 5z"/>
<path d="M2176 8604 c-82 -20 -188 -78 -236 -130 -47 -52 -52 -93 -17 -145 19
-28 30 -35 63 -37 35 -3 49 3 103 44 67 50 157 84 224 84 88 0 209 -51 262
-110 27 -30 98 -28 130 4 51 51 45 104 -17 165 -120 116 -333 168 -512 125z"/>
<path d="M6965 8540 c-138 -28 -253 -122 -319 -260 -29 -61 -31 -72 -31 -180
0 -114 1 -118 37 -191 47 -95 130 -177 225 -222 65 -31 74 -32 189 -32 l121 0
86 43 c98 49 157 108 206 206 79 162 50 366 -73 503 -100 111 -281 165 -441
133z m171 -289 c91 -42 127 -143 82 -231 -54 -106 -204 -122 -281 -31 -76 90
-51 207 55 260 53 26 90 26 144 2z"/>
<path d="M8401 8459 c-123 -18 -238 -73 -301 -145 -41 -47 -41 -100 -1 -143
43 -46 77 -42 167 19 86 57 125 70 210 70 82 0 140 -19 210 -69 75 -54 129
-57 168 -10 61 72 12 157 -131 229 -91 45 -216 64 -322 49z"/>
<path d="M3490 8321 c-138 -30 -238 -166 -227 -307 12 -156 159 -290 306 -278
114 9 231 99 267 206 45 137 -26 302 -155 360 -48 22 -137 31 -191 19z"/>
<path d="M3910 8314 c0 -3 13 -25 30 -48 54 -79 65 -121 65 -241 0 -104 -2
-114 -34 -183 -19 -39 -40 -77 -47 -83 -8 -6 -14 -15 -14 -20 0 -5 354 -9 815
-9 l815 0 0 -141 0 -142 133 129 c73 71 191 183 262 249 72 65 173 160 225
210 52 49 139 131 193 182 53 50 97 94 97 97 0 3 -571 6 -1270 6 -698 0 -1270
-3 -1270 -6z"/>
<path d="M2242 8193 c-39 -19 -72 -77 -72 -125 1 -51 34 -114 70 -133 40 -21
95 -22 142 -2 104 43 105 220 3 263 -45 18 -102 18 -143 -3z"/>
<path d="M8425 8055 c-22 -8 -41 -15 -42 -15 -12 -1 -53 -95 -53 -121 0 -85
77 -153 163 -146 152 13 192 206 57 275 -51 25 -70 27 -125 7z"/>
<path d="M6297 7943 c-144 -139 -618 -587 -732 -693 -488 -452 -651 -616 -698
-701 -48 -88 -94 -241 -67 -224 6 4 15 18 20 31 21 54 106 169 166 222 84 75
171 127 269 159 79 27 84 27 398 31 175 2 338 -1 362 -6 l44 -9 88 80 c106 97
623 585 675 638 l38 38 -64 31 c-36 18 -93 56 -129 85 -110 91 -170 191 -209
350 -12 47 -25 85 -30 85 -5 0 -64 -53 -131 -117z"/>
<path d="M2958 7822 l-128 -127 -54 -2 c-127 -5 -234 -79 -276 -189 -18 -50
-20 -78 -20 -309 l0 -254 -263 -3 -263 -3 -66 -33 c-72 -35 -115 -80 -148
-154 -18 -41 -19 -70 -20 -374 -1 -270 2 -337 14 -372 42 -118 140 -191 261
-195 l65 -2 0 97 c0 54 0 101 0 105 0 4 -12 9 -27 10 -16 2 -41 17 -58 34
l-30 29 0 274 c0 301 2 313 60 341 29 13 127 15 775 15 l742 0 34 -34 35 -35
-3 -285 -3 -284 -24 -26 c-17 -18 -35 -26 -58 -26 l-34 0 3 -107 3 -108 60 3
c89 5 152 28 199 76 82 82 81 74 81 481 l0 360 -27 46 c-38 64 -84 107 -148
138 -54 25 -60 26 -292 29 l-238 3 0 199 0 198 135 129 c74 70 135 130 135
133 0 3 -15 12 -32 19 -59 26 -170 149 -205 226 -17 39 -34 78 -37 88 -3 9 -9
17 -13 17 -4 -1 -65 -58 -135 -128z m-103 -363 c19 -18 20 -35 23 -269 l3
-250 -86 0 -85 0 0 248 c0 136 4 252 8 258 32 46 98 53 137 13z"/>
<path d="M5445 6600 c-223 -21 -412 -165 -499 -379 l-31 -76 -3 -432 -3 -432
806 -1 805 0 1 162 c1 90 1 264 0 388 -2 211 -4 230 -28 304 -16 49 -47 111
-84 166 -92 137 -206 222 -369 275 -81 27 -96 28 -300 31 -118 1 -251 -1 -295
-6z m450 -375 c115 -56 188 -178 186 -313 0 -64 -5 -81 -37 -143 -44 -84 -105
-140 -183 -170 -78 -29 -198 -23 -275 15 -102 50 -175 161 -184 277 -11 160
85 305 237 354 70 23 188 14 256 -20z"/>
<path d="M5740 6105 c-8 -2 -32 -6 -53 -10 -87 -14 -148 -117 -126 -213 28
-127 151 -182 268 -122 146 74 129 279 -28 335 -24 8 -44 14 -45 14 0 -1 -8
-3 -16 -4z"/>
<path d="M2155 6505 c-24 -23 -25 -28 -25 -169 0 -156 6 -188 42 -208 36 -20
1164 -12 1196 8 21 14 22 19 22 182 0 92 -4 172 -8 178 -21 32 -51 34 -627 34
l-576 0 -24 -25z"/>
<path d="M2915 5103 c-53 -7 -188 -55 -258 -91 -120 -62 -232 -184 -298 -325
-59 -126 -62 -147 -66 -469 l-5 -298 276 0 276 0 0 33 c3 232 146 512 334 653
311 235 742 224 1042 -25 169 -140 271 -343 290 -575 l7 -86 718 0 719 0 1 43
c6 258 135 502 344 652 332 237 789 206 1073 -74 140 -137 214 -299 243 -523
l12 -98 215 0 214 0 -4 303 c-4 300 -4 303 -31 382 -89 256 -294 434 -562 490
-65 13 -340 15 -2292 14 -1220 -1 -2231 -4 -2248 -6z"/>
<path d="M3555 4585 c-38 -8 -90 -21 -115 -29 -203 -74 -366 -269 -406 -486
-35 -194 -1 -349 114 -517 195 -284 604 -356 900 -159 173 115 278 301 289
511 10 191 -52 358 -181 489 -165 168 -373 233 -601 191z m270 -314 c150 -66
238 -230 206 -383 -24 -119 -103 -228 -194 -268 -94 -42 -235 -42 -315 -1 -98
51 -171 152 -191 266 -32 174 80 354 247 402 66 18 187 10 247 -16z"/>
<path d="M3640 4141 c-48 -10 -72 -24 -108 -65 -60 -69 -64 -157 -12 -239 83
-131 290 -108 346 38 56 149 -70 297 -226 266z"/>
<path d="M6660 4585 c-218 -45 -374 -164 -470 -360 -94 -189 -90 -392 11 -586
98 -189 242 -299 448 -341 230 -48 451 19 606 184 184 196 239 454 146 693
-116 300 -429 474 -741 410z m282 -319 c65 -31 140 -107 171 -174 18 -38 22
-66 22 -147 0 -91 -3 -105 -30 -159 -40 -80 -113 -150 -184 -177 -70 -27 -174
-29 -253 -6 -70 21 -160 100 -203 179 -28 49 -30 60 -30 158 0 86 4 113 22
152 42 93 139 172 240 198 67 17 183 5 245 -24z"/>
<path d="M6693 4119 c-140 -69 -133 -284 12 -350 119 -54 252 16 280 150 15
71 -42 178 -111 207 -49 21 -132 18 -181 -7z"/>
<path d="M2288 3568 c4 -170 11 -191 63 -202 35 -7 719 -9 719 -2 0 3 -23 36
-52 73 -50 66 -119 199 -133 256 l-7 27 -297 0 -296 0 3 -152z"/>
<path d="M4457 3645 c-28 -74 -100 -193 -151 -248 -14 -15 -26 -30 -26 -33 0
-2 428 -4 950 -4 538 0 950 4 950 9 0 5 -7 15 -16 22 -37 30 -115 156 -150
240 l-37 89 -746 0 -746 0 -28 -75z"/>
<path d="M7572 3678 c-22 -69 -81 -178 -133 -245 -27 -35 -49 -65 -49 -68 0
-9 543 -5 583 4 62 15 66 27 67 199 l0 152 -228 0 -227 0 -13 -42z"/>
<path d="M1784 3474 c-49 -31 -143 -90 -209 -131 -364 -227 -365 -228 -365
-253 0 -28 46 -46 151 -59 113 -15 7384 -15 7518 -1 101 11 164 34 169 62 4
20 -9 30 -263 187 -104 64 -224 139 -265 166 -114 73 -144 85 -231 85 l-76 0
-7 -71 c-3 -39 -16 -93 -27 -120 -25 -58 -92 -123 -145 -140 -28 -9 -161 -14
-468 -16 -395 -4 -433 -6 -478 -24 -168 -66 -398 -69 -583 -6 l-90 30 -1178 1
-1178 2 -102 -34 c-175 -59 -398 -56 -570 5 l-72 26 -505 1 -505 1 -47 23
c-90 44 -140 132 -143 247 l-1 70 -120 3 -120 3 -90 -57z"/>
<path d="M1097 2282 c2 -627 3 -661 21 -710 67 -175 192 -282 388 -332 76 -20
127 -20 3615 -20 3936 0 3610 -6 3764 70 105 51 181 129 233 237 l37 78 3 668
c1 368 -1 667 -5 665 -82 -41 -158 -60 -315 -77 -126 -14 -7268 -15 -7409 -1
-130 12 -247 37 -287 61 -18 10 -36 19 -40 19 -4 0 -6 -296 -5 -658z m4144
223 c117 -59 167 -201 110 -312 -40 -79 -114 -123 -206 -123 -92 0 -154 36
-203 119 -53 90 -28 225 51 285 74 57 173 69 248 31z m-3418 -286 c60 -31 77
-115 34 -164 -26 -31 -101 -44 -127 -23 -60 49 -66 114 -16 164 36 36 70 43
109 23z m467 -5 c38 -26 50 -45 50 -81 0 -68 -44 -113 -108 -113 -37 0 -71 26
-89 67 -37 89 68 179 147 127z m467 -6 c69 -57 29 -188 -58 -188 -83 0 -132
78 -98 154 23 50 113 70 156 34z m459 -12 c24 -24 34 -43 34 -66 0 -95 -108
-146 -170 -80 -50 54 -45 122 13 159 48 31 83 27 123 -13z m444 17 c91 -53 48
-193 -59 -193 -94 0 -129 141 -47 191 38 23 69 24 106 2z m488 -20 c19 -23 22
-37 19 -76 -5 -62 -30 -88 -91 -94 -42 -5 -48 -3 -76 27 -32 34 -41 91 -20
130 30 56 127 63 168 13z m441 21 c35 -25 52 -74 40 -117 -32 -117 -200 -91
-199 31 1 80 95 130 159 86z m1233 -14 c28 -28 30 -35 26 -82 -4 -38 -12 -57
-28 -70 -72 -58 -170 -14 -170 76 1 44 11 62 50 89 39 27 87 22 122 -13z m446
5 c36 -30 47 -66 32 -111 -36 -107 -182 -92 -197 21 -12 90 95 149 165 90z
m451 9 c35 -25 52 -74 41 -116 -13 -46 -40 -68 -88 -75 -33 -4 -44 -1 -71 23
-44 39 -52 97 -21 137 38 47 96 60 139 31z m466 -14 c30 -29 39 -64 25 -106
-31 -92 -141 -100 -186 -12 -22 43 -11 90 28 123 26 22 39 26 71 22 21 -3 49
-15 62 -27z m454 -1 c67 -67 20 -179 -75 -179 -38 0 -94 59 -94 99 0 97 103
147 169 80z m443 11 c38 -29 52 -72 39 -113 -16 -46 -41 -68 -90 -74 -35 -5
-44 -2 -70 24 -41 42 -49 78 -25 122 32 60 99 79 146 41z m464 -14 c67 -67 22
-176 -74 -176 -64 0 -113 71 -92 134 26 80 107 101 166 42z m27 -490 c20 -5
33 -17 43 -41 16 -40 7 -75 -28 -99 -20 -15 -325 -16 -3465 -16 l-3442 0 -27
23 c-35 30 -37 79 -5 110 l22 22 3422 5 c1882 3 3429 4 3437 3 8 0 28 -4 43
-7z"/>
</g>
</svg>
