<?xml version="1.0" standalone="no"?>
<!DOCTYPE svg PUBLIC "-//W3C//DTD SVG 20010904//EN"
 "http://www.w3.org/TR/2001/REC-SVG-20010904/DTD/svg10.dtd">
<svg version="1.0" xmlns="http://www.w3.org/2000/svg"
 width="105.000000pt" height="104.000000pt" viewBox="0 0 105.000000 104.000000"
 preserveAspectRatio="xMidYMid meet">

<g transform="translate(0.000000,104.000000) scale(0.100000,-0.100000)"
fill="#000000" stroke="none">
<path d="M80 520 l0 -500 50 0 c49 0 50 1 50 30 l0 30 345 0 345 0 0 -30 c0
-29 1 -30 50 -30 l50 0 0 500 0 500 -49 0 c-44 0 -50 -3 -53 -22 -3 -22 -8
-23 -88 -25 -47 -1 -91 -2 -97 -2 -10 -1 -13 -47 -13 -197 l0 -195 -47 3 -48
3 -5 193 -5 193 -190 2 c-189 2 -190 2 -193 25 -3 19 -9 22 -53 22 l-49 0 0
-500z m70 0 c0 -463 0 -470 -20 -470 -20 0 -20 7 -20 470 0 463 0 470 20 470
20 0 20 -7 20 -470z m790 0 c0 -463 0 -470 -20 -470 -20 0 -20 7 -20 470 0
463 0 470 20 470 20 0 20 -7 20 -470z m-728 393 c3 -26 7 -28 51 -31 46 -3 47
-3 47 27 0 21 5 31 15 31 12 0 15 -16 15 -80 l0 -80 -80 0 -80 0 0 80 c0 63 3
80 14 80 9 0 16 -12 18 -27z m68 12 c0 -8 -7 -15 -15 -15 -8 0 -15 7 -15 15 0
8 7 15 15 15 8 0 15 -7 15 -15z m130 -15 c0 -29 1 -30 50 -30 49 0 50 1 50 30
0 20 5 30 15 30 12 0 15 -16 15 -80 l0 -80 -80 0 -80 0 0 80 c0 64 3 80 15 80
10 0 15 -10 15 -30z m70 15 c0 -8 -9 -15 -20 -15 -11 0 -20 7 -20 15 0 8 9 15
20 15 11 0 20 -7 20 -15z m260 -16 c0 -30 1 -30 48 -27 43 3 47 5 50 31 2 15
9 27 18 27 11 0 14 -17 14 -80 l0 -80 -80 0 -80 0 0 80 c0 64 3 80 15 80 10 0
15 -10 15 -31z m60 16 c0 -8 -7 -15 -15 -15 -8 0 -15 7 -15 15 0 8 7 15 15 15
8 0 15 -7 15 -15z m-588 -207 c3 -32 5 -33 48 -33 43 0 45 1 48 33 2 20 9 32
18 32 11 0 14 -18 14 -85 l0 -86 -77 3 -78 3 -3 83 c-2 67 0 82 12 82 9 0 16
-12 18 -32z m66 15 c-5 -25 -28 -28 -28 -4 0 12 6 21 16 21 9 0 14 -7 12 -17z
m134 -15 c3 -32 5 -33 48 -33 43 0 45 1 48 33 2 20 9 32 18 32 11 0 14 -18 14
-85 l0 -85 -80 0 -80 0 0 85 c0 67 3 85 14 85 9 0 16 -12 18 -32z m63 12 c0
-22 -29 -18 -33 3 -3 14 1 18 15 15 10 -2 18 -10 18 -18z m267 -12 c3 -32 5
-33 48 -33 43 0 45 1 48 33 2 20 9 32 18 32 12 0 14 -15 12 -82 l-3 -83 -77
-3 -78 -3 0 86 c0 67 3 85 14 85 9 0 16 -12 18 -32z m58 11 c0 -24 -23 -21
-28 4 -2 10 3 17 12 17 10 0 16 -9 16 -21z m-103 -186 c-98 -2 -256 -2 -350 0
-95 1 -14 3 178 2 193 0 270 -1 172 -2z m173 -213 c0 -143 -2 -170 -15 -170
-11 0 -15 20 -17 98 l-3 97 -310 0 -310 0 -3 -97 c-2 -78 -6 -98 -17 -98 -13
0 -15 27 -15 170 l0 170 345 0 345 0 0 -170z m-592 -39 c3 -32 4 -32 50 -29
45 3 47 5 50 35 2 23 7 30 18 26 10 -4 14 -25 14 -84 l0 -79 -80 0 -80 0 0 86
c0 64 3 85 13 82 6 -3 13 -19 15 -37z m62 19 c0 -11 -7 -20 -15 -20 -15 0 -21
21 -8 33 12 13 23 7 23 -13z m138 -18 c3 -31 5 -32 47 -32 42 0 44 1 47 33 2
20 8 32 18 32 12 0 16 -17 18 -82 l3 -83 -86 0 -85 0 0 78 c0 43 3 82 7 86 14
13 28 -1 31 -32z m62 16 c0 -10 -7 -18 -15 -18 -8 0 -15 8 -15 18 0 10 7 19
15 19 8 0 15 -9 15 -19z m182 -46 c46 -3 47 -3 50 29 2 18 9 34 16 37 9 3 12
-18 12 -82 l0 -86 -80 0 -80 0 0 79 c0 55 4 81 13 84 7 2 14 -8 17 -27 5 -29
8 -31 52 -34z m16 45 c2 -10 -3 -17 -12 -17 -10 0 -16 9 -16 21 0 24 23 21 28
-4z m132 -187 c0 -6 -122 -10 -345 -10 -223 0 -345 4 -345 10 0 6 122 10 345
10 223 0 345 -4 345 -10z"/>
</g>
</svg>
