<?xml version="1.0" standalone="no"?>
<!DOCTYPE svg PUBLIC "-//W3C//DTD SVG 20010904//EN"
 "http://www.w3.org/TR/2001/REC-SVG-20010904/DTD/svg10.dtd">
<svg version="1.0" xmlns="http://www.w3.org/2000/svg"
 width="512.000000pt" height="512.000000pt" viewBox="0 0 512.000000 512.000000"
 preserveAspectRatio="xMidYMid meet">

<g transform="translate(0.000000,512.000000) scale(0.100000,-0.100000)"
fill="#000000" stroke="none">
<path d="M2070 4844 c-217 -90 -405 -169 -417 -174 -20 -8 -21 -13 -12 -33 9
-20 4 -38 -33 -117 l-44 -94 -39 95 c-21 51 -42 98 -46 102 -6 8 -272 -95
-292 -113 -4 -4 8 -46 27 -93 20 -47 36 -90 36 -96 0 -5 -33 -22 -72 -39 l-73
-29 -187 25 c-102 13 -192 22 -200 20 -7 -3 -67 -76 -133 -163 l-119 -157 34
-29 c19 -16 37 -28 40 -28 4 0 95 116 207 265 10 13 28 13 170 -6 87 -12 161
-24 164 -28 4 -4 34 -72 67 -152 l60 -145 -96 -125 c-52 -69 -97 -127 -99
-129 -2 -3 -80 6 -173 18 -94 12 -175 19 -180 16 -6 -4 -10 -25 -10 -49 l0
-43 185 -22 c102 -13 193 -24 202 -25 11 0 60 55 135 154 l119 155 74 32 c86
37 73 45 125 -79 17 -43 34 -78 37 -78 9 0 278 113 286 120 5 4 -10 53 -34
109 -23 56 -40 103 -38 106 2 2 44 -10 92 -27 75 -26 91 -36 105 -63 l17 -32
145 61 c80 33 151 64 157 69 7 4 15 28 19 52 3 25 10 48 15 51 5 3 62 -22 127
-57 112 -59 118 -64 152 -121 41 -72 117 -143 191 -182 l54 -29 271 -446 c201
-330 268 -449 260 -458 -6 -6 -258 -68 -561 -138 -329 -76 -574 -138 -610
-153 -33 -15 -84 -46 -113 -70 -30 -24 -268 -161 -529 -303 -262 -143 -500
-276 -530 -296 -176 -117 -254 -361 -182 -570 77 -224 324 -375 546 -333 37 7
88 14 113 17 25 2 515 -39 1089 -92 575 -52 1051 -95 1058 -95 10 0 13 -35 13
-165 l0 -165 -1645 0 -1645 0 0 -185 0 -185 2204 0 2205 0 3 592 c2 326 -1
616 -5 643 -30 181 -204 357 -389 394 -29 6 -323 26 -653 46 -330 20 -604 37
-610 39 -5 2 -3 6 5 10 8 3 211 78 450 166 239 89 461 175 493 193 154 81 257
257 257 437 0 139 -53 260 -160 367 -57 57 -117 147 -373 559 l-305 490 14 60
c39 167 -4 325 -122 453 -122 132 -315 191 -480 148 -49 -13 -54 -12 -245 46
-107 32 -195 60 -197 62 -1 1 6 43 18 94 22 101 23 111 13 111 -5 -1 -186 -75
-403 -166z m276 -11 c-3 -10 -41 -180 -86 -377 -44 -198 -81 -361 -83 -362 -6
-6 -170 -74 -172 -72 -5 6 -234 563 -237 576 -2 8 98 55 282 132 157 65 289
119 293 119 5 1 6 -7 3 -16z m343 -208 c10 -4 1 -18 -32 -50 -103 -98 -158
-222 -159 -356 0 -44 -2 -79 -5 -79 -2 0 -44 21 -93 48 -62 32 -88 52 -85 62
2 8 25 110 50 225 26 116 48 215 50 221 2 8 45 -1 132 -27 70 -21 134 -41 142
-44z m483 -53 c79 -39 159 -120 196 -199 24 -52 27 -69 27 -168 0 -100 -2
-115 -28 -167 -84 -170 -271 -267 -446 -229 -202 43 -348 236 -327 432 13 125
81 241 179 303 85 54 130 66 238 63 85 -2 103 -6 161 -35z m-1613 -387 c72
-173 131 -319 131 -324 0 -8 -90 -51 -108 -51 -10 0 -278 638 -271 645 8 8 94
45 105 45 6 0 70 -142 143 -315z m204 152 c2 -14 -15 -25 -65 -47 l-68 -29 -6
25 c-4 17 6 50 36 112 l42 87 30 -65 c16 -35 30 -73 31 -83z m82 -186 c14 -35
24 -65 22 -67 -6 -7 -181 59 -189 70 -4 6 -4 14 0 18 15 15 127 56 134 50 3
-4 18 -36 33 -71z m-496 -57 c29 -70 49 -130 44 -134 -4 -4 -30 -17 -56 -28
-44 -20 -48 -20 -54 -4 -4 9 -28 68 -55 131 -26 63 -47 116 -45 117 6 6 93 43
103 43 6 1 35 -56 63 -125z m2306 -535 c127 -204 240 -387 252 -408 l22 -37
-99 4 c-153 6 -260 -33 -374 -138 l-44 -40 -227 377 c-126 208 -229 380 -231
383 -1 3 28 5 65 6 130 2 285 77 360 175 20 26 38 48 41 48 3 0 109 -166 235
-370z m298 -560 c111 -44 193 -129 238 -248 17 -45 20 -73 17 -146 -3 -76 -8
-100 -35 -158 -149 -314 -585 -307 -736 11 -29 61 -32 76 -32 162 0 86 3 101
32 162 58 122 168 212 293 238 62 12 161 3 223 -21z m-646 -331 c-23 -200 97
-412 284 -501 57 -27 68 -35 53 -41 -55 -22 -825 -306 -829 -306 -2 0 9 29 26
63 103 221 13 502 -200 628 l-61 36 92 22 c89 20 629 148 637 150 2 1 1 -23
-2 -51z m-774 -208 c37 -14 79 -42 118 -78 216 -200 167 -533 -98 -664 -64
-31 -74 -33 -173 -33 -98 0 -109 2 -171 32 -246 121 -309 444 -125 641 49 52
137 105 202 121 61 16 182 7 247 -19z m-639 -252 c-8 -29 -14 -87 -14 -129 0
-189 106 -355 282 -443 38 -19 68 -39 66 -43 -4 -13 -443 -281 -446 -272 -2 4
1 25 7 46 15 54 13 149 -4 218 -46 175 -174 306 -350 360 l-70 21 85 46 c47
26 168 92 270 147 102 56 185 101 186 101 1 0 -5 -23 -12 -52z m-483 -354
c109 -32 204 -114 256 -223 35 -74 44 -203 18 -282 -53 -163 -191 -273 -358
-286 -247 -19 -455 191 -434 438 21 252 274 425 518 353z m2014 -159 c237 -14
457 -27 491 -31 l61 -5 -67 -67 c-100 -100 -150 -221 -150 -360 0 -111 51
-244 123 -319 17 -18 29 -35 26 -37 -3 -3 -2200 193 -2287 204 -16 2 123 94
417 275 300 186 364 221 415 232 34 7 135 41 226 77 162 64 167 65 240 61 41
-3 269 -16 505 -30z m1007 -89 c185 -89 277 -292 219 -484 -45 -148 -165 -255
-319 -284 -34 -6 -62 -16 -62 -22 0 -8 -2 -8 -8 0 -4 6 -34 16 -67 22 -133 27
-241 110 -298 229 -30 63 -32 76 -32 173 0 93 3 112 27 162 29 62 101 146 154
179 74 45 133 60 234 56 79 -3 105 -8 152 -31z m228 -1046 l0 -360 -460 0
-460 0 0 296 0 296 38 -6 c20 -3 96 -10 167 -16 72 -6 173 -18 225 -26 76 -12
110 -13 165 -4 93 14 197 65 265 128 30 28 56 51 58 52 1 0 2 -162 2 -360z
m-1020 -275 l0 -85 -1595 0 -1595 0 0 85 0 85 1595 0 1595 0 0 -85z"/>
<path d="M2885 4456 c-105 -49 -159 -135 -159 -251 0 -56 5 -80 26 -120 53
-101 133 -149 248 -150 65 0 82 4 128 29 95 53 142 136 142 250 0 192 -210
324 -385 242z m196 -92 c39 -19 77 -69 89 -115 38 -142 -117 -267 -248 -200
-95 49 -127 142 -81 238 43 89 149 123 240 77z"/>
<path d="M3738 2886 c-131 -35 -218 -160 -205 -292 15 -144 133 -249 276 -247
78 1 126 20 183 71 145 131 106 374 -72 450 -62 27 -126 33 -182 18z m168
-118 c35 -24 67 -74 78 -121 10 -42 -11 -104 -51 -147 -111 -124 -315 -31
-301 136 11 133 165 207 274 132z"/>
<path d="M2284 2344 c-147 -52 -219 -236 -150 -379 52 -105 153 -162 270 -153
75 6 130 33 180 88 53 59 69 103 70 185 0 56 -5 80 -27 121 -64 126 -211 185
-343 138z m174 -98 c136 -71 135 -252 -2 -323 -36 -19 -116 -19 -153 0 -56 30
-103 104 -103 162 0 60 50 136 105 161 40 18 119 18 153 0z"/>
<path d="M1184 1716 c-178 -83 -218 -303 -79 -442 143 -144 381 -92 452 99 16
45 16 137 -2 187 -52 146 -230 222 -371 156z m220 -109 c48 -37 69 -80 69
-144 0 -98 -78 -173 -178 -173 -177 0 -240 233 -89 327 55 34 146 29 198 -10z"/>
<path d="M4155 1492 c-101 -48 -156 -126 -163 -236 -4 -59 0 -81 18 -124 42
-96 154 -172 255 -172 113 0 229 87 261 195 38 134 -21 271 -142 330 -57 28
-177 31 -229 7z m207 -107 c93 -62 104 -200 22 -277 -83 -77 -214 -58 -271 40
-96 164 91 341 249 237z"/>
</g>
</svg>
