<svg xmlns="http://www.w3.org/2000/svg" version="1.1" xmlns:xlink="http://www.w3.org/1999/xlink" width="512" height="512" x="0" y="0" viewBox="0 0 512 512" style="enable-background:new 0 0 512 512" xml:space="preserve"><g><path d="M92.005 39.562v36.329M60.943 74.891V39.562M238.886 107.537H93.588M93.588 76.474h145.298M271.531 109.119v38.162h-31.062v-38.162" style="stroke-width:15;stroke-linecap:round;stroke-linejoin:round;stroke-miterlimit:10;" fill="none" stroke="#154194" stroke-width="15" stroke-linecap="round" stroke-linejoin="round" stroke-miterlimit="10" data-original="#000000" opacity="1"></path><circle cx="69.625" cy="442.375" r="31.063" style="stroke-width:15;stroke-linecap:round;stroke-linejoin:round;stroke-miterlimit:10;" fill="none" stroke="#154194" stroke-width="15" stroke-linecap="round" stroke-linejoin="round" stroke-miterlimit="10" data-original="#000000" opacity="1"></circle><path d="M69.625 442.375h0" style="stroke-width:15;stroke-linecap:round;stroke-linejoin:round;stroke-miterlimit:10;" fill="none" stroke="#154194" stroke-width="15" stroke-linecap="round" stroke-linejoin="round" stroke-miterlimit="10" data-original="#000000" opacity="1"></path><circle cx="442.375" cy="442.375" r="31.062" style="stroke-width:15;stroke-linecap:round;stroke-linejoin:round;stroke-miterlimit:10;" fill="none" stroke="#154194" stroke-width="15" stroke-linecap="round" stroke-linejoin="round" stroke-miterlimit="10" data-original="#000000" opacity="1"></circle><path d="M442.375 442.375h0" style="stroke-width:15;stroke-linecap:round;stroke-linejoin:round;stroke-miterlimit:10;" fill="none" stroke="#154194" stroke-width="15" stroke-linecap="round" stroke-linejoin="round" stroke-miterlimit="10" data-original="#000000" opacity="1"></path><circle cx="318.125" cy="442.375" r="31.063" style="stroke-width:15;stroke-linecap:round;stroke-linejoin:round;stroke-miterlimit:10;" fill="none" stroke="#154194" stroke-width="15" stroke-linecap="round" stroke-linejoin="round" stroke-miterlimit="10" data-original="#000000" opacity="1"></circle><path d="M318.125 442.375h0" style="stroke-width:15;stroke-linecap:round;stroke-linejoin:round;stroke-miterlimit:10;" fill="none" stroke="#154194" stroke-width="15" stroke-linecap="round" stroke-linejoin="round" stroke-miterlimit="10" data-original="#000000" opacity="1"></path><circle cx="193.875" cy="442.375" r="31.062" style="stroke-width:15;stroke-linecap:round;stroke-linejoin:round;stroke-miterlimit:10;" fill="none" stroke="#154194" stroke-width="15" stroke-linecap="round" stroke-linejoin="round" stroke-miterlimit="10" data-original="#000000" opacity="1"></circle><path d="M193.875 442.375h0M442.375 473.438H69.625M69.625 411.312h372.75M422.781 380.25h19.594c34.311 0 62.125 27.814 62.125 62.125v0c0 34.311-27.814 62.125-62.125 62.125h-317.3M90.076 504.5H69.625C35.314 504.5 7.5 476.686 7.5 442.375v0c0-34.311 27.814-62.125 62.125-62.125h319.156M256 411.312V380.25M349.188 411.312V380.25M442.375 411.312V380.25M473.438 442.375H504.5M442.375 473.438V504.5M349.188 473.438V504.5M162.812 411.312V380.25M69.625 411.312V380.25M38.562 442.375H7.5M69.625 473.438V504.5M162.812 473.438V504.5M256 473.438V504.5M69.625 380.25H56.594a2.5 2.5 0 0 1-2.5-2.5v-90.688h93.188v93.188M209.406 380.25v-93.188h93.188v93.188M364.719 380.25v-90.688a2.5 2.5 0 0 1 2.5-2.5h28.562M426.844 287.062h28.562a2.5 2.5 0 0 1 2.5 2.5v88.188a2.5 2.5 0 0 1-2.5 2.5h-13.031M54.094 287.062 38.562 256M147.281 287.062 162.812 256M209.406 287.062 193.875 256M302.594 287.062 318.125 256M424.344 318.125h-26.062a2.5 2.5 0 0 1-2.5-2.5v-28.562h31.062v28.562a2.5 2.5 0 0 1-2.5 2.5zM273.649 208.42l17.649-30.569-17.649-30.57h-35.298l-17.649 30.57 17.649 30.569" style="stroke-width:15;stroke-linecap:round;stroke-linejoin:round;stroke-miterlimit:10;" fill="none" stroke="#154194" stroke-width="15" stroke-linecap="round" stroke-linejoin="round" stroke-miterlimit="10" data-original="#000000" opacity="1"></path><path d="m253.835 182.094-32.596 56.458c-.962 1.667.241 3.75 2.165 3.75h65.192c1.924 0 3.127-2.083 2.165-3.75l-32.596-56.458c-.962-1.667-3.368-1.667-4.33 0z" style="stroke-width:15;stroke-linecap:round;stroke-linejoin:round;stroke-miterlimit:10;" fill="none" stroke="#154194" stroke-width="15" stroke-linecap="round" stroke-linejoin="round" stroke-miterlimit="10" data-original="#000000" opacity="1"></path><circle cx="256" cy="92.005" r="22.38" style="stroke-width:15;stroke-linecap:round;stroke-linejoin:round;stroke-miterlimit:10;" fill="none" stroke="#154194" stroke-width="15" stroke-linecap="round" stroke-linejoin="round" stroke-miterlimit="10" data-original="#000000" opacity="1"></circle><circle cx="76.474" cy="92.005" r="22.38" style="stroke-width:15;stroke-linecap:round;stroke-linejoin:round;stroke-miterlimit:10;" fill="none" stroke="#154194" stroke-width="15" stroke-linecap="round" stroke-linejoin="round" stroke-miterlimit="10" data-original="#000000" opacity="1"></circle><path d="M132.237 38.562H12.5a5 5 0 0 1-5-5V12.5a5 5 0 0 1 5-5h487a5 5 0 0 1 5 5v21.062a5 5 0 0 1-5 5H166.237" style="stroke-width:15;stroke-linecap:round;stroke-linejoin:round;stroke-miterlimit:10;" fill="none" stroke="#154194" stroke-width="15" stroke-linecap="round" stroke-linejoin="round" stroke-miterlimit="10" data-original="#000000" opacity="1"></path></g></svg>