<?xml version="1.0" standalone="no"?>
<!DOCTYPE svg PUBLIC "-//W3C//DTD SVG 20010904//EN"
 "http://www.w3.org/TR/2001/REC-SVG-20010904/DTD/svg10.dtd">
<svg version="1.0" xmlns="http://www.w3.org/2000/svg"
 width="90.000000pt" height="90.000000pt" viewBox="0 0 90.000000 90.000000"
 preserveAspectRatio="xMidYMid meet">

<g transform="translate(0.000000,90.000000) scale(0.100000,-0.100000)"
fill="#000000" stroke="none">
<path d="M360 840 l0 -60 243 2 242 3 0 55 c0 49 -2 55 -22 58 -20 3 -23 -1
-23 -27 0 -21 -5 -31 -15 -31 -10 0 -15 10 -15 30 0 20 -5 30 -15 30 -10 0
-15 -10 -15 -30 0 -20 -5 -30 -15 -30 -10 0 -15 10 -15 30 0 38 -27 41 -32 3
-4 -39 -28 -42 -28 -4 0 39 -27 43 -32 4 -4 -39 -28 -42 -28 -4 0 39 -27 43
-32 4 -4 -39 -28 -42 -28 -4 0 39 -27 43 -32 4 -4 -39 -28 -42 -28 -4 0 24 -4
31 -20 31 -16 0 -20 -7 -20 -31 0 -38 -24 -35 -28 4 -2 19 -9 27 -23 27 -17 0
-19 -7 -19 -60z"/>
<path d="M21 861 c-29 -54 1 -146 57 -175 38 -20 56 -63 42 -100 -27 -73 0
-160 59 -191 32 -16 44 -44 45 -105 1 -28 5 -36 23 -38 16 -2 24 4 33 32 18
55 -1 104 -60 158 -53 48 -59 68 -39 127 19 55 3 100 -58 159 -53 51 -54 55
-51 100 3 42 1 47 -19 50 -14 2 -26 -4 -32 -17z"/>
<path d="M436 734 c-13 -35 -7 -43 42 -46 55 -3 59 -22 6 -26 -42 -4 -42 -3
16 -103 l41 -69 62 0 62 0 47 79 c25 44 43 82 40 85 -3 3 -45 6 -94 6 -67 0
-89 3 -86 13 3 8 35 13 102 15 l97 3 -3 27 -3 27 -161 3 c-141 2 -162 0 -168
-14z"/>
<path d="M323 629 c-7 -7 -9 -26 -6 -46 3 -20 0 -44 -7 -59 -12 -21 -11 -27 4
-42 16 -16 19 -16 42 11 49 56 17 186 -33 136z"/>
<path d="M560 415 l0 -46 45 31 c25 17 45 37 45 45 0 11 -12 15 -45 15 l-45 0
0 -45z"/>
<path d="M420 399 c0 -17 62 -89 77 -89 20 0 16 13 -19 58 -31 40 -58 55 -58
31z"/>
<path d="M731 371 c-31 -39 -39 -61 -22 -61 13 0 80 83 75 92 -10 15 -23 8
-53 -31z"/>
<path d="M23 393 c-19 -7 -15 -47 7 -76 22 -28 82 -52 105 -43 28 10 17 45
-18 60 -18 7 -41 25 -50 40 -18 26 -22 28 -44 19z"/>
<path d="M316 393 c-11 -11 -6 -23 9 -23 8 0 15 4 15 9 0 13 -16 22 -24 14z"/>
<path d="M866 393 c-11 -11 -6 -23 9 -23 8 0 15 4 15 9 0 13 -16 22 -24 14z"/>
<path d="M603 362 c-25 -15 -43 -35 -43 -45 0 -17 2 -17 28 -2 50 30 64 43 60
59 -2 13 -11 11 -45 -12z"/>
<path d="M360 337 c0 -16 121 -137 138 -137 26 0 10 28 -51 88 -61 60 -87 75
-87 49z"/>
<path d="M756 281 c-46 -46 -64 -71 -56 -76 14 -8 152 123 144 137 -10 15 -19
8 -88 -61z"/>
<path d="M598 283 c-22 -15 -38 -34 -38 -45 0 -17 5 -16 45 12 25 17 45 37 45
45 0 20 -9 18 -52 -12z"/>
<path d="M602 211 l-44 -29 22 -15 c21 -14 25 -14 46 0 16 10 24 25 24 44 0
16 -1 29 -2 29 -2 0 -23 -13 -46 -29z"/>
<path d="M10 100 l0 -100 440 0 440 0 0 100 0 100 -68 0 c-61 0 -71 -3 -91
-26 -94 -108 -468 -108 -562 0 -20 23 -30 26 -91 26 l-68 0 0 -100z m88 -37
c2 -8 -5 -13 -17 -13 -21 0 -35 13 -24 24 10 10 36 3 41 -11z m170 0 c3 -10
-15 -13 -67 -13 -66 0 -82 6 -64 24 12 12 126 2 131 -11z"/>
</g>
</svg>
