<?xml version="1.0" standalone="no"?>
<!DOCTYPE svg PUBLIC "-//W3C//DTD SVG 20010904//EN"
 "http://www.w3.org/TR/2001/REC-SVG-20010904/DTD/svg10.dtd">
<svg version="1.0" xmlns="http://www.w3.org/2000/svg"
 width="90.000000pt" height="90.000000pt" viewBox="0 0 90.000000 90.000000"
 preserveAspectRatio="xMidYMid meet">

<g transform="translate(0.000000,90.000000) scale(0.100000,-0.100000)"
fill="#000000" stroke="none">
<path d="M5 888 c-3 -7 -4 -209 -3 -448 l3 -435 445 0 445 0 0 445 0 445 -443
3 c-349 2 -444 0 -447 -10z m865 -438 l0 -420 -420 0 -420 0 0 420 0 420 420
0 420 0 0 -420z"/>
<path d="M422 848 c-17 -17 -15 -53 3 -68 11 -9 15 -35 15 -101 0 -88 0 -89
-25 -89 -21 0 -25 5 -25 27 0 18 -13 40 -37 65 -35 35 -36 38 -20 56 26 29 22
70 -8 78 -14 3 -32 4 -40 0 -20 -7 -20 -60 0 -76 8 -7 15 -18 15 -24 0 -7 13
-25 30 -41 39 -38 42 -85 5 -85 -20 0 -25 -5 -25 -25 0 -24 -3 -25 -53 -25
-29 0 -58 5 -65 12 -17 17 -15 54 4 83 29 44 -27 90 -64 53 -17 -17 -15 -57 3
-64 8 -4 15 -18 15 -32 0 -14 12 -38 27 -54 23 -24 35 -28 80 -28 50 0 53 -1
53 -25 0 -25 -1 -25 -89 -25 -68 0 -92 4 -101 16 -30 35 -98 -5 -74 -43 14
-23 57 -28 74 -9 9 12 33 16 101 16 88 0 89 0 89 -25 0 -24 -3 -25 -53 -25
-44 0 -58 -4 -77 -25 -14 -15 -35 -25 -51 -25 -49 0 -65 -71 -19 -85 31 -10
60 12 60 44 0 42 28 61 88 61 49 0 52 -2 52 -25 0 -20 5 -25 25 -25 24 0 25
-3 25 -53 0 -41 -5 -58 -20 -72 -11 -10 -20 -26 -20 -35 0 -10 -7 -23 -15 -30
-8 -7 -15 -22 -15 -34 0 -43 44 -61 74 -30 20 19 20 38 1 58 -21 20 -19 50 5
71 15 14 20 31 20 72 0 50 1 53 25 53 21 0 25 -5 25 -29 0 -16 -7 -34 -16 -41
-19 -17 -14 -60 9 -74 38 -24 78 44 43 74 -9 7 -16 25 -16 41 0 24 4 29 25 29
24 0 25 -3 25 -53 0 -48 3 -56 38 -90 21 -20 45 -37 54 -37 8 0 21 -7 28 -15
16 -19 54 -19 70 0 16 19 9 45 -16 61 -18 13 -24 12 -47 -6 -28 -22 -37 -21
-74 13 -18 16 -23 31 -23 74 0 50 1 53 25 53 20 0 25 5 25 25 0 24 2 25 73 25
59 0 77 -4 90 -18 21 -23 21 -41 1 -63 -38 -42 17 -98 57 -58 23 23 23 29 4
55 -8 10 -15 26 -15 35 0 8 -15 29 -33 47 -31 30 -38 32 -105 32 -70 0 -72 1
-72 25 0 23 3 25 49 25 31 0 53 -5 61 -15 32 -38 93 1 70 45 -13 24 -52 26
-70 5 -8 -10 -30 -15 -61 -15 -46 0 -49 2 -49 25 0 23 3 25 48 25 41 0 53 5
77 30 31 33 60 39 69 14 4 -10 16 -14 38 -12 29 3 33 7 36 35 2 24 -2 34 -19
43 -18 10 -26 8 -50 -9 -15 -12 -37 -21 -47 -21 -10 0 -29 -11 -42 -25 -18
-19 -34 -25 -67 -25 -39 0 -43 2 -43 25 0 20 -5 25 -25 25 -20 0 -25 5 -25 27
0 44 45 83 96 83 25 0 47 -6 54 -16 17 -19 60 -14 74 9 24 38 -44 78 -74 43
-8 -10 -29 -16 -59 -16 -41 0 -52 -5 -84 -38 -24 -25 -37 -47 -37 -65 0 -22
-4 -27 -25 -27 -25 0 -25 1 -25 89 0 66 4 92 15 101 30 25 12 80 -25 80 -9 0
-21 -5 -28 -12z m46 -30 c-3 -7 -11 -13 -18 -13 -7 0 -15 6 -17 13 -3 7 4 12
17 12 13 0 20 -5 18 -12z m-142 -29 c10 -17 -13 -36 -27 -22 -12 12 -4 33 11
33 5 0 12 -5 16 -11z m409 -79 c0 -7 -6 -15 -12 -17 -8 -3 -13 4 -13 17 0 13
5 20 13 18 6 -3 12 -11 12 -18z m-562 -61 c-17 -17 -37 -1 -22 17 8 10 15 12
23 4 7 -7 7 -13 -1 -21z m663 -60 c10 -17 -13 -36 -27 -22 -12 12 -4 33 11 33
5 0 12 -5 16 -11z m-271 -139 l0 -115 -115 0 -115 0 -3 104 c-1 58 0 111 2
118 4 11 31 13 118 11 l113 -3 0 -115z m-470 0 c0 -7 -6 -15 -12 -17 -8 -3
-13 4 -13 17 0 13 5 20 13 18 6 -3 12 -11 12 -18z m650 0 c0 -7 -6 -15 -12
-17 -8 -3 -13 4 -13 17 0 13 5 20 13 18 6 -3 12 -11 12 -18z m-602 -155 c1 -5
-6 -11 -15 -13 -11 -2 -18 3 -18 13 0 17 30 18 33 0z m653 -36 c8 -14 -11 -33
-25 -25 -11 7 -4 36 9 36 5 0 12 -5 16 -11z m-328 -51 c-3 -7 -11 -13 -18 -13
-7 0 -15 6 -17 13 -3 7 4 12 17 12 13 0 20 -5 18 -12z m212 -68 c0 -11 -4 -20
-9 -20 -14 0 -23 18 -16 30 10 17 25 11 25 -10z m-330 -55 c0 -8 -6 -15 -14
-15 -17 0 -28 14 -19 24 12 12 33 6 33 -9z"/>
<path d="M364 527 c-3 -8 -4 -47 -2 -88 l3 -74 85 0 85 0 0 85 0 85 -83 3
c-63 2 -84 0 -88 -11z m146 -77 l0 -60 -60 0 -60 0 0 60 0 60 60 0 60 0 0 -60z"/>
<path d="M54 836 c-3 -8 -4 -25 -2 -38 2 -19 9 -23 38 -23 33 0 35 2 35 35 0
32 -3 35 -33 38 -21 2 -34 -2 -38 -12z m52 -17 c10 -17 -13 -36 -27 -22 -12
12 -4 33 11 33 5 0 12 -5 16 -11z"/>
<path d="M774 836 c-3 -8 -4 -25 -2 -38 2 -19 9 -23 38 -23 33 0 35 2 35 35 0
32 -3 35 -33 38 -21 2 -34 -2 -38 -12z m52 -17 c10 -17 -13 -36 -27 -22 -12
12 -4 33 11 33 5 0 12 -5 16 -11z"/>
<path d="M54 116 c-3 -8 -4 -25 -2 -38 2 -19 9 -23 38 -23 33 0 35 2 35 35 0
32 -3 35 -33 38 -21 2 -34 -2 -38 -12z m52 -17 c10 -17 -13 -36 -27 -22 -12
12 -4 33 11 33 5 0 12 -5 16 -11z"/>
<path d="M774 116 c-3 -8 -4 -25 -2 -38 2 -19 9 -23 38 -23 33 0 35 2 35 35 0
32 -3 35 -33 38 -21 2 -34 -2 -38 -12z m52 -17 c10 -17 -13 -36 -27 -22 -12
12 -4 33 11 33 5 0 12 -5 16 -11z"/>
</g>
</svg>
