<?xml version="1.0" encoding="UTF-8"?>
<!-- Generator: Adobe Illustrator 26.0.1, SVG Export Plug-In . SVG Version: 6.00 Build 0)  -->
<svg xmlns="http://www.w3.org/2000/svg" xmlns:xlink="http://www.w3.org/1999/xlink" version="1.1" id="Capa_1" x="0px" y="0px" viewBox="0 0 512 512" style="enable-background:new 0 0 512 512;" xml:space="preserve" width="512" height="512">
<path d="M424.438,232.45l-3.682-6.459c0.146-46.392-21.38-65.301-46.481-79.677c7.595-2.002,15.438-3.649,17.589-13.188  c13.051-3.342,15.781-9.383,17.09-15.783c3.413-2.275,14.837-8.664,13.641-19.65c6.395-4.414,9.962-10.079,8.148-18.106  c6.874-7.498,8.683-13.693,5.765-19.404c8.251-10.25,4.59-15.564,1.067-20.943c6.18-11.208,0.728-23.226-16.551-21.214  c-6.87-10.098-21.853-7.805-24.17-7.758c-2.593-3.241-6.013-6.018-16.544-4.672c-6.819-6.082-14.446-5.044-22.311-2.056  c-9.341-7.259-15.52-1.44-22.579,0.759c-11.307-3.639-13.894,1.347-19.449,3.376c-12.333-2.566-16.081,3.022-21.993,8.921  L287.1,16.46c-18.6,10.796-27.84,32.782-31.115,44.083c-3.277-11.304-12.497-33.289-31.093-44.083l-6.876,0.134  c-5.92-5.899-9.669-11.487-22-8.921c-5.555-2.029-8.133-7.015-19.449-3.376c-4.633-1.443-8.896-4.445-13.913-4.292l0.01,0.004  c-2.629,0.079-5.46,1.035-8.67,3.532c-7.867-2.988-15.493-4.026-22.311,2.056c-10.53-1.346-13.953,1.431-16.546,4.672  c-2.311-0.047-17.299-2.34-24.171,7.758C73.695,16.014,68.235,28.034,74.42,39.241c-3.527,5.379-7.181,10.694,1.066,20.946  c-2.917,5.711-1.108,11.906,5.766,19.404c-1.814,8.028,1.753,13.692,8.148,18.107c-1.197,10.986,10.228,17.374,13.64,19.65  c1.309,6.401,4.04,12.442,17.09,15.781c2.151,9.541,9.994,11.188,17.589,13.19c-25.102,14.371-46.626,33.281-46.48,79.677  l-3.678,6.461c-28.78,17.24-54.675,72.652-14.183,117.69c2.645,14.099,7.081,24.225,11.03,35.432  c5.908,45.162,44.461,66.309,54.63,68.81c14.9,11.179,30.77,21.787,52.245,29.217c20.244,20.565,42.176,28.403,64.229,28.391  c0.323,0,0.652,0.004,0.975,0c22.053,0.012,43.985-7.825,64.229-28.391c21.476-7.431,37.346-18.039,52.247-29.217  c10.168-2.501,48.721-23.648,54.629-68.81c3.948-11.207,8.385-21.333,11.029-35.432C479.115,305.106,453.221,249.691,424.438,232.45  z M402.281,224.525c-1.502,18.686-98.888-65.076-82.075-67.858C365.841,149.077,403.813,175.782,402.281,224.525z M359.282,317.643  c-24.492,15.805-59.786,5.603-78.833-22.786c-19.046-28.387-14.631-64.215,9.862-80.02c24.492-15.806,59.787-5.605,78.833,22.784  C388.191,266.01,383.776,301.838,359.282,317.643z M291.393,29.272c0.844,4.195,1.798,6.848,2.889,7.631  c5.413-5.803,9.837-11.746,16.807-17.329c0.023,3.279-1.655,6.838,2.495,9.44c3.737-5.026,8.787-9.513,15.494-13.322  c-3.229,5.571-0.555,7.263,1.182,9.571c5.121-4.392,9.987-8.841,19.433-12.286c-2.582,3.145-6.191,6.216-2.364,9.828  c5.275-3.293,10.582-6.583,23.11-8.923c-2.823,3.147-8.659,6.294-5.121,9.441c6.623-2.53,13.951-4.366,22.059-5.432  c-3.882,3.192-7.12,6.32-3.939,8.794c7.089-2.181,16.851-5.116,26.394-2.586l-6.042,6.078c-0.669,0.814,14.13,0.634,23.898,0.776  c-3.564,4.952-7.2,9.732-9.322,18.237c0.969,0.98,5.809,0.436,10.373,0c-4.68,9.852-12.808,12.338-14.706,16.555  c2.86,2.165,6.826,1.601,11.162,0.129c-3.37,6.941-10.436,11.699-16.02,17.33c1.413,1.002,3.878,1.6,9.717,0.906  c-5.158,5.482-11.389,10.495-18.778,15.002c1.31,1.511,5.807,1.452,9.979,1.552c-6.69,6.548-15.302,9.942-23.371,14.226  c4.022,2.749,6.9,2.108,9.979,2.069c-5.708,4.689-15.413,7.129-24.423,9.959c1.713,2.664,3.428,3.391,7.091,4.139  c-9.536,5.277-23.197,2.865-27.049,5.561c0.929,2.652,3.551,4.379,6.695,5.82c-15.353,0.892-57.341-0.559-65.39-32.334  c15.716-17.267,44.401-37.531,93.739-62.591c-38.387,12.847-73.023,29.973-102.011,53.538  C251.27,85.183,274.766,45.161,291.393,29.272z M256.991,143.87v-0.002c24.168-0.261,54.093,17.763,53.973,34.746  c-0.106,14.99-21.017,27.125-53.788,26.894c-32.091-0.378-53.701-15.249-53.625-29.774  C203.615,163.781,229.754,143.172,256.991,143.87z M134.013,131.057c3.662-0.748,5.377-1.476,7.089-4.139  c-9.009-2.83-18.714-5.27-24.422-9.959c3.081,0.039,5.955,0.679,9.979-2.069c-8.071-4.284-16.682-7.678-23.372-14.226  c4.171-0.1,8.67-0.041,9.978-1.552c-7.386-4.507-13.618-9.52-18.777-15.002c5.84,0.694,8.305,0.096,9.718-0.906  c-5.583-5.631-12.651-10.389-16.02-17.33c4.336,1.472,8.302,2.036,11.162-0.129c-1.898-4.217-10.027-6.703-14.708-16.555  c4.565,0.436,9.405,0.98,10.375,0c-2.12-8.501-5.754-13.281-9.32-18.233c9.768-0.142,24.568,0.038,23.898-0.776l-6.039-6.079  c9.541-2.53,19.304,0.406,26.392,2.587c3.182-2.473-0.056-5.601-3.939-8.795c8.109,1.067,15.436,2.904,22.058,5.433  c3.54-3.148-2.297-6.295-5.121-9.442c12.528,2.341,17.836,5.63,23.11,8.924c3.828-3.613,0.22-6.684-2.364-9.829  c9.446,3.446,14.312,7.894,19.434,12.286c1.737-2.309,4.412-4.001,1.182-9.571c6.706,3.808,11.756,8.295,15.494,13.322  c4.149-2.603,2.473-6.162,2.495-9.442c6.969,5.585,11.393,11.528,16.808,17.331c1.09-0.781,2.045-3.435,2.888-7.63  c16.627,15.889,40.122,55.91,6.04,71.779c-28.99-23.55-63.609-40.671-101.973-53.517c49.313,25.045,77.986,45.309,93.696,62.566  c-8.048,31.775-50.036,33.225-65.389,32.334c3.143-1.441,5.766-3.168,6.696-5.82C157.209,133.922,143.549,136.333,134.013,131.057z   M194.12,155.236c16.813,2.783-80.574,86.544-82.074,67.859C110.513,174.357,148.482,147.646,194.12,155.236z M90.718,342.046  c-23.668-18.75-31.291-73.661,12.588-98.341C129.748,236.723,112.233,351.46,90.718,342.046z M181.717,440.156  c-13.349,7.933-45.764,4.667-68.805-27.936c-15.537-27.355-13.536-55.194-2.625-63.371c16.315-9.79,41.522,3.432,60.925,25.606  C188.118,394.519,195.825,429.767,181.717,440.156z M155.233,320.505c-24.492-15.806-28.908-51.633-9.861-80.022  c19.046-28.388,54.34-38.589,78.832-22.783c24.493,15.805,28.908,51.632,9.862,80.02C215.02,326.108,179.724,336.31,155.233,320.505  z M257.52,496.035c-29.361,1.246-58.15-23.69-57.773-32.334c-0.44-12.673,35.75-22.567,59.349-21.986  c23.746-1.021,55.611,7.534,55.673,18.882C315.163,471.616,285.87,496.516,257.52,496.035z M316.368,371.068  c0.172,29.65-26.154,53.814-58.799,53.97c-32.645,0.156-59.249-23.754-59.421-53.404c0-0.189,0-0.377,0-0.566  c-0.171-29.65,26.153-53.815,58.799-53.97c32.645-0.156,59.249,23.753,59.42,53.404C316.369,370.69,316.369,370.878,316.368,371.068  z M398.608,413.797c-25.301,34.578-59.554,35.924-72.312,26.293c-13.345-12.397-3.158-50.889,15.134-71.993v-0.007  c20.932-23.279,43.311-38.479,58.9-26.602C410.823,351.788,416.979,390.574,398.608,413.797z M421.485,340.621  c-21.516,9.414-39.035-105.326-12.59-98.347C452.774,266.954,445.151,321.869,421.485,340.621z"/>















</svg>
