<svg xmlns="http://www.w3.org/2000/svg" version="1.1" xmlns:xlink="http://www.w3.org/1999/xlink" width="512" height="512" x="0" y="0" viewBox="0 0 24 24" style="enable-background:new 0 0 512 512" xml:space="preserve" class=""><g><path d="M21.5 21.121h-19a2.503 2.503 0 0 1-2.5-2.5v-2c0-1.378 1.122-2.5 2.5-2.5h19c1.378 0 2.5 1.122 2.5 2.5v2c0 1.379-1.122 2.5-2.5 2.5zm-19-6c-.827 0-1.5.673-1.5 1.5v2c0 .827.673 1.5 1.5 1.5h19c.827 0 1.5-.673 1.5-1.5v-2c0-.827-.673-1.5-1.5-1.5z" fill="#154194" opacity="1" data-original="#000000" class=""></path><path d="M17.5 15.121a.5.5 0 0 1-.5-.5v-7a.5.5 0 0 1 1 0v7a.5.5 0 0 1-.5.5z" fill="#154194" opacity="1" data-original="#000000" class=""></path><circle cx="3.5" cy="17.621" r=".5" fill="#154194" opacity="1" data-original="#000000" class=""></circle><circle cx="6.5" cy="17.621" r=".5" fill="#154194" opacity="1" data-original="#000000" class=""></circle><circle cx="9.5" cy="17.621" r=".5" fill="#154194" opacity="1" data-original="#000000" class=""></circle><circle cx="12.5" cy="17.621" r=".5" fill="#154194" opacity="1" data-original="#000000" class=""></circle><path d="M20.5 18.121h-5a.5.5 0 0 1 0-1h5a.5.5 0 0 1 0 1zM16.086 9.535a.502.502 0 0 1-.354-.146C15.26 8.917 15 8.289 15 7.621s.26-1.296.732-1.768a.5.5 0 0 1 .707.707c-.283.284-.439.66-.439 1.061s.156.777.439 1.061a.5.5 0 0 1-.353.853zM18.914 9.535a.5.5 0 0 1-.354-.853c.284-.283.44-.66.44-1.061s-.156-.777-.439-1.061a.5.5 0 0 1 .707-.707c.472.472.732 1.1.732 1.768s-.26 1.296-.732 1.768a.498.498 0 0 1-.354.146z" fill="#154194" opacity="1" data-original="#000000" class=""></path><path d="M14.671 10.95a.502.502 0 0 1-.354-.146 4.506 4.506 0 0 1 0-6.364.5.5 0 0 1 .707.707 3.505 3.505 0 0 0 0 4.95.5.5 0 0 1-.353.853zM20.329 10.95a.5.5 0 0 1-.354-.853 3.505 3.505 0 0 0 0-4.95.5.5 0 0 1 .707-.707 4.506 4.506 0 0 1 0 6.364.5.5 0 0 1-.353.146z" fill="#154194" opacity="1" data-original="#000000" class=""></path><path d="M13.257 12.364a.502.502 0 0 1-.354-.146 6.508 6.508 0 0 1 0-9.192.5.5 0 0 1 .707.707 5.505 5.505 0 0 0 0 7.778.5.5 0 0 1-.353.853zM21.743 12.364a.5.5 0 0 1-.354-.853 5.505 5.505 0 0 0 0-7.778.5.5 0 0 1 .707-.707 6.508 6.508 0 0 1 0 9.192.498.498 0 0 1-.353.146z" fill="#154194" opacity="1" data-original="#000000" class=""></path></g></svg>