<?xml version="1.0" standalone="no"?>
<!DOCTYPE svg PUBLIC "-//W3C//DTD SVG 20010904//EN"
 "http://www.w3.org/TR/2001/REC-SVG-20010904/DTD/svg10.dtd">
<svg version="1.0" xmlns="http://www.w3.org/2000/svg"
 width="128.000000pt" height="128.000000pt" viewBox="0 0 128.000000 128.000000"
 preserveAspectRatio="xMidYMid meet">

<g transform="translate(0.000000,128.000000) scale(0.100000,-0.100000)"
fill="#000000" stroke="none">
<path d="M139 981 l-29 -29 0 -312 0 -312 29 -29 c29 -28 32 -29 130 -29 l100
0 3 -27 3 -28 105 0 105 0 3 28 3 28 77 -3 c76 -3 77 -3 80 -30 3 -26 6 -28
52 -28 46 0 49 2 52 28 l3 27 133 5 c131 5 134 5 158 33 13 15 24 37 24 47 0
17 -9 19 -77 22 -77 3 -78 3 -81 31 l-3 27 -289 0 -289 0 -3 78 -3 77 -77 3
-78 3 0 104 0 105 369 0 370 0 3 53 3 52 78 3 c70 3 77 5 77 23 0 11 -13 34
-29 50 l-29 29 -472 0 -472 0 -29 -29z m181 -76 c0 -52 -1 -55 -25 -55 -24 0
-25 3 -25 55 0 52 1 55 25 55 24 0 25 -3 25 -55z m108 3 c-3 -49 -5 -53 -28
-53 -23 0 -25 4 -28 53 l-3 52 31 0 31 0 -3 -52z m102 -3 c0 -52 -1 -55 -25
-55 -24 0 -25 3 -25 55 0 52 1 55 25 55 24 0 25 -3 25 -55z m110 0 c0 -52 -1
-55 -25 -55 -24 0 -25 3 -25 55 0 52 1 55 25 55 24 0 25 -3 25 -55z m108 3
c-3 -49 -5 -53 -28 -53 -23 0 -25 4 -28 53 l-3 52 31 0 31 0 -3 -52z m102 -3
c0 -52 -1 -55 -25 -55 -24 0 -25 3 -25 55 0 52 1 55 25 55 24 0 25 -3 25 -55z"/>
<path d="M1070 800 l0 -50 50 0 50 0 0 50 0 50 -50 0 -50 0 0 -50z"/>
<path d="M480 615 l0 -135 264 0 265 0 3 53 3 52 77 3 78 3 0 49 0 49 -77 3
c-77 3 -78 3 -81 31 l-3 27 -265 0 -264 0 0 -135z m320 -31 l0 -55 -52 3 -53
3 -3 53 -3 52 55 0 56 0 0 -56z"/>
<path d="M1070 480 l0 -50 50 0 50 0 0 50 0 50 -50 0 -50 0 0 -50z"/>
</g>
</svg>
