<?xml version="1.0" standalone="no"?>
<!DOCTYPE svg PUBLIC "-//W3C//DTD SVG 20010904//EN"
 "http://www.w3.org/TR/2001/REC-SVG-20010904/DTD/svg10.dtd">
<svg version="1.0" xmlns="http://www.w3.org/2000/svg"
 width="90.000000pt" height="90.000000pt" viewBox="0 0 90.000000 90.000000"
 preserveAspectRatio="xMidYMid meet">

<g transform="translate(0.000000,90.000000) scale(0.100000,-0.100000)"
fill="#000000" stroke="none">
<path d="M0 450 l0 -450 450 0 450 0 0 450 0 450 -450 0 -450 0 0 -450z m848
78 l2 -318 -400 0 -400 0 0 313 c0 173 3 317 7 320 4 4 182 6 397 5 l391 -3 3
-317z m0 -420 l-3 -53 -395 0 -395 0 -3 53 -3 52 401 0 401 0 -3 -52z"/>
<path d="M190 759 c0 -21 -10 -43 -30 -66 -16 -18 -30 -45 -30 -58 0 -14 13
-39 30 -57 l30 -31 0 -144 c0 -144 0 -144 23 -141 21 3 22 6 25 147 2 136 4
145 27 173 32 38 32 78 0 108 -18 17 -25 34 -25 62 0 34 -3 38 -25 38 -21 0
-25 -5 -25 -31z m45 -124 c0 -30 -39 -27 -43 3 -3 20 0 23 20 20 15 -2 23 -10
23 -23z"/>
<path d="M420 645 c0 -140 -1 -145 -25 -169 -32 -32 -32 -66 -1 -103 15 -17
26 -45 28 -69 3 -34 6 -39 28 -39 22 0 25 5 28 39 2 24 13 52 28 69 31 37 31
71 -1 103 -24 24 -25 29 -25 169 l0 145 -30 0 -30 0 0 -145z m47 -206 c15 -15
5 -39 -17 -39 -22 0 -32 24 -17 39 6 6 14 11 17 11 3 0 11 -5 17 -11z"/>
<path d="M660 752 c0 -28 -7 -45 -25 -62 -33 -31 -33 -79 0 -110 24 -22 25
-28 27 -169 3 -143 3 -146 26 -149 22 -3 22 -3 22 138 l0 142 30 35 c17 18 30
45 30 58 0 13 -13 40 -30 58 -20 23 -30 45 -30 66 0 26 -4 31 -25 31 -22 0
-25 -4 -25 -38z m50 -112 c0 -24 -26 -38 -42 -22 -16 16 -2 42 22 42 13 0 20
-7 20 -20z"/>
</g>
</svg>
