<svg xmlns="http://www.w3.org/2000/svg" version="1.1" xmlns:xlink="http://www.w3.org/1999/xlink" width="512" height="512" x="0" y="0" viewBox="0 0 512 512" style="enable-background:new 0 0 512 512" xml:space="preserve" class=""><g><path fill="#154194" d="M256 226.8c-51.7 0-93.7-42-93.7-93.7s42-93.7 93.7-93.7 93.7 42 93.7 93.7-42 93.7-93.7 93.7zm0-174.5c-44.5 0-80.7 36.2-80.7 80.7s36.2 80.7 80.7 80.7 80.7-36.2 80.7-80.7-36.2-80.7-80.7-80.7zM98.7 471.3C47 471.3 5 429.3 5 377.6s42-93.7 93.7-93.7 93.7 42 93.7 93.7-42.1 93.7-93.7 93.7zm0-174.5C54.2 296.8 18 333 18 377.5s36.2 80.7 80.7 80.7 80.7-36.2 80.7-80.7-36.2-80.7-80.7-80.7zM413.3 471.3c-51.7 0-93.7-42-93.7-93.7s42-93.7 93.7-93.7 93.7 42 93.7 93.7-42 93.7-93.7 93.7zm0-174.5c-44.5 0-80.7 36.2-80.7 80.7s36.2 80.7 80.7 80.7S494 422 494 377.5s-36.2-80.7-80.7-80.7z" opacity="1" data-original="#34314c" class=""></path><path fill="#154194" d="m293.35 211.538 18.247-11.924 64.546 98.766-18.246 11.924zM136.02 297.614l64.218-98.264 18.665 12.198-64.218 98.264zM185.9 370.3h140.2v22.3H185.9z" opacity="1" data-original="#34314c" class=""></path><path fill="#154194" d="M319.6 146.3v-25.6l-17.1-1.3c-1-3.3-2.3-6.5-3.9-9.5l11.1-13-18.1-18.1-12.8 11c-3-1.7-6.3-3-9.7-4l-1.3-17.2h-25.6l-1.3 17.2c-4.4 1.3-8.6 3.3-12.4 5.7l-10.1-8.6-18.1 18.1 9.8 11.5c-1 2.2-1.9 4.6-2.6 7l-17.1 1.3v25.6l17.4 1.4c1 3.2 2.3 6.3 3.9 9.2l-11.4 13.3 18.1 18.1 13.5-11.5c2.9 1.5 5.9 2.8 9 3.7l1.3 17.2h25.6l1.3-17.2c2.1-.6 4.1-1.4 6-2.2l16.5 14.1 18.1-18.1-12.7-15.2c2.2-3.6 4-7.4 5.3-11.5zm-64.6 6.6c-10.9 0-19.8-8.9-19.8-19.8s8.9-19.8 19.8-19.8 19.8 8.9 19.8 19.8-8.8 19.8-19.8 19.8z" opacity="1" data-original="#f5b352" class=""></path><g fill="#d2d4d8"><path d="M236 308.5c-.2-6-.4-13.3-.4-20.7h-.2c-1.6 6.4-3.7 13.6-5.6 19.5l-6.1 19.6h-8.9l-5.4-19.5c-1.6-5.9-3.4-13-4.5-19.6h-.1c-.3 6.8-.5 14.5-.9 20.8l-.9 19.1h-10.5l3.2-50.3h15.1l4.9 16.8c1.6 5.8 3.1 12.1 4.2 18h.2c1.4-5.8 3.1-12.5 4.8-18l5.4-16.7h14.8l2.8 50.3h-11.1zM286.5 306.5H268v11.9h20.7v9.3h-32.1v-50.3h31v9.3H268v10.4h18.5zM296.8 316.1c3.1 1.6 7.8 3.1 12.6 3.1 5.2 0 8-2.2 8-5.4 0-3.1-2.4-4.9-8.4-7.1-8.4-2.9-13.8-7.5-13.8-14.8 0-8.6 7.2-15.1 19-15.1 5.7 0 9.8 1.2 12.8 2.5l-2.5 9.2c-2-1-5.6-2.4-10.5-2.4s-7.3 2.2-7.3 4.8c0 3.2 2.8 4.6 9.3 7.1 8.9 3.3 13 7.9 13 15 0 8.4-6.5 15.6-20.3 15.6-5.7 0-11.4-1.5-14.2-3.1z" fill="#154194" opacity="1" data-original="#d2d4d8" class=""></path></g><g fill="#f5b352"><path d="M91.6 396.9H27.2l7-19.4-7-19.3h64.4l7.1 19.3zM163.1 396.9H98.7l7-19.4-7-19.3h64.4l7 19.3zM366.8 357.8H460v66.9h-93.2zM413.3 355.4h-46.2l-8.8-25h46.2zM413.3 355.4h46.3l8.8-25h-46.3z" fill="#154194" opacity="1" data-original="#f5b352" class=""></path></g></g></svg>