<svg xmlns="http://www.w3.org/2000/svg" version="1.1" xmlns:xlink="http://www.w3.org/1999/xlink" width="512" height="512" x="0" y="0" viewBox="0 0 682.667 682.667" style="enable-background:new 0 0 512 512" xml:space="preserve"><g><defs><clipPath id="a" clipPathUnits="userSpaceOnUse"><path d="M0 512h512V0H0Z" fill="#154194" opacity="1" data-original="#000000"></path></clipPath></defs><g clip-path="url(#a)" transform="matrix(1.33333 0 0 -1.33333 0 682.667)"><path d="M0 0v-57.47c0-15.11 10.72-28.4 25.5-31.59l107.17-23.18c29.54-6.39 50.979-32.96 50.979-63.19v-42.39" style="stroke-width:15;stroke-linecap:round;stroke-linejoin:round;stroke-miterlimit:10;stroke-dasharray:none;stroke-opacity:1" transform="translate(272.36 352.59)" fill="none" stroke="#154194" stroke-width="15" stroke-linecap="round" stroke-linejoin="round" stroke-miterlimit="10" stroke-dasharray="none" stroke-opacity="" data-original="#000000" opacity="1"></path><path d="m0 0 50.58 10.94c14.78 3.19 25.5 16.48 25.5 31.59v153.99l-41.34-41.33c-6.31-6.31-16.54-6.31-22.86 0l-.2.2c-6.3 6.31-6.3 16.55 0 22.86l68.94 68.92c6.3 6.32 16.54 6.32 22.84 0l68.94-68.92c6.3-6.31 6.3-16.55 0-22.86-6.32-6.3-16.55-6.3-22.86 0l-41.14 41.13V135" style="stroke-width:15;stroke-linecap:round;stroke-linejoin:round;stroke-miterlimit:10;stroke-dasharray:none;stroke-opacity:1" transform="translate(163.96 252.59)" fill="none" stroke="#154194" stroke-width="15" stroke-linecap="round" stroke-linejoin="round" stroke-miterlimit="10" stroke-dasharray="none" stroke-opacity="" data-original="#000000" opacity="1"></path><path d="M0 0v42.29c0 30.23 21.45 56.8 50.98 63.19l22.39 4.84" style="stroke-width:15;stroke-linecap:round;stroke-linejoin:round;stroke-miterlimit:10;stroke-dasharray:none;stroke-opacity:1" transform="translate(56.39 134.87)" fill="none" stroke="#154194" stroke-width="15" stroke-linecap="round" stroke-linejoin="round" stroke-miterlimit="10" stroke-dasharray="none" stroke-opacity="" data-original="#000000" opacity="1"></path><path d="M0 0v36.73" style="stroke-width:15;stroke-linecap:round;stroke-linejoin:round;stroke-miterlimit:10;stroke-dasharray:none;stroke-opacity:1" transform="translate(240.04 134.82)" fill="none" stroke="#154194" stroke-width="15" stroke-linecap="round" stroke-linejoin="round" stroke-miterlimit="10" stroke-dasharray="none" stroke-opacity="" data-original="#000000" opacity="1"></path><path d="M0 0v42.5c0 15.11 10.71 28.4 25.48 31.59l107.18 23.19c6.691 1.44 12.95 3.93 18.66 7.25V71.89" style="stroke-width:15;stroke-linecap:round;stroke-linejoin:round;stroke-miterlimit:10;stroke-dasharray:none;stroke-opacity:1" transform="translate(88.72 134.66)" fill="none" stroke="#154194" stroke-width="15" stroke-linecap="round" stroke-linejoin="round" stroke-miterlimit="10" stroke-dasharray="none" stroke-opacity="" data-original="#000000" opacity="1"></path><path d="M0 0v104.471a64.143 64.143 0 0 1 18.658-7.263l107.168-23.173c14.778-3.192 25.496-16.486 25.496-31.598V.051" style="stroke-width:15;stroke-linecap:round;stroke-linejoin:round;stroke-miterlimit:10;stroke-dasharray:none;stroke-opacity:1" transform="translate(272.364 134.72)" fill="none" stroke="#154194" stroke-width="15" stroke-linecap="round" stroke-linejoin="round" stroke-miterlimit="10" stroke-dasharray="none" stroke-opacity="" data-original="#000000" opacity="1"></path><path d="M0 0c0-35.706-28.945-64.65-64.65-64.65-35.705 0-64.651 28.944-64.651 64.65s28.946 64.65 64.651 64.65S0 35.706 0 0Z" style="stroke-width:15;stroke-linecap:round;stroke-linejoin:round;stroke-miterlimit:10;stroke-dasharray:none;stroke-opacity:1" transform="translate(136.8 72.15)" fill="none" stroke="#154194" stroke-width="15" stroke-linecap="round" stroke-linejoin="round" stroke-miterlimit="10" stroke-dasharray="none" stroke-opacity="" data-original="#000000" opacity="1"></path><path d="M0 0c0-35.706-28.945-64.65-64.65-64.65-35.705 0-64.651 28.944-64.651 64.65s28.946 64.65 64.651 64.65S0 35.706 0 0Z" style="stroke-width:15;stroke-linecap:round;stroke-linejoin:round;stroke-miterlimit:10;stroke-dasharray:none;stroke-opacity:1" transform="translate(320.65 72.15)" fill="none" stroke="#154194" stroke-width="15" stroke-linecap="round" stroke-linejoin="round" stroke-miterlimit="10" stroke-dasharray="none" stroke-opacity="" data-original="#000000" opacity="1"></path><path d="M0 0c0-35.706-28.945-64.65-64.65-64.65-35.705 0-64.651 28.944-64.651 64.65s28.946 64.65 64.651 64.65S0 35.706 0 0Z" style="stroke-width:15;stroke-linecap:round;stroke-linejoin:round;stroke-miterlimit:10;stroke-dasharray:none;stroke-opacity:1" transform="translate(504.5 72.15)" fill="none" stroke="#154194" stroke-width="15" stroke-linecap="round" stroke-linejoin="round" stroke-miterlimit="10" stroke-dasharray="none" stroke-opacity="" data-original="#000000" opacity="1"></path></g></g></svg>