<svg xmlns="http://www.w3.org/2000/svg" version="1.1" xmlns:xlink="http://www.w3.org/1999/xlink" width="512" height="512" x="0" y="0" viewBox="0 0 512 512" style="enable-background:new 0 0 512 512" xml:space="preserve" class=""><g><path d="M245.29 109.54c-59.5 0-107.9 48.4-107.9 107.9s48.4 107.9 107.9 107.9 107.9-48.4 107.9-107.9-48.41-107.9-107.9-107.9zm0 203.8c-52.88 0-95.9-43.02-95.9-95.9s43.02-95.9 95.9-95.9 95.9 43.02 95.9 95.9-43.02 95.9-95.9 95.9zm-1.37-175.99c-2.14 0-4.12 1.14-5.2 3L173.86 252.7c-1.07 1.86-1.07 4.14 0 6s3.05 3 5.2 3H308.8c2.14 0 4.12-1.14 5.2-3s1.07-4.14 0-6l-64.87-112.35a6.03 6.03 0 0 0-5.21-3zM189.45 249.7l54.48-94.35 54.48 94.35zm54.47-69.94c3.31 0 6 2.69 6 6v31.68c0 3.31-2.69 6-6 6s-6-2.69-6-6v-31.68c0-3.31 2.69-6 6-6zm6 55.63v.04c0 3.31-2.69 6-6 6s-6-2.69-6-6 2.69-6.02 6-6.02 6 2.66 6 5.98zM477.94 74.53c-13.27 0-24.06 10.79-24.06 24.06 0 8.15 4.08 15.36 10.29 19.71l-40.65 108.9c-.83-.09-1.67-.13-2.53-.13-8.88 0-16.64 4.84-20.81 12.01l-21.2-5.93c.6-5.15.92-10.39.92-15.71 0-74.23-60.39-134.62-134.62-134.62s-134.62 60.39-134.62 134.62c0 45.64 22.84 86.05 57.68 110.4l-12.09 22.2c-1.88-.47-3.85-.73-5.87-.73-5.95 0-11.39 2.17-15.59 5.76l-26.16-18.39c1-2.64 1.55-5.5 1.55-8.49 0-13.26-10.79-24.06-24.06-24.06s-24.06 10.79-24.06 24.06c0 5.7 2 10.94 5.32 15.07l-24.2 32.41c-2.82-1.16-5.9-1.8-9.13-1.8-13.27 0-24.06 10.79-24.06 24.06s10.79 24.06 24.06 24.06 24.06-10.79 24.06-24.06c0-5.7-2-10.94-5.32-15.06l24.2-32.41c2.82 1.16 5.9 1.8 9.13 1.8 5.95 0 11.39-2.17 15.59-5.76l26.16 18.39c-1 2.64-1.55 5.5-1.55 8.49 0 13.27 10.79 24.06 24.06 24.06s24.06-10.79 24.06-24.06c0-6.93-2.95-13.18-7.65-17.58l11.71-21.5c19.7 11.3 42.5 17.77 66.8 17.77 25.52 0 49.4-7.14 69.76-19.52l78.48 92.21c6.6 7.75 16.09 12.25 26.74 12.68.56.02 1.12.03 1.68.03 11.16 0 21.97-4.45 29.88-12.36 8.31-8.31 12.8-19.81 12.33-31.56-.43-10.65-4.93-20.14-12.68-26.74l-91.93-78.25c8.22-13.16 14.24-27.83 17.52-43.5l19.9 5.57c0 .16-.01.33-.01.49 0 13.27 10.79 24.06 24.06 24.06s24.06-10.79 24.06-24.06c0-8.15-4.08-15.36-10.29-19.71l40.65-108.9c.83.09 1.67.13 2.53.13 13.27 0 24.06-10.79 24.06-24.06s-10.83-24.05-24.1-24.05zM34.06 409.97c-6.65 0-12.06-5.41-12.06-12.06s5.41-12.06 12.06-12.06 12.06 5.41 12.06 12.06-5.41 12.06-12.06 12.06zm52.06-69.72c-6.65 0-12.06-5.41-12.06-12.06s5.41-12.06 12.06-12.06 12.06 5.41 12.06 12.06-5.41 12.06-12.06 12.06zm64.26 45.18c-6.65 0-12.06-5.41-12.06-12.06s5.41-12.06 12.06-12.06 12.06 5.41 12.06 12.06-5.41 12.06-12.06 12.06zm301.78 8.61c.33 8.29-2.97 16.73-8.82 22.59-5.86 5.86-14.31 9.15-22.59 8.82-7.26-.29-13.68-3.3-18.08-8.47L345.4 349.7l31.01-31.01 67.28 57.27c5.17 4.39 8.18 10.81 8.47 18.08zm-84.92-83.16-29.65 29.65-12.53-14.72a135.7 135.7 0 0 0 27.63-27.31zm-121.95 29.19c-67.62 0-122.62-55.01-122.62-122.62s55-122.63 122.62-122.63 122.62 55.01 122.62 122.62-55.01 122.63-122.62 122.63zM421 263.18c-6.65 0-12.06-5.41-12.06-12.06s5.41-12.06 12.06-12.06 12.06 5.41 12.06 12.06-5.41 12.06-12.06 12.06zm56.94-152.54c-6.65 0-12.06-5.41-12.06-12.06s5.41-12.06 12.06-12.06S490 91.94 490 98.58s-5.41 12.06-12.06 12.06z" fill="#154194" opacity="1" data-original="#000000"></path></g></svg>