<svg xmlns="http://www.w3.org/2000/svg" version="1.1" xmlns:xlink="http://www.w3.org/1999/xlink" width="512" height="512" x="0" y="0" viewBox="0 0 511.941 511.941" style="enable-background:new 0 0 512 512" xml:space="preserve" class=""><g><path d="M66.59 107.183V55.439M41.515 129.811c7.51-14.51 22.66-24.43 40.13-24.43h13.06M38.765 164.811c5.934 17.854 22.799 30.92 42.88 30.92h13.06" style="stroke-width:15;stroke-linecap:round;stroke-linejoin:round;stroke-miterlimit:10;" fill="none" stroke="#154194" stroke-width="15" stroke-linecap="round" stroke-linejoin="round" stroke-miterlimit="10" data-original="#000000" opacity="1" class=""></path><circle cx="66.59" cy="30.088" r="22.588" style="stroke-width:15;stroke-linecap:round;stroke-linejoin:round;stroke-miterlimit:10;" fill="none" stroke="#154194" stroke-width="15" stroke-linecap="round" stroke-linejoin="round" stroke-miterlimit="10" data-original="#000000" opacity="1" class=""></circle><path d="M443.061 107.183V55.439M414.945 195.731h13.06c24.935 0 45.17-20.208 45.17-45.17 0-24.95-20.22-45.18-45.17-45.18h-13.06M179.595 35.621c.97-15.69 14-28.12 29.94-28.12h90.58c15.94 0 28.97 12.43 29.94 28.12M217.175 302.273v-37.515M292.475 302.273v-37.515M375.415 504.441h22.53c8.28 0 15-6.72 15-15v-75.82c0-58.94-42.49-107.94-98.49-118.07-4.02-.73-8.15.25-11.44 2.66-6.06 4.43-19.57 10.47-48.19 10.47s-42.13-6.04-48.19-10.47c-3.29-2.41-7.42-3.39-11.44-2.66-56 10.13-98.49 59.13-98.49 118.07v75.82c0 8.28 6.72 15 15 15h228.71M352.943 263.5H156.708c-33.137 0-60-26.863-60-60V97.618c0-33.137 26.863-60 60-60h196.235c33.137 0 60 26.863 60 60V203.5c0 33.137-26.863 60-60 60z" style="stroke-width:15;stroke-linecap:round;stroke-linejoin:round;stroke-miterlimit:10;" fill="none" stroke="#154194" stroke-width="15" stroke-linecap="round" stroke-linejoin="round" stroke-miterlimit="10" data-original="#000000" opacity="1" class=""></path><path d="M363.555 126.991c16.422 44.315-16.486 91.33-63.55 91.33h-90.36c-37.42 0-67.76-30.34-67.76-67.76 0-37.432 30.339-67.77 67.76-67.77h90.36c16.36 0 31.37 5.8 43.08 15.45" style="stroke-width:15;stroke-linecap:round;stroke-linejoin:round;stroke-miterlimit:10;" fill="none" stroke="#154194" stroke-width="15" stroke-linecap="round" stroke-linejoin="round" stroke-miterlimit="10" data-original="#000000" opacity="1" class=""></path><circle cx="443.061" cy="30.088" r="22.588" style="stroke-width:15;stroke-linecap:round;stroke-linejoin:round;stroke-miterlimit:10;" fill="none" stroke="#154194" stroke-width="15" stroke-linecap="round" stroke-linejoin="round" stroke-miterlimit="10" data-original="#000000" opacity="1" class=""></circle><path d="M157.355 459.261h8.43c3.98 0 7.8 1.58 10.61 4.4l6.27 6.27a15.01 15.01 0 0 0 10.61 4.39h15.37" style="stroke-width:15;stroke-linecap:round;stroke-linejoin:round;stroke-miterlimit:10;" fill="none" stroke="#154194" stroke-width="15" stroke-linecap="round" stroke-linejoin="round" stroke-miterlimit="10" data-original="#000000" opacity="1" class=""></path><circle cx="141.884" cy="459.265" r="15.059" style="stroke-width:15;stroke-linecap:round;stroke-linejoin:round;stroke-miterlimit:10;" fill="none" stroke="#154194" stroke-width="15" stroke-linecap="round" stroke-linejoin="round" stroke-miterlimit="10" data-original="#000000" opacity="1" class=""></circle><path d="M228.475 415.251v-42.11" style="stroke-width:15;stroke-linecap:round;stroke-linejoin:round;stroke-miterlimit:10;" fill="none" stroke="#154194" stroke-width="15" stroke-linecap="round" stroke-linejoin="round" stroke-miterlimit="10" data-original="#000000" opacity="1" class=""></path><circle cx="228.472" cy="353.853" r="15.059" style="stroke-width:15;stroke-linecap:round;stroke-linejoin:round;stroke-miterlimit:10;" fill="none" stroke="#154194" stroke-width="15" stroke-linecap="round" stroke-linejoin="round" stroke-miterlimit="10" data-original="#000000" opacity="1" class=""></circle><path d="M281.175 415.251v-22.65" style="stroke-width:15;stroke-linecap:round;stroke-linejoin:round;stroke-miterlimit:10;" fill="none" stroke="#154194" stroke-width="15" stroke-linecap="round" stroke-linejoin="round" stroke-miterlimit="10" data-original="#000000" opacity="1" class=""></path><circle cx="281.178" cy="376.441" r="15.059" style="stroke-width:15;stroke-linecap:round;stroke-linejoin:round;stroke-miterlimit:10;" fill="none" stroke="#154194" stroke-width="15" stroke-linecap="round" stroke-linejoin="round" stroke-miterlimit="10" data-original="#000000" opacity="1" class=""></circle><path d="M209.575 436.681h-22.51M300.075 436.681h16.3c3.98 0 7.8 1.58 10.61 4.39l6.27 6.27a15.01 15.01 0 0 0 10.61 4.39h6.43" style="stroke-width:15;stroke-linecap:round;stroke-linejoin:round;stroke-miterlimit:10;" fill="none" stroke="#154194" stroke-width="15" stroke-linecap="round" stroke-linejoin="round" stroke-miterlimit="10" data-original="#000000" opacity="1" class=""></path><circle cx="367.766" cy="451.735" r="15.059" style="stroke-width:15;stroke-linecap:round;stroke-linejoin:round;stroke-miterlimit:10;" fill="none" stroke="#154194" stroke-width="15" stroke-linecap="round" stroke-linejoin="round" stroke-miterlimit="10" data-original="#000000" opacity="1" class=""></circle><path d="M322.585 474.321h-21.58M209.649 501.441v-57.353c0-16.569 13.431-30 30-30h30.353c16.569 0 30 13.431 30 30v57.353M209.649 188.206l28.648-74.234c.585-1.412 2.611-1.414 3.2-.003l28.388 74.237M218.583 169.718h42.511M300.002 112.912v75.294" style="stroke-width:15;stroke-linecap:round;stroke-linejoin:round;stroke-miterlimit:10;" fill="none" stroke="#154194" stroke-width="15" stroke-linecap="round" stroke-linejoin="round" stroke-miterlimit="10" data-original="#000000" opacity="1" class=""></path></g></svg>