<svg xmlns="http://www.w3.org/2000/svg" version="1.1" xmlns:xlink="http://www.w3.org/1999/xlink" width="512" height="512" x="0" y="0" viewBox="0 0 512 512" style="enable-background:new 0 0 512 512" xml:space="preserve"><g><path d="M109.328 426.638c4.143 0 7.5-3.357 7.5-7.5v-11.393c0-4.143-3.357-7.5-7.5-7.5s-7.5 3.357-7.5 7.5v11.393a7.5 7.5 0 0 0 7.5 7.5zM343.886 338.931h37.644c4.143 0 7.5-3.357 7.5-7.5v-37.645c0-4.143-3.357-7.5-7.5-7.5h-37.644a7.499 7.499 0 0 0-7.5 7.5v37.645a7.5 7.5 0 0 0 7.5 7.5zm7.5-37.645h22.644v22.645h-22.644zM192.809 395.953h116.608c4.143 0 7.5-3.357 7.5-7.5v-32.455c0-4.143-3.357-7.5-7.5-7.5H192.809a7.499 7.499 0 0 0-7.5 7.5v32.455a7.5 7.5 0 0 0 7.5 7.5zm7.5-32.455h101.608v17.455H200.309zM119.483 111.581a7.499 7.499 0 0 0-7.5 7.5v24.498c0 4.143 3.357 7.5 7.5 7.5s7.5-3.357 7.5-7.5v-24.498a7.5 7.5 0 0 0-7.5-7.5zM421.603 145.792h-26.879c-4.143 0-7.5 3.357-7.5 7.5s3.357 7.5 7.5 7.5h26.879c4.143 0 7.5-3.357 7.5-7.5s-3.357-7.5-7.5-7.5zM421.603 165.765h-26.879c-4.143 0-7.5 3.357-7.5 7.5s3.357 7.5 7.5 7.5h26.879c4.143 0 7.5-3.357 7.5-7.5s-3.357-7.5-7.5-7.5zM421.603 185.738h-26.879c-4.143 0-7.5 3.357-7.5 7.5s3.357 7.5 7.5 7.5h26.879c4.143 0 7.5-3.357 7.5-7.5s-3.357-7.5-7.5-7.5zM109.328 301.286h57.418c4.143 0 7.5-3.357 7.5-7.5s-3.357-7.5-7.5-7.5h-57.418c-4.143 0-7.5 3.357-7.5 7.5s3.357 7.5 7.5 7.5z" fill="#154194" opacity="1" data-original="#000000"></path><path d="M450.417 170.208c4.143 0 7.5-3.357 7.5-7.5v-26.059c0-7.244-5.894-13.138-13.138-13.138h-15.676V56.148c0-12.256-9.972-22.228-22.228-22.228H265.704V20.293C265.704 9.104 256.6 0 245.41 0h-97.75c-4.143 0-7.5 3.357-7.5 7.5s3.357 7.5 7.5 7.5h97.75a5.3 5.3 0 0 1 5.294 5.293V33.92H88.124V20.293A5.3 5.3 0 0 1 93.418 15h24.255c4.143 0 7.5-3.357 7.5-7.5s-3.357-7.5-7.5-7.5H93.417c-11.19 0-20.294 9.104-20.294 20.293v146.552L54.276 248.23a7.806 7.806 0 0 0-.193 1.686v228.006C54.083 496.713 69.37 512 88.161 512H253.17c4.143 0 7.5-3.357 7.5-7.5s-3.357-7.5-7.5-7.5h-38.638v-8.463c0-9.118-7.419-16.537-16.537-16.537H148.51c-9.118 0-16.537 7.419-16.537 16.537V497H88.162c-10.52 0-19.078-8.559-19.078-19.078V462h364.06v15.922c0 10.52-8.558 19.078-19.077 19.078H283.158c-4.143 0-7.5 3.357-7.5 7.5s3.357 7.5 7.5 7.5h130.908c18.79 0 34.077-15.287 34.077-34.078V249.916a7.773 7.773 0 0 0-.193-1.687l-5.838-25.212h2.667c7.244 0 13.138-5.894 13.138-13.137v-17.186c0-4.143-3.357-7.5-7.5-7.5s-7.5 3.357-7.5 7.5v15.322h-69.506V138.51h69.506v24.196a7.5 7.5 0 0 0 7.5 7.502zM146.973 488.537c0-.848.689-1.537 1.537-1.537h49.485c.848 0 1.537.689 1.537 1.537V497h-52.56v-8.463zm267.13-432.389v29.217H297.81v-9.461c0-10.384-8.448-18.832-18.832-18.832h-55.729c-10.384 0-18.832 8.448-18.832 18.832v9.461H88.124V48.921h318.752c3.985 0 7.227 3.242 7.227 7.227zM282.81 85.365h-63.394v-9.461a3.836 3.836 0 0 1 3.832-3.832h55.729a3.836 3.836 0 0 1 3.832 3.832v9.461zm150.333 361.634H69.083V257.422h364.06zm-6.429-223.981 4.493 19.404H71.019l15.566-67.22h80.501l-7.648 33.027a7.498 7.498 0 0 0 7.307 9.192h168.736a7.5 7.5 0 0 0 7.307-9.192l-7.648-33.027h23.27v34.679c0 7.243 5.894 13.137 13.137 13.137zm-100.668-20.596H176.181l6.303-27.22h137.26zm-.049-42.22H176.23v-11.819c0-1.104.897-2.001 2.001-2.001h145.765c1.104 0 2.001.897 2.001 2.001zm45.55-36.69c-7.243 0-13.137 5.894-13.137 13.138v23.553h-17.414v-11.819c0-9.374-7.627-17.001-17.001-17.001H178.231c-9.374 0-17.001 7.627-17.001 17.001v11.819H88.124v-59.837h325.979v23.146z" fill="#154194" opacity="1" data-original="#000000"></path></g></svg>