<?xml version="1.0" encoding="UTF-8"?>
<svg xmlns="http://www.w3.org/2000/svg" viewBox="-80 -80 160 160">
  <circle cx="0" cy="0" r="10" fill="none" stroke="#154194" stroke-width="3" /><line x1="0.00" y1="-10.00" x2="0.00" y2="-27.50" stroke="#154194" stroke-width="3" stroke-linecap="round" /><line x1="9.51" y1="-3.09" x2="26.16" y2="-8.50" stroke="#154194" stroke-width="3" stroke-linecap="round" /><line x1="5.88" y1="8.09" x2="16.16" y2="22.25" stroke="#154194" stroke-width="3" stroke-linecap="round" /><line x1="-5.88" y1="8.09" x2="-16.16" y2="22.25" stroke="#154194" stroke-width="3" stroke-linecap="round" /><line x1="-9.51" y1="-3.09" x2="-26.16" y2="-8.50" stroke="#154194" stroke-width="3" stroke-linecap="round" /><g transform="translate(-14.40,-59.40) scale(1.2)">
<g><path d="M12 12a6 6 0 1 0-6-6 6.006 6.006 0 0 0 6 6Zm0-10a4 4 0 1 1-4 4 4 4 0 0 1 4-4ZM12 14a9.01 9.01 0 0 0-9 9 1 1 0 0 0 2 0 7 7 0 0 1 14 0 1 1 0 0 0 2 0 9.01 9.01 0 0 0-9-9Z" fill="#154194" opacity="1" data-original="#000000"></path></g>
</g><g transform="translate(28.40,-28.31) scale(1.2)">
<g><g data-name="01 align center"><path d="M12 2a10.032 10.032 0 0 1 7.122 3H15v2h5.143A1.859 1.859 0 0 0 22 5.143V0h-2v3.078A11.982 11.982 0 0 0 0 12h2A10.011 10.011 0 0 1 12 2ZM22 12a9.986 9.986 0 0 1-17.122 7H9v-2H3.857A1.859 1.859 0 0 0 2 18.857V24h2v-3.078A11.982 11.982 0 0 0 24 12Z" fill="#154194" opacity="1" data-original="#000000"></path></g></g>
</g><g transform="translate(12.05,27.01) scale(1.2)">
<g><path d="M19.5 1h-15C2.02 1 0 3.02 0 5.5v13C0 20.98 2.02 23 4.5 23h15c2.48 0 4.5-2.02 4.5-4.5v-13C24 3.02 21.98 1 19.5 1Zm-15 1h15C21.43 2 23 3.57 23 5.5V8H1V5.5C1 3.57 2.57 2 4.5 2Zm15 20h-15C2.57 22 1 20.43 1 18.5V9h22v9.5c0 1.93-1.57 3.5-3.5 3.5ZM19 5c0-.55.45-1 1-1s1 .45 1 1-.45 1-1 1-1-.45-1-1Zm-3 0c0-.55.45-1 1-1s1 .45 1 1-.45 1-1 1-1-.45-1-1Zm-3 0c0-.55.45-1 1-1s1 .45 1 1-.45 1-1 1-1-.45-1-1Z" fill="none" stroke="#154194" stroke-width="1.1" stroke-linecap="round" stroke-linejoin="round" class=""></path></g>
</g><g transform="translate(-40.85,22.01) scale(1.2)">
<g><path d="M22.5 21H22V11a2.993 2.993 0 0 0-1.444-2.553l-4.895-7.181A2.491 2.491 0 0 0 13.5 0 2.503 2.503 0 0 0 11 2.5c0 .075.016.146.022.22l-.006.004L7.739 6H4.926a4.47 4.47 0 0 0-3.182 1.318L.429 8.633a1.465 1.465 0 0 0 2.07 2.07l1.557-1.557A.504.504 0 0 1 4.41 9l2.591-.064v2.655c0 .131-.053.26-.146.354l-1.557 1.557a1.465 1.465 0 0 0 2.07 2.07l1.315-1.315a4.469 4.469 0 0 0 1.318-3.182V8.262l2.631-2.632 3.406 4.998c-.016.124-.038.245-.038.373v10h-.5c-.827 0-1.5.673-1.5 1.5s.673 1.5 1.5 1.5h7c.827 0 1.5-.673 1.5-1.5s-.673-1.5-1.5-1.5ZM21 11c0 1.103-.897 2-2 2s-2-.897-2-2 .897-2 2-2 2 .897 2 2Zm0 2.22V21h-4v-7.78c.532.48 1.229.78 2 .78s1.468-.301 2-.78ZM9 11.074c0 .935-.364 1.813-1.025 2.475L6.66 14.864a.465.465 0 0 1-.792-.328.46.46 0 0 1 .136-.328l1.557-1.557A1.49 1.49 0 0 0 8 11.59V8.935a.937.937 0 0 0-.936-.936H4.409c-.4 0-.777.156-1.061.439L1.791 9.995a.477.477 0 0 1-.656 0 .464.464 0 0 1 0-.656L2.45 8.024a3.477 3.477 0 0 1 2.475-1.025h2.813L8.999 8.26v2.813Zm.5-3.728-.847-.847 2.714-2.714c.058.095.691 1.002.691 1.002L9.5 7.346ZM12 2.499a1.5 1.5 0 1 1 3.001.001A1.5 1.5 0 0 1 12 2.5Zm1.406 2.491c.032.001.062.009.094.009 1.09 0 2.009-.705 2.351-1.68l3.193 4.684c-.015 0-.029-.004-.043-.004a2.99 2.99 0 0 0-2.555 1.449L13.407 4.99ZM22.5 22.999h-7a.5.5 0 0 1 0-1h7a.5.5 0 0 1 0 1Z" fill="none" stroke="#154194" stroke-width="1.1" stroke-linecap="round" stroke-linejoin="round"></path></g>
</g><g transform="translate(-57.20,-28.31) scale(1.2)">
<g><path d="m21.234 14.174-.445-.274c.14-.64.211-1.277.211-1.899s-.071-1.26-.211-1.899l.445-.274a2.978 2.978 0 0 0 1.344-1.862 2.98 2.98 0 0 0-.367-2.267 3.005 3.005 0 0 0-4.128-.978l-.445.275A8.892 8.892 0 0 0 15 3.515v-.514c0-1.654-1.346-3-3-3s-3 1.346-3 3v.514a8.914 8.914 0 0 0-2.638 1.481l-.445-.275a3.004 3.004 0 0 0-4.128.978 2.983 2.983 0 0 0-.367 2.267c.185.78.662 1.441 1.344 1.862l.445.274c-.14.64-.211 1.277-.211 1.899s.071 1.26.211 1.899l-.445.274a2.978 2.978 0 0 0-1.344 1.862 2.98 2.98 0 0 0 .367 2.267 3.005 3.005 0 0 0 4.128.978l.445-.275A8.892 8.892 0 0 0 9 20.487v.514c0 1.654 1.346 3 3 3s3-1.346 3-3v-.514a8.914 8.914 0 0 0 2.638-1.481l.445.275c1.41.867 3.26.43 4.128-.978a2.983 2.983 0 0 0 .367-2.267 2.982 2.982 0 0 0-1.344-1.862Zm.126 3.604a2.001 2.001 0 0 1-2.752.651l-.753-.465a.501.501 0 0 0-.592.05 7.927 7.927 0 0 1-2.91 1.634.499.499 0 0 0-.353.478v.875c0 1.103-.897 2-2 2s-2-.897-2-2v-.875a.5.5 0 0 0-.353-.478 7.927 7.927 0 0 1-2.91-1.634.5.5 0 0 0-.593-.05l-.753.465a2 2 0 0 1-2.1-3.403l.753-.465a.5.5 0 0 0 .221-.552C4.089 13.33 4 12.655 4 12s.089-1.33.265-2.009a.502.502 0 0 0-.221-.552l-.753-.465a1.987 1.987 0 0 1-.896-1.241 2 2 0 0 1 2.996-2.162l.753.465a.502.502 0 0 0 .592-.05 7.927 7.927 0 0 1 2.91-1.634.499.499 0 0 0 .353-.478v-.875c0-1.103.897-2 2-2s2 .897 2 2v.875a.5.5 0 0 0 .353.478 7.927 7.927 0 0 1 2.91 1.634.502.502 0 0 0 .592.05l.753-.465a2 2 0 1 1 2.1 3.403l-.753.465a.5.5 0 0 0-.221.552c.176.679.265 1.354.265 2.009s-.089 1.33-.265 2.009a.502.502 0 0 0 .221.552l.753.465c.455.28.772.721.896 1.241.123.52.036 1.057-.244 1.511ZM12 8c-2.206 0-4 1.794-4 4s1.794 4 4 4 4-1.794 4-4-1.794-4-4-4Zm0 7c-1.654 0-3-1.346-3-3s1.346-3 3-3 3 1.346 3 3-1.346 3-3 3Z" fill="none" stroke="#154194" stroke-width="1.4" stroke-linecap="round" stroke-linejoin="round"></path></g>
</g>
</svg>
