<svg xmlns="http://www.w3.org/2000/svg" version="1.1" xmlns:xlink="http://www.w3.org/1999/xlink" width="512" height="512" x="0" y="0" viewBox="0 0 682 682.667" style="enable-background:new 0 0 512 512" xml:space="preserve"><g><path d="M578.207 336.047h-18.75v-18.75h18.75zm-31.25 0h-18.75v-18.75h18.75zM543.832 217.871l-13.098-13.098-13.257 13.258 36.136 36.14 36.133-36.14-13.258-13.258-13.906 13.907V71.543H461.23v18.75h82.602zM445.875 549.54l-13.258-13.259-36.137 36.137 36.137 36.137 13.258-13.262-13.508-13.5h29.582v-18.75h-29.582zm0 0" fill="#154194" opacity="1" data-original="#000000"></path><path d="m327.152 411.242 76.828-76.828h19.16l-13.507 13.5 13.262 13.262 36.132-36.137-36.132-36.137-13.262 13.262 13.508 13.5h-19.16l-76.829-76.828v-77.563c37.141-4.304 66.676-33.847 70.985-70.98h38.093v-18.75h-38.093C393.473 31.328 359.223 0 317.777 0c-44.613 0-80.91 36.297-80.91 80.918 0 41.445 31.32 75.687 71.535 80.355v77.563l-76.82 76.828h-19.16l13.5-13.5-13.254-13.262-36.14 36.137 36.14 36.137 13.254-13.262-13.5-13.5h19.16l76.82 76.828v93.594H250.2V640h135.164v-52.145h-18.75v33.395H268.95v-97.664h97.664v39.27h18.75v-58.02h-58.21zM255.617 80.918c0-34.277 27.883-62.168 62.16-62.168 34.286 0 62.168 27.89 62.168 62.168 0 34.277-27.882 62.164-62.168 62.164-34.277 0-62.16-27.887-62.16-62.164zm62.16 175.062 69.063 69.06-69.063 69.058-69.054-69.059zM611.152 265.29H495.258l-24.238 24.237v71.024l24.238 24.246h48.574v178.25h-56.883v18.75h75.633V384.789h48.57l24.243-24.242v-71.02zm5.493 87.491-13.262 13.258H503.027l-13.257-13.258v-55.484l13.257-13.258h100.356l13.262 13.258zm0 0" fill="#154194" opacity="1" data-original="#000000"></path><path d="m189.688 549.54 13.5 13.503H91.73V486.09H72.98v95.703h130.207l-13.5 13.5 13.258 13.262 36.137-36.137-36.137-36.137zM72.98 461.09h18.75v-76.3h48.567l24.246-24.243v-71.02l-24.246-24.246H24.41L.168 289.527v71.02l24.242 24.242h48.57zM18.918 352.78v-55.484l13.254-13.258h100.363l13.258 13.258v55.484l-13.258 13.258H32.172zm0 0" fill="#154194" opacity="1" data-original="#000000"></path></g></svg>