<svg id="Ebene_1" data-name="Ebene 1" xmlns="http://www.w3.org/2000/svg" viewBox="0 0 24 24"><defs><style>.cls-1{fill:#999;}.cls-2{fill:#0069b4;}.cls-3{fill:none;}</style></defs><title>icon_workpiece_instock_1</title><g id="icon_workpiece_instock"><path class="cls-1" d="M21.6,12A9.8,9.8,0,0,1,12,21.6,9.8,9.8,0,0,1,2.4,12H0v9.12A2.88,2.88,0,0,0,2.88,24H21.12A2.88,2.88,0,0,0,24,21.12V12Z"/><g id="workpiece"><circle class="cls-2" cx="12" cy="12" r="8.14"/><path class="cls-1" d="M12,4.36A7.64,7.64,0,1,1,4.36,12,7.65,7.65,0,0,1,12,4.36m0-1A8.64,8.64,0,1,0,20.64,12,8.64,8.64,0,0,0,12,3.36Z"/></g><rect class="cls-3" width="24" height="24"/></g></svg>