<?xml version="1.0" encoding="UTF-8"?><svg id="Ebene_1" xmlns="http://www.w3.org/2000/svg" width="24" height="24" viewBox="0 0 24 24"><polygon points="13.2896 11.3777 11.9414 11.3777 12.1815 9.2169 10.2896 12.6223 11.6378 12.6223 11.3977 14.7831 13.2896 11.3777" fill="#0069b4" stroke-width="0"/><path d="m18,8.5c.2757,0,.5.2243.5.5v6c0,.2757-.2243.5-.5.5H4c-.2757,0-.5-.2243-.5-.5v-6c0-.2757.2243-.5.5-.5h14m0-1.5H4c-1.1046,0-2,.8954-2,2v6c0,1.1046.8954,2,2,2h14c1.1046,0,2-.8954,2-2v-6c0-1.1046-.8954-2-2-2h0Z" fill="#0069b4" stroke-width="0"/><rect x="4.5" y="9.5" width="2" height="5" rx=".4893" ry=".4893" fill="#0069b4" stroke-width="0"/><path d="m20.5,10h.2753c.676,0,1.2247.5488,1.2247,1.2247v1.5505c0,.676-.5488,1.2247-1.2247,1.2247h-.2753v-4h0Z" fill="#0069b4" stroke-width="0"/><rect width="24" height="24" fill="none" stroke-width="0"/></svg>