<?xml version="1.0" encoding="UTF-8"?><svg id="Ebene_1" xmlns="http://www.w3.org/2000/svg" width="24" height="24" viewBox="0 0 24 24"><path d="m22,21H2v-6c3.1045,0,7,0,7,0l2,2s8.6726,0,11,0v4Z" fill="#0069b4" stroke-width="0"/><polygon points="14 9 15 6 15 2 9 2 9 6 10 9 11.25 9 11.25 14 9.5 14 11.5 16 12.5 16 14.5 14 12.75 14 12.75 9 14 9" fill="#0069b4" stroke-width="0"/><circle cx="6" cy="12.5" r=".5" fill="#0069b4" stroke-width="0"/><circle cx="8" cy="12.5" r=".5" fill="#0069b4" stroke-width="0"/><circle cx="7" cy="13.5" r=".5" fill="#0069b4" stroke-width="0"/><circle cx="18" cy="15.5" r=".5" fill="#0069b4" stroke-width="0"/><circle cx="16" cy="15.5" r=".5" fill="#0069b4" stroke-width="0"/><circle cx="17" cy="14.5" r=".5" fill="#0069b4" stroke-width="0"/><rect width="24" height="24" fill="none" stroke-width="0"/></svg>