<svg xmlns="http://www.w3.org/2000/svg" width="1920" height="1080" viewBox="0 0 1920 1080"><defs>
      <linearGradient id="uc02_bgGrad" x1="0" y1="0" x2="0" y2="1">
        <stop offset="0%" stop-color="#fafbfc"></stop>
        <stop offset="100%" stop-color="#ffffff"></stop>
      </linearGradient>
      <linearGradient id="uc02_dspGrad" x1="0" y1="0" x2="0" y2="1">
        <stop offset="0%" stop-color="#ffffff"></stop>
        <stop offset="100%" stop-color="#dae8fc"></stop>
      </linearGradient>
      <marker id="uc02_arrow" markerWidth="10" markerHeight="10" refX="5" refY="5" orient="auto">
        <polygon points="0,0 10,5 0,10" fill="#1f1f1f"></polygon>
      </marker>
      <style>
        .uc02-title { font: 700 40px "Segoe UI",Arial,sans-serif; fill: #16203b; }
        .uc02-subtitle { font: 400 22px "Segoe UI",Arial,sans-serif; fill: #555555; }
        .uc02-panel-title { font: 700 22px "Segoe UI",Arial,sans-serif; fill: #16203b; }
        .uc02-source-title { font: 700 20px "Segoe UI",Arial,sans-serif; fill: #16203b; }
        .uc02-source-sub { font: 400 16px "Segoe UI",Arial,sans-serif; fill: #555555; font-style: italic; }
        .uc02-step-title { font: 700 18px "Segoe UI",Arial,sans-serif; fill: #16203b; }
        .uc02-step-sub { font: 400 14px "Segoe UI",Arial,sans-serif; fill: #555555; }
        .uc02-target { font: 700 18px "Segoe UI",Arial,sans-serif; fill: #16203b; }
        .uc02-note { font: 400 14px "Segoe UI",Arial,sans-serif; fill: #16203b; }
        .uc02-footer { font: 400 16px "Segoe UI",Arial,sans-serif; fill: #555555; }
      </style>
    </defs><g id="uc02_root"><rect x="0" y="0" width="1920" height="1080" fill="url(#uc02_bgGrad)"></rect><g id="uc02_title"><text x="960" y="48" text-anchor="middle" class="uc02-title">Datenaggregation: 3 Datentöpfe für belastbare KPIs</text></g><g id="uc02_subtitle"><text x="960" y="82" text-anchor="middle" class="uc02-subtitle">Business + Shopfloor + Umwelt: erst die Kombination macht KPIs erklärbar und steuerbar.</text></g><g id="uc02_col_sources"><g id="uc02_src_business"><path d="M 83 222 A 107 22 0 0 0 297 222 L 297 318 A 107 22 0 0 1 83 318 Z" fill="#d5e8d4" stroke="#82b366" stroke-width="2"></path><ellipse cx="190" cy="222" rx="107" ry="22" fill="#d5e8d4" stroke="#82b366" stroke-width="2"></ellipse><text x="190" y="265.6" text-anchor="middle" class="uc02-source-title">Business-Daten</text><text x="190" y="292.4" text-anchor="middle" class="uc02-source-sub">ERP, Order, Material</text></g><g id="uc02_src_shopfloor"><path d="M 83 442 A 107 22 0 0 0 297 442 L 297 538 A 107 22 0 0 1 83 538 Z" fill="#f5f5f5" stroke="#666666" stroke-width="2"></path><ellipse cx="190" cy="442" rx="107" ry="22" fill="#f5f5f5" stroke="#666666" stroke-width="2"></ellipse><text x="190" y="485.6" text-anchor="middle" class="uc02-source-title">Shopfloor-Daten</text><text x="190" y="512.4" text-anchor="middle" class="uc02-source-sub">Events, FTS, Qualität</text></g><g id="uc02_src_env"><path d="M 83 662 A 107 22 0 0 0 297 662 L 297 758 A 107 22 0 0 1 83 758 Z" fill="#e1d5e7" stroke="#9673a6" stroke-width="2"></path><ellipse cx="190" cy="662" rx="107" ry="22" fill="#e1d5e7" stroke="#9673a6" stroke-width="2"></ellipse><text x="190" y="705.6" text-anchor="middle" class="uc02-source-title">Umwelt-Daten</text><text x="190" y="732.4" text-anchor="middle" class="uc02-source-sub">Energie, Temp, Vibration</text></g></g><g id="uc02_container_dsp"><rect id="uc02_container_dsp_rect" x="697.5" y="140" width="525" height="744" rx="10" fill="url(#uc02_dspGrad)" stroke="#6c8ebf" stroke-width="2"></rect><text x="960" y="175" text-anchor="middle" class="uc02-panel-title">DSP Kontextmodell &amp; Vermittlung</text><g id="uc02_step_normalize"><path d="M 790 220 L 1130 220 L 1130 292 L 1045 292 L 960 340 L 875 292 L 790 292 Z" fill="#dae8fc" stroke="#6c8ebf" stroke-width="1.5"></path><text x="960" y="252" text-anchor="middle" class="uc02-step-title">1. Normalize</text><text x="960" y="278" text-anchor="middle" class="uc02-step-sub">Units, Formate</text></g><g id="uc02_step_enrich"><path d="M 790 452 L 1130 452 L 1130 524 L 1045 524 L 960 572 L 875 524 L 790 524 Z" fill="#dae8fc" stroke="#6c8ebf" stroke-width="1.5"></path><text x="960" y="484" text-anchor="middle" class="uc02-step-title">2. Enrich</text><text x="960" y="510" text-anchor="middle" class="uc02-step-sub">Kontext anreichern</text></g><g id="uc02_step_correlate"><path d="M 790 684 L 1130 684 L 1130 756 L 1045 756 L 960 804 L 875 756 L 790 756 Z" fill="#dae8fc" stroke="#6c8ebf" stroke-width="1.5"></path><text x="960" y="716" text-anchor="middle" class="uc02-step-title">3. Correlate</text><text x="960" y="742" text-anchor="middle" class="uc02-step-sub">Daten verknüpfen</text></g></g><g id="uc02_note_context">
      <path d="M 1280 150 L 1424 150 L 1440 172.5 L 1440 240 L 1280 240 Z" fill="#dae8fc" stroke="#6c8ebf" stroke-width="1"></path>
      <path d="M 1424 150 L 1424 172.5 L 1440 172.5 Z" fill="#dae8fc" stroke="#6c8ebf" stroke-width="1"></path>
      <text x="1360" y="178" text-anchor="middle" class="uc02-note">Order ↔</text>
      <text x="1360" y="194" text-anchor="middle" class="uc02-note">Werkstück-ID ↔</text>
      <text x="1360" y="210" text-anchor="middle" class="uc02-note">Station</text>
    </g><g id="uc02_col_targets"><g id="uc02_tgt_analytics"><rect x="1480" y="200" width="300" height="140" rx="10" ry="10" fill="#ffe6cc" stroke="#d79b00" stroke-width="2"></rect><text x="1630" y="278" text-anchor="middle" class="uc02-target">Analytics &amp; AI App</text></g><g id="uc02_tgt_bi"><rect x="1480" y="420" width="300" height="140" rx="10" ry="10" fill="#ffe6cc" stroke="#d79b00" stroke-width="2"></rect><text x="1630" y="498" text-anchor="middle" class="uc02-target">BI / Data Lake</text></g><g id="uc02_tgt_closed_loop"><rect x="1480" y="640" width="300" height="140" rx="10" ry="10" fill="#ffe6cc" stroke="#d79b00" stroke-width="2"></rect><text x="1630" y="718" text-anchor="middle" class="uc02-target">Closed Loop / ERP</text></g></g><g id="uc02_connections"><path id="uc02_conn_business_norm" d="M 300 270 L 790 270" stroke="#1f1f1f" stroke-width="2" fill="none" marker-end="url(#uc02_arrow)"></path><path id="uc02_conn_business_enrich" d="M 300 270 L 545 270 L 545 490 L 790 490" stroke="#1f1f1f" stroke-width="2" fill="none" marker-end="url(#uc02_arrow)"></path><path id="uc02_conn_business_corr" d="M 300 270 L 545 270 L 545 710 L 790 710" stroke="#1f1f1f" stroke-width="2" fill="none" marker-end="url(#uc02_arrow)"></path><path id="uc02_conn_shopfloor_norm" d="M 300 490 L 545 490 L 545 270 L 790 270" stroke="#1f1f1f" stroke-width="2" fill="none" marker-end="url(#uc02_arrow)"></path><path id="uc02_conn_shopfloor_enrich" d="M 300 490 L 790 490" stroke="#1f1f1f" stroke-width="2" fill="none" marker-end="url(#uc02_arrow)"></path><path id="uc02_conn_shopfloor_corr" d="M 300 490 L 545 490 L 545 710 L 790 710" stroke="#1f1f1f" stroke-width="2" fill="none" marker-end="url(#uc02_arrow)"></path><path id="uc02_conn_env_norm" d="M 300 710 L 545 710 L 545 270 L 790 270" stroke="#1f1f1f" stroke-width="2" fill="none" marker-end="url(#uc02_arrow)"></path><path id="uc02_conn_env_enrich" d="M 300 710 L 545 710 L 545 490 L 790 490" stroke="#1f1f1f" stroke-width="2" fill="none" marker-end="url(#uc02_arrow)"></path><path id="uc02_conn_env_corr" d="M 300 710 L 790 710" stroke="#1f1f1f" stroke-width="2" fill="none" marker-end="url(#uc02_arrow)"></path><line id="uc02_conn_norm_enrich" x1="960" y1="340" x2="960" y2="452" stroke="#1f1f1f" stroke-width="2" marker-end="url(#uc02_arrow)"></line><line id="uc02_conn_enrich_corr" x1="960" y1="572" x2="960" y2="684" stroke="#1f1f1f" stroke-width="2" marker-end="url(#uc02_arrow)"></line><path id="uc02_conn_corr_analytics" d="M 960 804 L 960 854 L 1305 854 L 1305 270 L 1480 270" stroke="#1f1f1f" stroke-width="2" fill="none" marker-end="url(#uc02_arrow)"></path><path id="uc02_conn_corr_bi" d="M 960 804 L 960 854 L 1305 854 L 1305 490 L 1480 490" stroke="#1f1f1f" stroke-width="2" fill="none" marker-end="url(#uc02_arrow)"></path><path id="uc02_conn_corr_closed" d="M 960 804 L 960 854 L 1305 854 L 1305 710 L 1480 710" stroke="#1f1f1f" stroke-width="2" fill="none" marker-end="url(#uc02_arrow)"></path></g><g id="uc02_edge_feedback">
      <path d="M 1630 780 L 1630 1010 L 50 1010 L 50 270 L 80 270" stroke="#1f1f1f" stroke-width="2" stroke-dasharray="8 4" fill="none" marker-end="url(#uc02_arrow)"></path>
      <text x="130" y="998" text-anchor="middle" font-size="14" fill="#555555">Feedback</text>
    </g><g id="uc02_step_description" style="display: none;"><rect x="260" y="20" width="1400" height="100" rx="8" ry="8" fill="#64a70b" opacity="0.95"></rect><text id="uc02_step_description_title" x="960" y="48" text-anchor="middle" font-size="24" font-weight="700" fill="#ffffff"></text><text id="uc02_step_description_text" x="960" y="78" text-anchor="middle" font-size="16" font-weight="400" fill="#ffffff"></text></g></g></svg>