<svg xmlns="http://www.w3.org/2000/svg" version="1.1" xmlns:xlink="http://www.w3.org/1999/xlink" width="512" height="512" x="0" y="0" viewBox="0 0 60 60" style="enable-background:new 0 0 512 512" xml:space="preserve" class=""><g><path d="M3 60h54a3 3 0 0 0 3-3V44.169a3.006 3.006 0 0 0-1.091-2.321 2.942 2.942 0 0 0-2.426-.636 12.756 12.756 0 0 0-2.707.865A12.484 12.484 0 0 1 52 42.7V5c0-4.859-19.748-5-22-5S8 .141 8 5v37.706a12.309 12.309 0 0 1-1.787-.63 12.678 12.678 0 0 0-2.695-.862 2.936 2.936 0 0 0-2.425.633A3.009 3.009 0 0 0 0 44.17V57a3 3 0 0 0 3 3ZM30 2c12.166 0 19.239 1.89 19.975 3C49.239 6.11 42.166 8 30 8S10.761 6.11 10.025 5C10.761 3.89 17.834 2 30 2ZM10 7.344C15.072 9.907 28.189 10 30 10s14.928-.093 20-2.656v7.605C49.454 16.051 42.355 18 30 18c-12.4 0-19.515-1.965-20-3Zm0 10C15.072 19.907 28.189 20 30 20s14.928-.093 20-2.656v7.605C49.454 26.051 42.355 28 30 28c-12.4 0-19.515-1.965-20-3Zm0 10C15.072 29.907 28.189 30 30 30s14.928-.093 20-2.656v7.6C49.454 36.051 42.355 38 30 38c-12.4 0-19.515-1.965-20-3Zm0 10C15.072 39.907 28.189 40 30 40s14.928-.093 20-2.656v5.639c-.213.009-.432.017-.67.017a9.983 9.983 0 0 1-4.458-.925A11.814 11.814 0 0 0 39.66 41a11.818 11.818 0 0 0-5.212 1.075A9.983 9.983 0 0 1 29.99 43a9.961 9.961 0 0 1-4.447-.924A11.8 11.8 0 0 0 20.33 41a11.962 11.962 0 0 0-5.223 1.077A9.967 9.967 0 0 1 10.66 43c-.234 0-.45-.008-.66-.017ZM2 44.17a1.014 1.014 0 0 1 .369-.783.95.95 0 0 1 .6-.225 1 1 0 0 1 .175.017 10.945 10.945 0 0 1 2.3.745A11.8 11.8 0 0 0 10.66 45a11.814 11.814 0 0 0 5.212-1.075A9.983 9.983 0 0 1 20.33 43a9.961 9.961 0 0 1 4.447.924A11.8 11.8 0 0 0 29.99 45a11.962 11.962 0 0 0 5.223-1.077A9.967 9.967 0 0 1 39.66 43a9.967 9.967 0 0 1 4.447.923A11.962 11.962 0 0 0 49.33 45a11.806 11.806 0 0 0 5.211-1.075 10.918 10.918 0 0 1 2.31-.746.926.926 0 0 1 .78.207 1.017 1.017 0 0 1 .369.783V57a1 1 0 0 1-1 1H3a1 1 0 0 1-1-1Z" fill="#154194" opacity="1" data-original="#000000" class=""></path><path d="M21.921 14.7c.658.052 1.334.1 2.023.136h.057a1 1 0 0 0 .055-2q-1.011-.057-1.977-.134a1 1 0 1 0-.158 1.994ZM28.991 15h2.018A1 1 0 0 0 32 13.986.976.976 0 0 0 30.991 13H29a1 1 0 0 0-.009 2ZM36 14.834h.057a85.384 85.384 0 0 0 2.023-.136 1 1 0 1 0-.158-1.994q-.965.078-1.977.134a1 1 0 0 0 .055 2ZM21.921 24.7c.658.052 1.334.1 2.023.136h.057a1 1 0 0 0 .055-2q-1.011-.057-1.977-.134A1.014 1.014 0 0 0 21 23.62a1 1 0 0 0 .921 1.08ZM28.991 25h2.018A1 1 0 0 0 31 23h-1.991a1 1 0 0 0-.018 2ZM36 24.834h.057a85.384 85.384 0 0 0 2.023-.136A1 1 0 0 0 39 23.62a1.011 1.011 0 0 0-1.076-.918q-.965.078-1.977.134a1 1 0 0 0 .055 2ZM21.921 34.7c.658.052 1.334.1 2.023.136h.057a1 1 0 0 0 .055-2q-1.011-.057-1.977-.134A1.011 1.011 0 0 0 21 33.62a1 1 0 0 0 .921 1.08ZM28.991 34.995 30 35l1.009-.005a1 1 0 1 0-.018-2L30 33l-.991-.005H29a1 1 0 0 0-.009 2ZM36 34.834h.057a85.384 85.384 0 0 0 2.023-.136 1 1 0 1 0-.158-1.994q-.965.078-1.977.134a1 1 0 0 0 .055 2ZM4.65 49.6c.275.1.537.212.8.321A11.938 11.938 0 0 0 10.66 51a11.814 11.814 0 0 0 5.212-1.075A9.983 9.983 0 0 1 20.33 49a9.961 9.961 0 0 1 4.447.924A11.8 11.8 0 0 0 29.99 51a11.962 11.962 0 0 0 5.223-1.077A9.967 9.967 0 0 1 39.66 49a9.967 9.967 0 0 1 4.447.923A11.962 11.962 0 0 0 49.33 51a11.816 11.816 0 0 0 5.213-1.075 22.6 22.6 0 0 1 .807-.323 1 1 0 1 0-.7-1.873c-.3.111-.586.229-.872.347A9.956 9.956 0 0 1 49.33 49a9.983 9.983 0 0 1-4.458-.925A11.814 11.814 0 0 0 39.66 47a11.818 11.818 0 0 0-5.212 1.075A9.983 9.983 0 0 1 29.99 49a9.961 9.961 0 0 1-4.447-.924A11.8 11.8 0 0 0 20.33 47a11.962 11.962 0 0 0-5.223 1.077A9.967 9.967 0 0 1 10.66 49a9.946 9.946 0 0 1-4.446-.924 29.334 29.334 0 0 0-.864-.345 1 1 0 1 0-.7 1.873Z" fill="#154194" opacity="1" data-original="#000000" class=""></path></g></svg>